<?xml version="1.0" encoding="utf-8"?>
<!-- Generator: Adobe Illustrator 26.0.1, SVG Export Plug-In . SVG Version: 6.00 Build 0)  -->
<svg version="1.1" id="Calque_1" xmlns="http://www.w3.org/2000/svg" xmlns:xlink="http://www.w3.org/1999/xlink" x="0px" y="0px"
	 viewBox="0 0 346 121.2" style="enable-background:new 0 0 346 121.2;" xml:space="preserve">
<g>
	<rect x="0" y="0" width="15" height="116"/>
	<polygon points="25,49.2 25,116 40,116 40,64.2 59.9,64.2 99.5,116 118.4,116 67.3,49.2 	"/>
	<polygon points="189.3,96.2 189.3,30.1 174.3,30.1 174.3,81.2 154.7,81.2 115.6,30.1 96.7,30.1 147.3,96.2 	"/>
</g>
<polygon points="199.3,30.1 199.3,106.2 142.4,106.2 79.6,24.2 40,24.2 40,0 25,0 25,39.2 72.2,39.2 135,121.2 214.3,121.2 
	214.3,30.1 "/>
<g>
	<path d="M233.6,54.1v-24h4.6V40h9.6v-9.9h4.6v24h-4.6V43.9h-9.6v10.3H233.6z"/>
	<path d="M258,45.6V30.1h4.6v15.6c0,1.5,0.4,2.8,1.2,3.7c0.8,0.9,2,1.3,3.6,1.3c1.6,0,2.8-0.4,3.6-1.3c0.8-0.9,1.2-2.1,1.2-3.7V30.1
		h4.5v15.5c0,1.4-0.2,2.6-0.7,3.8s-1.1,2.1-1.9,2.9c-0.8,0.8-1.8,1.4-2.9,1.8c-1.1,0.4-2.5,0.6-3.9,0.6c-1.5,0-2.8-0.2-3.9-0.6
		c-1.1-0.4-2.1-1-2.9-1.8c-0.8-0.8-1.4-1.7-1.9-2.8C258.2,48.3,258,47,258,45.6z"/>
	<path d="M281.4,42.2c0-1.9,0.2-3.6,0.6-5.2c0.4-1.6,1.1-2.9,1.9-4c0.9-1.1,2-1.9,3.3-2.5c1.3-0.6,2.9-0.9,4.7-0.9
		c1.3,0,2.4,0.2,3.5,0.5s2,0.9,2.8,1.5c0.8,0.7,1.4,1.5,1.9,2.4c0.5,1,0.8,2,0.8,3.2h-4.6c-0.3-2.5-1.9-3.8-4.8-3.8
		c-1.5,0-2.8,0.4-3.8,1.3c-1,0.9-1.4,2.1-1.4,3.6v7.3c0,0.7,0.1,1.4,0.4,2c0.3,0.6,0.6,1.1,1.1,1.6c0.5,0.4,1,0.8,1.7,1
		c0.6,0.2,1.3,0.4,2.1,0.4c1.5,0,2.8-0.4,3.7-1.2c0.9-0.8,1.4-2,1.4-3.7v-1h-4.9v-3.9h9.5v13.1H297l-0.1-2.2
		c-1.2,1.8-3.1,2.7-5.8,2.7c-1.6,0-3-0.3-4.3-0.9c-1.2-0.6-2.2-1.5-3.1-2.6c-0.8-1.1-1.4-2.4-1.8-3.9
		C281.6,45.7,281.4,44,281.4,42.2z"/>
	<path d="M305.5,42.2c0-4.1,0.9-7.2,2.8-9.3c1.9-2.1,4.5-3.2,7.9-3.2c3.4,0,6,1.1,7.9,3.2s2.8,5.2,2.8,9.3c0,4.1-0.9,7.2-2.8,9.3
		c-1.9,2.1-4.5,3.2-7.9,3.2c-3.4,0-6-1.1-7.9-3.2C306.4,49.4,305.5,46.3,305.5,42.2z M310.4,45.9c0,0.8,0.2,1.5,0.5,2.1
		c0.3,0.6,0.7,1.1,1.2,1.6c0.5,0.4,1.1,0.7,1.8,0.9c0.7,0.2,1.4,0.3,2.2,0.3s1.6-0.1,2.2-0.3c0.7-0.2,1.3-0.5,1.8-0.9
		c0.5-0.4,0.9-0.9,1.2-1.6s0.5-1.3,0.5-2.1v-7.4c0-0.8-0.2-1.5-0.5-2.1c-0.3-0.6-0.7-1.1-1.2-1.6c-0.5-0.4-1.1-0.7-1.8-1
		c-0.7-0.2-1.4-0.3-2.2-0.3s-1.6,0.1-2.2,0.3c-0.7,0.2-1.3,0.5-1.8,1c-0.5,0.4-0.9,0.9-1.2,1.6c-0.3,0.6-0.5,1.3-0.5,2.1V45.9z"/>
</g>
<path d="M231.6,62.1h4.9l5.1,18.7h0.1l5-18.7h5l-7.6,24h-5.1L231.6,62.1z"/>
<path d="M254.9,74.1c0-4.1,0.9-7.2,2.8-9.3c1.9-2.1,4.5-3.2,7.9-3.2c3.4,0,6,1.1,7.9,3.2c1.9,2.1,2.8,5.2,2.8,9.3
	c0,4.1-0.9,7.2-2.8,9.3s-4.5,3.2-7.9,3.2c-3.4,0-6-1.1-7.9-3.2C255.8,81.3,254.9,78.2,254.9,74.1z M259.8,77.8
	c0,0.8,0.2,1.5,0.5,2.1c0.3,0.6,0.7,1.1,1.2,1.6c0.5,0.4,1.1,0.7,1.8,0.9c0.7,0.2,1.4,0.3,2.2,0.3c0.8,0,1.6-0.1,2.2-0.3
	c0.7-0.2,1.3-0.5,1.8-0.9c0.5-0.4,0.9-0.9,1.2-1.6c0.3-0.6,0.5-1.3,0.5-2.1v-7.4c0-0.8-0.2-1.5-0.5-2.1c-0.3-0.6-0.7-1.1-1.2-1.6
	c-0.5-0.4-1.1-0.7-1.8-1c-0.7-0.2-1.4-0.3-2.2-0.3c-0.8,0-1.6,0.1-2.2,0.3c-0.7,0.2-1.3,0.5-1.8,1c-0.5,0.4-0.9,0.9-1.2,1.6
	c-0.3,0.6-0.5,1.3-0.5,2.1V77.8z"/>
<path d="M281.2,86.1v-24h4.6v24H281.2z"/>
<path d="M290.2,78.9h4.6c0.2,1.4,0.7,2.4,1.6,3c0.9,0.6,2.1,0.9,3.5,0.9c1.3,0,2.5-0.3,3.4-0.8c0.9-0.6,1.4-1.4,1.4-2.4
	c0-0.9-0.3-1.5-0.8-2c-0.5-0.5-1.3-0.9-2.4-1.2l-4.7-1.2c-2-0.5-3.4-1.4-4.4-2.5c-1-1.2-1.4-2.6-1.4-4.4c0-1,0.2-1.9,0.6-2.7
	c0.4-0.8,1-1.5,1.7-2.1s1.7-1,2.7-1.4c1.1-0.3,2.3-0.5,3.6-0.5c1.2,0,2.4,0.1,3.4,0.4c1.1,0.3,2,0.7,2.7,1.3
	c0.8,0.6,1.4,1.3,1.9,2.3c0.5,0.9,0.8,2,0.9,3.2h-4.6c-0.1-0.7-0.2-1.2-0.5-1.7c-0.3-0.4-0.6-0.8-1-1.1c-0.4-0.3-0.9-0.5-1.4-0.6
	c-0.5-0.1-1-0.2-1.6-0.2c-1.3,0-2.3,0.3-3,0.8c-0.7,0.5-1.1,1.2-1.1,2.1c0,0.9,0.3,1.6,0.9,2.1c0.6,0.5,1.4,0.9,2.6,1.2l4.1,1.1
	c2,0.5,3.6,1.4,4.6,2.5c1,1.1,1.6,2.6,1.6,4.6c0,1.1-0.2,2.1-0.7,3c-0.4,0.9-1.1,1.6-1.9,2.2c-0.8,0.6-1.8,1.1-2.9,1.4
	c-1.1,0.3-2.4,0.5-3.8,0.5c-1.3,0-2.6-0.1-3.7-0.4c-1.1-0.3-2.1-0.7-3-1.3c-0.9-0.6-1.6-1.4-2.1-2.4
	C290.6,81.5,290.3,80.3,290.2,78.9z"/>
<path d="M313.8,86.1v-24h4.6v24H313.8z"/>
<path d="M324.4,86.1v-24h6.8l7.2,18.3h0.1V62.1h4.6v24h-6.9L329,67.8h-0.1v18.3H324.4z"/>
</svg>
