<svg xmlns="http://www.w3.org/2000/svg" width="14.887mm" height="16.269mm" viewBox="0 0 42.199 46.116">
  <g>
    <path d="M37.858,21.091a2.4,2.4,0,0,0-2.72-.255,1.356,1.356,0,0,0-.689,1.023c-.077.828.733,1.584,1.807,1.685.081.007.161.011.241.011a2.221,2.221,0,0,0,1.159-.309,1.287,1.287,0,0,0,.2-2.155"/>
    <path d="M32.553,30.007c-.662-.146-1.262.111-1.366.584s.333.958,1,1.1a1.671,1.671,0,0,0,.361.04,1.37,1.37,0,0,0,.5-.089.766.766,0,0,0,.506-.535c.1-.473-.334-.958-1-1.1"/>
    <path d="M34.554,28.441c-.715-.139-1.362.165-1.463.686s.387,1.044,1.1,1.185a1.829,1.829,0,0,0,.343.034,1.459,1.459,0,0,0,.59-.118.848.848,0,0,0,.53-.6c.1-.521-.387-1.045-1.1-1.184"/>
    <path d="M35.79,26.409a1.26,1.26,0,0,0-1.56.789c-.1.569.441,1.131,1.207,1.265a1.894,1.894,0,0,0,.324.029,1.574,1.574,0,0,0,.682-.147.93.93,0,0,0,.554-.67c.1-.57-.441-1.134-1.207-1.266"/>
    <path d="M36.353,23.8a1.358,1.358,0,0,0-1.657.891c-.094.617.5,1.222,1.313,1.347a1.989,1.989,0,0,0,.306.023,1.7,1.7,0,0,0,.773-.176,1.013,1.013,0,0,0,.579-.738c.094-.617-.5-1.221-1.314-1.347"/>
    <path d="M31.484,16a1.049,1.049,0,0,0-.3,1.735,1.83,1.83,0,0,0,1.023.522,2.1,2.1,0,0,0,.342.029,1.74,1.74,0,0,0,.8-.183,1.048,1.048,0,0,0,.3-1.736A1.925,1.925,0,0,0,31.484,16"/>
    <path d="M29.342,10.707a1.1,1.1,0,0,0,.5.112,1.284,1.284,0,0,0,.151-.008,1.144,1.144,0,0,0,.607-.25.568.568,0,0,0-.115-.992,1.216,1.216,0,0,0-1.256.146.568.568,0,0,0,.115.992"/>
    <path d="M30.27,11.452a.678.678,0,0,0,.382.523,1.18,1.18,0,0,0,.556.132l.067,0c.032,0,.064,0,.1-.008a1.2,1.2,0,0,0,.639-.268.623.623,0,0,0-.111-1.072,1.28,1.28,0,0,0-1.363.125.67.67,0,0,0-.266.57"/>
    <path d="M31.251,12.332a.73.73,0,0,0-.294.609.744.744,0,0,0,.411.584,1.255,1.255,0,0,0,.614.152l.072,0c.034,0,.069-.005.1-.009a1.249,1.249,0,0,0,.671-.286.68.68,0,0,0-.106-1.153,1.351,1.351,0,0,0-1.471.105"/>
    <path d="M32.211,13.87c-.631.032-1.124.45-1.1.931a1.017,1.017,0,0,0,1.111.816c.026,0,.052,0,.078,0,.63-.032,1.123-.45,1.1-.931a.783.783,0,0,0-.387-.616,1.359,1.359,0,0,0-.8-.2"/>
    <path d="M21.042,12.586a18.11,18.11,0,0,1,2.47-.177c2.783,0,4.024.89,4.024,2.885,0,1.615-1.251,2.433-3.719,2.433H21.169c-.027-1.554-.07-3.28-.127-5.141M34.116,24.263c0-4.069-3.529-5.462-5.228-6.023A3.588,3.588,0,0,0,30.6,15.133c-.008-3.432-2.231-5.4-6.1-5.4a32.522,32.522,0,0,0-3.573.185c-.5-7.664-2.35-9.37-5.472-9.682C13.934.084,10.21.4,8.419,6.577,7.429,9.99,6.357,17.251,6.6,18.909A1.482,1.482,0,0,0,8.11,20.256,1.447,1.447,0,0,0,9.486,18.8a37.971,37.971,0,0,1,1.14-11.543c.929-3.3,2.461-4.849,4.549-4.583,1.336.169,2.635.932,3.092,5.336.069.668.12,1.455.156,2.32a18.069,18.069,0,0,0-6.651,2.953,1.4,1.4,0,0,0-.625.754h0a1.163,1.163,0,0,0,.413,1.258,1.253,1.253,0,0,0,1.408.069A22.368,22.368,0,0,1,18.49,13.1c.047,4.45-.137,9.671-.213,11.829l-.019.553a1.426,1.426,0,0,0,1.427,1.474,1.432,1.432,0,0,0,1.423-1.314c.084-1.069.114-2.965.093-5.488h2.521c.076,0,7.578.11,7.578,4.047,0,3.085-2.781,4.465-5.537,4.465-5.865,0-12.559-2.656-14.881-3.942a1.7,1.7,0,0,0-1.374-.2.989.989,0,0,0-.587.651,1.372,1.372,0,0,0,.678,1.64c.2.105.43.225.679.359a32.534,32.534,0,0,0,15.994,4.307h.017c1.217,0,7.827-1.331,7.827-7.216"/>
    <path d="M16.864,6.049a2.236,2.236,0,1,0-2.236,2.236,2.238,2.238,0,0,0,2.236-2.236"/>
    <path d="M5.179,36.721l-.316-.946c-.068-.207-.146-.564-.146-.564h-.01s-.078.357-.145.564l-.317.946Zm-2.158.952H3.1a.14.14,0,0,0,.161-.117l1.1-3.068h.71l1.089,3.068a.14.14,0,0,0,.161.117H6.4v.59H6a.375.375,0,0,1-.436-.309L5.335,37.3H4.09l-.228.658a.371.371,0,0,1-.431.309h-.41Z"/>
    <path d="M6.893,36.243a.1.1,0,0,0-.114-.117H6.571v-.574h.607c.234,0,.348.111.348.3v.08a.734.734,0,0,1-.011.117h.011a1.014,1.014,0,0,1,.934-.564c.585,0,.923.314.923,1.032v1.057a.1.1,0,0,0,.114.117H9.7v.569H9.077c-.249,0-.353-.106-.353-.361V36.658c0-.33-.083-.553-.415-.553a.729.729,0,0,0-.711.553,1.172,1.172,0,0,0-.052.361v1.244H6.893Z"/>
    <path d="M10.23,36.243a.1.1,0,0,0-.114-.117H9.908v-.574h.607c.234,0,.348.111.348.3v.08a.734.734,0,0,1-.011.117h.011a1.014,1.014,0,0,1,.934-.564c.585,0,.923.314.923,1.032v1.057a.1.1,0,0,0,.114.117h.207v.569h-.627c-.25,0-.353-.106-.353-.361V36.658c0-.33-.083-.553-.415-.553a.729.729,0,0,0-.711.553,1.172,1.172,0,0,0-.052.361v1.244H10.23Z"/>
    <path d="M13.619,34.489h.571v.622h-.571Zm-.031,1.754a.1.1,0,0,0-.114-.117h-.208v-.574h.628c.244,0,.347.111.347.361v1.664a.105.105,0,0,0,.114.117h.208v.569h-.627c-.244,0-.348-.106-.348-.361Z"/>
    <path d="M16.7,36.556a.52.52,0,0,0-.5-.547.637.637,0,0,0-.648.547Zm-.5-1.068a1.163,1.163,0,0,1,1.172,1.286c0,.08-.015.25-.015.25H15.529a.768.768,0,0,0,.794.729,1.187,1.187,0,0,0,.741-.3l.275.467a1.587,1.587,0,0,1-1.063.41,1.373,1.373,0,0,1-1.422-1.42A1.322,1.322,0,0,1,16.2,35.488"/>
    <path d="M20.257,37.674h.528a.546.546,0,0,0,0-1.09h-.643v.972a.106.106,0,0,0,.115.118m.466-1.643a.441.441,0,0,0,.446-.484.427.427,0,0,0-.456-.468h-.571v.952Zm-1.26-.952h-.337v-.59h1.592c.664,0,1.141.351,1.141.973a.883.883,0,0,1-.446.808v.011a.883.883,0,0,1,.591.887c0,.755-.585,1.1-1.27,1.1h-.918c-.244,0-.353-.107-.353-.362Z"/>
    <path d="M23.454,37.8a.691.691,0,0,0,.6-.712v-.064h-.115c-.342,0-.887.048-.887.426a.356.356,0,0,0,.4.35m.508-1.238h.083v-.021c0-.388-.15-.532-.487-.532-.12,0-.353.032-.353.181v.143h-.612v-.287c0-.505.7-.558.97-.558.882,0,1.141.473,1.141,1.079v1.01a.105.105,0,0,0,.114.117h.208v.569h-.592c-.243,0-.337-.138-.337-.3,0-.069,0-.117,0-.117h-.01a.861.861,0,0,1-.8.479.845.845,0,0,1-.9-.846c0-.85,1.142-.919,1.572-.919"/>
    <path d="M25.556,36.243a.1.1,0,0,0-.114-.117h-.207v-.574h.6c.234,0,.353.1.353.33v.159a1.31,1.31,0,0,1-.01.17h.01a.915.915,0,0,1,.84-.7.894.894,0,0,1,.12.01v.665a1.116,1.116,0,0,0-.161-.011.747.747,0,0,0-.721.569,1.694,1.694,0,0,0-.057.441v1.074h-.654Z"/>
    <path d="M28.919,37.758c.358,0,.664-.3.664-.84,0-.516-.27-.85-.659-.85-.342,0-.664.255-.664.856,0,.42.218.834.659.834m-1.3-2.578a.1.1,0,0,0-.114-.117H27.3v-.574h.627c.244,0,.353.111.353.361v.787a2.229,2.229,0,0,1-.011.229h.011a.934.934,0,0,1,.794-.378c.715,0,1.172.58,1.172,1.42a1.265,1.265,0,0,1-1.214,1.419.937.937,0,0,1-.788-.383h-.011a1.38,1.38,0,0,1,.011.181v.138h-.623Z"/>
    <path d="M32.033,37.753a.848.848,0,1,0-.783-.846.8.8,0,0,0,.783.846m0-2.265a1.42,1.42,0,1,1-1.447,1.419,1.4,1.4,0,0,1,1.447-1.419"/>
    <path d="M33.741,37.9l1.219-1.526a2.217,2.217,0,0,1,.223-.25v-.01a2.168,2.168,0,0,1-.244.01h-.477a.105.105,0,0,0-.114.117V36.4h-.6v-.484c0-.249.1-.361.353-.361h1.94v.367l-1.219,1.525a3.08,3.08,0,0,1-.223.251v.01a1.4,1.4,0,0,1,.249-.016h.581a.1.1,0,0,0,.114-.117v-.149h.6V37.9c0,.255-.1.361-.348.361H33.741Z"/>
    <path d="M37.488,37.8a.691.691,0,0,0,.6-.712v-.064h-.115c-.342,0-.887.048-.887.426a.356.356,0,0,0,.4.35M38,36.562h.083v-.021c0-.388-.15-.532-.487-.532-.12,0-.353.032-.353.181v.143h-.612v-.287c0-.505.7-.558.97-.558.882,0,1.141.473,1.141,1.079v1.01a.1.1,0,0,0,.114.117h.208v.569h-.592c-.244,0-.337-.138-.337-.3,0-.069.005-.117.005-.117h-.01a.861.861,0,0,1-.8.479.845.845,0,0,1-.9-.846c0-.85,1.142-.919,1.572-.919"/>
    <path d="M7.552,42.786a.522.522,0,0,0,.544-.595.514.514,0,0,0-.534-.585h-.55v1.18Zm-1.219-1.18H6v-.59H7.645a1.071,1.071,0,0,1,1.147,1.138.977.977,0,0,1-.612.993v.011a.423.423,0,0,1,.181.192l.358.728c.057.111.145.122.259.122h.068v.59H8.688c-.275,0-.394-.042-.514-.282L7.7,43.557c-.077-.149-.155-.175-.347-.175H7.012V44.79H6.333Z"/>
    <path d="M11.07,43.084a.522.522,0,0,0-.5-.548.64.64,0,0,0-.649.548Zm-.5-1.069A1.164,1.164,0,0,1,11.744,43.3c0,.08-.016.25-.016.25H9.9a.767.767,0,0,0,.793.728,1.191,1.191,0,0,0,.742-.3l.275.468a1.589,1.589,0,0,1-1.063.409,1.373,1.373,0,0,1-1.422-1.419,1.323,1.323,0,0,1,1.344-1.42"/>
    <path d="M14.413,41.016c.244,0,.353.111.353.361v2.728a.1.1,0,0,0,.114.116h.2v.569H14.46c-.249,0-.353-.106-.353-.361V41.707a.1.1,0,0,0-.114-.117h-.441c-.187,0-.509.032-.509.425v.064h.566v.537h-.566V44.79h-.658V42.616h-.327v-.537h.327V42a.941.941,0,0,1,1.079-.983Z"/>
    <path d="M17.21,43.084a.521.521,0,0,0-.5-.548.638.638,0,0,0-.648.548Zm-.5-1.069A1.165,1.165,0,0,1,17.885,43.3c0,.08-.016.25-.016.25H16.043a.768.768,0,0,0,.794.728,1.187,1.187,0,0,0,.741-.3l.275.468a1.589,1.589,0,0,1-1.063.409,1.373,1.373,0,0,1-1.422-1.419,1.323,1.323,0,0,1,1.344-1.42"/>
    <path d="M19.012,43.419l-.436-.675c-.052-.08-.093-.091-.2-.091h-.192v-.574h.462a.408.408,0,0,1,.43.255l.259.447c.037.069.083.175.083.175h.011s.047-.106.083-.175l.259-.447a.4.4,0,0,1,.431-.255h.456v.574H20.47c-.109,0-.151.011-.2.091l-.441.675.867,1.371h-.732l-.462-.755a.892.892,0,0,1-.072-.143h-.011s-.041.085-.077.143l-.457.755h-.731Z"/>
    <path d="M22.364,44.28a.848.848,0,1,0-.783-.845.8.8,0,0,0,.783.845m0-2.265a1.42,1.42,0,1,1-1.447,1.42,1.4,1.4,0,0,1,1.447-1.42"/>
    <path d="M24.357,41.707a.1.1,0,0,0-.114-.117h-.207v-.574h.627c.244,0,.353.111.353.362v2.727a.105.105,0,0,0,.114.117h.2v.568H24.71c-.249,0-.353-.106-.353-.361Z"/>
    <path d="M27.066,44.28a.848.848,0,1,0-.783-.845.8.8,0,0,0,.783.845m0-2.265a1.42,1.42,0,1,1-1.447,1.42,1.4,1.4,0,0,1,1.447-1.42"/>
    <path d="M30.8,43.371c0-.617-.3-.782-.658-.782-.4,0-.618.3-.618.755,0,.473.234.824.659.824.316,0,.617-.186.617-.8m-.773-1.356a.888.888,0,0,1,.814.383h.011v-.069a.254.254,0,0,1,.29-.25h.613v.574h-.2a.1.1,0,0,0-.114.107v1.866a1.252,1.252,0,0,1-1.395,1.28,2.069,2.069,0,0,1-.939-.233l.2-.532a1.676,1.676,0,0,0,.732.181c.4,0,.746-.176.746-.665V44.53c0-.064.006-.144.006-.144h-.011a.811.811,0,0,1-.736.351,1.233,1.233,0,0,1-1.188-1.371,1.2,1.2,0,0,1,1.172-1.351"/>
    <path d="M32.345,41.016h.571v.622h-.571Zm-.031,1.754a.1.1,0,0,0-.114-.117h-.208v-.574h.628c.244,0,.347.112.347.362v1.664a.1.1,0,0,0,.114.116h.208v.569h-.627c-.245,0-.348-.106-.348-.361Z"/>
    <path d="M35.422,43.084a.521.521,0,0,0-.5-.548.638.638,0,0,0-.648.548Zm-.5-1.069A1.165,1.165,0,0,1,36.1,43.3c0,.08-.016.25-.016.25H34.255a.768.768,0,0,0,.794.728,1.187,1.187,0,0,0,.741-.3l.275.468A1.589,1.589,0,0,1,35,44.854a1.373,1.373,0,0,1-1.422-1.419,1.323,1.323,0,0,1,1.344-1.42"/>
  </g>
</svg>
