<svg xmlns="http://www.w3.org/2000/svg" width="26.521mm" height="16.269mm" viewBox="0 0 75.179 46.116">
  <polygon points="0.31 34.223 0.734 34.223 0.762 37.432 2.416 37.418 2.416 37.813 0.338 37.842 0.31 34.223"/>
  <path d="M8.3,34.689h0L7.562,36.47l1.47-.014Zm-.2-.551h.4l1.569,3.59H9.569l-.382-.876-1.809.014-.367.891H6.53Z"/>
  <g>
    <path d="M15.053,37.262l.721-.015a1.188,1.188,0,0,0,.311-.042,1,1,0,0,0,.283-.113.441.441,0,0,0,.2-.2.425.425,0,0,0,.071-.3.778.778,0,0,0-.071-.311.446.446,0,0,0-.2-.2.7.7,0,0,0-.283-.1,2.342,2.342,0,0,0-.325-.028l-.735.014Zm-.014-1.668h.594a2.133,2.133,0,0,0,.3-.029.948.948,0,0,0,.268-.085.45.45,0,0,0,.184-.183.571.571,0,0,0,.071-.3.451.451,0,0,0-.071-.269.427.427,0,0,0-.184-.169.864.864,0,0,0-.254-.085,1.917,1.917,0,0,0-.283-.014h-.636Zm-.452-1.527,1.1-.014a2.329,2.329,0,0,1,.438.042,1.13,1.13,0,0,1,.381.142.759.759,0,0,1,.4.678.711.711,0,0,1-.169.523.983.983,0,0,1-.453.3v.014a1.234,1.234,0,0,1,.325.085,1.118,1.118,0,0,1,.269.184,1.035,1.035,0,0,1,.169.268,1.014,1.014,0,0,1-.056.834.983.983,0,0,1-.325.311,1.345,1.345,0,0,1-.452.17c-.17.028-.34.042-.5.056l-1.074.014Z"/>
    <path d="M23.591,37.261a1.382,1.382,0,0,0,.58-.127,1.351,1.351,0,0,0,.735-.806,1.674,1.674,0,0,0-.015-1.173,1.451,1.451,0,0,0-.3-.466,1.226,1.226,0,0,0-.453-.311,1.494,1.494,0,0,0-1.159.014,1.351,1.351,0,0,0-.735.806,1.68,1.68,0,0,0,.014,1.173,1.471,1.471,0,0,0,.3.466,1.235,1.235,0,0,0,.452.311,1.184,1.184,0,0,0,.58.113m0,.4a2.028,2.028,0,0,1-.763-.141,1.881,1.881,0,0,1-.594-.382,1.688,1.688,0,0,1-.4-.594,2.066,2.066,0,0,1-.014-1.512,1.708,1.708,0,0,1,.382-.608,1.675,1.675,0,0,1,.593-.4,2.069,2.069,0,0,1,1.513-.014,1.864,1.864,0,0,1,.594.382,1.668,1.668,0,0,1,.395.594,2.066,2.066,0,0,1,.014,1.512,1.7,1.7,0,0,1-.975,1,1.557,1.557,0,0,1-.749.155"/>
    <path d="M30.644,35.481h.382a3.341,3.341,0,0,0,.367-.014,1.034,1.034,0,0,0,.354-.071.572.572,0,0,0,.268-.183.5.5,0,0,0,.1-.34.61.61,0,0,0-.084-.311.83.83,0,0,0-.2-.183.921.921,0,0,0-.283-.085,2.313,2.313,0,0,0-.311-.014H30.63ZM30.192,33.9l.919-.014a3.37,3.37,0,0,1,.523.028,1.449,1.449,0,0,1,.466.127.858.858,0,0,1,.339.3.871.871,0,0,1,.128.537.921.921,0,0,1-.226.651,1.167,1.167,0,0,1-.665.31l1.046,1.654H32.2l-.989-1.611h-.552l.015,1.625h-.424Z"/>
  </g>
  <path d="M38.758,34.35h0l-.735,1.781,1.47-.014Zm-.2-.551h.4l1.569,3.59H40.03l-.382-.876-1.809.014-.367.891h-.481Z"/>
  <polygon points="46.998 34.11 45.811 34.124 45.839 37.333 45.415 37.333 45.387 34.124 44.199 34.138 44.199 33.742 47.012 33.714 46.998 34.11"/>
  <path d="M53.288,36.951a1.382,1.382,0,0,0,.58-.127,1.351,1.351,0,0,0,.735-.806,1.674,1.674,0,0,0-.015-1.173,1.451,1.451,0,0,0-.3-.466,1.226,1.226,0,0,0-.453-.311,1.494,1.494,0,0,0-1.159.014,1.351,1.351,0,0,0-.735.806,1.68,1.68,0,0,0,.014,1.173,1.471,1.471,0,0,0,.3.466,1.23,1.23,0,0,0,.453.311,1.612,1.612,0,0,0,.579.113m0,.4a2.028,2.028,0,0,1-.763-.141,1.864,1.864,0,0,1-.594-.382,1.688,1.688,0,0,1-.4-.594,2.066,2.066,0,0,1-.014-1.512,1.708,1.708,0,0,1,.382-.608,1.675,1.675,0,0,1,.593-.4,2.069,2.069,0,0,1,1.513-.014,1.864,1.864,0,0,1,.594.382,1.681,1.681,0,0,1,.395.594,2.066,2.066,0,0,1,.014,1.512,1.7,1.7,0,0,1-.975,1,1.938,1.938,0,0,1-.749.155"/>
  <polygon points="59.889 33.572 59.931 37.176 60.355 37.176 60.313 33.572 59.889 33.572"/>
  <path d="M65.741,35.1h.382a3.341,3.341,0,0,0,.367-.014,1.034,1.034,0,0,0,.354-.071.572.572,0,0,0,.268-.183.5.5,0,0,0,.1-.34.61.61,0,0,0-.084-.311.83.83,0,0,0-.2-.183.921.921,0,0,0-.283-.085,2.313,2.313,0,0,0-.311-.014h-.608Zm-.452-1.583.919-.014a3.37,3.37,0,0,1,.523.028,1.449,1.449,0,0,1,.466.127.858.858,0,0,1,.339.3.871.871,0,0,1,.128.537.921.921,0,0,1-.226.651,1.174,1.174,0,0,1-.665.311l1.046,1.653H67.3l-.989-1.611h-.552l.015,1.625h-.424Z"/>
  <polygon points="72.484 33.431 74.746 33.403 74.746 33.799 72.908 33.813 72.922 34.943 74.632 34.929 74.632 35.325 72.922 35.339 72.936 36.626 74.873 36.611 74.873 37.007 72.512 37.035 72.484 33.431"/>
  <g>
    <path d="M5.484,14.052l-.042.014a.051.051,0,0,0,.042-.014" fill="#55aeaf"/>
    <path d="M6.77,15.2q-.508.042-1.018.042a3.069,3.069,0,0,0-.961.142A2.093,2.093,0,0,0,4,15.9a2.286,2.286,0,0,0-.509.8,8.57,8.57,0,0,0-.3.962c-.085.325-.184.664-.3.975a5.653,5.653,0,0,1-.452.933c.113-.325.226-.636.311-.976s.155-.65.212-.989a8.634,8.634,0,0,1,.254-1,2.429,2.429,0,0,1,.566-.9,2.255,2.255,0,0,1,.9-.58c.085-.028.17-.042.269-.07a1.639,1.639,0,0,1,.268-.029c.17-.014.354-.014.523-.014.34.014.679.028,1.018.028s.679,0,1.018-.014a5.083,5.083,0,0,1-1.018.17m-4.2,5.244a1.423,1.423,0,0,1,.353-.184l.17-.07a1.335,1.335,0,0,0,.141-.071.9.9,0,0,0,.184-.255c.113-.212.212-.438.311-.678s.2-.466.283-.707a2.384,2.384,0,0,1-.071.778A2.961,2.961,0,0,1,3.675,20a1.045,1.045,0,0,1-.283.339.508.508,0,0,1-.212.085c-.071.014-.127.028-.2.042a1.51,1.51,0,0,0-.353.1,1.355,1.355,0,0,0-.326.2,2.076,2.076,0,0,1,.269-.325m-.014,6.742a4.5,4.5,0,0,1-.014-1.159c.042-.381.1-.749.113-1.13a10.159,10.159,0,0,0,0-1.131,3.9,3.9,0,0,1,.212,1.131,6.12,6.12,0,0,1-.057,1.144,7.458,7.458,0,0,0-.042,1.117,3.654,3.654,0,0,0,.184,1.1,2.34,2.34,0,0,1-.4-1.075M3.335,24.5a6.36,6.36,0,0,1,.509,1.244,4.753,4.753,0,0,1,.2,1.342,3.25,3.25,0,0,1-.028.354c-.014.127-.043.226-.057.339-.042.212-.07.424-.113.65a3.748,3.748,0,0,0,.014,1.315,2.854,2.854,0,0,1-.24-1.329,3.63,3.63,0,0,1,.071-.678c.014-.113.042-.226.056-.325a2.32,2.32,0,0,0,.014-.311,5.262,5.262,0,0,0-.042-.651c-.028-.212-.057-.424-.1-.65-.071-.424-.184-.862-.283-1.3m-.65,5.159a2.328,2.328,0,0,0-.791-.283,1.63,1.63,0,0,0-.806.17,3.992,3.992,0,0,0-.735.509,1.824,1.824,0,0,1,.608-.707,1.741,1.741,0,0,1,.438-.2,1.452,1.452,0,0,1,.495-.042,1.344,1.344,0,0,1,.48.141,3.893,3.893,0,0,1,.4.24c.254.17.5.34.749.509a5.124,5.124,0,0,1-.834-.339M1.257,27.706a3.232,3.232,0,0,1-.565-1.272,8.761,8.761,0,0,1-.127-1.357c-.014-.452-.043-.89-.085-1.343a5.356,5.356,0,0,1,.311,1.329c.057.453.1.891.184,1.315a3.666,3.666,0,0,0,.466,1.2,2.307,2.307,0,0,0,.961.877,1.8,1.8,0,0,1-1.145-.75m.128-3.731c-.057-.226-.113-.453-.184-.679a5.091,5.091,0,0,0-.226-.65C.89,22.434.791,22.222.706,22s-.169-.452-.24-.679A3.985,3.985,0,0,1,.282,19.9a7.322,7.322,0,0,0,.4,1.343c.17.438.367.848.565,1.3A6.052,6.052,0,0,1,1.6,23.932a11.8,11.8,0,0,1,.155,1.414c-.127-.467-.24-.919-.367-1.371m-.212-4.453c-.113-.184-.227-.367-.34-.565-.056-.1-.1-.2-.155-.3a2.241,2.241,0,0,1-.127-.325,4.316,4.316,0,0,1-.085-1.343,4.691,4.691,0,0,1,.085-.65,2.542,2.542,0,0,1,.183-.636,5.067,5.067,0,0,0-.042.65v.65c.014.212.014.424.042.636a4.586,4.586,0,0,0,.1.622,2.841,2.841,0,0,0,.241.58c.1.2.2.381.282.579a4.869,4.869,0,0,1,.453,1.244q-.3-.594-.636-1.145M1.7,17.967A7.345,7.345,0,0,1,1.469,16.2a3.1,3.1,0,0,1,.453-1.753,7.089,7.089,0,0,1,1.244-1.286c.226-.2.452-.368.692-.552a5.3,5.3,0,0,1,.764-.466,17.06,17.06,0,0,0-1.315,1.173c-.212.2-.41.41-.608.622a4.878,4.878,0,0,0-.551.664,3.261,3.261,0,0,0-.467,1.612c-.028.565,0,1.159.015,1.752m3-4.381a4.382,4.382,0,0,0,.453-.41c.07-.071.141-.156.2-.227l.1-.127c.043-.042.071-.1.113-.127a1.761,1.761,0,0,1,.552-.41,2.513,2.513,0,0,1,.622-.212A4.018,4.018,0,0,1,8.028,12a8.759,8.759,0,0,0-1.23.3,2.312,2.312,0,0,0-1.031.608.371.371,0,0,0-.1.113l-.043.014-.056.071c-.071.085-.142.17-.226.254a3.688,3.688,0,0,1-.524.41c-.367.241-.749.424-1.116.636.311-.311.664-.551.989-.819m3.746,1.3c-.014-.014-.014-.028-.071-.014H8.353a3.165,3.165,0,0,1-.579.085,4.732,4.732,0,0,1-1.612-.283c-.127-.042-.254-.071-.367-.113a2.152,2.152,0,0,0-1.47,0,3.068,3.068,0,0,0-1.838,2.445A11.088,11.088,0,0,0,2.346,19.1a2.145,2.145,0,0,1-.127.806l-.043.127L2.148,19.9a8.06,8.06,0,0,1-.127-1.611,5.405,5.405,0,0,1,.805-2.757,2.746,2.746,0,0,1,1.781-1.3,3.873,3.873,0,0,0,2.3-1.287A3.683,3.683,0,0,1,8,12.13a1.328,1.328,0,0,1,.127-.043c.1-.028.141-.042.127-.085s-.07-.07-.184-.1c-.042-.015-.084-.015-.127-.029h-.1a4.722,4.722,0,0,0-.989-.085h-.3a2.3,2.3,0,0,0-2.092,1.131A5.127,5.127,0,0,0,4,13.8a1.512,1.512,0,0,1-.509.664,1.829,1.829,0,0,0-.481.509l-.056.1a7.941,7.941,0,0,0-.947,2.389c-.015.1-.015.2-.029.3a1.458,1.458,0,0,1-.07.5l-.043.113v-.1a5.185,5.185,0,0,1,.721-2.982c.17-.255.368-.509.551-.749a7.285,7.285,0,0,0,1.018-1.569,2.64,2.64,0,0,1,.82-.947L4.989,12a1.358,1.358,0,0,0-.4.057,7.112,7.112,0,0,0-1.5.763c-.1.057-.2.127-.311.184A3.065,3.065,0,0,0,1.3,15.239a4.139,4.139,0,0,0-.057,1.371,6.047,6.047,0,0,0,.566,1.979,1.435,1.435,0,0,1,.155.665V19.3a2.247,2.247,0,0,1,.085.862v.283c0,.17,0,.325-.014.5H1.964a7.225,7.225,0,0,1-.028-.778,5.743,5.743,0,0,0-.042-.848v-.028c-.071-.141-.142-.3-.213-.438-.155-.311-.31-.636-.452-.976a5.809,5.809,0,0,1-.41-1.342,2.9,2.9,0,0,1,.2-1.414c0-.014.014-.014.014-.028.029-.057.029-.071,0-.085s-.028-.014-.07.057c0,.014-.015.014-.015.028s-.014.028-.028.042-.014.029-.028.043a6.116,6.116,0,0,0-.763,2.516L.1,17.84a1.754,1.754,0,0,0,.057.806,3.554,3.554,0,0,0,1.272,1.936,2.036,2.036,0,0,1,.763,1.442,10.313,10.313,0,0,1-.014,2.884l-.014.1a4.54,4.54,0,0,1-.212,1.06l-.056.141-.015-.155c0-.043-.014-.085-.014-.128a2.91,2.91,0,0,1-.014-.607c.014-.156.043-.311.057-.467a14.307,14.307,0,0,0,.141-1.738,2.4,2.4,0,0,0-.678-1.781A4.313,4.313,0,0,1,.3,19.734a2.139,2.139,0,0,0-.169.566l-.014.07A3.545,3.545,0,0,0,.4,22.943a5.155,5.155,0,0,0,.283.466,7.474,7.474,0,0,1,.452.806l.057.113A6.276,6.276,0,0,1,1.894,26.7a2.417,2.417,0,0,0,.565,1.569l.014.014c.028.028.071.071.014.127l-.014.028-.028-.014A1.555,1.555,0,0,1,1.6,26.9v-.127a2.508,2.508,0,0,0-.043-.792,11.721,11.721,0,0,0-1.06-2.445c-.07-.142-.155-.3-.226-.439-.014-.042-.042-.084-.071-.084a.106.106,0,0,0-.056.014c-.014.014-.028.014-.028.028a.112.112,0,0,0,.028.057c.014.014.014.028.028.042A2.361,2.361,0,0,1,.4,24.781a7,7,0,0,0-.169.975,2.557,2.557,0,0,0,2.12,2.9,1.451,1.451,0,0,1,.466.128,1.958,1.958,0,0,1,.735.862c.071.127.142.254.226.382l-.028.014-.028.028c-.071-.1-.156-.184-.226-.269a2.178,2.178,0,0,1-.325-.395,1.326,1.326,0,0,0-1.23-.693,1.963,1.963,0,0,0-.961.254,1.933,1.933,0,0,0-.792,1.372l-.014.07c0,.014-.014.071.028.085.014,0,.043.014.071-.056a.717.717,0,0,1,.368-.283,1.348,1.348,0,0,1,1.074.028,1.754,1.754,0,0,0,1.625.085.44.44,0,0,1,.566.071c.028.028.1.084.155.042s.028-.071,0-.141l-.014-.029a1.761,1.761,0,0,1-.014-.975l.042-.127a4.619,4.619,0,0,0,.269-1.527,7.44,7.44,0,0,0-.551-2.516,1.365,1.365,0,0,0-.41-.565l-.014-.014c-.057-.043-.1-.071-.142-.057s-.042.043,0,.113a.052.052,0,0,1,.014.043,5.6,5.6,0,0,1,.212,2.431c-.014.155-.028.311-.056.466a6.256,6.256,0,0,0-.071.905,3.429,3.429,0,0,0,.043.367,3.4,3.4,0,0,1,.056.4v.113l-.071-.085a1.2,1.2,0,0,1-.268-.593,2.9,2.9,0,0,1,.028-1.258,5.589,5.589,0,0,0-.438-3.689c-.014-.015-.014-.029-.014-.057-.028-.085-.043-.113-.085-.1-.057.014-.057.042-.028.141,0,.029.014.043.014.057a3.907,3.907,0,0,1-.113,1.753c-.071.212-.142.424-.2.636a2.151,2.151,0,0,0,.268,1.88,1.975,1.975,0,0,0,.2.268,2.3,2.3,0,0,1,.3.424l.057.128-.113-.085a2.881,2.881,0,0,1-.566-.636,2.179,2.179,0,0,1-.41-1.682,12.243,12.243,0,0,0,.212-4.58,1.166,1.166,0,0,1,0-.382v-.056a.4.4,0,0,1,.227-.325.328.328,0,0,1,.381.113c.057.056.1.113.156.169a.376.376,0,0,0,.438.128A.818.818,0,0,0,4,20.893c.042-.169.084-.353.113-.537a9.913,9.913,0,0,0,.042-1.116c0-.255,0-.523.014-.778a.241.241,0,0,0-.056-.2c-.014.014-.029.029-.029.043a3.413,3.413,0,0,1-1,1.244,1.74,1.74,0,0,0-.848,1.272l-.014.311-.057-.311a1.008,1.008,0,0,1,.17-.834,2.319,2.319,0,0,1,.169-.2,5.146,5.146,0,0,1,.693-.778,4.55,4.55,0,0,0,.82-.989c.113-.17.2-.353.3-.523a4.308,4.308,0,0,1,.24-.452,2.669,2.669,0,0,1,1.936-1.273,2.153,2.153,0,0,0,.82-.268,1.371,1.371,0,0,0,.24-.155,3.156,3.156,0,0,1,.877-.425A.153.153,0,0,0,8.48,14.9c-.042,0-.028,0-.042-.014" fill="#55aeaf"/>
    <path d="M3.222,29.346a1.65,1.65,0,0,0,.283.353c-.014-.014-.014-.028-.029-.042a1.919,1.919,0,0,0-.706-.834.719.719,0,0,0-.184-.071,1.285,1.285,0,0,1,.636.594" fill="#55aeaf"/>
    <path d="M12.862,29.36a1.343,1.343,0,0,1-.382.368,1.314,1.314,0,0,1-.523.155,1.1,1.1,0,0,1-.522-.084.553.553,0,0,1-.128-.057l-.085-.042a.785.785,0,0,0-.2-.029,3.192,3.192,0,0,0-.919.212,4.017,4.017,0,0,1,.41-.268,1.742,1.742,0,0,1,.48-.17.655.655,0,0,1,.283.014c.042.014.1.029.141.043a.269.269,0,0,0,.1.028,1.477,1.477,0,0,0,.424.056,1.12,1.12,0,0,0,.75-.367,3.487,3.487,0,0,0,.48-.806,1.976,1.976,0,0,1-.311.947m-1.117-.9A1.487,1.487,0,0,0,12.226,28a1.318,1.318,0,0,0,.226-.607c.014-.113.028-.227.043-.34a1.373,1.373,0,0,0,0-.339,3.6,3.6,0,0,0-.439-1.272c-.212-.424-.438-.848-.607-1.286.282.381.551.777.8,1.173a3.007,3.007,0,0,1,.537,1.357,1.677,1.677,0,0,1-.014.381,3.3,3.3,0,0,1-.056.368,1.824,1.824,0,0,1-.311.693,1.53,1.53,0,0,1-.594.438,2.41,2.41,0,0,1-.693.184,3.125,3.125,0,0,0,.622-.3M9.752,29.488a2.889,2.889,0,0,1-.2-1.145v-.566a1.317,1.317,0,0,0-.085-.494,1.017,1.017,0,0,0-.354-.34,5.459,5.459,0,0,0-.494-.254c-.34-.156-.693-.311-1.046-.5a7.665,7.665,0,0,1,1.116.283,2.986,2.986,0,0,1,.552.226,1.15,1.15,0,0,1,.466.438.942.942,0,0,1,.1.325,2.211,2.211,0,0,1,.014.311,3.9,3.9,0,0,1-.042.58,4.329,4.329,0,0,0-.029,1.131m-2.742-4.3c-.24-.085-.48-.184-.735-.255a3.64,3.64,0,0,0-.721-.184,3.691,3.691,0,0,1-1.5-.565A8.219,8.219,0,0,1,2.8,23.24c.452.254.9.523,1.357.763a4.108,4.108,0,0,0,1.413.481,4.112,4.112,0,0,1,.778.212c.24.1.5.2.721.311a11.609,11.609,0,0,1,1.371.749c-.467-.2-.947-.382-1.428-.565m.509-1.032c-.24-.241-.466-.481-.707-.707a4.846,4.846,0,0,0-.735-.622A1.227,1.227,0,0,0,5.2,22.7a3.987,3.987,0,0,1-1.018.1,1.667,1.667,0,0,1-.919-.481,3.808,3.808,0,0,1-.621-.806,4.667,4.667,0,0,0,.706.693,1.58,1.58,0,0,0,.848.368,4.117,4.117,0,0,0,.962-.156,2.263,2.263,0,0,1,.537-.028,1.364,1.364,0,0,1,.523.184A4.5,4.5,0,0,1,7,23.254c.226.24.452.495.679.749.438.509.848,1.018,1.286,1.541a19.191,19.191,0,0,1-1.442-1.385m3.491,2.657a3.235,3.235,0,0,0-.3-.806c-.071-.127-.142-.254-.212-.381a1.86,1.86,0,0,0-.255-.325c-.2-.212-.41-.41-.622-.636a1.857,1.857,0,0,1-.268-.382c-.043-.071-.071-.141-.113-.212a1.15,1.15,0,0,0-.1-.17,3.006,3.006,0,0,0-.58-.622c-.438-.381-.919-.721-1.385-1.088a11.152,11.152,0,0,1,1.526.919,3.164,3.164,0,0,1,.665.65c.028.028.042.071.07.1l.057.113a1.229,1.229,0,0,0,.1.184,2.671,2.671,0,0,0,.254.339c.184.212.4.424.608.65a1.845,1.845,0,0,1,.269.382,3.793,3.793,0,0,1,.2.41,2.784,2.784,0,0,1,.24.876,2.687,2.687,0,0,1-.071.891,4.5,4.5,0,0,0-.085-.891M10.4,23.565a9.455,9.455,0,0,1-.509-.919,7.283,7.283,0,0,1-.382-.975,4.29,4.29,0,0,1-.2-1.032c.142.325.269.636.41.947s.283.622.438.933l.438.933c.156.311.3.622.439.947a6.016,6.016,0,0,1-.636-.834m2.869,4.4c-.042,0-.042.014-.056.085,0,.028-.015.042-.015.07a1.448,1.448,0,0,1-1.484.933l-.056-.014.042-.042a.327.327,0,0,1,.212-.1c.014,0,.042-.014.057-.014a1.538,1.538,0,0,0,.763-.495,2.235,2.235,0,0,0,.042-2.813,5.849,5.849,0,0,0-.565-.622,4.871,4.871,0,0,1-.82-1.032c-.014-.028-.042-.07-.071-.056s-.028.028-.014.1v.014a4.414,4.414,0,0,0,.226.919,5.209,5.209,0,0,1,.439,1.611,2.321,2.321,0,0,1-1.046,2.29l-.043.028v-.056c-.014-.071.043-.113.071-.142l.014-.014A2.32,2.32,0,0,0,11.576,26a14.868,14.868,0,0,1-.566-2.12,5.314,5.314,0,0,0-.961-2.177c-.042-.056-.1-.127-.141-.184a1.693,1.693,0,0,1-.495-1.06.107.107,0,0,0-.028-.07.052.052,0,0,0-.043-.014c-.028,0-.042.014-.056.084v.029c0,.014-.014.042-.014.056a.182.182,0,0,0-.014.085,4.316,4.316,0,0,0,.565,2.714,4.4,4.4,0,0,0,.636.707l.113.113a3.16,3.16,0,0,1,.82,1.314,3.206,3.206,0,0,1,.113.509c.028.141.057.3.1.438a1.806,1.806,0,0,1-.41,1.795l-.071.085.015-.1a2.437,2.437,0,0,1,.127-.579,2.3,2.3,0,0,0,.085-1.159,2.771,2.771,0,0,1-.029-.354,2.423,2.423,0,0,0-.508-1.286,8.8,8.8,0,0,0-1.951-1.894,6.289,6.289,0,0,0-1.908-.862l-.128-.043a.178.178,0,0,0-.084-.014c-.071-.014-.1,0-.113.028v.029c0,.014.028.014.056.014s.028.014.043.014a2.267,2.267,0,0,1,.621.4,5.486,5.486,0,0,1,1.386,1.95,5.762,5.762,0,0,0,1.371,1.81,3.409,3.409,0,0,1,.947,1.5c.056.226.056.311-.057.452l-.056.071-.014-.085a2.893,2.893,0,0,0-.834-1.639,3.2,3.2,0,0,0-.382-.382,4.648,4.648,0,0,1-.65-.735c-.156-.255-.311-.509-.453-.763-.24-.41-.48-.849-.763-1.244A4.307,4.307,0,0,0,6.289,22.1a3.2,3.2,0,0,0-1.625-.24h-.41a2.062,2.062,0,0,1-1.414-.368.45.45,0,0,0-.183-.1c-.029.014-.071.071-.1.184a.473.473,0,0,0-.014.283,2.266,2.266,0,0,0,.4.918,1.76,1.76,0,0,0,1.032.75,5.275,5.275,0,0,0,.82.042h.184a3.24,3.24,0,0,1,2.318.806c.1.1.2.183.311.282A6.938,6.938,0,0,0,9.088,25.8H9.1a.139.139,0,0,1,.1.128v.028l-.028.014a.212.212,0,0,1-.184-.028H8.975a6.008,6.008,0,0,1-1.1-.735l-.056-.057a7.253,7.253,0,0,0-1.131-.834c-.042-.014-.071-.042-.113-.056a2.256,2.256,0,0,0-.664-.269c-.17-.028-.34-.042-.5-.056-.226-.015-.452-.043-.679-.071a4.155,4.155,0,0,1-1.682-.551,2.194,2.194,0,0,1-.268-.241c-.043-.042-.085-.1-.127-.141a.789.789,0,0,0,.155.452,5.091,5.091,0,0,0,2.643,2.05,7.681,7.681,0,0,0,1.951.381c.24.029.481.043.721.085l.141.014a4.388,4.388,0,0,1,1.2.283,2.485,2.485,0,0,1,1.258,1.4,1.428,1.428,0,0,1-.3,1.654c-.113.113-.2.241-.311.368-.057.07-.113.141-.17.212l-.1.113.043-.141a1.572,1.572,0,0,1,.226-.467c.014-.028.042-.056.057-.085.028-.056.07-.1.1-.155a1.343,1.343,0,0,0,.255-.537,2.061,2.061,0,0,0-1.1-2.106A3.03,3.03,0,0,0,8.2,26.194c-.142-.014-.3-.014-.453-.028a1.292,1.292,0,0,0-.325.014H7.378c-.029,0-.071.028-.071.042v.015c0,.014.014.028.042.028a2.591,2.591,0,0,1,.863.791c.1.113.183.241.3.354a1.966,1.966,0,0,1,.565,1.018A2.33,2.33,0,0,0,9.583,29.5a.8.8,0,0,1,.212.721c-.014.056,0,.07.028.084s.014,0,.042-.014a.014.014,0,0,0,.015-.014,1.182,1.182,0,0,1,.678-.226.926.926,0,0,1,.424.1,1.771,1.771,0,0,0,.354.127,2.56,2.56,0,0,1,.3.113,1.233,1.233,0,0,0,1.485-.551,3.137,3.137,0,0,0,.268-1.555v-.113c-.042-.17-.056-.2-.113-.212" fill="#55aeaf"/>
    <path d="M12.961,24.031a10.635,10.635,0,0,0-.24-1.343A3.675,3.675,0,0,1,12.608,22a2.788,2.788,0,0,1,0-.354c.014-.113.014-.226.028-.353.071-.466.155-.905.268-1.357s.212-.89.326-1.329a11.1,11.1,0,0,1-.1,1.372c-.057.452-.142.9-.2,1.356a5.16,5.16,0,0,0-.057.665,5.349,5.349,0,0,0,.057.664,4.949,4.949,0,0,1,.028,1.371m-1.7-1.116c-.113-.269-.2-.538-.3-.778a3.833,3.833,0,0,0-.368-.721,5.322,5.322,0,0,0-.508-.636,2.154,2.154,0,0,1-.255-.367,3.669,3.669,0,0,1-.17-.41,11.4,11.4,0,0,1-.3-1.654c.183.523.311,1.074.509,1.583.056.127.113.24.169.353a1.657,1.657,0,0,0,.24.311,5.281,5.281,0,0,1,.552.665c.084.127.141.254.212.381.056.128.113.255.169.4l.255.806a3.566,3.566,0,0,0,.791,1.428,2.916,2.916,0,0,1-1-1.357m-.382-2.686a6.2,6.2,0,0,1-.353-.834,4.865,4.865,0,0,1-.2-.876,5.746,5.746,0,0,0-.212-.848,4.908,4.908,0,0,0-.339-.806,3.3,3.3,0,0,0-.212-.368,3.014,3.014,0,0,0-.269-.325,1.711,1.711,0,0,0-.735-.41,3.634,3.634,0,0,0-.876-.127,2.407,2.407,0,0,1,.9-.014,1.592,1.592,0,0,1,.438.141,1.459,1.459,0,0,1,.4.255,2.184,2.184,0,0,1,.566.735,6.23,6.23,0,0,1,.367.834,4.971,4.971,0,0,1,.2.89,8.2,8.2,0,0,0,.156.862,5.627,5.627,0,0,0,.268.834,3.432,3.432,0,0,0,.4.792,3.323,3.323,0,0,1-.5-.735m-.339-6.7c-.1-.113-.184-.226-.283-.325-.056-.042-.1-.1-.155-.142l-.17-.127a2.01,2.01,0,0,0-.792-.3,2.935,2.935,0,0,0-1.71.326,2.52,2.52,0,0,1,1.725-.538,2.344,2.344,0,0,1,.9.283,2.313,2.313,0,0,1,.693.636,5.57,5.57,0,0,1,.523.763,2.575,2.575,0,0,1,.268.9,6.388,6.388,0,0,1-.2,1.809,9.324,9.324,0,0,0-.029-1.781,3.05,3.05,0,0,0-.777-1.512m-.679,1.442a4.531,4.531,0,0,0-.508-.537A3.616,3.616,0,0,0,8.763,14a3.214,3.214,0,0,0-.311-.155.86.86,0,0,0-.339-.028,3.154,3.154,0,0,0-.721.113,4.636,4.636,0,0,1-1.527.155,8.6,8.6,0,0,0,1.47-.381,4.153,4.153,0,0,1,.778-.17,1.1,1.1,0,0,1,.424.042,1.575,1.575,0,0,1,.381.17,3.471,3.471,0,0,1,1.131,1.088,4.666,4.666,0,0,1,.65,1.4,10.668,10.668,0,0,0-.834-1.258m2.163,3.8a7.105,7.105,0,0,1,.212-1.541,4.741,4.741,0,0,0,.156-.721,3.322,3.322,0,0,0-.057-.735c-.085-.494-.212-.989-.325-1.5a8.532,8.532,0,0,1,.537,1.456,2.95,2.95,0,0,1,.1.792,2.827,2.827,0,0,1-.141.777,6.217,6.217,0,0,0-.156.735c-.042.254-.071.5-.113.749a10.9,10.9,0,0,0-.071,1.527,6.21,6.21,0,0,1-.141-1.541m1.145,6.8h0a2.923,2.923,0,0,1-.057-1.6,8.458,8.458,0,0,0,.283-2.262c0-.212-.014-.424-.014-.636s-.014-.424-.014-.636c-.014-.24-.014-.481-.014-.707,0-.452-.014-.9-.043-1.371v-.028c-.014-.085-.014-.127-.056-.127H13.23c-.015.014-.015.056-.015.084v.057a13.475,13.475,0,0,1-.636,1.852l-.084.2a3.178,3.178,0,0,0,.042,2.615,3.522,3.522,0,0,1,.311,1.046l.014.07-.057-.028a.34.34,0,0,1-.155-.2c0-.014-.014-.028-.014-.042a10.44,10.44,0,0,1-.481-1.456c-.014-.057-.042-.127-.056-.184a1.565,1.565,0,0,1-.113-.58,3.532,3.532,0,0,1,.24-1.06,18.26,18.26,0,0,0,.763-2.7,4.618,4.618,0,0,0-.523-3.166,1.6,1.6,0,0,0-.424-.565l-.028-.014c-.071-.057-.127-.1-.17-.057-.014.014-.014.028.014.085.015.028.029.057.043.085a.439.439,0,0,1,.028.113c.014.056.043.127.057.2a4.961,4.961,0,0,1-.142,2.191,3.78,3.78,0,0,0-.155,2.177,13.14,13.14,0,0,1,.325,1.342l.014.057a.846.846,0,0,1-.071.707l-.042.056-.028-.056c-.014-.014-.014-.043-.029-.057a.7.7,0,0,0-.042-.1,8.321,8.321,0,0,1-.5-2.657c0-.085-.014-.184-.014-.283a1.809,1.809,0,0,1,.071-.82c.085-.212.141-.438.212-.65a2.684,2.684,0,0,1,.1-.325A3.192,3.192,0,0,0,9.88,12.4a1.62,1.62,0,0,0-1.654-.056,6.952,6.952,0,0,0-1.046.749c-.085.071-.184.141-.269.226-.014,0-.014.014-.028.014s-.043.028-.043.042,0,.015.015.029.056.014.113-.014a2.37,2.37,0,0,1,1.074-.4,1.717,1.717,0,0,1,.891.014,3,3,0,0,1,1.809,1.823,12.282,12.282,0,0,1,.339,1.23c.042.17.085.339.127.509a2.113,2.113,0,0,1,.057.325l.014.057a.9.9,0,0,1-.014.381l-.028.113-.128-.282a9.309,9.309,0,0,1-.537-1.725A2.479,2.479,0,0,0,8.4,13.26a1.44,1.44,0,0,0-.876.113,8.692,8.692,0,0,1-1.965.735H5.526c-.042,0-.042.015-.057.029a.378.378,0,0,0,.269.1,1.175,1.175,0,0,1,.424.113,3.33,3.33,0,0,0,1.682.184,1.794,1.794,0,0,1,1.4.4A9.237,9.237,0,0,1,10.6,16.37a2.907,2.907,0,0,1,.622,1.725,8.957,8.957,0,0,0,.58,2.968.708.708,0,0,1,.042.466l-.028.085-.042-.085a6.292,6.292,0,0,1-.679-2.516,1.713,1.713,0,0,1-.014-.268,4.263,4.263,0,0,0-.212-1.244,3.593,3.593,0,0,0-1.64-2.036A1.436,1.436,0,0,0,7.8,15.423a.964.964,0,0,0-.156.1,1.693,1.693,0,0,1-.353.184c-.071.014-.071.028-.071.056a.053.053,0,0,0,.014.029c.014.014.043.014.085,0a.51.51,0,0,1,.382.07,4.888,4.888,0,0,1,1.2,1l.085.085a2.971,2.971,0,0,1,.834,1.413,5.818,5.818,0,0,0,1.385,2.573,3.434,3.434,0,0,1,.82,1.484,8.807,8.807,0,0,0,.509,1.484l.028.057a4.58,4.58,0,0,1,.354.947l.028.113-.085-.085a3.573,3.573,0,0,1-.9-1.456c-.084-.254-.155-.509-.226-.749-.056-.2-.113-.41-.184-.622a3.8,3.8,0,0,0-.678-1.131c-.127-.155-.254-.325-.368-.5a6.6,6.6,0,0,1-1.1-2.5v-.015a.4.4,0,0,0-.085-.212c.014.3.014.566,0,.848a6.953,6.953,0,0,0,0,.764,4.088,4.088,0,0,0,.876,2.021c.043.057.071.1.114.155a3.442,3.442,0,0,1,.537.976,4.264,4.264,0,0,0,1.625,2.106,1.569,1.569,0,0,1,.679.933.842.842,0,0,0,.1.24l.042.085c0-.028-.014-.042-.014-.071a1.045,1.045,0,0,1-.1-.24" fill="#55aeaf"/>
    <path d="M5.455,14.066l.042-.014a.061.061,0,0,0-.042.014" fill="#55aeaf"/>
    <path d="M17.272,29.9c-.014.014-.028.014-.028.028a.187.187,0,0,0-.057.043,4.8,4.8,0,0,1,.834-.368,3.017,3.017,0,0,0,1.131-.608l.127-.113c.028-.028.071-.07.1-.1a5.365,5.365,0,0,1-1.187.707,2.167,2.167,0,0,1-.325.141,1.639,1.639,0,0,0-.594.269" fill="#55aeaf"/>
    <path d="M25.245,29.346a2.237,2.237,0,0,1-.58.438,2.386,2.386,0,0,1-.693.241,3.657,3.657,0,0,1-1.413-.057,11.015,11.015,0,0,1-1.329-.41c.467.057.919.141,1.371.2a4.172,4.172,0,0,0,1.329,0,2.422,2.422,0,0,0,1.159-.565,4.514,4.514,0,0,0,.848-1.061,2.835,2.835,0,0,1-.692,1.216m-6.488.58a5.165,5.165,0,0,1,1.046-.015,6.385,6.385,0,0,1,1.031.2,5.717,5.717,0,0,1,.976.368c-.354-.043-.693-.1-1.032-.156s-.679-.1-1.018-.127-.678-.042-1.017-.056-.693,0-1.032-.029a9.055,9.055,0,0,1,1.046-.183M16.99,27.282c-.043-.268-.071-.523-.127-.777-.029-.127-.057-.254-.085-.368l-.057-.183c-.014-.071-.042-.128-.056-.2a11.963,11.963,0,0,1-.3-1.583,15.033,15.033,0,0,1-.142-1.6c.142.523.241,1.032.354,1.555s.226,1.032.353,1.541l.057.184.056.2a2.049,2.049,0,0,1,.085.41,7.579,7.579,0,0,1,.085.8,8.67,8.67,0,0,1-.042,1.6c-.057-.537-.114-1.06-.184-1.583m.537-4.438c-.269-.693-.566-1.371-.806-2.078a10.49,10.49,0,0,1-.48-2.177,20.607,20.607,0,0,0,.692,2.107c.269.678.58,1.356.862,2.049.128.353.269.693.4,1.046a3.723,3.723,0,0,1,.212,1.117,6.926,6.926,0,0,1-.353,2.219,9.658,9.658,0,0,0,.127-2.2,7.538,7.538,0,0,0-.65-2.078m2.007,2.7a5,5,0,0,0,.1-1.951,3.819,3.819,0,0,0-.777-1.767c-.382-.551-.792-1.074-1.159-1.654.452.5.918.99,1.342,1.513a5.087,5.087,0,0,1,.566.862,3.1,3.1,0,0,1,.311,1,5.061,5.061,0,0,1,.028,1.032,4.172,4.172,0,0,1-.2,1.017A3.183,3.183,0,0,1,18.5,27.2a3.47,3.47,0,0,0,1.032-1.654M18.262,28.71c.226-.254.438-.523.65-.792l.636-.8c.212-.269.41-.537.622-.82a3.847,3.847,0,0,1-.438.947c-.184.3-.382.579-.594.862a7.188,7.188,0,0,1-.721.763,3.309,3.309,0,0,1-.862.594c.255-.24.481-.5.707-.749m1.936-.523c.212-.184.439-.353.665-.523a6.045,6.045,0,0,1,.721-.452,2.074,2.074,0,0,1,.8-.269,5.883,5.883,0,0,0-.692.452c-.226.17-.438.34-.665.5s-.452.325-.692.467a6.4,6.4,0,0,1-.749.395,7.835,7.835,0,0,1,.607-.565m1.64.014.721-.537a4.928,4.928,0,0,1,.806-.466,2.055,2.055,0,0,1,.918-.156,3.9,3.9,0,0,0-.819.368c-.255.155-.495.325-.735.494a6.036,6.036,0,0,1-.778.5,3.1,3.1,0,0,1-.876.311c.268-.17.523-.325.763-.509m1.442.368a4.814,4.814,0,0,0,.862-.509,4.3,4.3,0,0,0,.4-.311,2.936,2.936,0,0,1,.424-.311,2.768,2.768,0,0,1,.961-.424,7.41,7.41,0,0,0-.834.593c-.254.212-.495.467-.791.679a3.155,3.155,0,0,1-.948.481,3.767,3.767,0,0,1-1.031.183c.339-.127.664-.24.961-.381m2.841-.9c-.028-.014-.028,0-.042.042,0,.015-.015.029-.015.043a1.749,1.749,0,0,1-.537.735,5.24,5.24,0,0,1-3.59,1.032,8.274,8.274,0,0,0-.848-.014,1.847,1.847,0,0,1-.961-.227l-.085-.042.085-.014a2.789,2.789,0,0,1,.918-.071,9.315,9.315,0,0,0,2.714-.113,2.978,2.978,0,0,0,1.923-1.159c.07-.113.127-.226.184-.339a1.441,1.441,0,0,1,.212-.382l.028-.028c.042-.057.07-.085.042-.127s-.141-.057-.169-.057c-.227.043-.481.071-.707.127a3.232,3.232,0,0,0-1.6.905,3.654,3.654,0,0,1-1.287.919,3.315,3.315,0,0,1-1.512.169l-.113-.014.1-.056a1,1,0,0,1,.381-.113c.029,0,.057-.015.085-.015.057-.014.113-.014.156-.028a3.7,3.7,0,0,0,1.159-.311,2.166,2.166,0,0,0,.48-.4c.071-.07.142-.141.212-.2a6.521,6.521,0,0,1,1.3-.863.049.049,0,0,0,.028-.014c.071-.028.085-.042.071-.07s-.029-.029-.085-.029h-.028c-.071,0-.156.014-.227.014a3.236,3.236,0,0,1-.381.015,2.408,2.408,0,0,0-1.908.777,5.673,5.673,0,0,1-1.329,1.074,2.818,2.818,0,0,1-1.315.311h-.155l.141-.071a7.238,7.238,0,0,1,.947-.4,2.565,2.565,0,0,0,.976-.566c.1-.1.2-.183.3-.282a4.524,4.524,0,0,1,1.273-.962l.014-.014v-.014h-.043a1.463,1.463,0,0,1-.24.014,3.394,3.394,0,0,0-2.488,1.174q-.445.465-.89.89l-.127.113a2.974,2.974,0,0,1-1.16.622,3.85,3.85,0,0,0-.918.424l-.071.057.028-.085a.287.287,0,0,1,.142-.2c.014,0,.014-.014.028-.014a2.578,2.578,0,0,1,.594-.3c.113-.042.212-.085.325-.127A3.521,3.521,0,0,0,19.8,28.145a3.46,3.46,0,0,0,.48-1.979v-.043c0-.056,0-.07-.028-.07s-.057.014-.085.07v.014a3.4,3.4,0,0,1-1.314,1.343,1.9,1.9,0,0,0-.636.58c-.2.339-.368.678-.552,1.017l-.1.2a1.059,1.059,0,0,1-.381.453l-.113.056.056-.113c.057-.1.1-.2.156-.3a7.8,7.8,0,0,0,.466-.975,2.4,2.4,0,0,1,.947-1.1,4.072,4.072,0,0,0,1.668-2.417,3.826,3.826,0,0,0-.085-1.7,1.652,1.652,0,0,0-.056-.254,2.845,2.845,0,0,0-.778-1.5,7.889,7.889,0,0,0-1.074-.848l-.113-.084c-.042-.029-.071-.043-.113-.071a1.672,1.672,0,0,1-.594-.58c0-.014-.014-.014-.014-.028-.028-.056-.028-.056-.056-.056s-.029.014-.015.07c0,.014.015.028.015.043a5.345,5.345,0,0,0,.522,1.47c.128.24.269.48.4.721.085.141.17.3.255.438a5.058,5.058,0,0,1,.466,2.078,3.667,3.667,0,0,1-1.074,3.01l-.142.142.085-.184c.043-.085.071-.156.113-.24.085-.184.184-.382.269-.58a4.363,4.363,0,0,0,.452-2.445A6.234,6.234,0,0,0,17.7,21.3,8.463,8.463,0,0,1,16.566,19.2c-.029-.1-.071-.2-.113-.311a8,8,0,0,1-.241-.763c-.014-.085-.042-.1-.056-.085s-.028,0-.028.057v2.134a5.055,5.055,0,0,0,.155,1.23,17,17,0,0,0,.735,2.063c.1.227.2.467.283.707.042.127.1.241.155.368a5.545,5.545,0,0,1,.4,1.215,3.833,3.833,0,0,1,.028.566c0,.141,0,.3.014.438A3.539,3.539,0,0,1,17.47,28.8a.237.237,0,0,0-.028.07.646.646,0,0,1-.2.3l-.056.128.127-.523c.1-.41.2-.792.3-1.188a3.593,3.593,0,0,0-.127-2.318c-.142-.325-.283-.664-.439-.989a20.178,20.178,0,0,1-.82-2.05v-.014c-.028-.071-.042-.113-.07-.1s-.043.014-.043.085v.042c0,.453,0,.9-.014,1.357-.014.664-.028,1.343,0,2.007a6.233,6.233,0,0,0,.806,2.856,1.388,1.388,0,0,1,.1,1.187,1.477,1.477,0,0,1-.269.452l-.028.028a.2.2,0,0,1-.24.029c-.014,0-.043-.014-.057-.014h-.028l-.014.014a.084.084,0,0,1-.014.056.3.3,0,0,0,.028.3c.042.057.17.057.254,0a1.122,1.122,0,0,1,.693-.24,2.283,2.283,0,0,1,.763.169l.014.015a3.7,3.7,0,0,0,.962.254,28.728,28.728,0,0,0,3.123-.028l.34-.014c.07,0,.1-.015.1-.043V30.59c-.015-.014-.071-.014-.085-.014a2.324,2.324,0,0,1-1.258-.481l-.1-.07a2.933,2.933,0,0,0-2.587-.283c-.3.1-.608.212-.9.325-.128.042-.255.1-.382.141l-.325.113.3-.183a6.831,6.831,0,0,1,1.964-.806c.015,0,.043-.014.057-.014a.341.341,0,0,1,.212-.014c.184.056.367.084.537.127a6.7,6.7,0,0,1,1.145.339c.17.071.325.141.495.226.381.17.777.354,1.187.5a2.835,2.835,0,0,0,.481.1c.1.014.2.028.311.042a1.607,1.607,0,0,0,1.455-.3,3.541,3.541,0,0,0,1.018-2.446l.014-.127c0-.042,0-.1-.042-.1" fill="#55aeaf"/>
    <path d="M20.227,17.8c0,.226-.014.452-.029.678s-.042.453-.056.679-.014.452-.043.692a2.15,2.15,0,0,1-.1-.664,3.819,3.819,0,0,1,0-.693,4.021,4.021,0,0,1,.1-.692,2.925,2.925,0,0,1,.156-.693c0,.226-.028.467-.028.693m-1.414,2.078a11.551,11.551,0,0,0-1.074-.962l-.3-.226-.141-.127a1.344,1.344,0,0,1-.142-.141,2.77,2.77,0,0,1-.438-.622,4.7,4.7,0,0,1-.438-1.414,9.29,9.29,0,0,0,.636,1.3,3.293,3.293,0,0,0,.438.551l.127.113.142.113.3.212A6.211,6.211,0,0,1,19,19.706a5.507,5.507,0,0,1,.777,1.258c-.311-.368-.622-.749-.961-1.088m-1.329-2.87a5.823,5.823,0,0,1-.523-1.258c-.113-.438-.268-.834-.381-1.272a6.183,6.183,0,0,1-.212-1.329c.141.424.254.863.41,1.273l.24.621c.085.213.141.439.212.637a7.6,7.6,0,0,0,.452,1.229,6.652,6.652,0,0,0,.665,1.145,3.627,3.627,0,0,1-.863-1.046m.82-.593a8.036,8.036,0,0,1-.212-1.64,2.339,2.339,0,0,0-.438-1.456,5.142,5.142,0,0,0-1.286-.947,4.584,4.584,0,0,1,.763.311,2.6,2.6,0,0,1,.693.5,1.906,1.906,0,0,1,.438.749,3.5,3.5,0,0,1,.127.848,12.514,12.514,0,0,0,.141,1.611,6.537,6.537,0,0,0,.439,1.555,4.724,4.724,0,0,1-.665-1.526m.947-3.661a4.324,4.324,0,0,0-.622-.354,2.857,2.857,0,0,1,.693.226,1.247,1.247,0,0,1,.311.212,1.126,1.126,0,0,1,.24.326,1.8,1.8,0,0,1,.156.763,6.252,6.252,0,0,1-.057.735c-.071.48-.155.961-.254,1.427s-.2.948-.255,1.428a6.284,6.284,0,0,1,.043-1.456c.056-.48.127-.961.2-1.442a4.022,4.022,0,0,0,.07-.706,1.756,1.756,0,0,0-.085-.665,1.442,1.442,0,0,0-.438-.494m1.23,5.8a2.746,2.746,0,0,0-.014-.339c-.028-.311-.071-.636-.141-1.018a.759.759,0,0,1-.015-.184.911.911,0,0,0-.042-.282,4.862,4.862,0,0,1-.283.876,2.381,2.381,0,0,0-.155,1.64l.028.113a3.968,3.968,0,0,1,.184.961v.141l-.071-.127a4.976,4.976,0,0,1-.5-1.343,1.958,1.958,0,0,1,.142-1.484,7.9,7.9,0,0,0,.608-1.47l.028-.071a3.512,3.512,0,0,0-.156-2.855,1.621,1.621,0,0,0-1.71-.834c-.056.014-.1.028-.113.071-.014.028,0,.042.071.07l.014.015a1.454,1.454,0,0,1,.961,1.95,6.068,6.068,0,0,0-.042,2.672,2.244,2.244,0,0,1,.014,1.258l-.029.07-.042-.07a2.7,2.7,0,0,1-.24-.693,1.191,1.191,0,0,0-.057-.212,5.644,5.644,0,0,1-.141-1.908,2.777,2.777,0,0,0,.028-.354c.028-.282.057-.579.071-.862a2.129,2.129,0,0,0-1.7-2.035,1.3,1.3,0,0,0-.778.028c-.1.028-.141.071-.155.113s.014.1.084.2c.114.141.241.283.354.424a3.782,3.782,0,0,1,.777,1.159,11.987,11.987,0,0,1,.552,2.036,3.544,3.544,0,0,0,.876,1.851,1.521,1.521,0,0,1,.382.707l.028.141-.085-.113a1.947,1.947,0,0,0-.353-.325,1.853,1.853,0,0,1-.41-.41,4.49,4.49,0,0,1-.735-1.809c-.085-.467-.184-.919-.3-1.343v-.014a2.063,2.063,0,0,0-.4-.933L17,13.925a2.18,2.18,0,0,1-.679-1.046.384.384,0,0,0-.084.268,6.085,6.085,0,0,0,.353,2.87,3.679,3.679,0,0,0,1.583,2.063,5.474,5.474,0,0,1,.735.523l.071.057a1.391,1.391,0,0,1,.466.636c.17.467.3.82.4,1.159.014.057.042.1.056.156a.857.857,0,0,1,.1.438v.1l-.056-.071a1.5,1.5,0,0,1-.325-.721,2.712,2.712,0,0,0-1.216-1.71c-.07-.043-.141-.1-.212-.141a6.715,6.715,0,0,1-.806-.594,3.73,3.73,0,0,1-1.187-2.05v-.028a.11.11,0,0,0-.028-.071,3.957,3.957,0,0,0,.424,2.4,4.507,4.507,0,0,0,.579.792c.1.113.184.226.283.353l.014.014a2.415,2.415,0,0,0,.622.636,13.871,13.871,0,0,1,1.569,1.131,1.662,1.662,0,0,1,.58.919.632.632,0,0,0,.014.071.64.64,0,0,0,.113.3,2.161,2.161,0,0,0-.071-.764,3.467,3.467,0,0,1,.014-2.106,2.516,2.516,0,0,0,.17-.961" fill="#55aeaf"/>
    <path d="M45.5,27.084a7.375,7.375,0,0,0-.056.961c0,.325.014.65.014.99a3.78,3.78,0,0,1-.24-.976,3.915,3.915,0,0,1,0-1,5.375,5.375,0,0,1,.212-.975c.1-.312.212-.622.325-.933a5.782,5.782,0,0,1-.113.989c-.057.311-.113.636-.142.947m-1.766.834c-.255-.283-.481-.565-.735-.82a4.174,4.174,0,0,1-.693-.89,5.505,5.505,0,0,1-.438-1.032c.212.311.41.622.622.919a6.591,6.591,0,0,0,.706.819,6.839,6.839,0,0,1,.707.877,3.61,3.61,0,0,0,.721.82,2.532,2.532,0,0,1-.89-.693m-.651-2.94c-.226-.3-.48-.58-.721-.905a3.491,3.491,0,0,1-.537-1.046,7.468,7.468,0,0,0,.707.9c.255.283.523.565.763.876a4.1,4.1,0,0,1,.58,1.032,5.27,5.27,0,0,1,.283,1.145c-.156-.353-.311-.707-.481-1.046a4.485,4.485,0,0,0-.594-.961m1.174-1.88a10.309,10.309,0,0,0-1.061-.466,3.811,3.811,0,0,1,1.16.268c.1.042.183.1.268.142a1.671,1.671,0,0,1,.24.211,1.378,1.378,0,0,1,.311.566,2.214,2.214,0,0,1,.043.311v.311l-.043.3a2.28,2.28,0,0,1-.07.3,3.894,3.894,0,0,1-.2.565c-.085.184-.17.353-.269.523.043-.2.085-.382.127-.565l.057-.283a.511.511,0,0,0,.028-.142l.029-.141a2.58,2.58,0,0,0,.014-1.088,1.251,1.251,0,0,0-.636-.806m1.724,7.124a1.271,1.271,0,0,0-.127-.24,1.256,1.256,0,0,1-.156-.339,3.281,3.281,0,0,1,.1-1.626,5.62,5.62,0,0,0,.156-2.53c0-.028-.014-.071-.014-.1a1.843,1.843,0,0,0-.057-.269c-.028-.07-.042-.1-.056-.1s-.029,0-.071.071a.25.25,0,0,1-.057.071.476.476,0,0,0-.07.113,4.18,4.18,0,0,1-.453.82c-.028.042-.07.1-.1.141a2.025,2.025,0,0,0-.155,1.951c.057.141.127.282.184.424.028.07.07.141.1.212l.113.254-.17-.226a2.169,2.169,0,0,1-.353-2.558c.113-.212.24-.439.367-.637a6.712,6.712,0,0,0,.552-1.046,1.333,1.333,0,0,0-.693-1.7,4.488,4.488,0,0,0-2.318-.282l-.2.014a.108.108,0,0,0-.071.014v.014c0,.028.028.028.085.042h.113a1.228,1.228,0,0,1,.311.043,3,3,0,0,1,1.626,2.078,3.68,3.68,0,0,1,.028.862c-.028.382-.071.763-.113,1.117-.014.141-.028.282-.043.424l-.028.254-.042-.254a8.3,8.3,0,0,1-.085-1.442v-.071a2.824,2.824,0,0,0-.4-1.357,1.827,1.827,0,0,0-1.244-.876,1.17,1.17,0,0,1-.692-.467.274.274,0,0,1-.043-.07c-.042-.085-.056-.113-.1-.1s-.028.042-.028.113v.169a3.833,3.833,0,0,0,.947,2.375c.1.127.2.24.3.353.127.156.268.311.381.481l.128.17-.283-.2a3.982,3.982,0,0,1-1.4-1.385c-.014-.043-.029-.085-.043-.128s-.028-.127-.056-.141h-.029a.193.193,0,0,0-.056.042.24.24,0,0,0,.042.156.454.454,0,0,1,.043.127,7.1,7.1,0,0,0,.636,2.191,2.774,2.774,0,0,0,2.021,1.555.316.316,0,0,0,.113.014.774.774,0,0,1,.523.226,3.065,3.065,0,0,1,.184.269,2.541,2.541,0,0,0,.339.452l.043.042-.057.015a.247.247,0,0,1-.254-.071l-.029-.028a1.81,1.81,0,0,0-.183-.156,1.863,1.863,0,0,0-.255-.212,1.292,1.292,0,0,0-1.442-.169.7.7,0,0,1-.692-.015.507.507,0,0,1-.2-.226,3.25,3.25,0,0,0,.2.4c.155.268.353.5.608.509h.1l.1-.014.1-.029.114-.042a2.807,2.807,0,0,1,.494-.1,1.918,1.918,0,0,1,.976.127,2.906,2.906,0,0,0-.933.085c-.156.043-.3.085-.439.127-.042.014-.07.029-.113.043l-.127.042c-.042.014-.085.014-.141.028h-.142a.769.769,0,0,1-.508-.254,1.309,1.309,0,0,1-.269-.438,3.257,3.257,0,0,1-.212-.961c.056.127.113.254.17.367a.872.872,0,0,1-.057-.353.243.243,0,0,1,.014-.1c0-.028.014-.071.014-.1a.105.105,0,0,1,.029-.071c0-.014.014-.028.014-.042s0-.014-.029-.014h-.028c-.028,0-.042.028-.071.07,0,.014-.014.014-.014.029a.488.488,0,0,0-.056.127,1.952,1.952,0,0,0,.2,1.512,1.86,1.86,0,0,0,1.286.707.976.976,0,0,0,.608-.113,8.547,8.547,0,0,0,.806-.452.421.421,0,0,1,.339-.057.484.484,0,0,1,.282.226.048.048,0,0,0,.015.028.143.143,0,0,0,.07.085.187.187,0,0,1,.057.043c.014.014.028.014.028.028a.014.014,0,0,0,.014-.014c.014-.014.014-.028-.014-.057Zm-4.2-4.608c.042.2.085.4.141.594Z" fill="#55aeaf"/>
    <path d="M41.344,27.9a3.856,3.856,0,0,1-.693,1.187,4.737,4.737,0,0,1-1.032.877,11.671,11.671,0,0,0,.863-1,4.4,4.4,0,0,0,.593-1.145,5.357,5.357,0,0,0,.269-1.272c.042-.438.056-.891.113-1.329a10.637,10.637,0,0,1,.113,1.343,4.013,4.013,0,0,1-.226,1.343m-.764-2.177a3.152,3.152,0,0,1-.8.876,2.329,2.329,0,0,1-.255.156,2.5,2.5,0,0,1-.282.127,1.84,1.84,0,0,1-.3.085L38.8,27l-.156.014a4.088,4.088,0,0,1-1.173-.042c.381-.071.763-.1,1.131-.184a2.726,2.726,0,0,0,.989-.438,4.617,4.617,0,0,0,.792-.777c.24-.3.438-.608.678-.933a3.263,3.263,0,0,1-.481,1.088m-1.752,3.9a3.539,3.539,0,0,1-.693.368c-.056.028-.127.042-.184.071a1.029,1.029,0,0,1-.2.056l-.2.042-.2.029a4.988,4.988,0,0,1-.792-.014,2.8,2.8,0,0,1-.763-.212,1.908,1.908,0,0,1-.636-.467,2.273,2.273,0,0,1-.424-.636,3.092,3.092,0,0,0,.523.537,2.348,2.348,0,0,0,.636.354,3.026,3.026,0,0,0,.707.155,4.3,4.3,0,0,0,.735,0,3.236,3.236,0,0,0,1.371-.466,6.717,6.717,0,0,0,1.2-.905,4.41,4.41,0,0,1-1.088,1.088m-2.4-.834a3.048,3.048,0,0,1-.749-.311,3.61,3.61,0,0,1-.622-.508c-.184-.2-.34-.4-.523-.566s-.382-.339-.566-.509a7.407,7.407,0,0,1-1.1-1.1c.41.325.82.636,1.244.933a6.871,6.871,0,0,1,.622.494c.2.17.367.382.551.566a2.871,2.871,0,0,0,1.23.8,7.418,7.418,0,0,0,1.5.326,4.961,4.961,0,0,1-1.583-.128m2.417-.593a1.912,1.912,0,0,1-.565-.014,2.669,2.669,0,0,1-.552-.142,5.234,5.234,0,0,1-.947-.565,7.37,7.37,0,0,0-.933-.509,2.988,2.988,0,0,1,1.046.325c.325.156.622.368.933.5a2.876,2.876,0,0,0,.5.141,2.054,2.054,0,0,0,.509.057,2.193,2.193,0,0,0,1-.283,1.837,1.837,0,0,1-.989.5m2.756-2.94a2.235,2.235,0,0,1-.155-.778,1.486,1.486,0,0,1,.127-.593.049.049,0,0,1,.014-.029c.028-.042.028-.056.014-.07-.042,0-.07.028-.1.084a4.118,4.118,0,0,1-.8,1.117,6.766,6.766,0,0,1-2.587,1.795,1.053,1.053,0,0,1-.283.085,4.608,4.608,0,0,1-.777.085,1.188,1.188,0,0,0,.367.184,7.038,7.038,0,0,0,2.05.1,1.835,1.835,0,0,0,.791-.552c.085-.085.17-.169.269-.254l.127-.127-.071.155a1.756,1.756,0,0,0-.169.467,2.282,2.282,0,0,1-.2.551c-.057.113-.127.1-.212.085a.438.438,0,0,0-.141-.014,1.512,1.512,0,0,0-.283.042,4.833,4.833,0,0,1-.947.113,3.973,3.973,0,0,1-1.428-.481,1.908,1.908,0,0,0-.4-.169c-.169-.043-.367-.1-.551-.127a1.7,1.7,0,0,0-.48.028c-.071.014-.113.028-.113.042s0,.028.056.071l.325.283a5.546,5.546,0,0,0,1.4,1.017,1.966,1.966,0,0,0,2.388-.395c0-.015.014-.015.014-.029a.225.225,0,0,1,.184-.113H40.1l-.043.057-.042.042a.249.249,0,0,0-.056.071,1.776,1.776,0,0,1-2.078.791c-.085-.028-.184-.056-.269-.084a1.609,1.609,0,0,0-.353-.1,2.6,2.6,0,0,1-1.4-.947,4.817,4.817,0,0,0-1.752-1.386c-.128-.056-.255-.1-.368-.155a3.759,3.759,0,0,1-1.1-.58h-.014a4.1,4.1,0,0,0,1.427,2.262l.113.085a6.169,6.169,0,0,1,.665.565,1.9,1.9,0,0,0,.8.41,2.217,2.217,0,0,1,.325.113,3.584,3.584,0,0,0,2.05.142,8.342,8.342,0,0,0,.848-.213c.707-.311.721-.3.735-.254s.028.057-.622.452a3.3,3.3,0,0,1-.593.241,6.523,6.523,0,0,1-1.979.127,2.753,2.753,0,0,1-1.216-.452c-.127-.071-.24-.156-.368-.227l-.183-.113a.093.093,0,0,0-.071-.028c-.014,0-.028.014-.042.028s-.015.029.014.071c0,.014.014.028.014.042a1.389,1.389,0,0,1,.071.212c.056.142.1.283.155.424a1.707,1.707,0,0,0,.905,1.1,3.3,3.3,0,0,0,3.6-.806A4.19,4.19,0,0,0,40.4,27.551a1.258,1.258,0,0,0,.028-.227,2.165,2.165,0,0,1,.3-1,2.9,2.9,0,0,0,.466-1.188c0-.028.014-.056.014-.1a.483.483,0,0,1,.1-.312l.057-.084v.183a.39.39,0,0,1,0,.128,3.871,3.871,0,0,1-.382,1.456,3.9,3.9,0,0,0-.381,1.229,3.642,3.642,0,0,1-1.329,2.545c-.042.028-.057.042-.042.056s.014.028.056.028h.028a.636.636,0,0,0,.41-.155,6.918,6.918,0,0,0,1.188-.947A2.836,2.836,0,0,0,41.9,27.07a4.282,4.282,0,0,0-.3-1.809m.184.353.141.594a2.977,2.977,0,0,0-.141-.594" fill="#55aeaf"/>
    <path d="M34.206,29.657a7.8,7.8,0,0,1-.509-.664,7.469,7.469,0,0,1-.424-.707c-.141-.24-.268-.48-.4-.721a3.317,3.317,0,0,1,.579.594,7.26,7.26,0,0,1,.481.664c.155.226.3.453.438.693s.3.452.466.678a2.3,2.3,0,0,1-.636-.537m-1.512.3a13.226,13.226,0,0,1-1.258-.636c-.41-.226-.82-.466-1.2-.721a10.8,10.8,0,0,1-1.145-.834c.425.2.849.424,1.258.636s.82.438,1.23.665l1.23.678c.41.226.82.452,1.244.636a5.605,5.605,0,0,1-1.357-.424m-.919-2.29a2.687,2.687,0,0,1-.311-.523,1.742,1.742,0,0,1-.155-.608,2.953,2.953,0,0,1,.042-.607c.042-.2.071-.382.1-.566a3.387,3.387,0,0,0-.057-1.131,2.257,2.257,0,0,1,.283,1.145,11.153,11.153,0,0,0-.071,1.131,2.32,2.32,0,0,0,.354,1.018c.184.325.41.636.608.975a4.93,4.93,0,0,1-.792-.834m-1.753-.24a7.956,7.956,0,0,1-.537-.664,4.367,4.367,0,0,0-.523-.622A1.353,1.353,0,0,1,28.821,26c-.057-.042-.1-.084-.156-.127-.113-.085-.226-.17-.339-.268a3.936,3.936,0,0,1-1.032-1.386,10.815,10.815,0,0,1-.551-1.611c.254.509.481,1.018.749,1.512a4.457,4.457,0,0,0,1.018,1.273c.1.084.212.169.325.254a3.216,3.216,0,0,1,.339.3,4.909,4.909,0,0,1,.523.692c.156.241.3.481.452.693a2.592,2.592,0,0,0,.594.58,1.807,1.807,0,0,1-.721-.481m.552-1.668a9.537,9.537,0,0,1-.128-1.541c-.014-.254,0-.509-.028-.763a2.94,2.94,0,0,0-.127-.721,2.568,2.568,0,0,0-.325-.65,2.232,2.232,0,0,0-.481-.551,6.563,6.563,0,0,0-.608-.438c-.212-.142-.424-.3-.621-.453.226.113.452.226.692.339a4.757,4.757,0,0,1,.679.382,2.4,2.4,0,0,1,.565.565,2.489,2.489,0,0,1,.367.721,4.517,4.517,0,0,1,.1,1.569c-.014.523-.056,1.032-.084,1.541m-1.527-1.71c-.212-.34-.41-.693-.622-1-.057-.085-.113-.155-.169-.226l-.1-.1-.114-.113a1.8,1.8,0,0,1-.311-.551,2.571,2.571,0,0,1-.113-1.216,4.2,4.2,0,0,0,.311,1.131,1.79,1.79,0,0,0,.311.466l.1.1a.86.86,0,0,1,.113.113,2.933,2.933,0,0,1,.2.255,7.82,7.82,0,0,1,.594,1.06,9.764,9.764,0,0,1,.452,1.131c-.226-.368-.438-.707-.65-1.046m6.912,6.728a.108.108,0,0,1-.071-.014,1.613,1.613,0,0,1-1.272-1.329A2.852,2.852,0,0,0,32.651,27.4c-.07-.029-.1-.014-.113.014s-.014.028.029.071l.014.014a2.349,2.349,0,0,1,.466.89,2.691,2.691,0,0,0,1.046,1.5,3.109,3.109,0,0,1,.269.212c.042.043.1.085.155.142l.142.113-.17-.057a2.916,2.916,0,0,1-1.541-1.371,2.75,2.75,0,0,1-.268-.636,2.46,2.46,0,0,0-.269-.622.923.923,0,0,1-.127-.466v-.043c-.014-.2-.014-.395-.014-.593a6.565,6.565,0,0,0-.028-.735,1.99,1.99,0,0,0-.3-.976c-.057-.07-.113-.155-.17-.226a2.867,2.867,0,0,1-.382-.593c-.014-.015-.014-.029-.014-.057-.028-.071-.042-.085-.07-.071s-.043.043-.029.113v.057a4.043,4.043,0,0,1-.254,1.611,2.065,2.065,0,0,0,.085,1.682A3.146,3.146,0,0,0,32.27,28.6a.073.073,0,0,0,.056.028.415.415,0,0,1,.2.212l.029.1-.085-.056c-.3-.184-.594-.368-.877-.58a2.313,2.313,0,0,1-.961-2.077,4.581,4.581,0,0,1,.3-1.3,4.56,4.56,0,0,0,.141-2.106,2.382,2.382,0,0,0-.41-1.173,2.46,2.46,0,0,0-1.653-.933,1.085,1.085,0,0,0-.212-.014,1.825,1.825,0,0,1-.467-.085A.143.143,0,0,0,28.2,20.6c-.028.014-.042.085-.042.141a1.069,1.069,0,0,0,.282.735,3.062,3.062,0,0,0,.622.565,2.582,2.582,0,0,1,.99,1.909c.028.155.042.311.056.452a4.233,4.233,0,0,0,.339,1.428.886.886,0,0,1,.113.537l-.014.1-.056-.071a.821.821,0,0,1-.127-.212,2.691,2.691,0,0,0-.227-.325,1.283,1.283,0,0,1-.339-.735c-.042-.382-.085-.763-.127-1.131l-.028-.212a1.97,1.97,0,0,0-.764-1.512,1.106,1.106,0,0,0-.169-.113,2.059,2.059,0,0,1-.4-.3c-.311-.3-.65-.636-.424-1.159.014-.043,0-.057-.014-.071s-.043-.014-.085.014a.76.76,0,0,0-.438.509,1.914,1.914,0,0,0,.07,1.159,5.732,5.732,0,0,0,1.824,2.657,3.661,3.661,0,0,1,1.343,1.923A2.993,2.993,0,0,0,31.21,28.1c.014.015.042.043.028.071s-.028.043-.057.071l-.028.014-.056-.071a1.557,1.557,0,0,1-.142-.155,4.894,4.894,0,0,1-.523-.905c-.056-.113-.1-.226-.155-.325a7.131,7.131,0,0,0-1.894-2.262,4.716,4.716,0,0,1-1.47-1.766,5.311,5.311,0,0,1-.212-.622c-.014-.071-.029-.071-.057-.071s-.042.042-.042.085v.141A8.045,8.045,0,0,0,27.1,24.8a4.938,4.938,0,0,0,2.926,3.11c.241.1.5.183.735.268.17.057.354.127.538.2a2.365,2.365,0,0,1,.734.4l.1.085L32,28.823l-.381-.084c-.085-.029-.17-.043-.255-.071a5.3,5.3,0,0,1-2.827-1.4l-.028-.028c-.028-.028-.042-.056-.071-.056-.014,0-.014,0-.028.014s-.014.028.042.085c.015.014.029.028.029.042a8.7,8.7,0,0,0,1.583,1.555,8.549,8.549,0,0,0,3.01,1.526,19.461,19.461,0,0,0,2.488.453c.043.014.1.014.142.028a1.505,1.505,0,0,0,.438.028.2.2,0,0,0-.184-.141" fill="#55aeaf"/>
    <path d="M35.563,12.44c-.2.113-.4.226-.579.354a2.928,2.928,0,0,0-.509.438,5.831,5.831,0,0,1-.509.5,5.55,5.55,0,0,1-.565.424,13.125,13.125,0,0,1-1.188.735c.34-.326.707-.608,1.06-.9a7.848,7.848,0,0,0,.99-.947,3.493,3.493,0,0,1,1.187-.792,3.11,3.11,0,0,1,1.385-.268,4.77,4.77,0,0,0-1.272.466m-6.728,5.584A10.17,10.17,0,0,1,29.3,16.2a4.143,4.143,0,0,1,.439-.862,3.81,3.81,0,0,1,.636-.721l.367-.3c.113-.1.241-.2.354-.3.226-.2.452-.424.692-.636a4.473,4.473,0,0,1,1.569-1.032,6,6,0,0,0-1.413,1.188c-.212.226-.438.452-.665.664a3.737,3.737,0,0,1-.353.311l-.353.3a4.022,4.022,0,0,0-1.06,1.456,18.526,18.526,0,0,0-.679,1.753m1.7-.891c.184-.156.382-.311.566-.452l.593-.424c.4-.269.806-.538,1.216-.792s.834-.509,1.244-.763a9,9,0,0,1-1.117.947c-.382.3-.791.579-1.187.848s-.792.537-1.2.82c-.2.141-.395.268-.608.41a4.016,4.016,0,0,1-.636.353c.4-.311.75-.636,1.131-.947M29.188,19.3a4.193,4.193,0,0,1,.509-.226A1.781,1.781,0,0,1,29.966,19a2.345,2.345,0,0,1,.268-.043,1.048,1.048,0,0,0,.439-.169c.141-.085.282-.184.424-.283.268-.212.523-.452.791-.693a3.849,3.849,0,0,1-.65.863,1.846,1.846,0,0,1-.961.565c-.113.014-.17.014-.255.028a1.606,1.606,0,0,0-.24.057,2.716,2.716,0,0,0-.481.17c-.325.127-.636.282-.961.438a3.4,3.4,0,0,1,.848-.636m-2.332,1.272a1.9,1.9,0,0,1,.113-.679,2.586,2.586,0,0,1,.311-.622,2.956,2.956,0,0,0,.481-1.2l.028-.156c.014-.056.014-.113.028-.169.014-.113.043-.226.057-.339.056-.227.113-.453.184-.665a3.532,3.532,0,0,1,.268-.636,1.931,1.931,0,0,1,.4-.565,3.479,3.479,0,0,0-.269.622,4.915,4.915,0,0,0-.169.65c-.043.212-.1.438-.127.65-.015.113-.043.212-.057.325a.643.643,0,0,0-.014.156l-.028.169a2.727,2.727,0,0,1-.212.679,4.161,4.161,0,0,1-.368.593,6.284,6.284,0,0,0-.367.552,2.52,2.52,0,0,0-.255.636M35.733,11.9a3.982,3.982,0,0,0-2.855,1.88l-.085.127A4.052,4.052,0,0,1,31,15.691a4.458,4.458,0,0,0-.863.749,5.99,5.99,0,0,0-.791,1.131c-.071.127-.141.24-.212.368l-.113.183.056-.212a4.779,4.779,0,0,1,.269-.791,3.1,3.1,0,0,1,1.343-1.513,3.225,3.225,0,0,0,1.6-1.625,2.79,2.79,0,0,1,1.484-1.71c.071-.029.071-.057.057-.071s-.029-.028-.085-.014c-.014,0-.014,0-.028.014-.142.028-.255.057-.368.085a6.678,6.678,0,0,0-2.134,1.06,7.065,7.065,0,0,0-1.47,1.272,4.5,4.5,0,0,0-.947,2.94,2.607,2.607,0,0,1-.509,1.541,7.59,7.59,0,0,1-.523.65,3.858,3.858,0,0,0-.778,1.117l-.07-.029a2.143,2.143,0,0,1,.523-1.06c.183-.2.367-.41.565-.664a2.124,2.124,0,0,0,.495-.99,11.206,11.206,0,0,0,.085-1.3,2.926,2.926,0,0,1,.551-1.809c.014-.014.014-.028.028-.028.028-.043.043-.057.028-.071a.25.25,0,0,0-.113.071,11.1,11.1,0,0,0-1.286,1.7,4.512,4.512,0,0,0-.636,1.894,4.58,4.58,0,0,1-.3,1.4,2.118,2.118,0,0,0-.127,1.315,2.009,2.009,0,0,1,.056.282,2.806,2.806,0,0,0,.425,1.216.2.2,0,0,0-.043-.2,1.948,1.948,0,0,1-.184-.523l-.042-.17a1.341,1.341,0,0,1,.283-1.1,1.551,1.551,0,0,1,1.088-.664h.353a8.042,8.042,0,0,0,1.159-.071A2.1,2.1,0,0,0,31,19.494a4.038,4.038,0,0,0,.749-1.188c.085-.155.155-.325.24-.48.028-.057.057-.1.028-.156-.014,0-.014,0-.028.014a.337.337,0,0,1-.113.029.309.309,0,0,0-.113.07,3.416,3.416,0,0,1-1.767.679,1.928,1.928,0,0,0-1.244.735l-.085.1a3.05,3.05,0,0,1-1.243,1.074l-.128.042.085-.1c.014-.028.043-.042.057-.07.042-.043.07-.1.113-.142.226-.226.452-.48.664-.721.141-.169.3-.339.452-.508a2.508,2.508,0,0,1,1.513-.792A5.6,5.6,0,0,0,32.6,17.02a3.827,3.827,0,0,0,1.046-1.371c.056-.1.113-.2.17-.3a1.811,1.811,0,0,1,.494-.608.245.245,0,0,0,.127-.254.73.73,0,0,0-.183.1c-.17.084-.325.155-.481.226-.268.113-.565.212-.834.311a9.347,9.347,0,0,0-.989.382,4.272,4.272,0,0,0-1.979,1.611c-.043.071-.085.127-.127.2a2.9,2.9,0,0,1-.848,1l-.213.128.156-.184a1.773,1.773,0,0,0,.254-.41,1.15,1.15,0,0,1,.1-.17,5.428,5.428,0,0,1,1.485-1.8,9.251,9.251,0,0,1,3.01-1.4,2.842,2.842,0,0,0,1.767-1.216A2.98,2.98,0,0,1,37.1,12.059a.326.326,0,0,1,.156-.029.4.4,0,0,0,.127-.014,3.477,3.477,0,0,0-1.654-.113M33.33,16.4l-.071.085" fill="#55aeaf"/>
    <path d="M44.793,18.236a2.711,2.711,0,0,1-.763-.834,7.6,7.6,0,0,0-.467-.961,2.925,2.925,0,0,0-.339-.4,3.486,3.486,0,0,0-.438-.311,2.316,2.316,0,0,1,.523.2,2.179,2.179,0,0,1,.438.367,2.832,2.832,0,0,1,.311.481c.085.17.156.339.226.48a3.463,3.463,0,0,0,.665.792,2.862,2.862,0,0,1,.678.862,9.63,9.63,0,0,0-.834-.678m-3.011-2.163a4.32,4.32,0,0,1,.481,1.357,2.086,2.086,0,0,0,.085.325c.014.057.042.1.056.156a.445.445,0,0,0,.071.141,1.581,1.581,0,0,0,.41.509,2.727,2.727,0,0,0,1.23.565,2.093,2.093,0,0,1-1.371-.381,2.12,2.12,0,0,1-.509-.552,2.626,2.626,0,0,1-.269-.692,6.72,6.72,0,0,0-.4-1.315,3.271,3.271,0,0,0-.862-1.06,2.265,2.265,0,0,1,1.074.947m-3.321-1.484a3.236,3.236,0,0,1,.735.353,2.756,2.756,0,0,1,.593.552,7.351,7.351,0,0,1,.863,1.328,6.881,6.881,0,0,1,.565,1.47q-.36-.7-.763-1.357a11.218,11.218,0,0,0-.877-1.258A2.942,2.942,0,0,0,38.39,14.8a7.387,7.387,0,0,0-1.484-.4,4.159,4.159,0,0,1,1.555.184m.523-1.343a3.673,3.673,0,0,1,1.809.085,7.673,7.673,0,0,1,2.332,1.343l.339.3a1.525,1.525,0,0,1,.156.155c.042.057.113.113.127.184a.717.717,0,0,0-.155-.141,2.093,2.093,0,0,0-.184-.128c-.127-.085-.24-.169-.368-.24-.24-.156-.494-.311-.749-.452s-.509-.283-.777-.41a5.476,5.476,0,0,0-.806-.325,4.02,4.02,0,0,0-1.7-.128,5.04,5.04,0,0,0-1.654.523,3.535,3.535,0,0,1,1.626-.763m-3.393,1.979a2.826,2.826,0,0,1,.976-.071,3.122,3.122,0,0,1,.947.226,3.313,3.313,0,0,1,.834.481c-.311-.085-.608-.184-.905-.268a6.29,6.29,0,0,0-.905-.156,4.877,4.877,0,0,0-.9.014,6.894,6.894,0,0,0-.919.17,2.731,2.731,0,0,1,.876-.4m.382-1.555a8.813,8.813,0,0,1,.933-.834,3.575,3.575,0,0,1,1.145-.551,1.924,1.924,0,0,1,1.258.042,2.426,2.426,0,0,0-1.188.17,4.91,4.91,0,0,0-.551.254c-.169.1-.339.2-.509.311-.325.227-.622.509-.947.764a7.416,7.416,0,0,1-1.017.721c.3-.3.579-.594.876-.877m9.894,5.612c-.014-.014-.014-.028-.028-.043l-.169-.381a5.835,5.835,0,0,1-.34-.82,4.287,4.287,0,0,0-.565-1.258,2.516,2.516,0,0,0-1.583-1.145,1.645,1.645,0,0,0-.269-.014.865.865,0,0,1-.424-.071l-.17-.085c-.48-.24-.975-.494-1.441-.777a3.437,3.437,0,0,0-2.94-.58.248.248,0,0,1-.113.014h-.1l-.17.015.156-.085a2.043,2.043,0,0,1,1.2-.311,5.247,5.247,0,0,1,2.4.862,3.735,3.735,0,0,0,1.753.664,1.744,1.744,0,0,1,.706.2,1.926,1.926,0,0,1,.326.241c.042.042.084.07.127.113s.07.028.085.014c0-.014.014-.014-.029-.043l-.014-.014c-.141-.155-.283-.325-.424-.48a8.843,8.843,0,0,0-1.074-1.117,5.031,5.031,0,0,0-2.4-1.23,3,3,0,0,0-2.686.707,6.152,6.152,0,0,1-.523.4,5.5,5.5,0,0,1-1.258.608.57.57,0,0,0-.184.084,2.978,2.978,0,0,1-.438.212c-.155.071-.325.156-.48.241a1.636,1.636,0,0,0-.34.3,2.195,2.195,0,0,1-.268.24l-.1.071.042-.114a2.84,2.84,0,0,1,1.711-1.258,2.818,2.818,0,0,0,.353-.127l.113-.07a3.458,3.458,0,0,0,1.018-.707,2.867,2.867,0,0,1,1.823-1.018,1.819,1.819,0,0,1,.877.1l.014.014c.07.028.07.028.085-.014,0-.014.014-.028,0-.028a.113.113,0,0,0-.071-.029l-.127-.042c-.2-.071-.41-.155-.622-.212a3.459,3.459,0,0,0-1.4-.127,3.5,3.5,0,0,0-1.71.848,2.432,2.432,0,0,0-.636.806,2.7,2.7,0,0,1-.721.9,3.4,3.4,0,0,0-.806.9c-.028.056-.07.1-.1.155a3.638,3.638,0,0,1-.395.552.255.255,0,0,1-.1.07c-.057.043-.113.085-.127.128a.043.043,0,0,0,.014.028.051.051,0,0,0,.042.014c.043,0,.113-.042.226-.212a1.551,1.551,0,0,1,1.527-.551c.1.014.184.014.282.028a2,2,0,0,0,.58.028,7.314,7.314,0,0,1,2.4.17c.014,0,.042.014.057.014.042.014.056.028.07,0s.014-.057-.014-.113c0-.014-.014-.014-.014-.028a2.008,2.008,0,0,0-1.074-.834,3.084,3.084,0,0,0-2.29.212,6.853,6.853,0,0,0-.792.438l-.183.127.141-.17a2.135,2.135,0,0,1,.876-.636,3.559,3.559,0,0,0,.41-.183,3.208,3.208,0,0,1,.778-.283,2.083,2.083,0,0,1,2.021.933l.014.014a4.534,4.534,0,0,0,.89.975c.085.057.156.1.241.156a1.54,1.54,0,0,1,.367.254A8.934,8.934,0,0,1,41.5,19.056c.014.014.014.028.028.056s.028.071.057.085H41.6c.028-.014.028-.028.028-.028.014-.029-.014-.085-.042-.128v-.014a4.335,4.335,0,0,1-.41-1.625,3.434,3.434,0,0,0-1.046-2.262,2.565,2.565,0,0,0-1.442-.692l-.551-.085c-.114-.014-.227-.043-.354-.057l-.184-.028.184-.042c.071-.015.127-.029.184-.043a.653.653,0,0,0,.254-.071.95.95,0,0,1,.4-.07,1.4,1.4,0,0,1,.509.1,3.057,3.057,0,0,1,1.993,2.035,4.121,4.121,0,0,1,.17.905,5.026,5.026,0,0,0,.169.9c.029.1.057.2.085.3a1.187,1.187,0,0,0,.438.792,2.59,2.59,0,0,0,2.064.325h.014c.127-.028.226-.057.24-.141s-.07-.128-.169-.184l-.043-.028a2.215,2.215,0,0,1-1.046-1.2c-.042-.1-.07-.2-.113-.311a5.891,5.891,0,0,1-.226-.692,1.758,1.758,0,0,0-.735-1.075,6.3,6.3,0,0,0-1.244-.678,1.607,1.607,0,0,1-.678-.622l-.071-.1.113.042a2.948,2.948,0,0,1,.523.241c.184.1.354.212.523.311a5.851,5.851,0,0,0,1.06.565,1.351,1.351,0,0,1,.792.806c.056.141.085.3.127.438a2.285,2.285,0,0,0,.071.3,2.817,2.817,0,0,1,.07.282,2.17,2.17,0,0,0,.326.82,1.764,1.764,0,0,0,1.342.749,1.142,1.142,0,0,1,.82.4c0,.014.014.014.014.028.014.029.043.057.057.057s.014,0,.028-.014a.014.014,0,0,0,.014-.014c.029-.057.029-.071.014-.1m-12.608-2.8.071-.085a.19.19,0,0,0-.071.085" fill="#55aeaf"/>
    <path d="M55.1,15.2q-.508.042-1.017.042a3.043,3.043,0,0,0-.962.142,1.942,1.942,0,0,0-.777.523,2.3,2.3,0,0,0-.509.8,9.574,9.574,0,0,0-.3.962c-.085.325-.184.664-.3.975a6.082,6.082,0,0,1-.438.919c.113-.325.226-.636.311-.976.085-.325.156-.65.212-.989a8.847,8.847,0,0,1,.255-1,2.439,2.439,0,0,1,.565-.9,2.252,2.252,0,0,1,.905-.58c.084-.028.169-.042.268-.071a1.587,1.587,0,0,1,.269-.028c.169-.014.353-.014.523-.014.339.014.678.028,1.017.028s.679,0,1.018-.014A5.785,5.785,0,0,1,55.1,15.2M50.9,27.183a4.588,4.588,0,0,1-.014-1.159c.042-.381.1-.749.113-1.131a10.141,10.141,0,0,0,0-1.13,3.9,3.9,0,0,1,.212,1.13,6.127,6.127,0,0,1-.057,1.145,7.458,7.458,0,0,0-.042,1.117,3.685,3.685,0,0,0,.184,1.1,2.213,2.213,0,0,1-.4-1.075m.763-2.685a6.335,6.335,0,0,1,.509,1.244,5.282,5.282,0,0,1,.212,1.342,3.25,3.25,0,0,1-.028.354c-.014.127-.042.226-.056.339-.043.212-.071.424-.114.65a3.749,3.749,0,0,0,.015,1.315,2.679,2.679,0,0,1-.227-1.329,5.536,5.536,0,0,1,.057-.678c.014-.113.042-.227.056-.325A2.167,2.167,0,0,0,52.1,27.1a5.255,5.255,0,0,0-.043-.651c-.028-.212-.056-.438-.1-.65-.085-.438-.183-.862-.3-1.3m-.579,5.145a2.682,2.682,0,0,0-.41-.184,1.46,1.46,0,0,0-.41-.1,1.39,1.39,0,0,0-.82.17,4.247,4.247,0,0,0-.749.523,2.053,2.053,0,0,1,.622-.735,1.488,1.488,0,0,1,.975-.241,1.858,1.858,0,0,1,.905.382c.254.184.481.382.763.551a3.012,3.012,0,0,1-.876-.367m-1.5-1.937a3.22,3.22,0,0,1-.566-1.272,8.761,8.761,0,0,1-.127-1.357c-.014-.452-.042-.89-.085-1.343a5.312,5.312,0,0,1,.311,1.329c.057.452.1.891.184,1.315a3.666,3.666,0,0,0,.466,1.2,2.313,2.313,0,0,0,.961.877,1.953,1.953,0,0,1-1.144-.75m.141-3.745c-.057-.227-.113-.453-.184-.679a4.941,4.941,0,0,0-.226-.65c-.085-.212-.184-.424-.269-.65s-.169-.453-.24-.679a3.985,3.985,0,0,1-.184-1.413,7.425,7.425,0,0,0,.4,1.343c.17.438.368.848.566,1.3a6.1,6.1,0,0,1,.353,1.385,11.6,11.6,0,0,1,.155,1.414c-.141-.453-.254-.905-.367-1.371M49.5,19.522c-.113-.184-.226-.367-.339-.565-.057-.1-.1-.2-.156-.3a2.241,2.241,0,0,1-.127-.325,4.316,4.316,0,0,1-.085-1.343,4.691,4.691,0,0,1,.085-.65,2.5,2.5,0,0,1,.184-.636,4.894,4.894,0,0,0-.043.65v.65c.014.212.014.424.043.636a4.293,4.293,0,0,0,.1.622,2.78,2.78,0,0,0,.24.58c.1.2.2.381.3.579a6.277,6.277,0,0,1,.452,1.244c-.212-.41-.424-.777-.65-1.145m.537-1.569a7.346,7.346,0,0,1-.226-1.767,3.1,3.1,0,0,1,.452-1.752,7.161,7.161,0,0,1,1.244-1.287c.226-.2.466-.367.707-.551a5.152,5.152,0,0,1,.763-.466A17.249,17.249,0,0,0,51.662,13.3c-.212.212-.409.41-.607.622a4.96,4.96,0,0,0-.552.664,3.246,3.246,0,0,0-.466,1.611,14.441,14.441,0,0,0,0,1.753m3-4.368a4.168,4.168,0,0,0,.453-.409c.07-.071.141-.156.2-.227l.1-.127c.042-.042.07-.1.113-.127a1.918,1.918,0,0,1,.551-.41,2.513,2.513,0,0,1,.622-.212A3.954,3.954,0,0,1,56.355,12a11.255,11.255,0,0,0-1.23.283,2.3,2.3,0,0,0-1.031.608.371.371,0,0,0-.1.113l-.043.056-.056.071c-.071.085-.142.17-.226.255a3.89,3.89,0,0,1-.523.41c-.368.24-.75.424-1.117.636a7.8,7.8,0,0,1,1-.849m3.8,1.273c0-.014,0-.014-.014-.014a.087.087,0,0,0-.057.014h-.014a1.805,1.805,0,0,1-.58.084,4.715,4.715,0,0,1-1.611-.3c-.127-.043-.254-.071-.367-.113a2.2,2.2,0,0,0-1.485,0,3.09,3.09,0,0,0-1.837,2.445,11.08,11.08,0,0,0-.142,2.092,2.145,2.145,0,0,1-.127.806L50.56,20l-.028-.127a8.074,8.074,0,0,1-.128-1.612,5.5,5.5,0,0,1,.806-2.77,2.751,2.751,0,0,1,1.781-1.3,3.915,3.915,0,0,0,2.318-1.286,3.687,3.687,0,0,1,1.089-.82l.127-.042c.1-.028.141-.043.127-.085s-.085-.071-.184-.1c-.042-.014-.085-.014-.127-.028h-.1a4.656,4.656,0,0,0-.989-.085h-.3a2.275,2.275,0,0,0-2.106,1.145,5.19,5.19,0,0,0-.467.876,1.574,1.574,0,0,1-.509.665,1.707,1.707,0,0,0-.48.523l-.057.1a7.929,7.929,0,0,0-.947,2.4c-.014.1-.014.2-.028.3a1.434,1.434,0,0,1-.071.5l-.042.113-.028-.113a5.177,5.177,0,0,1,.721-2.982c.169-.255.367-.509.551-.75a7.462,7.462,0,0,0,1.032-1.583,2.645,2.645,0,0,1,.819-.947l.015-.014a1.317,1.317,0,0,0-.4.057,7.36,7.36,0,0,0-1.5.749c-.114.071-.212.127-.326.184a3.147,3.147,0,0,0-1.5,2.233,4.181,4.181,0,0,0-.056,1.385,5.723,5.723,0,0,0,.579,1.979,1.447,1.447,0,0,1,.156.679l-.015.141-.056-.127c-.071-.156-.141-.311-.226-.467-.156-.311-.311-.636-.438-.961a5.768,5.768,0,0,1-.41-1.343,2.711,2.711,0,0,1,.2-1.413c0-.014.014-.014.014-.029.028-.056.028-.07,0-.084s-.029,0-.071.056c0,.014-.014.014-.014.028s-.014.029-.028.043-.015.028-.029.042a5.981,5.981,0,0,0-.763,2.53l-.028.156a1.742,1.742,0,0,0,.056.806,3.508,3.508,0,0,0,1.272,1.936A2.094,2.094,0,0,1,50.56,22a10.331,10.331,0,0,1-.014,2.883l-.014.1a4.871,4.871,0,0,1-.212,1.075l-.057.141v-.156c0-.042-.014-.084-.014-.127a2.8,2.8,0,0,1-.014-.593c.014-.156.042-.326.056-.481a13.889,13.889,0,0,0,.142-1.739,2.45,2.45,0,0,0-.679-1.795,4.149,4.149,0,0,1-1.074-1.6,2.185,2.185,0,0,0-.17.565l-.014.071a3.6,3.6,0,0,0,.283,2.587,5.155,5.155,0,0,0,.283.466,7.474,7.474,0,0,1,.452.806l.042.1a6.321,6.321,0,0,1,.707,2.389,2.425,2.425,0,0,0,.565,1.569l.015.014c.028.028.07.07.014.127l-.014.028-.029-.014a1.544,1.544,0,0,1-.848-1.541v-.127a2.509,2.509,0,0,0-.042-.791,11.975,11.975,0,0,0-1.074-2.446c-.071-.141-.156-.3-.227-.438-.028-.042-.042-.071-.07-.085A.109.109,0,0,0,48.5,23c-.014.015-.028.015-.028.029a.106.106,0,0,0,.028.056c.014.014.014.028.028.043a2.358,2.358,0,0,1,.227,1.625,7.059,7.059,0,0,0-.17.975,2.569,2.569,0,0,0,2.12,2.9,1.454,1.454,0,0,1,.467.127,1.974,1.974,0,0,1,.735.863c.07.127.141.254.226.381l-.028.014-.029.029c-.07-.1-.155-.184-.226-.269a2.813,2.813,0,0,1-.325-.4,1.347,1.347,0,0,0-1.244-.692,1.685,1.685,0,0,0-1.753,1.625l-.014.071c0,.014-.014.07.043.085.014,0,.042.014.07-.057a.732.732,0,0,1,.368-.283,1.348,1.348,0,0,1,1.074.029,1.759,1.759,0,0,0,1.626.085.474.474,0,0,1,.579.056.114.114,0,0,0,.156.042c.042-.028.028-.07,0-.141l-.014-.028a1.775,1.775,0,0,1-.015-.976l.043-.141a4.6,4.6,0,0,0,.268-1.512,7.559,7.559,0,0,0-.551-2.53,1.359,1.359,0,0,0-.41-.566l-.014-.014c-.056-.057-.1-.085-.141-.057s-.043.043,0,.114a.051.051,0,0,1,.014.042,5.665,5.665,0,0,1,.212,2.445,4.18,4.18,0,0,1-.057.453,6.6,6.6,0,0,0-.07.918,3.676,3.676,0,0,0,.042.368,3.337,3.337,0,0,1,.057.4v.113l-.071-.085a1.217,1.217,0,0,1-.269-.594,3.151,3.151,0,0,1,.015-1.258,5.63,5.63,0,0,0-.439-3.7c-.014-.014-.014-.028-.014-.057-.028-.084-.042-.113-.085-.1s-.056.043-.028.142c0,.028.014.042.014.056a3.877,3.877,0,0,1-.113,1.753c-.071.226-.141.438-.2.65a2.177,2.177,0,0,0,.269,1.894,1.829,1.829,0,0,0,.2.269,2.2,2.2,0,0,1,.3.438l.056.127-.113-.084a2.546,2.546,0,0,1-.565-.636,2.181,2.181,0,0,1-.41-1.683,12.073,12.073,0,0,0,.212-4.593,1.224,1.224,0,0,1,0-.4v-.043a.379.379,0,0,1,.226-.325.331.331,0,0,1,.381.113c.057.057.1.113.156.17a.375.375,0,0,0,.438.127.773.773,0,0,0,.608-.537c.042-.17.085-.353.113-.537a9.7,9.7,0,0,0,.043-1.117c0-.254,0-.523.014-.791a.251.251,0,0,0-.057-.2c-.014.014-.028.028-.028.042a.049.049,0,0,1-.014.028.225.225,0,0,1-.057.1c0,.015-.014.029-.014.043a2.378,2.378,0,0,1-.071.777,2.947,2.947,0,0,1-.268.749,1.048,1.048,0,0,1-.283.34.513.513,0,0,1-.212.084c-.071.015-.127.029-.184.043a1.419,1.419,0,0,0-.353.1,1.319,1.319,0,0,0-.325.2.88.88,0,0,1,.254-.311,1.38,1.38,0,0,1,.354-.184l.169-.071a1.331,1.331,0,0,0,.142-.07.919.919,0,0,0,.183-.255c.113-.212.212-.438.311-.678s.2-.467.283-.707a3.476,3.476,0,0,1-.919,1.074,1.773,1.773,0,0,0-.848,1.287l-.014.31-.057-.31a1.008,1.008,0,0,1,.17-.834c.057-.071.113-.142.17-.227a5.868,5.868,0,0,1,.678-.763,4.574,4.574,0,0,0,.82-.989,4.884,4.884,0,0,0,.283-.523,4.426,4.426,0,0,1,.24-.453,2.713,2.713,0,0,1,1.951-1.286,2.305,2.305,0,0,0,.819-.269,1.418,1.418,0,0,0,.241-.155,3.134,3.134,0,0,1,.876-.424c.028-.014.057-.014.057-.028.014.028.014.014.014,0M51.86,29.671a1.929,1.929,0,0,0-.707-.834.981.981,0,0,0-.183-.07,1.352,1.352,0,0,1,.636.593,1.65,1.65,0,0,0,.283.353c-.015-.014-.029-.028-.029-.042m1.965-15.619h0c.014,0,.028-.014.042-.014" fill="#55aeaf"/>
    <path d="M61.189,29.346a1.336,1.336,0,0,1-.381.367,1.32,1.32,0,0,1-.523.156,1.1,1.1,0,0,1-.523-.085.509.509,0,0,1-.128-.056c-.027-.015-.056-.029-.084-.043a.851.851,0,0,0-.2-.028,3.2,3.2,0,0,0-.919.212,3.931,3.931,0,0,1,.411-.269,1.766,1.766,0,0,1,.479-.169.659.659,0,0,1,.284.014c.042.014.1.028.141.042a.261.261,0,0,0,.1.029,1.467,1.467,0,0,0,.424.056,1.124,1.124,0,0,0,.75-.367A3.436,3.436,0,0,0,61.5,28.4a1.929,1.929,0,0,1-.311.947m-1.1-.905a1.484,1.484,0,0,0,.481-.452,1.5,1.5,0,0,0,.225-.608c.015-.113.029-.226.043-.339a1.373,1.373,0,0,0,0-.339,3.581,3.581,0,0,0-.437-1.272c-.213-.424-.44-.849-.609-1.287.283.382.552.778.807,1.173a3.045,3.045,0,0,1,.536,1.357,1.807,1.807,0,0,1-.013.382c-.015.127-.03.24-.057.368a1.807,1.807,0,0,1-.312.692,1.369,1.369,0,0,1-.594.438,2.372,2.372,0,0,1-.692.184,2.766,2.766,0,0,0,.622-.3m-1.979-.085a4.287,4.287,0,0,0-.027,1.131,2.618,2.618,0,0,1-.185-1.145v-.565a1.247,1.247,0,0,0-.085-.5,1.035,1.035,0,0,0-.352-.339,5.485,5.485,0,0,0-.5-.254c-.34-.156-.693-.311-1.047-.5a7.489,7.489,0,0,1,1.117.283,3.006,3.006,0,0,1,.551.226,1.15,1.15,0,0,1,.466.438.942.942,0,0,1,.1.325,2.211,2.211,0,0,1,.014.311c-.014.2-.028.382-.056.579M55.337,25.19c-.24-.085-.48-.183-.735-.254a3.555,3.555,0,0,0-.721-.184,3.711,3.711,0,0,1-1.5-.565,9.24,9.24,0,0,1-1.258-.947c.452.254.905.523,1.357.763a4.113,4.113,0,0,0,1.414.481,4.122,4.122,0,0,1,.777.212c.254.1.495.2.721.311a12.946,12.946,0,0,1,1.372.749c-.453-.2-.934-.382-1.429-.566m.552-1.046c-.227-.24-.453-.48-.679-.706a1.707,1.707,0,0,0-.366-.283,2.437,2.437,0,0,0-.424-.2,4.511,4.511,0,0,0-1.9-.226.867.867,0,0,1-.269,0A.764.764,0,0,1,52,22.646a1.591,1.591,0,0,1-.426-.311,4.112,4.112,0,0,1-.579-.82,6.449,6.449,0,0,0,.664.721,1.286,1.286,0,0,0,.4.24.911.911,0,0,0,.438.043,4.091,4.091,0,0,1,1.018-.043,3.586,3.586,0,0,1,1,.212,1.83,1.83,0,0,1,.466.226,3.382,3.382,0,0,1,.409.326c.255.24.453.494.678.749.41.523.806,1.046,1.23,1.555a14.71,14.71,0,0,1-1.413-1.4m3.52,3.548a3.64,3.64,0,0,0-.057-.876,3.238,3.238,0,0,0-.3-.806c-.07-.127-.142-.254-.211-.382a1.909,1.909,0,0,0-.255-.325c-.2-.212-.411-.41-.622-.636a1.865,1.865,0,0,1-.269-.381c-.043-.071-.07-.142-.113-.212a.935.935,0,0,0-.1-.17,2.973,2.973,0,0,0-.579-.622c-.438-.382-.919-.721-1.386-1.088a11.1,11.1,0,0,1,1.527.918,3.214,3.214,0,0,1,.664.651c.028.028.042.07.072.1l.055.113a1.264,1.264,0,0,0,.1.183,2.62,2.62,0,0,0,.255.34c.183.212.4.424.607.65a1.845,1.845,0,0,1,.269.382,3.515,3.515,0,0,1,.2.409,2.8,2.8,0,0,1,.241.877,3.691,3.691,0,0,1-.1.876m-.664-4.127a9.462,9.462,0,0,1-.51-.919,7.42,7.42,0,0,1-.382-.975,4.349,4.349,0,0,1-.2-1.032c.142.325.27.636.41.947s.283.622.439.933l.439.933c.141.311.3.622.438.947a5.193,5.193,0,0,1-.636-.834m2.94,4.424c-.043,0-.043.014-.057.085,0,.028-.015.042-.015.07a1.431,1.431,0,0,1-1.484.933l-.071-.014.044-.042a.323.323,0,0,1,.211-.1c.029,0,.042-.014.057-.014a1.637,1.637,0,0,0,.777-.5,2.254,2.254,0,0,0,.042-2.827,5.744,5.744,0,0,0-.565-.622,4.964,4.964,0,0,1-.834-1.032c-.014-.028-.042-.07-.071-.056s-.028.028-.028.085v.028a4.478,4.478,0,0,0,.226.919,5.251,5.251,0,0,1,.438,1.625,2.3,2.3,0,0,1-1.045,2.29l-.043.028V28.8c-.014-.071.043-.113.072-.142l.013-.014a2.3,2.3,0,0,0,.607-2.615,14.872,14.872,0,0,1-.565-2.12,5.483,5.483,0,0,0-.961-2.191c-.042-.057-.1-.127-.141-.184a1.728,1.728,0,0,1-.5-1.06.107.107,0,0,0-.028-.071.053.053,0,0,0-.042-.014c-.029,0-.042.014-.057.085v.014c0,.014-.015.043-.015.057a.18.18,0,0,0-.014.085,4.372,4.372,0,0,0,.566,2.728,4.4,4.4,0,0,0,.637.706.927.927,0,0,0,.126.114,3.164,3.164,0,0,1,.82,1.314A3.324,3.324,0,0,1,59.9,26a4.057,4.057,0,0,0,.1.438,1.811,1.811,0,0,1-.411,1.795l-.071.085.016-.1a2.741,2.741,0,0,1,.126-.594,2.3,2.3,0,0,0,.085-.325,2.744,2.744,0,0,0,0-.834,2.8,2.8,0,0,1-.029-.353,2.548,2.548,0,0,0-.509-1.3A8.921,8.921,0,0,0,57.246,22.9a6.371,6.371,0,0,0-1.923-.862L55.2,22a.243.243,0,0,0-.1-.014c-.071,0-.1,0-.112.028v.028c0,.014.027.014.041.014s.029.014.043.014a2.256,2.256,0,0,1,.622.4,5.579,5.579,0,0,1,1.4,1.965,6.3,6.3,0,0,0,1.371,1.809,3.253,3.253,0,0,1,.948,1.513c.056.226.056.311-.057.452l-.057.071-.013-.085a2.988,2.988,0,0,0-.835-1.654,4.745,4.745,0,0,0-.382-.382,3.6,3.6,0,0,1-.65-.735c-.154-.254-.3-.508-.451-.763a13.283,13.283,0,0,0-.779-1.258,4.183,4.183,0,0,0-1.554-1.329,3.264,3.264,0,0,0-1.64-.24,4.005,4.005,0,0,1-.41,0,2.04,2.04,0,0,1-1.413-.367.456.456,0,0,0-.183-.1c-.029.014-.072.07-.1.183a.473.473,0,0,0-.015.283,2.184,2.184,0,0,0,.4.919,1.757,1.757,0,0,0,1.031.749,5.662,5.662,0,0,0,.848.042h.142a3.227,3.227,0,0,1,2.332.82c.1.1.2.184.311.283A7,7,0,0,0,57.415,25.8l.015.014a.14.14,0,0,1,.1.127v.029l-.029.014a.261.261,0,0,1-.184-.028A5.481,5.481,0,0,1,56.2,25.2l-.057-.042A6.646,6.646,0,0,0,55,24.314c-.042-.014-.071-.042-.112-.057a2.353,2.353,0,0,0-.651-.268c-.156-.028-.325-.043-.495-.057-.226-.014-.452-.042-.677-.07a4.207,4.207,0,0,1-1.7-.552,2.253,2.253,0,0,1-.268-.24c-.042-.042-.085-.1-.127-.141a.791.791,0,0,0,.155.452,5.025,5.025,0,0,0,2.644,2.05,7.673,7.673,0,0,0,1.95.381c.24.029.482.057.735.085l.141.014a4.38,4.38,0,0,1,1.2.283,2.554,2.554,0,0,1,1.272,1.4,1.451,1.451,0,0,1-.3,1.654,4.461,4.461,0,0,0-.325.382c-.056.07-.1.127-.155.2l-.1.113.042-.156a1.456,1.456,0,0,1,.226-.466c.014-.029.043-.057.058-.085.028-.057.07-.1.1-.156a1.333,1.333,0,0,0,.253-.537,2.082,2.082,0,0,0-1.1-2.106,3.137,3.137,0,0,0-1.23-.254c-.14-.014-.3-.014-.452-.029a1.257,1.257,0,0,0-.326.015h-.042c-.028,0-.07.028-.07.042v.014c0,.014.013.028.042.028a2.8,2.8,0,0,1,.877.792c.1.113.2.24.3.353a1.991,1.991,0,0,1,.565,1.018,2.257,2.257,0,0,0,.508,1.074.8.8,0,0,1,.212.721c-.014.057,0,.071.028.085s.029,0,.044-.014.013-.014.027-.014a1.211,1.211,0,0,1,.679-.226.941.941,0,0,1,.424.1,1.775,1.775,0,0,0,.354.128,2.4,2.4,0,0,1,.3.113,1.232,1.232,0,0,0,1.483-.551,3.277,3.277,0,0,0,.283-1.555v-.113c-.013-.128-.029-.17-.084-.17" fill="#55aeaf"/>
    <path d="M61.261,22.646a4.532,4.532,0,0,1,.027,1.385,10.635,10.635,0,0,0-.24-1.343A3.675,3.675,0,0,1,60.935,22a3.216,3.216,0,0,1,0-.354,2.77,2.77,0,0,0,.029-.353c.07-.466.156-.905.268-1.357s.212-.89.326-1.329a11.269,11.269,0,0,1-.1,1.371c-.058.453-.141.905-.2,1.357A5.162,5.162,0,0,0,61.2,22a5.376,5.376,0,0,0,.058.65m-1.654.254c-.114-.268-.185-.537-.3-.777a3.95,3.95,0,0,0-.367-.721,5.342,5.342,0,0,0-.51-.636,2.154,2.154,0,0,1-.255-.367,2.022,2.022,0,0,1-.154-.41,9.5,9.5,0,0,1-.3-1.654c.183.523.31,1.074.508,1.583.057.127.113.24.17.353a1.644,1.644,0,0,0,.241.311,5.273,5.273,0,0,1,.55.665c.086.127.143.254.213.381s.112.255.169.4c.085.269.17.537.254.806a3.576,3.576,0,0,0,.792,1.427A2.7,2.7,0,0,1,59.607,22.9m-.4-2.671a6.082,6.082,0,0,1-.354-.834,6.369,6.369,0,0,1-.211-.876,8.515,8.515,0,0,0-.2-.848,5,5,0,0,0-.34-.806,2.537,2.537,0,0,0-.48-.693,1.715,1.715,0,0,0-.736-.41,3.62,3.62,0,0,0-.876-.127,2.407,2.407,0,0,1,.9-.014,1.627,1.627,0,0,1,.44.141,1.48,1.48,0,0,1,.394.255,2.214,2.214,0,0,1,.58.735,6.1,6.1,0,0,1,.367.834,4.971,4.971,0,0,1,.2.89c.044.3.086.58.156.862a5.872,5.872,0,0,0,.268.834,3.493,3.493,0,0,0,.4.792,3.773,3.773,0,0,1-.508-.735m.452-5.188a3.18,3.18,0,0,0-.792-1.526c-.1-.113-.183-.226-.282-.325-.057-.043-.1-.1-.156-.142l-.17-.127a2.006,2.006,0,0,0-.791-.3,2.94,2.94,0,0,0-1.711.325,2.612,2.612,0,0,1,1.725-.551,2.245,2.245,0,0,1,.905.283,2.324,2.324,0,0,1,.693.636,5.754,5.754,0,0,1,.523.763,2.575,2.575,0,0,1,.268.9,6.388,6.388,0,0,1-.2,1.809,10.378,10.378,0,0,0-.014-1.753m-1.47-.07a4.614,4.614,0,0,0-.508-.537A3.667,3.667,0,0,0,57.09,14a3.214,3.214,0,0,0-.311-.155.858.858,0,0,0-.339-.028,3.172,3.172,0,0,0-.721.113,4.633,4.633,0,0,1-1.526.155,8.589,8.589,0,0,0,1.469-.381,4.276,4.276,0,0,1,.764-.17,1.094,1.094,0,0,1,.424.042,1.869,1.869,0,0,1,.382.17,3.477,3.477,0,0,1,1.13,1.088,4.666,4.666,0,0,1,.65,1.4,8.307,8.307,0,0,0-.819-1.258m2.177,3.8a7.1,7.1,0,0,1,.211-1.541,4.623,4.623,0,0,0,.156-.721,3.263,3.263,0,0,0-.057-.735c-.083-.494-.211-.989-.325-1.5a8.366,8.366,0,0,1,.537,1.456,2.911,2.911,0,0,1,.1.792,2.755,2.755,0,0,1-.141.777,6.217,6.217,0,0,0-.156.735c-.042.254-.07.5-.113.749a11.209,11.209,0,0,0-.07,1.527,5.671,5.671,0,0,1-.141-1.541m1.216,6.813h0a2.78,2.78,0,0,1-.057-1.6,7.958,7.958,0,0,0,.282-2.262c-.014-.282-.014-.565-.027-.848l-.015-.438c-.013-.24-.013-.481-.013-.707,0-.452-.016-.919-.044-1.371v-.028c0-.085-.014-.127-.055-.127h-.029c-.015.014-.015.056-.015.084v.057a13.289,13.289,0,0,1-.636,1.838l-.085.212a3.161,3.161,0,0,0,.043,2.629,3.038,3.038,0,0,1,.311,1.046l.015.07-.058-.028a.264.264,0,0,1-.14-.2c0-.014-.015-.028-.015-.042a10.8,10.8,0,0,1-.48-1.456c-.015-.071-.043-.127-.057-.2a1.9,1.9,0,0,1-.112-.566,3.5,3.5,0,0,1,.239-1.06,18.977,18.977,0,0,0,.763-2.714,4.53,4.53,0,0,0-.523-3.166,1.6,1.6,0,0,0-.424-.565l-.028-.014c-.071-.057-.126-.1-.17-.057-.013.014-.013.028.015.085.014.028.029.057.042.085a.447.447,0,0,1,.029.113c.013.071.042.127.057.2a4.947,4.947,0,0,1-.143,2.191,3.789,3.789,0,0,0-.154,2.177,13.117,13.117,0,0,1,.324,1.342l.014.057a.849.849,0,0,1-.07.707l-.028.056-.029-.056c-.013-.029-.013-.043-.028-.057a.841.841,0,0,0-.042-.1,8.448,8.448,0,0,1-.5-2.671c0-.1-.015-.184-.015-.283a1.872,1.872,0,0,1,.072-.834,5.4,5.4,0,0,0,.211-.664,2.868,2.868,0,0,1,.1-.311,3.092,3.092,0,0,0-.65-2.9,3.036,3.036,0,0,0-1.159-.862,1.654,1.654,0,0,0-1.654-.057,8.137,8.137,0,0,0-1.06.763c-.084.071-.183.142-.269.213-.013,0-.013.014-.028.014s-.042.028-.042.042,0,.014.014.028.028.043.114-.014a2.549,2.549,0,0,1,1.088-.4,1.721,1.721,0,0,1,.891.015A2.99,2.99,0,0,1,59.168,14.8a12.024,12.024,0,0,1,.34,1.23l.126.509a2.881,2.881,0,0,1,.057.353v.028a.824.824,0,0,1-.014.368l-.028.113-.1-.269a9.23,9.23,0,0,1-.538-1.724,2.465,2.465,0,0,0-2.189-2.177,1.441,1.441,0,0,0-.877.113,9.348,9.348,0,0,1-1.979.735h-.029c-.042,0-.057.014-.057.028a.373.373,0,0,0,.269.1,1.617,1.617,0,0,1,.424.113,3.319,3.319,0,0,0,1.682.184,1.8,1.8,0,0,1,1.4.4,9.02,9.02,0,0,1,1.357,1.442,2.906,2.906,0,0,1,.622,1.738,9.117,9.117,0,0,0,.58,2.983.7.7,0,0,1,.042.466l-.028.085-.042-.085a6.292,6.292,0,0,1-.678-2.516c-.015-.1-.015-.184-.028-.282a4.3,4.3,0,0,0-.213-1.244,3.644,3.644,0,0,0-1.654-2.05,1.435,1.435,0,0,0-1.428-.042.933.933,0,0,0-.155.1,1.665,1.665,0,0,1-.353.183c-.07.015-.07.029-.07.057a.05.05,0,0,0,.013.028c.014.014.042.014.086,0a.5.5,0,0,1,.381.071,4.531,4.531,0,0,1,1.2.989l.085.085a3.136,3.136,0,0,1,.849,1.414,5.789,5.789,0,0,0,1.385,2.572,3.448,3.448,0,0,1,.819,1.484,8.383,8.383,0,0,0,.509,1.485l.014.028a3.477,3.477,0,0,1,.353.961l.029.113-.085-.085c-.029-.028-.071-.07-.1-.1s-.027-.028-.042-.028l-.015-.014a1.076,1.076,0,0,1-.155-.2,5.02,5.02,0,0,1-.593-1.512,7.3,7.3,0,0,0-.524-1.485,13.012,13.012,0,0,0-1.2-1.7,6.032,6.032,0,0,1-.651-1.71,1.317,1.317,0,0,0-.4-.735,1.847,1.847,0,0,0,.114.283c0,.07.013.141.013.212a5,5,0,0,1-.013.636,6.238,6.238,0,0,0,0,.749A4.016,4.016,0,0,0,58.56,21.3l.113.156a3.531,3.531,0,0,1,.538.989,4.381,4.381,0,0,0,1.625,2.12,1.57,1.57,0,0,1,.678.933.91.91,0,0,0,.1.241l.044.084c0-.014-.015-.042-.015-.056s-.029-.1-.056-.184" fill="#55aeaf"/>
    <path d="M66.193,14.829a2.793,2.793,0,0,1,.509-.65,1.281,1.281,0,0,1,.791-.354.617.617,0,0,1,.227,0,1.4,1.4,0,0,1,.226.043,1.285,1.285,0,0,1,.212.085l.1.056.085.057a7.98,7.98,0,0,1,.622.537,3.88,3.88,0,0,0,.636.452,3.639,3.639,0,0,0,1.526.41,3.076,3.076,0,0,1-1.625-.212,3.35,3.35,0,0,1-.707-.452c-.212-.17-.41-.368-.608-.509l-.071-.057-.084-.042a1.4,1.4,0,0,0-.156-.071.711.711,0,0,0-.169-.028.809.809,0,0,0-.184,0,1.261,1.261,0,0,0-.679.254,2.953,2.953,0,0,0-.537.566c-.169.212-.325.438-.48.65a5.141,5.141,0,0,1,.367-.735M65.048,19.38a3.094,3.094,0,0,1,.156-.72A3.221,3.221,0,0,1,65.543,18a3.228,3.228,0,0,0,.311-.622,7.03,7.03,0,0,1,.636-1.314,1.884,1.884,0,0,1,.523-.537,1.736,1.736,0,0,1,.664-.3,2.364,2.364,0,0,0-.579.41,2.683,2.683,0,0,0-.424.551,10.652,10.652,0,0,0-.552,1.3,2.967,2.967,0,0,1-.353.665,2.881,2.881,0,0,0-.353.593,6.974,6.974,0,0,0-.382,1.372,4.309,4.309,0,0,1,.014-.736m-.014,2.206a4.046,4.046,0,0,1,.311-.962,4.818,4.818,0,0,1,.523-.862c.2-.268.424-.523.636-.763a2.24,2.24,0,0,0,.3-.368,1.489,1.489,0,0,0,.17-.409,5.548,5.548,0,0,1,.212-.99,3.264,3.264,0,0,1,.607-.806,2.152,2.152,0,0,0,.4-.876,1.988,1.988,0,0,1-.283.961,4.216,4.216,0,0,0-.508.806,8.085,8.085,0,0,0-.156.961,1.409,1.409,0,0,1-.2.509,3.221,3.221,0,0,1-.325.41,8.218,8.218,0,0,0-1.173,1.54,4.074,4.074,0,0,0-.368.891,3.723,3.723,0,0,0-.127.975,3.537,3.537,0,0,1-.014-1.017m1.032.565c.056-.156.1-.3.155-.452a1.9,1.9,0,0,1,.212-.453,5.605,5.605,0,0,1,.622-.763,2.466,2.466,0,0,0,.523-.749,7.211,7.211,0,0,0,.3-.891c.17-.607.311-1.244.537-1.837-.113.636-.183,1.258-.325,1.894-.028.155-.071.311-.113.466a3.041,3.041,0,0,1-.155.467,3.416,3.416,0,0,1-.566.82,9.094,9.094,0,0,0-.608.706,6.809,6.809,0,0,0-.381.848,5.571,5.571,0,0,1-1,1.64,6.443,6.443,0,0,0,.806-1.7m-.622,3.873a3.391,3.391,0,0,1,.184-.975,1.974,1.974,0,0,1,.24-.453,2.116,2.116,0,0,1,.17-.2l.169-.169a7.813,7.813,0,0,0,1.159-1.47c.156-.269.311-.552.439-.834s.24-.58.353-.891a6.3,6.3,0,0,1-.608,1.824,6.612,6.612,0,0,1-1.145,1.569l-.17.169c-.042.057-.1.1-.141.156a2.032,2.032,0,0,0-.212.381,3.715,3.715,0,0,0-.212.891c-.085.622-.085,1.258-.127,1.894a9.316,9.316,0,0,1-.1-1.894m3.407-4.354a3.705,3.705,0,0,1,.494-.565c.085-.085.184-.17.269-.254l.282-.241a6.45,6.45,0,0,1,1.273-.763,5.035,5.035,0,0,1,1.413-.4,8.52,8.52,0,0,0-1.314.594,7.62,7.62,0,0,0-1.188.791c-.1.071-.184.142-.282.227l-.269.24a4.178,4.178,0,0,0-.495.509A8.042,8.042,0,0,0,68.214,23a4.617,4.617,0,0,1,.637-1.329m2.516-.735a3,3,0,0,1,.975-.551l.141-.028.142-.028a1.861,1.861,0,0,1,.282-.015,2.97,2.97,0,0,0,.509-.056.623.623,0,0,0,.226-.085.631.631,0,0,0,.2-.141,1.421,1.421,0,0,0,.3-.438,1.166,1.166,0,0,1-.184.523,1.063,1.063,0,0,1-.466.353,1.9,1.9,0,0,1-.566.113c-.1.014-.169.014-.254.028l-.127.029-.128.028a4.345,4.345,0,0,0-.932.452,7.75,7.75,0,0,1-.962.523c.3-.24.566-.48.849-.707M70.25,22.547a4.106,4.106,0,0,1,1.357-.354,2.977,2.977,0,0,1,.353-.014,2.525,2.525,0,0,0,.325-.014,3.932,3.932,0,0,1,.707-.028,2.45,2.45,0,0,1,1.286.551,3.324,3.324,0,0,0-1.3-.325,5.439,5.439,0,0,0-.664.071,3.031,3.031,0,0,1-.354.028c-.113,0-.226.014-.339.014a5.2,5.2,0,0,0-1.3.283c-.424.141-.848.311-1.286.48a8.011,8.011,0,0,1,1.216-.692m-3.336,4.071c.127-.212.283-.424.424-.636s.3-.4.438-.608c.156-.2.311-.41.481-.594a4.127,4.127,0,0,1,1.95-1.159,7.317,7.317,0,0,0-1.243.834,6.623,6.623,0,0,0-.976,1.1c-.3.409-.608.8-.9,1.2s-.566.82-.849,1.244a7.839,7.839,0,0,1,.679-1.385m.028,1.569a10.911,10.911,0,0,1,1.1-.679,6.95,6.95,0,0,1,1.2-.495,4.827,4.827,0,0,1,1.272-.24c-.409.127-.805.283-1.2.438-.382.17-.763.354-1.145.537-.382.2-.749.4-1.117.608l-1.1.65a9.305,9.305,0,0,1,.989-.819m3.364-.481a9.462,9.462,0,0,1,1.5-.3c.494-.07,1-.127,1.484-.212a6.723,6.723,0,0,0,1.442-.424,4.438,4.438,0,0,1-1.386.65,11.087,11.087,0,0,1-1.5.283c-.495.071-.989.127-1.484.24a13.161,13.161,0,0,0-1.456.4,5.944,5.944,0,0,1,1.4-.636m.453,1.371a9.241,9.241,0,0,0,1.6.353,2.9,2.9,0,0,0,.792-.028,1.5,1.5,0,0,0,.72-.268,3.558,3.558,0,0,0,.99-1.272,3.754,3.754,0,0,1-.311.777,2.115,2.115,0,0,1-.551.678,1.887,1.887,0,0,1-.806.354,3.6,3.6,0,0,1-.862.042,7.7,7.7,0,0,1-1.64-.424c-.523-.184-1.046-.353-1.583-.509a8.194,8.194,0,0,1,1.654.3m-3.266.4a6.35,6.35,0,0,1,1.032.014,6.445,6.445,0,0,1,1.018.212,4.668,4.668,0,0,1,.947.41l-1-.2c-.326-.056-.665-.113-.99-.155s-.664-.071-1-.085l-1.017-.043a7.719,7.719,0,0,1,1.017-.155M64.85,16.2a2.681,2.681,0,0,1-.141-1.06,5.1,5.1,0,0,1,.24-1.046c.057-.17.113-.339.156-.495a1.923,1.923,0,0,0,.085-.48.621.621,0,0,0-.128-.439c-.1-.141-.226-.268-.325-.409a4.3,4.3,0,0,1,.438.325.721.721,0,0,1,.17.24.7.7,0,0,1,.071.283,3.291,3.291,0,0,1-.184,1.074c-.1.339-.226.664-.3.989A4.016,4.016,0,0,0,64.85,16.2m2.813-3.915a2.486,2.486,0,0,1,.778-.128,3.645,3.645,0,0,1,.791.1,8.657,8.657,0,0,0,1.47.268,5.379,5.379,0,0,0,1.5-.056,3.651,3.651,0,0,1-1.512.268,6.135,6.135,0,0,1-1.527-.212A2.927,2.927,0,0,0,67.72,12.5a4.2,4.2,0,0,0-1.357.622,3.3,3.3,0,0,1,1.3-.834m3.732,1.5a2.726,2.726,0,0,0,1.159-.452c.353-.226.678-.523,1.046-.778a3.472,3.472,0,0,1,.579-.339,1.536,1.536,0,0,1,.665-.113,2.442,2.442,0,0,0-1.1.622,8.649,8.649,0,0,1-1.018.848,3.143,3.143,0,0,1-.621.3,2.611,2.611,0,0,1-.679.127,2.989,2.989,0,0,1-1.314-.24,4.928,4.928,0,0,0,1.286.028m.466,1.159a4.458,4.458,0,0,0,.735.085,1.624,1.624,0,0,0,.693-.113.763.763,0,0,1,.155-.071l.142-.1c.1-.085.183-.169.268-.254a6.51,6.51,0,0,0,.5-.566,5.882,5.882,0,0,0,.424-.622,2.522,2.522,0,0,0,.3-.692,2.062,2.062,0,0,1-.17.763,4.592,4.592,0,0,1-.848,1.315c-.085.1-.184.183-.283.282L73.6,15.1c-.071.028-.127.07-.2.1a2.079,2.079,0,0,1-.82.113,3.621,3.621,0,0,1-.777-.142,6.335,6.335,0,0,1-1.428-.608c.509.128.99.283,1.484.382m-5.569-1.06a1.638,1.638,0,0,1,2.163-.58A4.687,4.687,0,0,1,70,14.334a5.588,5.588,0,0,0,2.841,1.287,2.2,2.2,0,0,0,2.248-1.456,4.591,4.591,0,0,0,.085-1.315v-.2a.2.2,0,0,0-.085-.169.119.119,0,0,0-.042.07,4.972,4.972,0,0,1-1.7,1.81,2.882,2.882,0,0,1-2.671.169,5.014,5.014,0,0,1-1.032-.65c-.085-.071-.184-.141-.269-.212l-.127-.1.156.028a1.723,1.723,0,0,1,.579.212l.071.043a4.06,4.06,0,0,0,.523.325,1.559,1.559,0,0,1,.212.113,1.63,1.63,0,0,0,.89.254,3.684,3.684,0,0,0,2.5-1.4,2.79,2.79,0,0,0,.241-.325,3.154,3.154,0,0,1,.494-.58.112.112,0,0,1,.057-.028c.056-.028.056-.042.056-.071s-.056-.042-.113-.056h-.028a2.592,2.592,0,0,0-2.021.438c-.1.071-.184.127-.283.2a3.812,3.812,0,0,1-.692.424c-.057.028-.114.057-.184.085a3.539,3.539,0,0,1-1.47.424h-.029a3.834,3.834,0,0,1-1.314-.325l-.113-.043a2.421,2.421,0,0,0-1.852-.056,1.444,1.444,0,0,0-.48.367.865.865,0,0,1-.128.113l-.1.1.043-.127a.986.986,0,0,1,.862-.721,2.7,2.7,0,0,1,1.767.184,2.619,2.619,0,0,0,1.908.1,8.066,8.066,0,0,0,1.4-.58c.283-.141.58-.282.877-.395a.1.1,0,0,0,.071-.057v-.028l-.015-.014c-.014,0-.028.014-.056.028s-.028.014-.043.028a2.37,2.37,0,0,1-1.2.255,5.046,5.046,0,0,1-1.371-.3,3.792,3.792,0,0,0-2.262-.212,2.473,2.473,0,0,0-2.063,1.654A8.526,8.526,0,0,1,65.67,14.9a4.548,4.548,0,0,0-.325,1.229c0,.043-.014.085-.014.114a2.589,2.589,0,0,1-.17.692l-.056.057-.029-.1a1.647,1.647,0,0,1-.056-.82,3.447,3.447,0,0,1,.226-.679c.028-.07.057-.141.085-.226l.071-.155a3.478,3.478,0,0,0,.353-1.993,1.067,1.067,0,0,0-1.032-.891c-.028,0-.113-.014-.141.043-.014.028-.014.028.028.056.014.014.028.029.042.029a.628.628,0,0,1,.156.325,2.015,2.015,0,0,1-.042.918c-.015.043-.015.085-.029.113-.028.114-.056.227-.085.34a5.455,5.455,0,0,0-.155.834,3.567,3.567,0,0,0,.339,1.625l.043.113a2.089,2.089,0,0,1-.057,1.7,4.024,4.024,0,0,0-.24,1.681v.085a8.027,8.027,0,0,0,.042.82c.014.141.028.3.028.452a4.528,4.528,0,0,0,.311,1.584,2.132,2.132,0,0,1-.084,1.936v.014a.628.628,0,0,0-.071.142,3.415,3.415,0,0,0,.2,2.487A2.681,2.681,0,0,1,65.19,29.4a2.284,2.284,0,0,1-.227.453,2.05,2.05,0,0,0-.155.311.049.049,0,0,1-.014.028c-.029.056-.043.085-.014.113a.043.043,0,0,0,.028.014c.014,0,.028-.028.056-.042s.015-.029.029-.029a.937.937,0,0,1,.254-.155l.028-.014a2.784,2.784,0,0,1,2.106-.071,5.207,5.207,0,0,0,2.46.325c.269-.028.537-.042.791-.056.128,0,.255-.015.382-.015a6.175,6.175,0,0,1-1.117-.65c-.1-.071-.2-.127-.3-.2a2.352,2.352,0,0,0-.933-.353,2.964,2.964,0,0,0-2.092.523.918.918,0,0,1-.58.184l-.113-.014.1-.057a5.855,5.855,0,0,1,1.5-.735,3.685,3.685,0,0,1,.99-.156,2.34,2.34,0,0,1,1.117.283c.169.1.353.212.523.325.141.1.3.184.438.269a4.5,4.5,0,0,0,2.926.636,1.384,1.384,0,0,0,1.286-.834,6.324,6.324,0,0,0,.382-1.654v-.014c.014-.1.014-.141-.057-.155-.056-.015-.071.014-.113.084l-.014.029a2.5,2.5,0,0,1-2.219,1.06,9.457,9.457,0,0,0-1.88-.142c-.227,0-.467-.014-.707-.014a4.467,4.467,0,0,0-.622.029,3.326,3.326,0,0,1-.989-.015l-.128-.028.113-.042a5.222,5.222,0,0,1,2.163-.3l.1.014a12.316,12.316,0,0,0,1.922.113,1.719,1.719,0,0,0,1.145-.4,5.177,5.177,0,0,0,.665-.706c.155-.184.311-.368.48-.537l.014-.015c.043-.042.057-.07.043-.1s-.043-.028-.085-.014a.051.051,0,0,0-.042.014,12.115,12.115,0,0,1-1.6.057h-.3a7.091,7.091,0,0,0-1.116.085,6.039,6.039,0,0,0-2.149.961l-.155.1a5.027,5.027,0,0,1-1.456.735,9.456,9.456,0,0,0-2.29,1.046c-.028.014-.042.028-.071.042a.882.882,0,0,1-.424.156l-.113.014.085-.071c.042-.028.071-.056.113-.085.071-.056.127-.113.184-.155a3.1,3.1,0,0,1,1.611-.792,3.585,3.585,0,0,0,1.781-.876,4.455,4.455,0,0,1,1.965-1.1h.028c.043-.015.043-.015.043-.029s-.029-.042-.057-.056-.028-.014-.042-.014a.241.241,0,0,0-.142-.015,4.048,4.048,0,0,1-.72.043,4.2,4.2,0,0,0-.834.071,4.374,4.374,0,0,0-2.319,1.144l-.749.792c-.113.113-.212.24-.325.353l-.226.241.17-.283c.042-.085.1-.17.141-.24A4.258,4.258,0,0,1,66.9,27.494c.1-.071.2-.141.311-.212a5.664,5.664,0,0,0,.466-.339,4.547,4.547,0,0,0,.834-1.075A7.364,7.364,0,0,1,70.5,23.579h.014c.057-.029.057-.043.043-.071s-.014-.028-.057,0c-.014,0-.014.014-.028.014a1.227,1.227,0,0,1-.452.1l-.071.014a2.859,2.859,0,0,0-2.177,1.117,9.026,9.026,0,0,0-1.611,3.194v.014a.968.968,0,0,1-.3.566l-.085.071.028-.114c.015-.1.043-.183.057-.268a4.578,4.578,0,0,1,.1-.467,7.311,7.311,0,0,1,1.244-2.643l.085-.113a5.421,5.421,0,0,1,.749-.876,3.557,3.557,0,0,1,2.685-.863,4.134,4.134,0,0,0,1.23-.1,6.254,6.254,0,0,1,2.3-.283h.043c.084.014.113.014.127-.028.028-.057,0-.114-.071-.184-.042-.043-.1-.085-.141-.127a1.985,1.985,0,0,1-.3-.3,1.338,1.338,0,0,0-.975-.5,4.391,4.391,0,0,0-2.008.212,4.722,4.722,0,0,0-1.922,1.286,3.943,3.943,0,0,1-.848.693c-.071.042-.141.1-.212.141l-.17.128.128-.17c.254-.339.523-.65.791-.947a4.932,4.932,0,0,1,2.7-1.484c.325-.071.65-.128.975-.184.283-.042.58-.1.877-.156a1.605,1.605,0,0,0,1.017-.749,1.062,1.062,0,0,0-.014-.989l-.014-.028c-.014-.015-.042-.057-.057-.057a.173.173,0,0,0-.028.042.863.863,0,0,1-.65.368c-.028.014-.071.014-.1.028a3.189,3.189,0,0,1-.325.057,2,2,0,0,0-.65.169,6.313,6.313,0,0,0-1.908,1.541,1.03,1.03,0,0,1-.552.339l-.113.029.085-.085c.24-.241.452-.5.65-.735l.255-.3a4.229,4.229,0,0,1,2.092-1.3c.028,0,.042-.015.07-.015s.071,0,.085-.014a.062.062,0,0,0,0-.07c-.014-.071-.042-.071-.127-.057h-.071a1.474,1.474,0,0,0-.551.071,2.076,2.076,0,0,1-.4.085,4.358,4.358,0,0,0-2.261.876,3.258,3.258,0,0,0-1.47,2.346,3.987,3.987,0,0,1-.834,2.022,7.47,7.47,0,0,0-1.555,3.6,2.332,2.332,0,0,1-.679,1.512l-.1.1.043-.127c.085-.24.169-.48.254-.707a7.711,7.711,0,0,0,.481-1.6,3.93,3.93,0,0,1,.339-1.244c.452-.876,1.06-2.035,1.6-3.237a8.939,8.939,0,0,0,.65-2.629.079.079,0,0,0-.042-.1c-.042.015-.042.057-.056.113v.029a5.512,5.512,0,0,1-.3.848c-.043.113-.1.24-.142.353l-.028.071a1.5,1.5,0,0,1-.325.608l-.141.155a9.1,9.1,0,0,1-1.3,1.244,2.638,2.638,0,0,0-1,2.77,4.434,4.434,0,0,0,.24.849c.042.113.085.24.127.367a1.09,1.09,0,0,1,0,.792l-.071.155V28.6a3.372,3.372,0,0,0-.339-1.258,3.067,3.067,0,0,1,.014-2.7l.014-.014a1.4,1.4,0,0,1,.368-.523,8.342,8.342,0,0,0,.763-.651c.071-.07.142-.141.226-.212A5.938,5.938,0,0,0,67.649,21.8a6.288,6.288,0,0,0,.763-2.559c.029-.24.043-.48.071-.721a12.507,12.507,0,0,0,.113-1.47v-.042c0-.071,0-.113-.042-.142-.029-.014-.029-.014-.071.029a.1.1,0,0,1-.085.056c-.226.566-1.258,2.87-1.385,3.181a4.428,4.428,0,0,1-.537.706,9.03,9.03,0,0,0-.594.75,5.881,5.881,0,0,0-.551,1.879H65.26c0-.014-.07-.466-.07-.551A11.177,11.177,0,0,1,65.9,21.26a12.513,12.513,0,0,0,1.117-1.7c.042-.127.254-.608.495-1.1.282-.608.607-1.315.636-1.442a1.951,1.951,0,0,1,.268-.551,2.126,2.126,0,0,0-.042-.961l-.014-.029c-.014-.07-.028-.1-.071-.1-.028,0-.042.043-.056.085v.028a2.2,2.2,0,0,1-.75,1,1.868,1.868,0,0,0-.48.664c-.071.156-.113.311-.17.467a3.8,3.8,0,0,1-.184.523,10.631,10.631,0,0,1-.621,1.116c-.114.2-.241.4-.354.608a4.77,4.77,0,0,0-.565,1.329l-.014.1a7.064,7.064,0,0,0-.142.961l-.014.212-.056-.226a1.887,1.887,0,0,1-.071-1.117c.1-.268.226-.537.339-.791a7.044,7.044,0,0,0,.424-1.075.922.922,0,0,1,.2-.339c.014-.014.028-.042.042-.056a3.79,3.79,0,0,0,.806-1.555,1.653,1.653,0,0,1,.608-.99,2.128,2.128,0,0,0,.707-1.046.192.192,0,0,0,0-.127.137.137,0,0,0-.1-.028.589.589,0,0,0-.156.014.084.084,0,0,0-.056.014,2.436,2.436,0,0,0-1.979,1.6,7.827,7.827,0,0,0-.636,2.856,2.525,2.525,0,0,0-.014.325,1.95,1.95,0,0,1-.156.89l-.042.085-.028-.085a2.076,2.076,0,0,1-.071-.579v-.1a4.036,4.036,0,0,1,.4-2.234A1.278,1.278,0,0,0,65.2,17.4v-.057a2.317,2.317,0,0,1,.805-1.7c.071-.057.128-.127.2-.184l.184-.184c.028-.028.071-.056.1-.084a1.11,1.11,0,0,1,.551-.326,1.884,1.884,0,0,1,1.442.326,2.822,2.822,0,0,0,1.993.523c.283-.029.551-.071.834-.114.113-.014.226-.042.339-.056a.242.242,0,0,0-.155-.085.053.053,0,0,1-.043-.014,4.279,4.279,0,0,1-2.176-1.258,5.2,5.2,0,0,0-.75-.622,1.655,1.655,0,0,0-1.738.113,2.581,2.581,0,0,0-.919,1.555l-.014.071a1.142,1.142,0,0,1-.325.664l-.057.057v-.212a4.469,4.469,0,0,1,.82-1.937" fill="#55aeaf"/>
  </g>
</svg>
