<svg xmlns="http://www.w3.org/2000/svg" width="41.683mm" height="16.439mm" viewBox="0 0 118.158 46.598">
  <path d="M25.411,25.312l1.912-5.472,1.911,5.472Zm.888-8.271-4.982,13.19H23.7l1.069-3.071h5.109l1.078,3.071h2.392l-4.992-13.19Z"/>
  <polygon points="39.917 17.041 37.625 17.041 37.625 30.231 45.905 30.231 45.905 28.383 39.917 28.383 39.917 17.041"/>
  <path d="M57.357,22.916a2.71,2.71,0,0,1-1.866.575H52.737v-4.6h2.817a2.514,2.514,0,0,1,1.794.657A2.284,2.284,0,0,1,58,21.253a2.119,2.119,0,0,1-.643,1.663M59,18.193a5.1,5.1,0,0,0-3.51-1.152H50.445v13.19h2.292V25.339h2.726a5.348,5.348,0,0,0,3.565-1.079A3.745,3.745,0,0,0,60.3,21.24,3.876,3.876,0,0,0,59,18.193"/>
  <path d="M66.39,25.312,68.3,19.84l1.911,5.472Zm.888-8.271L62.3,30.231h2.382l1.069-3.071h5.109l1.078,3.071h2.392l-4.992-13.19Z"/>
  <path d="M83.522,25.2H86.24v2.568a3.313,3.313,0,0,1-2.5.793,2.976,2.976,0,0,1-2.5-1.179,5.347,5.347,0,0,1-.9-3.311V23.062a5.637,5.637,0,0,1,.829-3.247A2.711,2.711,0,0,1,83.5,18.708a2.528,2.528,0,0,1,2.763,2.382h2.246a4.7,4.7,0,0,0-1.558-3.139,5.254,5.254,0,0,0-3.5-1.091,4.963,4.963,0,0,0-4,1.68,6.976,6.976,0,0,0-1.432,4.67v1.033a7.551,7.551,0,0,0,.72,3.265,5.008,5.008,0,0,0,1.971,2.152,5.681,5.681,0,0,0,2.935.752,8.1,8.1,0,0,0,2.881-.48,4.384,4.384,0,0,0,1.984-1.414V23.464h-5Z"/>
  <path d="M96.741,25.312l1.912-5.472,1.911,5.472Zm.888-8.271-4.982,13.19h2.382L96.1,27.16h5.109l1.078,3.071h2.392l-4.992-13.19Z"/>
  <polygon points="108.384 17.041 108.384 18.889 115.16 18.889 108.338 28.73 108.338 30.23 118.158 30.23 118.158 28.383 111.11 28.383 117.941 18.49 117.941 17.041 108.384 17.041"/>
  <path d="M14.022,25.2l-4.61-7.984,4.61,2.661ZM3.045,28.245h9.219l-4.61,2.661ZM5.9,17.216,1.287,25.2V19.877Zm2.4.643,5.253,9.1H8.3Zm-1.287,9.1H1.758l5.253-9.1ZM0,19.134v8.839l7.654,4.419,7.655-4.419V19.134L7.654,14.715Z"/>
</svg>
