<svg xmlns="http://www.w3.org/2000/svg" width="22.495mm" height="16.269mm" viewBox="0 0 63.766 46.116">
  <circle cx="8.082" cy="15.589" r="8.082" fill="#ffd70c"/>
  <path d="M39.5,28.626l-1.223,3.642H40.74Zm1.067-2.418,3.812,10.156H42.105l-.811-2.347H37.738l-.81,2.347H34.737l3.812-10.156Z"/>
  <polygon points="47.694 26.208 47.694 30.276 51.435 26.208 53.753 26.208 50.382 30.02 54.123 36.364 51.762 36.364 48.903 31.4 47.694 32.637 47.694 36.364 45.56 36.364 45.56 26.208 47.694 26.208"/>
  <g>
    <path d="M60.921,33.889a4.411,4.411,0,0,0,.655-2.6,4.414,4.414,0,0,0-.655-2.6,2.618,2.618,0,0,0-3.982,0,4.414,4.414,0,0,0-.655,2.6,4.411,4.411,0,0,0,.655,2.6,2.633,2.633,0,0,0,3.982,0M56.91,36.25a4.135,4.135,0,0,1-1.522-1.067,4.787,4.787,0,0,1-.96-1.678,7.538,7.538,0,0,1,0-4.438,4.729,4.729,0,0,1,.967-1.679,4.2,4.2,0,0,1,1.529-1.066,5.737,5.737,0,0,1,4.054,0,4.062,4.062,0,0,1,1.515,1.066,4.75,4.75,0,0,1,.946,1.679,7,7,0,0,1,.327,2.219,7.127,7.127,0,0,1-.32,2.219,4.657,4.657,0,0,1-.939,1.678,4.057,4.057,0,0,1-1.514,1.067,5.817,5.817,0,0,1-4.083,0"/>
    <path d="M47.558,23.068l.924,1.923c.259-.107.551-.244.861-.41a6.261,6.261,0,0,0,1.022-.794,4.764,4.764,0,0,0,1.1-1.58,3.982,3.982,0,0,0,.292-1.158Z"/>
    <path d="M13.994,27.963l.924,1.923c.259-.107.551-.244.861-.41a6.261,6.261,0,0,0,1.022-.794,4.764,4.764,0,0,0,1.1-1.58,3.982,3.982,0,0,0,.292-1.158Z" fill="#fff"/>
  </g>
  <path d="M9.167,11.313l-1.526-.687-.1,0a1.278,1.278,0,0,0-.112-.2.132.132,0,0,0-.119-.019l-.828.223s-.294.08-.347.1a.17.17,0,0,0-.11.211c.031.132-.866,3.515-1.482,3.711a1.712,1.712,0,0,0-.979,1.486,1.648,1.648,0,0,0,.182.733,4.276,4.276,0,0,0,.562.661l.11-.084.056.118a.979.979,0,0,0,.17.253c.189.218.28.744.754.818a10.105,10.105,0,0,0,1.052,1.8c.374.4,2.114,3.859,2.114,3.859h2.182V20.4l.753-4.409V13.052Z" fill="#fff"/>
  <g>
    <path d="M9.179,23.247c-.923-.232-1.473-.9-1.99-2.367A3.356,3.356,0,0,0,9.2,22.059l-.55.6c.163.186.319.36.525.591m8.109-3.065c-1.425.145-4.434.708-4.709-.7s.942-3.177-.886-6.894a8.717,8.717,0,0,1-1.042-1.139,2.317,2.317,0,0,0-3.113-.814c.3.76.613,1.532.91,2.311.159.415.269.753-.371.946-1.092.332-2.153.772-3.215,1.2a2.231,2.231,0,0,0-.709.477,1.182,1.182,0,0,0,.152,1.98c.04-.028.115-.062.11-.084C4.18,16.113,4.9,15.632,6.1,15.506a1.466,1.466,0,0,0,.79-.445c.657-.657.772-.66,1.237.121.051.083.126.153.176,0,.591-.144,1.177-.316,1.775-.415a.681.681,0,0,1,.589.225.693.693,0,0,1-.138.63A12.8,12.8,0,0,1,8.748,17.1l-.5,1.023h.822c.023.052.045.1.067.156l-1.521.861,1.454.2c-.681.993-1.735.666-2.617,1.079a9.878,9.878,0,0,1-.371,1.727,1.957,1.957,0,0,1-.822.769,4.4,4.4,0,0,0-1.384,1.328,4.2,4.2,0,0,0-.459.955,4.187,4.187,0,0,0-.118.417l0,.008,0-.008,0,0c-.074.291-.146.583-.218.875-.266,1.838-1.208,9.88-1.208,9.88H23.644V24.7c-2.428-3.822-4.529-4.706-6.356-4.52M7.307,10.41l-.828.223a1.591,1.591,0,0,1,.4.526c.239.519.374,1.086.66,1.583q-.115-1.167-.231-2.332m-1.878.878V11.3l0,.011.018-.02-.02,0"/>
    <path d="M8.565,15.984A13.849,13.849,0,0,0,7,16.62c.022.051.043.1.065.148a12.854,12.854,0,0,0,1.534-.02c.2-.025.375-.274.562-.421-.2-.123-.445-.389-.6-.343M6.792,12.4a7.25,7.25,0,0,0-.221-.83c-.014-.046-.03-.088-.044-.129-.007-.022-.014-.041-.021-.06s-.014-.039-.02-.056-.017-.047-.027-.071c-.017-.042-.033-.08-.049-.115a.841.841,0,0,0-.048-.1.183.183,0,0,0-.018-.03c-.014-.022-.026-.041-.04-.059l-.029-.029a.2.2,0,0,0-.069-.049.2.2,0,0,0-.08-.019h0a.3.3,0,0,0-.115.027l-.036.015-.019.01a1.068,1.068,0,0,0-.1.06l0,0h0a3.546,3.546,0,0,0-.3.236.057.057,0,0,0-.011.011l-.012.013h0l0,0h0a.246.246,0,0,1-.025.022l0,0,0,0-.008.006-.047.042,0-.011c-.041.022-.083.043-.127.062-.085.04-.173.077-.259.118-.043.02-.085.04-.126.062a1.307,1.307,0,0,0-.19.121.854.854,0,0,0-.084.074c-.267.271-.631.651-.609.959a10.547,10.547,0,0,0,.507,1.964c.458-.143.8-.253,1.151-.356,1.178-.359,1.353-.654,1.1-1.908m-3.5,13.216,0,0-.014.009.011,0,0,0,0,0,0-.008ZM6.792,12.4a7.25,7.25,0,0,0-.221-.83c-.014-.046-.03-.088-.044-.129-.007-.022-.014-.041-.021-.06s-.014-.039-.02-.056-.017-.047-.027-.071a1.242,1.242,0,0,0-.049-.115.841.841,0,0,0-.048-.1.183.183,0,0,0-.018-.03c-.014-.022-.026-.041-.04-.059l-.029-.029a.2.2,0,0,0-.069-.049.2.2,0,0,0-.08-.019h0L5.889,11l-.363.228h0l0,0h0l-.088.055V11.3c-.041.022-.083.043-.127.062-.085.04-.173.077-.259.118-.043.02-.085.04-.126.062a1.307,1.307,0,0,0-.19.121.854.854,0,0,0-.084.074c-.267.271-.631.651-.609.959a10.547,10.547,0,0,0,.507,1.964c.458-.143.8-.253,1.151-.356,1.178-.359,1.353-.654,1.1-1.908m1.773,3.589A13.849,13.849,0,0,0,7,16.62c.022.051.043.1.065.148a12.854,12.854,0,0,0,1.534-.02c.2-.025.375-.274.562-.421-.2-.123-.445-.389-.6-.343"/>
    <path d="M7.189,20.88A3.34,3.34,0,0,0,9.2,22.059c-.192.207-.355.385-.55.6l.524.591c-.922-.233-1.472-.9-1.988-2.367" fill="#fff"/>
    <path d="M5.691,14.3c-.347.1-.693.214-1.15.357a10.483,10.483,0,0,1-.508-1.965c-.022-.308.343-.688.61-.958a.654.654,0,0,1,.083-.074,1.277,1.277,0,0,1,.19-.121c.041-.022.084-.043.126-.063.086-.041.174-.077.259-.118.044-.019.087-.039.128-.061l.02-.01-.019.021c.016-.014.032-.028.047-.043l.008-.006,0,0,0,0,.025-.022,0,0h0a.215.215,0,0,1,.029-.025,3.213,3.213,0,0,1,.295-.236l0,0,0,0c.036-.023.071-.044.1-.06l.019-.009.037-.016a.309.309,0,0,1,.114-.026h0a.2.2,0,0,1,.081.018.232.232,0,0,1,.069.049c.009.009.019.019.028.03a.582.582,0,0,1,.041.058l.017.03a.95.95,0,0,1,.049.1c.017.034.033.074.049.115.009.023.018.045.026.07s.014.036.021.057.014.038.02.06c.014.04.03.083.044.128a7.255,7.255,0,0,1,.222.83c.251,1.254.077,1.55-1.1,1.908"/>
    <path d="M3.3,25.611l0,.008,0,0,0,0-.011,0,.014-.009,0,0Z"/>
    <path d="M9.163,16.326c-.187.148-.361.4-.563.421a12.834,12.834,0,0,1-1.533.021c-.022-.049-.043-.1-.065-.148a13.856,13.856,0,0,1,1.564-.637c.152-.045.394.22.6.343"/>
    <path d="M31.275,34.6a1.4,1.4,0,0,0,.562-.291,1.044,1.044,0,0,0,.3-.448,1.84,1.84,0,0,0,.086-.584,1.315,1.315,0,0,0-.356-1,1.8,1.8,0,0,0-1.252-.342H28.622V34.7H30.4a3.22,3.22,0,0,0,.875-.1m.348-4.68a1.209,1.209,0,0,0,.313-.9.981.981,0,0,0-.405-.89,2.651,2.651,0,0,0-1.373-.263H28.622v2.361h1.849a1.626,1.626,0,0,0,1.152-.313m-1.394-3.712a6.778,6.778,0,0,1,1.856.213,3.075,3.075,0,0,1,1.16.583,1.943,1.943,0,0,1,.59.868A3.445,3.445,0,0,1,34,28.953a2.533,2.533,0,0,1-.256,1.124,2.081,2.081,0,0,1-.967.9,3.7,3.7,0,0,1,.747.505,2.135,2.135,0,0,1,.683,1.173,3.1,3.1,0,0,1,.064.626,3.764,3.764,0,0,1-.192,1.21,2.333,2.333,0,0,1-.64.981,3.2,3.2,0,0,1-1.174.654,5.7,5.7,0,0,1-1.792.242h-3.9V26.208Z"/>
  </g>
</svg>
