<svg xmlns="http://www.w3.org/2000/svg" width="44.022mm" height="16.269mm" viewBox="0 0 124.785 46.116">
  <g>
    <polygon points="1.653 23.38 5.31 20.527 4.332 19.212 0 22.701 0 24.223 4.27 27.688 5.296 26.358 1.653 23.534 1.653 23.38" fill="#272635"/>
    <path d="M13.69,25.288l-.757,1.532c-3.4-1.175-5.064-2.486-5.782-4.206-.732-1.754-.487-3.9,1.094-7.175l1.576.53c-1.484,2.862-1.6,4.476-1.017,5.874.593,1.416,1.9,2.5,4.886,3.445" fill="#f8b133"/>
    <polygon points="10.057 10.842 9.778 10.254 7.792 11.039 9.3 14.731 10.495 14.253 10.057 10.842" fill="#f8b133"/>
    <g>
      <path d="M16.962,18.933l-1.05,1.638a.938.938,0,0,1-.159-.043c-1.807-.583-3.282-2.168-4.737-5.5l1.426-.853c1.21,2.992,2.361,4.13,3.8,4.592a3.6,3.6,0,0,0,.723.164" fill="#f8b133"/>
      <path d="M37.56,25.1c0-.95-.726-1.132-2.081-1.034v2.095c1.494.21,2.081-.1,2.081-1.061m-2.081-2.4c1.439.056,1.857-.265,1.857-1.118,0-.824-.628-1.173-1.857-1.033Zm-2.012,4.987V19.027c3.549-.378,5.839.014,5.839,2.053a2.232,2.232,0,0,1-1.187,1.97,1.944,1.944,0,0,1,1.453,2c0,2.361-2.585,3.073-6.105,2.64" fill="#f8b133"/>
      <path d="M43.16,24.056h1.58c-.239-1.131-.491-2.277-.728-3.38h-.125c-.252,1.1-.489,2.249-.727,3.38m1.887,1.481H42.853c-.154.727-.307,1.439-.447,2.151H40.353c.683-2.877,1.383-5.783,2.193-8.661h2.836c.809,2.878,1.509,5.714,2.192,8.592l-2.081.139c-.14-.726-.294-1.467-.446-2.221" fill="#f8b133"/>
    </g>
    <polygon points="50.493 22.869 50.423 22.869 50.507 27.688 48.621 27.688 48.621 19.027 50.409 19.027 52.812 23.847 52.868 23.847 52.784 19.027 54.67 19.027 54.67 27.688 53.007 27.688 50.493 22.869" fill="#f8b133"/>
    <path d="M58.525,24.056H60.1c-.238-1.131-.491-2.277-.728-3.38h-.125c-.251,1.1-.488,2.249-.726,3.38m1.886,1.481H58.217c-.153.727-.307,1.439-.446,2.151H55.717c.684-2.877,1.383-5.783,2.193-8.661h2.836c.81,2.878,1.509,5.714,2.193,8.592l-2.081.139c-.141-.726-.294-1.467-.447-2.221" fill="#f8b133"/>
    <polygon points="65.857 22.869 65.787 22.869 65.871 27.688 63.985 27.688 63.985 19.027 65.773 19.027 68.176 23.847 68.232 23.847 68.148 19.027 70.034 19.027 70.034 27.688 68.371 27.688 65.857 22.869" fill="#f8b133"/>
    <g>
      <path d="M73.888,24.056h1.579c-.238-1.131-.49-2.277-.727-3.38h-.125c-.252,1.1-.489,2.249-.727,3.38m1.887,1.481H73.581c-.154.727-.308,1.439-.447,2.151H71.081c.683-2.877,1.383-5.783,2.192-8.661h2.836c.81,2.878,1.509,5.714,2.193,8.592l-2.081.139c-.14-.726-.294-1.467-.446-2.221" fill="#f8b133"/>
      <path d="M81.976,20.229l-1.2,6.244c2.388.154,3.576-1.816,3.576-4.037,0-1.606-.769-2.361-2.375-2.207M79,27.675l1.663-8.606c3.506-.572,5.238.545,5.238,3.213,0,3.171-1.969,6.035-6.9,5.393" fill="#272635"/>
    </g>
    <polygon points="92.144 27.688 86.877 27.688 88.554 19.027 93.862 19.027 93.611 20.326 89.853 20.326 89.378 22.771 92.563 22.771 92.34 23.902 89.154 23.902 88.666 26.389 92.493 26.389 92.144 27.688" fill="#272635"/>
    <path d="M99.826,21.6c-.224-1.033-.7-1.439-1.495-1.439A1.229,1.229,0,0,0,97,21.318c0,1.453,3.451,2.319,3.451,4.247,0,1.439-1.747,2.864-6.189,1.955l.307-1.508c3.185.866,4.275.363,4.275-.363,0-1.244-3.409-2.124-3.409-4.149a2.928,2.928,0,0,1,3.2-2.641c1.536,0,2.277.88,2.542,2.473Z" fill="#272635"/>
    <polygon points="107.704 26.459 107.41 27.688 101.962 27.688 102.2 26.459 104.142 26.459 105.343 20.256 103.373 20.256 103.61 19.027 109.059 19.027 108.835 20.256 106.894 20.256 105.692 26.459 107.704 26.459" fill="#272635"/>
    <path d="M113.6,29.211l.349-1.523c-2.486.587-3.9-.614-3.9-3.059,0-3.032,1.956-5.784,4.345-5.784,1.607,0,2.194,1.076,2.068,3.353l-1.453.028c.028-1.355-.126-2-.908-2-1.453,0-2.487,2.194-2.487,4.178,0,1.774.866,2.458,2.64,1.928l.462-2.04,1.452-.042-1.159,4.931Z" fill="#272635"/>
    <polygon points="119.98 21.751 119.91 21.751 118.806 27.688 117.354 27.688 119.03 19.055 120.525 18.999 122.173 24.894 122.243 24.894 123.333 19.027 124.785 19.027 123.109 27.688 121.754 27.688 119.98 21.751" fill="#272635"/>
    <polygon points="21.067 18.027 19.983 20.21 18.393 23.414 15.193 29.862 13.608 29.105 16.822 22.629 17.752 20.75 18.701 18.832 19.477 17.27 20.913 17.955 21.067 18.027" fill="#272635"/>
    <polygon points="26.623 22.677 26.623 24.2 22.286 27.688 21.308 26.373 24.965 23.52 24.965 23.366 21.867 20.962 21.322 20.542 22.349 19.212 22.662 19.468 26.623 22.677" fill="#272635"/>
  </g>
</svg>
