<svg xmlns="http://www.w3.org/2000/svg" width="28.37mm" height="16.269mm" viewBox="0 0 80.419 46.116">
  <polygon points="26.7 16.823 25.006 18.432 27.527 23.757 27.527 30.889 23.928 30.889 25.612 29.424 20.33 24.474 17.418 25.877 21.929 30.889 16.172 30.889 17.39 28.981 12.725 22.573 10.329 25.59 13.682 30.889 9.744 30.889 8.11 30.889 10.409 29.141 7.401 25.995 4.204 29.66 5.081 30.889 0 30.889 2.134 28.988 5.363 20.925 2.759 19.569 2.702 18.107 3.863 17.755 4.045 16.882 5.093 16.823 5.759 16.079 6.82 16.357 6.871 16.823 26.7 16.823" fill="red"/>
  <path d="M34.452,25.068v3.023h1.072c.106,0,.308-.012.607-.038a2.17,2.17,0,0,0,.662-.131c.143-.062.312-.145.5-.252a.893.893,0,0,0,.41-.428,1.556,1.556,0,0,0,.122-.643,2.04,2.04,0,0,0-.056-.5.825.825,0,0,0-.2-.374l-.252-.27a.745.745,0,0,0-.363-.187,3.866,3.866,0,0,1-.383-.112,1.939,1.939,0,0,0-.457-.066q-.327-.018-.429-.018H34.452Zm0-5.447v2.724h.41a3.126,3.126,0,0,0,1.436-.28,1.1,1.1,0,0,0,.542-1.082,1.436,1.436,0,0,0-.177-.756.964.964,0,0,0-.532-.41,3.228,3.228,0,0,0-.652-.158,6.143,6.143,0,0,0-.766-.038Zm1.977,11.268H30.8V16.823h5.224q4.179,0,4.18,3.656a2.926,2.926,0,0,1-1.549,2.874v.036q2.872.374,2.873,3.583a3.775,3.775,0,0,1-.43,1.846,3.133,3.133,0,0,1-1.166,1.222,5.664,5.664,0,0,1-1.6.644,8.222,8.222,0,0,1-1.895.2"/>
  <polygon points="51.429 19.92 47.082 19.92 47.082 22.27 51.206 22.27 51.206 25.367 47.082 25.367 47.082 27.792 51.429 27.792 51.429 30.889 43.425 30.889 43.425 16.823 51.429 16.823 51.429 19.92"/>
  <path d="M57.343,19.622v3.507H57.7q2.538,0,2.539-1.754T57.7,19.622Zm3.619,5.5,4.421,5.765H60.831l-3.452-5.411h-.036V30.89H53.685V16.823h5.467A5.484,5.484,0,0,1,62.7,17.906a3.918,3.918,0,0,1,1.342,3.246,4.284,4.284,0,0,1-.81,2.611,3.466,3.466,0,0,1-2.267,1.362"/>
  <polygon points="66.371 30.889 66.371 16.823 70.028 16.823 76.725 25.423 76.763 25.423 76.763 16.823 80.419 16.823 80.419 30.889 76.763 30.889 70.065 22.27 70.028 22.27 70.028 30.889 66.371 30.889"/>
</svg>
