<svg xmlns="http://www.w3.org/2000/svg" width="26.794mm" height="16.269mm" viewBox="0 0 75.953 46.116">
  <g>
    <polygon points="11.272 4.103 13.161 4.032 12.441 6.154 11.777 6.953 11.867 6.16 11.383 5.021 11.272 4.103" fill="#375fa8"/>
    <polygon points="12.7 6.655 13.995 6.05 16.225 5.671 16.238 5.349 15.187 4.784 13.993 4.796 13.091 5.805 12.7 6.655" fill="#375fa8"/>
    <g>
      <path d="M8.734,11.74,5.318,13.311l-1.958,3.3.772,4.946.47,5.7-.915-.887a10.913,10.913,0,0,0-2.5,3.835l-.408-.193L0,32.263a3.075,3.075,0,0,0,2.469.833,3.639,3.639,0,0,1-1.477.389L1,35.556H6.436l.392-7.529.986-2.41L7.773,22.77l.426.318.013,1.66,1.724,3.245.15-1.309-.951-2.153L8.6,22.347,7.245,21.216l.061-.746.679-.109L8.7,17.616l-.556-.96-1.51-.075-.528,1.86.135,1.665-.188.579-1.472-1-.209-3.2,1.886-2.8,2.4-.925.7.145Z" fill="#008652"/>
      <path d="M21.905,26.527l.257-4.438.8-4.063-1.018-3.652-5.281-2.829-.324,1.476.7-.363,4.018,2.2.86,2.911-.542,2.469-.958.514-.248-1.321.062-1.972-2.822-.206.617,2.844.834.325-.071.9L17.5,22.812l-.091,2.844L16.566,27.4l.219,1.187,1.323-2.576.064-2.366.314-.518.116,2.283,1.059,2.9-.806-.324-.964,6.06a10.742,10.742,0,0,0,3.385.311,7.562,7.562,0,0,1-2.829.455l-.218.746h4.84l-.045-1.2.514-.642L23.1,28.04Z" fill="#fcd118"/>
      <path d="M11.678,18.835l.342.49.023,1.754.455.319-.155,1.058-1.6.377-1.02,3.85.214,1.309,1.372-3.108.151.658-.531,2.572L10.3,29.831l-.39,3.951a4.983,4.983,0,0,0,2.5.457,2.607,2.607,0,0,1-1.621.283L10.7,35.551h4.109l-.1-1.44.392-.227L14.853,29.6,14.1,27.539l.5-1.763.062-1.385.823,2.479,1.3,1.713-.072-1.3-.682-1.186-.618-3.14-1.479-.669-.085-.864.206-1.28.4-.352.123-1.187-.257-.913-1.4-.239-.9.2Z" fill="#e41930"/>
    </g>
    <polygon points="10.716 8.602 9.145 10.299 10.879 10.036 9.732 11.142 12.352 15.037 14.737 14.889 15.951 9.006 14.28 8.064 14.78 7.252 13.564 6.857 10.269 7.787 10.716 8.602" fill="#375fa8"/>
    <polygon points="6.508 18.472 5.709 18.006 5.875 16.506 6.508 15.361 8.373 14.96 9.363 15.488 9.363 17.235 8.935 17.801 6.685 17.801 6.508 18.472" fill="#008652"/>
    <polygon points="19.953 18.949 20.351 18.418 20.642 16.912 20.524 15.849 18.781 15.321 17.535 15.778 17.067 17.52 17.696 18.113 19.836 18.268 19.953 18.949" fill="#fcd118"/>
    <path d="M35.537,25.088a1.153,1.153,0,0,0,.393-.947,1.21,1.21,0,0,0-.411-.971,1.68,1.68,0,0,0-1.132-.352H32.31v2.6h2.109a1.7,1.7,0,0,0,1.118-.327m-3.225-4.363h1.874a1.654,1.654,0,0,0,1.08-.309,1.111,1.111,0,0,0,.376-.913,1.137,1.137,0,0,0-.376-.921,1.628,1.628,0,0,0-1.08-.318H32.31Zm5.9,1.984a3.081,3.081,0,0,1-.411,4.154,4.346,4.346,0,0,1-2.873.864H29.447V15.967H34.74a4.344,4.344,0,0,1,2.807.82,2.978,2.978,0,0,1,.469,3.953,2.808,2.808,0,0,1-1.449.956,2.735,2.735,0,0,1,1.642,1.013" fill="#375fa8"/>
    <path d="M46.339,22.146a1.479,1.479,0,0,0-.5-1.173,1.85,1.85,0,0,0-1.256-.434,1.818,1.818,0,0,0-1.215.418,1.858,1.858,0,0,0-.61,1.19Zm.2-6.165L42.5,17.674V15.7l4.037-1.945Zm2.682,7.756H42.736a1.95,1.95,0,0,0,.563,1.331,1.712,1.712,0,0,0,1.214.463,1.508,1.508,0,0,0,1.492-.9h3.046a4.216,4.216,0,0,1-2.378,2.815,4.931,4.931,0,0,1-2.06.419,5.009,5.009,0,0,1-2.446-.586A4.168,4.168,0,0,1,40.491,25.6a5.713,5.713,0,0,1-.009-5.093,4.124,4.124,0,0,1,1.666-1.676,5.433,5.433,0,0,1,4.875-.017,4.088,4.088,0,0,1,1.65,1.624,4.932,4.932,0,0,1,.6,2.463,7.31,7.31,0,0,1-.049.836" fill="#375fa8"/>
    <path d="M59,19.337a4.149,4.149,0,0,1,.981,2.923v5.461H57.13V22.645a2.054,2.054,0,0,0-.486-1.457,1.9,1.9,0,0,0-2.614,0,2.052,2.052,0,0,0-.485,1.457v5.076H50.682V18.374h2.864v1.239a3.031,3.031,0,0,1,1.173-.98,3.727,3.727,0,0,1,1.658-.36A3.394,3.394,0,0,1,59,19.337" fill="#375fa8"/>
    <path d="M64.663,27.723H61.8V18.376h2.865ZM62.008,16.958a1.437,1.437,0,0,1-.477-1.1,1.455,1.455,0,0,1,.477-1.114,1.735,1.735,0,0,1,1.23-.445,1.71,1.71,0,0,1,1.214.444,1.453,1.453,0,0,1,.478,1.114,1.435,1.435,0,0,1-.476,1.1,1.712,1.712,0,0,1-1.214.444,1.73,1.73,0,0,1-1.232-.443" fill="#375fa8"/>
    <path d="M74.939,19.334a4.153,4.153,0,0,1,.98,2.923v5.462H73.072V22.642a2.055,2.055,0,0,0-.487-1.457,1.9,1.9,0,0,0-2.612,0,2.045,2.045,0,0,0-.485,1.458v5.076H66.622V18.372h2.866V19.61a3.016,3.016,0,0,1,1.173-.98,3.72,3.72,0,0,1,1.657-.36,3.4,3.4,0,0,1,2.621,1.064" fill="#375fa8"/>
    <path d="M30.7,31.85c.46,0,.919-.127.945-.637v-.044c0-.53-.412-.669-.945-.669h-.772v1.352Zm-1.4-1.664a.316.316,0,0,1,.315-.315H30.7c.894,0,1.575.428,1.575,1.3v.069a1.254,1.254,0,0,1-.245.72,1.6,1.6,0,0,1-1.33.523h-.772v1.557a.315.315,0,0,1-.314.315.321.321,0,0,1-.316-.315Z" fill="#375fa8"/>
    <path d="M35.406,32.4l-.479-1.84-.478,1.84ZM33.39,33.955,34.4,30.066a.329.329,0,0,1,.308-.234h.429a.3.3,0,0,1,.289.2l1.042,4.008a.33.33,0,0,1-.321.314.318.318,0,0,1-.3-.232l-.283-1.084h-1.28l-.277,1.084a.314.314,0,0,1-.617-.081Z" fill="#375fa8"/>
    <path d="M39.355,31.847a.776.776,0,0,0,.515-.144,1.049,1.049,0,0,0,.247-.839c0-.081-.109-.145-.2-.188a1.2,1.2,0,0,0-.581-.177h-.679v1.348Zm-1.323-1.663a.313.313,0,0,1,.31-.315h1.039c.592.052,1.366.378,1.366,1a1.483,1.483,0,0,1-.856,1.537l.856,1.475a.261.261,0,0,1,.039.158.324.324,0,0,1-.334.315.329.329,0,0,1-.214-.088L39.2,32.478h-.543v1.557a.315.315,0,0,1-.629,0Z" fill="#375fa8"/>
    <path d="M42.49,29.868h2.52a.316.316,0,0,1,.316.315.32.32,0,0,1-.316.315h-.945v3.536a.315.315,0,0,1-.63,0V30.5h-.946a.315.315,0,0,1,0-.63Z" fill="#375fa8"/>
    <path d="M46.892,30.183a.311.311,0,0,1,.309-.315h2.16a.313.313,0,0,1,.317.309v.006a.318.318,0,0,1-.317.315h-1.84v1.165H49.06a.32.32,0,0,1,.314.316.315.315,0,0,1-.314.315H47.523v1.355h1.838a.312.312,0,0,1,.315.309v.006a.315.315,0,0,1-.315.315H47.206a.317.317,0,0,1-.315-.315Z" fill="#375fa8"/>
    <path d="M51.178,30.106a.319.319,0,0,1,.314-.315h.233a.325.325,0,0,1,.284.183l1.513,3.163V30.1a.314.314,0,0,1,.315-.314.327.327,0,0,1,.317.314V34.03a.327.327,0,0,1-.317.315H53.6a.322.322,0,0,1-.284-.177l-1.507-3.162v3.025a.315.315,0,0,1-.629,0Z" fill="#375fa8"/>
    <path d="M57.652,32.4l-.479-1.84L56.7,32.4Zm-2.016,1.551L56.65,30.06a.328.328,0,0,1,.308-.233h.429a.294.294,0,0,1,.289.195l1.041,4.008a.33.33,0,0,1-.32.315.321.321,0,0,1-.3-.233l-.283-1.084H56.53l-.277,1.087a.314.314,0,0,1-.617-.082Z" fill="#375fa8"/>
    <path d="M60.648,33.646h.586V30.5h-.461a.321.321,0,0,1-.315-.315.317.317,0,0,1,.315-.316h1.549a.316.316,0,0,1,0,.631h-.461v3.151h.588a.317.317,0,0,1,.315.314.322.322,0,0,1-.315.316h-1.8a.32.32,0,0,1-.315-.315.315.315,0,0,1,.315-.315" fill="#375fa8"/>
    <path d="M65.809,31.842a.774.774,0,0,0,.514-.145,1.039,1.039,0,0,0,.246-.838c0-.082-.107-.145-.2-.189a1.215,1.215,0,0,0-.58-.177h-.681v1.349Zm-1.324-1.663a.312.312,0,0,1,.309-.315h1.04c.592.051,1.367.378,1.367,1a1.484,1.484,0,0,1-.857,1.538l.857,1.475a.271.271,0,0,1,.038.158.324.324,0,0,1-.547.226l-1.035-1.783h-.542V34.03a.315.315,0,1,1-.629,0Z" fill="#375fa8"/>
    <path d="M68.958,30.178a.312.312,0,0,1,.309-.315h2.16a.311.311,0,0,1,.315.309v.006a.316.316,0,0,1-.315.315h-1.84v1.166h1.537a.321.321,0,0,1,.316.315.316.316,0,0,1-.315.315H69.588v1.355h1.839a.312.312,0,0,1,.315.309v.006a.315.315,0,0,1-.315.315H69.272a.317.317,0,0,1-.316-.315Z" fill="#375fa8"/>
    <path d="M73.227,33.271a.317.317,0,0,1,.63-.044.648.648,0,0,0,.7.515.935.935,0,0,0,.548-.177.594.594,0,0,0,.214-.479c0-.385-.257-.524-.514-.655-.649-.328-1.537-.574-1.538-1.538a1.229,1.229,0,0,1,1.317-1.128h.038a1.213,1.213,0,0,1,1.261.863.369.369,0,0,1,.012.081.316.316,0,0,1-.315.316c-.3,0-.3-.341-.473-.485a.735.735,0,0,0-.479-.145c-.353,0-.731.176-.731.5,0,.36.239.5.479.623.662.34,1.577.573,1.577,1.57a1.29,1.29,0,0,1-1.166,1.267,1.764,1.764,0,0,1-.24.019,1.279,1.279,0,0,1-1.317-1.059Z" fill="#375fa8"/>
  </g>
</svg>
