<svg xmlns="http://www.w3.org/2000/svg" width="33.536mm" height="16.269mm" viewBox="0 0 95.064 46.116">
  <g>
    <path d="M4.466,16.27a5.094,5.094,0,0,0-1.309,3.659A4.863,4.863,0,0,0,4.378,23.4a4.234,4.234,0,0,0,3.21,1.287,5.875,5.875,0,0,0,2.894-.7.261.261,0,0,1,.263,0,.264.264,0,0,1,.132.232v1.55a.269.269,0,0,1-.147.241,8.077,8.077,0,0,1-3.61.731,6.081,6.081,0,0,1-4.626-1.852,6.819,6.819,0,0,1-1.74-4.848,7.149,7.149,0,0,1,1.955-5.214,6.679,6.679,0,0,1,4.946-1.989,8.284,8.284,0,0,1,3.056.5.266.266,0,0,1,.166.251v1.7a.264.264,0,0,1-.129.231.256.256,0,0,1-.258.008A5.549,5.549,0,0,0,7.884,14.9,4.532,4.532,0,0,0,4.466,16.27" fill="#eb5a29"/>
    <path d="M20.256,21.135a.149.149,0,0,1-.12.061H16.692a.142.142,0,0,1-.119-.061.137.137,0,0,1-.02-.132l1.714-5.045a5.1,5.1,0,0,0,.144-.6,4.916,4.916,0,0,0,.134.6L20.275,21a.148.148,0,0,1-.019.132m4.28,5.021L19.8,13.235a.27.27,0,0,0-.251-.176H17.38a.27.27,0,0,0-.251.176L12.358,26.156a.27.27,0,0,0,.032.246.272.272,0,0,0,.219.115h1.938a.27.27,0,0,0,.254-.183l1.043-3.113a.146.146,0,0,1,.139-.1h4.875a.145.145,0,0,1,.136.1l1.087,3.115a.27.27,0,0,0,.254.181h1.947a.272.272,0,0,0,.27-.272.292.292,0,0,0-.016-.089" fill="#eb5a29"/>
    <path d="M30.44,19.755h-1.2a.146.146,0,0,1-.146-.146V15.151A.146.146,0,0,1,29.236,15h1.379c1.772,0,2.635.749,2.635,2.292a2.333,2.333,0,0,1-.714,1.816,3.058,3.058,0,0,1-2.1.643M34.4,14.144a5.318,5.318,0,0,0-3.551-1.085H27.064a.268.268,0,0,0-.268.268V26.249a.268.268,0,0,0,.268.268h1.757a.268.268,0,0,0,.269-.268V21.827a.146.146,0,0,1,.146-.146h1.543a4.984,4.984,0,0,0,3.563-1.253A4.268,4.268,0,0,0,35.664,17.2,3.829,3.829,0,0,0,34.4,14.144" fill="#eb5a29"/>
    <path d="M45.472,24.586H40.69a.208.208,0,0,1-.208-.207V20.852a.207.207,0,0,1,.207-.207h4.1A.21.21,0,0,0,45,20.438V18.982a.207.207,0,0,0-.207-.207H40.69a.208.208,0,0,1-.208-.207V15.207A.207.207,0,0,1,40.689,15h4.49a.207.207,0,0,0,.208-.207V13.328a.207.207,0,0,0-.207-.207H38.508a.206.206,0,0,0-.207.206h0V26.249a.207.207,0,0,0,.207.207h6.964a.207.207,0,0,0,.207-.207V24.794a.206.206,0,0,0-.206-.208Z" fill="#66392b"/>
    <path d="M56.028,21.661a3.86,3.86,0,0,0-.734-1.073,6.142,6.142,0,0,0-1.072-.884c-.405-.266-.834-.517-1.29-.758l-.014-.008q-.666-.3-1.173-.551a5.326,5.326,0,0,1-.86-.524,1.953,1.953,0,0,1-.536-.594,1.555,1.555,0,0,1-.183-.773,1.362,1.362,0,0,1,.236-.809,1.938,1.938,0,0,1,.619-.549,2.917,2.917,0,0,1,.863-.307,5.239,5.239,0,0,1,.968-.093,5.029,5.029,0,0,1,2.567.612.205.205,0,0,0,.282-.068.21.21,0,0,0,.03-.107v-1.67a.207.207,0,0,0-.12-.19,7.567,7.567,0,0,0-2.888-.417,7.314,7.314,0,0,0-1.78.217,5.063,5.063,0,0,0-1.552.67,3.573,3.573,0,0,0-1.1,1.144,3.1,3.1,0,0,0-.417,1.633,3.338,3.338,0,0,0,.244,1.328,3.406,3.406,0,0,0,.67,1.019,5.408,5.408,0,0,0,1,.824q.573.369,1.238.731a.024.024,0,0,0,.014.005q.618.289,1.163.551a6.644,6.644,0,0,1,.948.553,2.4,2.4,0,0,1,.627.636,1.481,1.481,0,0,1,.226.824,1.531,1.531,0,0,1-.675,1.348,3.635,3.635,0,0,1-2.047.466,4.89,4.89,0,0,1-.863-.083,7.017,7.017,0,0,1-.936-.239,5.594,5.594,0,0,1-.885-.375,4.278,4.278,0,0,1-.388-.237.208.208,0,0,0-.331.166v1.728a.2.2,0,0,0,.1.178,3.173,3.173,0,0,0,.624.256,9.156,9.156,0,0,0,.953.239c.336.063.665.114.987.149a7.883,7.883,0,0,0,.812.051,8.6,8.6,0,0,0,1.879-.2,4.733,4.733,0,0,0,1.572-.631A3.284,3.284,0,0,0,55.9,24.718a3.382,3.382,0,0,0,.4-1.712,3.211,3.211,0,0,0-.271-1.345" fill="#66392b"/>
    <path d="M66.722,21.661a3.918,3.918,0,0,0-.734-1.073,6.125,6.125,0,0,0-1.075-.884c-.4-.266-.833-.517-1.289-.758l-.015-.008q-.665-.3-1.17-.551a5.546,5.546,0,0,1-.863-.524,2,2,0,0,1-.536-.594,1.566,1.566,0,0,1-.183-.773,1.37,1.37,0,0,1,.239-.809,1.906,1.906,0,0,1,.619-.549,2.934,2.934,0,0,1,.861-.307,5.239,5.239,0,0,1,.968-.093,5.005,5.005,0,0,1,2.566.612.2.2,0,0,0,.312-.175v-1.67a.2.2,0,0,0-.119-.19,7.576,7.576,0,0,0-2.889-.417,7.29,7.29,0,0,0-1.777.217,5.079,5.079,0,0,0-1.555.67,3.544,3.544,0,0,0-1.1,1.144,3.1,3.1,0,0,0-.417,1.633,3.357,3.357,0,0,0,.242,1.328,3.445,3.445,0,0,0,.67,1.019,5.475,5.475,0,0,0,1,.824q.575.369,1.241.731c.005,0,.007.005.012.005.414.193.8.375,1.163.551a6.7,6.7,0,0,1,.948.553,2.364,2.364,0,0,1,.629.636,1.5,1.5,0,0,1,.224.824,1.534,1.534,0,0,1-.673,1.348,3.653,3.653,0,0,1-2.05.466,4.908,4.908,0,0,1-.863-.083,6.975,6.975,0,0,1-.933-.239,5.555,5.555,0,0,1-.885-.375c-.139-.076-.268-.154-.39-.237a.206.206,0,0,0-.329.166v1.728a.2.2,0,0,0,.1.178,3.056,3.056,0,0,0,.624.256,9.156,9.156,0,0,0,.953.239c.336.063.665.114.985.149.269.03.54.048.811.051a8.614,8.614,0,0,0,1.88-.2,4.742,4.742,0,0,0,1.572-.631,3.275,3.275,0,0,0,1.087-1.133,3.381,3.381,0,0,0,.4-1.712,3.24,3.24,0,0,0-.268-1.345" fill="#66392b"/>
    <path d="M89.99,19.09a2.612,2.612,0,0,1-.931.158H87.45a.207.207,0,0,1-.207-.206h0V15.124a.21.21,0,0,1,.207-.21h1.629a2.457,2.457,0,0,1,1.713.542,1.91,1.91,0,0,1,.6,1.5,2.492,2.492,0,0,1-.175.958,2.034,2.034,0,0,1-1.224,1.18m5.043,7.049-2.142-3.43q-.282-.438-.517-.767a6.115,6.115,0,0,0-.473-.593q-.237-.26-.5-.5a3.323,3.323,0,0,0-.622-.451v-.039a4.482,4.482,0,0,0,1.2-.5,3.574,3.574,0,0,0,.917-.785,3.367,3.367,0,0,0,.587-1.051,3.938,3.938,0,0,0,.207-1.3,3.593,3.593,0,0,0-.326-1.578,3.177,3.177,0,0,0-.9-1.126,3.952,3.952,0,0,0-1.358-.672A6.184,6.184,0,0,0,89.4,13.12H85.279a.208.208,0,0,0-.208.207h0V26.249a.207.207,0,0,0,.207.207h1.758a.206.206,0,0,0,.207-.206h0v-5a.207.207,0,0,1,.207-.207h.673a2.531,2.531,0,0,1,.744.1,1.847,1.847,0,0,1,.609.325,3.286,3.286,0,0,1,.551.573,7.445,7.445,0,0,1,.556.84l2.037,3.469a.208.208,0,0,0,.181.1h2.055a.207.207,0,0,0,.208-.207.212.212,0,0,0-.031-.11" fill="#66392b"/>
    <path d="M77.919,20.011a1.976,1.976,0,1,1-1.977-1.977,1.976,1.976,0,0,1,1.977,1.977" fill="#eb5a29"/>
    <path d="M74.34,28.192a8.434,8.434,0,0,1-1.464,3.84c-.34.5-1.225.319-.9-.4a7.75,7.75,0,0,0,.743-3.378c-2.407,4.129-9.383,7.326-17.754,7.914-12.636.888-23.431-3.357-28.871-7a.6.6,0,0,1-.28-.824.561.561,0,0,1,.773-.124c12.79,7.08,33.94,9.89,43.71-1.318a7.931,7.931,0,0,0-3.305,1.148.465.465,0,0,1-.545-.751,11.507,11.507,0,0,1,4.163-2.458c1.4-.53,2.4-.87,3.058-.518.641.343.926,1.51.674,3.867" fill="#eb5a29"/>
    <path d="M75.92,12.718a7.293,7.293,0,0,0-6.185,11.159c.146-.059.3-.117.443-.173a16.074,16.074,0,0,1,1.76-.588,5.049,5.049,0,1,1,3.983,1.948c-.146,0-.29-.007-.434-.02a7.942,7.942,0,0,1,.149,2.255c.095,0,.19.007.285.007a7.294,7.294,0,0,0,0-14.588Z" fill="#eb5a29"/>
  </g>
</svg>
