<svg xmlns="http://www.w3.org/2000/svg" width="19.039mm" height="16.312mm" viewBox="0 0 53.969 46.239">
  <g>
    <path d="M17.5,44.546c-.222,0-.207-.241-.163-.335l.907.005c.124,0,.153.158.089.291Z" fill="#1a2544"/>
    <path d="M20.77,43.656a.643.643,0,0,0-.237-.044c-.384,0-.489,1.552-.213,1.552.192,0,.326-.364.415-.936,0-.173.02-.365.035-.572m.622-1.582a7.7,7.7,0,0,1-.346,2.322c-.006.542.023.788.1.788.1,0,.222-.068.361-.4.074-.054.2-.019.172.07a.74.74,0,0,1-.636.571c-.148,0-.237-.148-.281-.409a.733.733,0,0,1-.567.408c-.286,0-.483-.414-.483-.907,0-.562.282-1.168.672-1.168a.664.664,0,0,1,.4.119c.035-.434.089-.937.148-1.469.375-.276.459-.182.459.079" fill="#1a2544"/>
    <path d="M22.466,43.6c-.271,0-.42.66-.42,1.129,0,.261.054.458.157.458.143,0,.306-.246.371-1.03a.108.108,0,0,1-.094-.133c.119-.123.183-.424-.014-.424m.911,1.179c.074-.054.2-.02.172.069a.749.749,0,0,1-.636.576c-.123,0-.286-.049-.355-.315-.148.251-.286.31-.443.31-.355,0-.5-.36-.5-.794,0-.572.312-1.262.938-1.261a.378.378,0,0,1,.413.453c.05.03.084.119.03.311-.173.6-.2,1.055.024,1.055.1,0,.222-.069.36-.4" fill="#1a2544"/>
    <path d="M23.92,43.825a2.118,2.118,0,0,0,.257-1.271,7.412,7.412,0,0,0-.257,1.271m.561.957c.108-.054.207-.02.173.069-.119.3-.346.572-.637.571-.764,0-.635-1.35-.1-3.638a.166.166,0,0,1,.172-.039c.6.173.5,1.533-.2,2.494-.02.577.073.947.231.947.1,0,.222-.069.36-.4" fill="#1a2544"/>
    <path d="M26.02,42.866c-.1-.044-.148-.128-.059-.2l.868-.759c.326-.083.429-.029.414.109L26.8,45.346c-.192.074-.379.088-.364-.089.029-.389.149-1.656.263-2.839Z" fill="#1a2544"/>
    <path d="M28.356,42.537a1.156,1.156,0,0,0,.4.769.866.866,0,0,0,.37-.675c0-.4-.167-.567-.379-.567a.42.42,0,0,0-.39.473m.748,1.942c0-.31-.266-.5-.532-.729-.252.2-.454.409-.454.67,0,.468.207.72.468.72.35,0,.518-.32.518-.661m-.724-.907a1.077,1.077,0,0,1-.33-.774c0-.66.365-1,.883-1a.706.706,0,0,1,.67.7,1.336,1.336,0,0,1-.671.986c.315.3.65.562.65.838a1.59,1.59,0,0,1-1.169,1.168.994.994,0,0,1-.822-.962c0-.449.4-.7.789-.951" fill="#1a2544"/>
    <path d="M30.678,42.538a1.156,1.156,0,0,0,.4.769.866.866,0,0,0,.37-.675c0-.4-.167-.567-.379-.567a.42.42,0,0,0-.39.473m.748,1.943c0-.311-.266-.5-.532-.73-.251.2-.454.409-.454.67,0,.468.207.72.468.72.35,0,.518-.32.518-.66m-.724-.908a1.077,1.077,0,0,1-.33-.774c0-.661.365-1,.883-1a.706.706,0,0,1,.67.7,1.336,1.336,0,0,1-.671.986c.315.3.651.562.65.838a1.59,1.59,0,0,1-1.169,1.168.994.994,0,0,1-.822-.962c0-.448.4-.7.789-.951" fill="#1a2544"/>
    <path d="M32.836,44.023c-.05.734.191,1.183.433,1.183.261,0,.424-.364.425-.9,0-.749-.463-.818-.858-.281m.923-2.213c.814,0,.591,1.085.241,1.085-.064,0-.153-.025-.158-.094.055-.2.188-.72-.2-.72-.5,0-.745.655-.8,1.616a.868.868,0,0,1,.651-.32c.217,0,.69.11.69.814a1.147,1.147,0,0,1-1.022,1.237c-.384,0-.838-.39-.837-1.3,0-1.513.83-2.316,1.431-2.316" fill="#1a2544"/>
    <path d="M35.63,44.557c-.222,0-.207-.242-.162-.335l.907,0c.123.005.152.158.088.291Z" fill="#1a2544"/>
    <path d="M1.814,27.533,1.809,36.6H3.783l.369-.368,0-8.333-.368-.369Zm4.145,8.554a1.836,1.836,0,0,1-1.307,2.007L0,38.091.008,26.043l4.652,0a1.837,1.837,0,0,1,1.3,2.009Z" fill="#1a2544"/>
    <path d="M9.542,32.357h2.175V30.3l-.368-.369H9.911l-.368.369ZM12.1,38.1l-2.928,0a1.836,1.836,0,0,1-1.3-2.008l0-5.523a1.836,1.836,0,0,1,1.306-2.007H12.1a1.838,1.838,0,0,1,1.3,2.009l0,3.029-3.865,0,0,2.761.368.369h1.439l.368-.368V35.2h1.69v.892A1.836,1.836,0,0,1,12.1,38.1" fill="#1a2544"/>
    <path d="M24.315,36.1A1.836,1.836,0,0,1,23.008,38.1l-3.347,0a1.837,1.837,0,0,1-1.3-2.009l0-8.032a1.839,1.839,0,0,1,1.307-2.008l3.347,0a1.836,1.836,0,0,1,1.3,2.008l0,2.164-1.807,0,0-2.314-.368-.368H20.538l-.368.368-.005,8.334.368.368h1.606l.369-.368v-2.2l1.808,0Z" fill="#1a2544"/>
    <path d="M27.9,32.369h2.175V30.312l-.368-.369H28.267l-.368.368Zm2.556,5.741-2.928,0a1.836,1.836,0,0,1-1.3-2.009l0-5.522a1.838,1.838,0,0,1,1.307-2.008l2.928,0a1.838,1.838,0,0,1,1.3,2.009l0,3.029-3.865,0,0,2.761.368.368H29.7l.368-.368V35.21h1.69V36.1a1.836,1.836,0,0,1-1.307,2.007" fill="#1a2544"/>
    <path d="M39.173,36.107a1.836,1.836,0,0,1-1.307,2.007l-2.928,0a1.836,1.836,0,0,1-1.3-2.008l0-5.523a1.837,1.837,0,0,1,1.307-2.007l2.928,0a1.835,1.835,0,0,1,1.3,2.009v1.192h-1.69V30.383l-.368-.369H35.68l-.369.368,0,5.924.367.352h1.439l.369-.351V34.8h1.69Z" fill="#1a2544"/>
    <path d="M46.569,36.112a1.836,1.836,0,0,1-1.307,2.007l-2.928,0a1.836,1.836,0,0,1-1.3-2.008l0-5.523a1.837,1.837,0,0,1,1.307-2.007h2.928a1.839,1.839,0,0,1,1.3,2.01l0,1.192h-1.69V30.388l-.368-.369H43.076l-.369.368,0,5.924.367.352H44.51l.369-.351V34.8h1.69Z" fill="#1a2544"/>
    <path d="M50.1,36.381l.368.368h1.439l.368-.368.005-6.057-.369-.369H50.471l-.368.368Zm2.56,1.742-2.929,0a1.837,1.837,0,0,1-1.3-2.009l0-5.522a1.836,1.836,0,0,1,1.3-2.008l2.929,0a1.838,1.838,0,0,1,1.3,2.009l0,5.523a1.835,1.835,0,0,1-1.306,2.007" fill="#1a2544"/>
    <path d="M32.5,19.886A9.4,9.4,0,0,1,28.48,18.73a8.438,8.438,0,0,1-.726-.541,4.662,4.662,0,0,1-1.885-2.608,3.176,3.176,0,0,0,2.442,1.084,1.86,1.86,0,0,0,.962-.255,2.631,2.631,0,0,0,.616-.625l.393-.5a2.887,2.887,0,0,0,.051,1.575,5.087,5.087,0,0,0,2.17,3.027" fill="#1a2544"/>
    <path d="M27.011,12.965a1.805,1.805,0,0,0,1.42.337c.06-.008.121-.018.181-.03s.158-.056.22-.017a1.658,1.658,0,0,0,.243.167.742.742,0,0,0,.593-.013l-.116-.047c.011.048.021.1.031.144.021.1.172.057.151-.042l-.03-.144a.08.08,0,0,0-.115-.047A.575.575,0,0,1,29,13.194c-.064-.053-.105-.124-.2-.121a2.455,2.455,0,0,0-.3.061,1.693,1.693,0,0,1-1.375-.28c-.077-.064-.189.047-.111.111" fill="#1a2544"/>
    <path d="M29.589,13.394a1.438,1.438,0,0,0,.4.3.883.883,0,0,0,.545.031c.1-.02.057-.172-.042-.152a.7.7,0,0,1-.449-.027,1.381,1.381,0,0,1-.34-.264c-.073-.071-.184.041-.111.111" fill="#1a2544"/>
    <path d="M30.5,13.565a1.247,1.247,0,0,0-.5.308,2.435,2.435,0,0,0-.321.492.967.967,0,0,1-1.055.488,1.432,1.432,0,0,1-.862-.869,4.253,4.253,0,0,0-.636-1.126c-.069-.074-.18.038-.111.112.568.607.626,1.814,1.567,2.034a1.124,1.124,0,0,0,1-.259,2.131,2.131,0,0,0,.358-.53,1.1,1.1,0,0,1,.595-.5c.1-.034.054-.186-.042-.152" fill="#1a2544"/>
    <path d="M28.446,13.324a.334.334,0,0,0-.118,0c-.037,0-.075.008-.113.009a1.537,1.537,0,0,1-.225-.005.078.078,0,0,0-.078.078.08.08,0,0,0,.078.079,1.559,1.559,0,0,0,.216.006c.035,0,.071,0,.106-.008l.049-.006.024,0H28.4c-.007,0-.006,0,0,0a.081.081,0,0,0,.1-.055.08.08,0,0,0-.055-.1" fill="#1a2544"/>
    <path d="M27.953,13.523a4.341,4.341,0,0,0,.383.5.842.842,0,0,0,.472.241,1.1,1.1,0,0,0,.951-.37.08.08,0,0,0,0-.111.84.84,0,0,0-.275-.228.76.76,0,0,0-.4-.019c-.1.009-.1.167,0,.157a.667.667,0,0,1,.338.006.738.738,0,0,1,.225.2v-.111a.939.939,0,0,1-.824.325c-.359-.062-.537-.393-.735-.663-.059-.081-.2,0-.136.079" fill="#1a2544"/>
    <path d="M28.68,13.436l.345.035c.092.009.1-.128.021-.154A3.4,3.4,0,0,0,28.6,13.2a.079.079,0,0,0-.076.132.9.9,0,0,0,.633.241.915.915,0,0,1,.4.1,1.979,1.979,0,0,1,.341.257c.063.055.179-.018.124-.095a1.215,1.215,0,0,0-.483-.407c-.09-.042-.17.089-.079.136l.576.293v-.135a1.937,1.937,0,0,0-.563.581l.136.079a2.777,2.777,0,0,1,.279-.5l-.136-.08a5.939,5.939,0,0,0-.381.883c-.03.087.1.134.144.061a5.692,5.692,0,0,0,.3-.545.079.079,0,0,0-.068-.118A2.732,2.732,0,0,0,29,14.2a.079.079,0,0,0,.042.152c.259-.059.627-.082.795-.314.046-.063-.045-.154-.107-.108a3.794,3.794,0,0,0-.64.594c-.055.065.015.173.1.124a2.681,2.681,0,0,1,.526-.246l-.06-.143-.466.311c-.071.048-.029.171.061.144l.218-.066-.089-.115c-.121.19-.391.2-.594.2a.945.945,0,0,1-.687-.28,1.618,1.618,0,0,1-.388-.648,1.927,1.927,0,0,0-.2-.606l-.123.1c.377.328.865.009,1.284.173l.021-.155c-.082.01-.151-.047-.23-.062a.422.422,0,0,0-.18.011c-.146.037-.272.138-.43.122a.079.079,0,0,0-.055.134c.231.191.355.48.6.656a1.517,1.517,0,0,0,.838.224c-.014-.049-.027-.1-.04-.146-.306.154-.593-.111-.828-.284a1.9,1.9,0,0,1-.573-.618l-.136.08a2.166,2.166,0,0,0,.626.677,2.088,2.088,0,0,0,.409.219c.179.073.368.116.541.207l.018-.144c-.684.2-1.219-.39-1.6-.872l-.111.111a3.91,3.91,0,0,0,1.619,1.189l.042-.151a1.79,1.79,0,0,1-.465-.205,3.1,3.1,0,0,1-.377-.329q-.375-.359-.723-.743c-.006.042-.011.083-.016.124.056-.041.666.64.738.706a1.927,1.927,0,0,0,.769.465c-.015-.038-.031-.077-.047-.115a.653.653,0,0,1-.121.156c-.093.08-.145.052-.231,0l-.365-.228c-.113-.071-.227-.14-.339-.213-.129-.083-.286-.2-.249-.375l-.116.047a1.392,1.392,0,0,1,.26.271,1.92,1.92,0,0,0,.284.264,2.053,2.053,0,0,0,.661.335.079.079,0,0,0,.061-.144l-.408-.233c-.106-.061-.279-.124-.3-.259-.016-.1-.168-.057-.152.042a.416.416,0,0,0,.237.275c.179.106.362.207.543.311.021-.048.041-.1.061-.144a1.887,1.887,0,0,1-.682-.366,5.6,5.6,0,0,0-.486-.488.079.079,0,0,0-.115.047c-.086.411.425.618.7.792l.3.189a.485.485,0,0,0,.221.1c.163.007.294-.182.368-.3a.08.08,0,0,0-.047-.116,2.146,2.146,0,0,1-.914-.635c-.131-.134-.258-.272-.4-.4-.082-.075-.2-.207-.319-.122a.081.081,0,0,0-.016.124c.255.28.52.551.8.81a2.656,2.656,0,0,0,.355.3,1.96,1.96,0,0,0,.484.208c.1.032.134-.115.042-.151a3.765,3.765,0,0,1-1.55-1.149c-.063-.08-.172.032-.111.111.415.531,1,1.131,1.749.913a.08.08,0,0,0,.019-.144c-.286-.15-.607-.206-.882-.381a1.98,1.98,0,0,1-.637-.666.079.079,0,0,0-.136.08,2.192,2.192,0,0,0,.7.723c.283.2.568.412.918.235a.08.08,0,0,0-.039-.147,1.273,1.273,0,0,1-.808-.243c-.2-.174-.315-.422-.521-.591l-.056.134a.887.887,0,0,0,.4-.105.308.308,0,0,1,.252-.005.347.347,0,0,0,.184.04.079.079,0,0,0,.021-.155,1.3,1.3,0,0,0-.636-.028.738.738,0,0,1-.579-.1c-.062-.055-.18.018-.123.1a1,1,0,0,1,.141.4,1.934,1.934,0,0,0,.135.4,1.6,1.6,0,0,0,.516.639,1.216,1.216,0,0,0,.773.173.688.688,0,0,0,.578-.27.08.08,0,0,0-.089-.115l-.218.065.06.144.466-.311c.07-.047.029-.174-.06-.144a2.776,2.776,0,0,0-.564.261c.032.041.064.082.095.124a3.568,3.568,0,0,1,.608-.57l-.107-.108a.519.519,0,0,1-.32.152c-.127.032-.254.061-.382.09l.042.152a2.544,2.544,0,0,1,.714-.11l-.068-.118a5.676,5.676,0,0,1-.3.544l.143.061a5.6,5.6,0,0,1,.366-.845.079.079,0,0,0-.136-.08,2.785,2.785,0,0,0-.279.5.079.079,0,0,0,.136.079,1.783,1.783,0,0,1,.506-.525.079.079,0,0,0,0-.135l-.576-.294c-.026.045-.053.09-.079.136a1.054,1.054,0,0,1,.426.351l.124-.1a1.452,1.452,0,0,0-.608-.373,3.107,3.107,0,0,0-.36-.033.65.65,0,0,1-.409-.189l-.077.132a3.518,3.518,0,0,1,.444.112l.021-.154-.345-.035c-.1-.011-.1.147,0,.157" fill="#1a2544"/>
    <path d="M28.08,13.521q.375-.036.752-.039a.072.072,0,0,0,0-.143q-.377,0-.752.039a.073.073,0,0,0-.071.072.071.071,0,0,0,.071.071" fill="#1a2544"/>
    <path d="M28.118,13.53a3.549,3.549,0,0,0,.743,0c-.006-.047-.013-.094-.019-.14l-.029.005a.072.072,0,0,0-.05.088.073.073,0,0,0,.088.05l.029-.006a.072.072,0,0,0-.019-.14,3.482,3.482,0,0,1-.743.005c-.038-.005-.071.037-.071.072a.073.073,0,0,0,.071.071" fill="#1a2544"/>
    <path d="M28.731,13.5a.682.682,0,0,0,.18.12.262.262,0,0,0,.242.013.073.073,0,0,0,.025-.1.074.074,0,0,0-.1-.026q-.01.006,0,0l-.011,0-.01,0h-.025q-.012,0,0,0a.059.059,0,0,1-.023-.005l-.023-.008,0,0-.022-.011c-.026-.014-.052-.029-.077-.045a.244.244,0,0,1-.033-.023c.013.012-.006,0-.008-.006l-.017-.016a.071.071,0,0,0-.1.1" fill="#1a2544"/>
    <path d="M29.046,13.532c.012-.01,0,0-.007-.007A.128.128,0,0,1,29,13.509a.341.341,0,0,1-.076-.06.072.072,0,0,0-.122.05.093.093,0,0,0,.032.072c.023-.04.046-.08.07-.119l0,0a.071.071,0,0,0-.1.1.436.436,0,0,0,.292.14c-.007-.047-.013-.094-.019-.14-.059.013-.1-.021-.14-.054a.506.506,0,0,0-.16-.078,1.055,1.055,0,0,0-.392-.012.073.073,0,0,0-.071.072.071.071,0,0,0,.071.071.862.862,0,0,1,.388.018.877.877,0,0,1,.144.092.263.263,0,0,0,.2.028.071.071,0,0,0,.051-.078.073.073,0,0,0-.07-.062.29.29,0,0,1-.191-.1c-.034.034-.068.067-.1.1a.186.186,0,0,0,.066.04c.064.026.124-.076.069-.119v0l.009.036V13.5l-.122.051c.08.082.214.168.321.083a.072.072,0,0,0,0-.1.073.073,0,0,0-.1,0" fill="#1a2544"/>
    <path d="M28.78,13.341l.015-.008-.017.007.025-.007-.019,0h.03l-.019,0a.1.1,0,0,1,.029.008l-.017-.007a.1.1,0,0,1,.023.013l-.014-.011a.091.091,0,0,1,.017.017l-.011-.015.005.008.123-.072a.156.156,0,0,0-.023-.028.16.16,0,0,0-.055-.036l-.027-.01a.075.075,0,0,0-.055.008.07.07,0,0,0-.033.042.074.074,0,0,0,.007.055.068.068,0,0,0,.043.033l.019.006-.017-.007a.109.109,0,0,1,.023.014l-.014-.011a.114.114,0,0,1,.019.019l-.011-.015v0a.061.061,0,0,0,.019.02.051.051,0,0,0,.024.013.071.071,0,0,0,.055-.007.075.075,0,0,0,.033-.043.071.071,0,0,0-.008-.055.176.176,0,0,0-.108-.078.179.179,0,0,0-.134.021.073.073,0,0,0-.033.042.071.071,0,0,0,.05.088.075.075,0,0,0,.055-.007" fill="#1a2544"/>
    <path d="M31.749,10.178a.421.421,0,0,0,0,.365.458.458,0,0,0,.264.234.561.561,0,0,0,.353,0,.446.446,0,0,0,.291-.272.136.136,0,0,0-.094-.166.139.139,0,0,0-.165.094c.012-.03,0,0,0,0l-.016.026.006-.007-.01.012c-.007.007-.015.013-.022.021.016-.016,0,0-.008,0l-.03.016c-.022.012.011,0,0,0l-.031.01-.03.008-.017,0h-.074c-.034,0,.028.006-.005,0a.566.566,0,0,1-.059-.015l-.009,0c-.014,0-.013,0,0,0a.07.07,0,0,1-.027-.014l-.021-.013c-.008-.006-.006,0,.007.006l-.011-.009-.019-.02c-.014-.015-.01,0,0,0-.012-.008-.022-.035-.029-.048s.008.024,0,0l-.009-.026a.256.256,0,0,0,0-.027c.01.025,0,.016,0,0v-.028c0-.026-.007.028,0,0l0-.022c.011-.032-.01.019,0-.005a.134.134,0,0,0-.232-.136" fill="#1a2544"/>
    <path d="M31.83,10.3a.677.677,0,0,0,.043.227.137.137,0,0,0,.112.1.141.141,0,0,0,.134-.064.305.305,0,0,0,.045-.116.586.586,0,0,1,.023-.094l-.013.032a.1.1,0,0,1,.014-.024l-.022.027.012-.013h-.19l0,0-.021-.027.009.018c0-.011-.009-.022-.014-.033a.2.2,0,0,1,.009.033c0-.012,0-.024-.005-.036.016.126.016.379.206.353a.155.155,0,0,0,.126-.115c.006-.022.009-.046.014-.069a.824.824,0,0,1,.041-.145l-.013.032q.011-.024.024-.048l-.152.062,0,0-.032-.014,0,0-.027-.022,0,0-.021-.028,0,0-.014-.032a.086.086,0,0,1,.006.023c0-.012,0-.024-.005-.036,0,.027.006.054.008.081a.232.232,0,0,0,.034.131.146.146,0,0,0,.214.014.466.466,0,0,0,.056-.076l-.021.027a.21.21,0,0,1,.038-.041l-.027.021.005,0-.032.014.006,0-.036.005h0l-.035,0h0l-.032-.013,0,0-.048-.049,0,0-.014-.032v-.067l0,0c.012-.02.023-.04.035-.059l0,0,.028-.021-.005,0,.032-.013h.061l.033.013-.006,0,.027.021-.013-.013a.132.132,0,0,0-.095-.04.137.137,0,0,0-.135.135.156.156,0,0,0,.04.1.152.152,0,0,0,.21.025.147.147,0,0,0-.016-.242.164.164,0,0,0-.2.037.661.661,0,0,0-.071.1l.021-.027-.009.008.028-.021-.005,0,.068-.018h0l.067.018,0,0,.048.049,0-.005.018.068c0-.038-.006-.076-.01-.114a.281.281,0,0,0-.018-.087.169.169,0,0,0-.1-.091.124.124,0,0,0-.087.006.14.14,0,0,0-.065.055.741.741,0,0,0-.064.161c-.012.045-.015.095-.03.139l.013-.032-.005.008.021-.027,0,0,.027-.021,0,0,.068-.019h0l.036.005,0,0,.059.035,0,0,.021.028-.006-.01.014.032a.72.72,0,0,1-.028-.132c0,.012,0,.024.005.036-.005-.037-.007-.074-.013-.11a.258.258,0,0,0-.056-.115.137.137,0,0,0-.095-.04.139.139,0,0,0-.095.04.293.293,0,0,0-.074.14.6.6,0,0,1-.024.1l.013-.032a.173.173,0,0,1-.016.03l.245.032a.687.687,0,0,1-.033-.126c0,.011,0,.023.005.035,0-.021,0-.043-.005-.065a.135.135,0,0,0-.269,0" fill="#1a2544"/>
    <path d="M31.2,9.218a.192.192,0,0,1,.106-.051c.176-.024.355-.051.53-.074a1.789,1.789,0,0,1,.7,0,.75.75,0,0,1,.519.534,1.042,1.042,0,0,0-.738-.448,1.943,1.943,0,0,0-.781.163,5.877,5.877,0,0,1-.756.272Z" fill="#1a2544"/>
    <path d="M31.223,9.243a.542.542,0,0,1,.267-.066l.265-.038a2.963,2.963,0,0,1,.557-.045.731.731,0,0,1,.709.542l.065-.028a1.031,1.031,0,0,0-.938-.461,9.114,9.114,0,0,0-1.377.432c.012.02.023.04.034.06l.418-.4c.032-.032-.017-.082-.051-.051l-.417.4a.036.036,0,0,0,.034.06c.412-.1.784-.326,1.2-.408a.975.975,0,0,1,.617.055,1,1,0,0,1,.415.349.036.036,0,0,0,.065-.027.784.784,0,0,0-.7-.587,2.509,2.509,0,0,0-.635.037l-.354.05a.432.432,0,0,0-.232.075c-.036.029.016.08.051.051" fill="#1a2544"/>
    <path d="M27.9,8.08a3.222,3.222,0,0,1,.921.448,2.8,2.8,0,0,1,.287.2.267.267,0,0,0,.325.013.2.2,0,0,0,.051-.053A4,4,0,0,0,28.5,8a.847.847,0,0,0-.233-.085Z" fill="#1a2544"/>
    <path d="M27.888,8.114a3.236,3.236,0,0,1,.913.445c.069.043.139.087.206.135a.664.664,0,0,0,.182.114.289.289,0,0,0,.323-.106.036.036,0,0,0,0-.043,3.811,3.811,0,0,0-1.069-.725.33.33,0,0,0-.2-.049.886.886,0,0,0-.109.049l-.253.115c-.042.019-.006.08.036.061l.225-.1a.737.737,0,0,1,.122-.055c.046-.01.139.041.19.065a3.912,3.912,0,0,1,1,.692c0-.015,0-.029,0-.044a.217.217,0,0,1-.232.077.643.643,0,0,1-.188-.119c-.116-.083-.239-.156-.36-.23a2.84,2.84,0,0,0-.764-.349.036.036,0,0,0-.019.069" fill="#1a2544"/>
    <path d="M29.689,5.3a7.492,7.492,0,0,0,2.547.341l.373.338a3.138,3.138,0,0,0-3.2,1.058" fill="#1a2544"/>
    <path d="M32.882,10.141c-.44,1.479-.5,2.731-1.228,3.662-.359.458-.849.818-1.194,1.286a2.579,2.579,0,0,0,3.035-1.319,4.586,4.586,0,0,0,.606-2.651c-.012-.164-.042-.323-.063-.485a.167.167,0,0,1,0-.086c.024-.065.116-.118.165-.164a3.007,3.007,0,0,0,.618-.845,2.967,2.967,0,0,0,.276-.891,3,3,0,0,0-.275-1.713,3.053,3.053,0,0,0-.2-.356.317.317,0,0,0-.062-.074.518.518,0,0,0-.248-.068c-.12-.021-.239-.045-.358-.073a5.691,5.691,0,0,1-1.362-.514c-.12-.064-.238-.132-.353-.2a2.087,2.087,0,0,0,.247,1.508c.141.241.33.453.456.7A2.132,2.132,0,0,1,33.123,9a6.335,6.335,0,0,1-.241,1.143" fill="#1a2544"/>
    <path d="M29.633,6.622A2.726,2.726,0,0,1,28.31,7.981a3.722,3.722,0,0,1-1.836.343.043.043,0,0,0-.047.046,5.85,5.85,0,0,1-1.915,4.661,2.406,2.406,0,0,1-.914.466.045.045,0,0,0-.033.059,7.292,7.292,0,0,1,.482,2.951,3.529,3.529,0,0,1-1.264,2.632.045.045,0,0,1-.037.008,5.065,5.065,0,0,1-3.978-4.6,5.088,5.088,0,0,1,2.8-5.244.045.045,0,0,0,.022-.059,2.4,2.4,0,0,1,.19-2.071,1.153,1.153,0,0,1,.667-.605.048.048,0,0,1,.037.007c.109.079.242.154.354.231a.044.044,0,0,0,.065-.014A3.15,3.15,0,0,1,24.577,5.5,7.5,7.5,0,0,1,29.689,5.3" fill="#1a2544"/>
    <path d="M23.826,14.712a1.624,1.624,0,0,0,1.342-2.457.285.285,0,1,0-.493.288,1.072,1.072,0,0,1,.148.531,1.028,1.028,0,0,1-.14.546,1.094,1.094,0,0,1-.857.521.286.286,0,1,0,0,.571" fill="#1a2544"/>
    <path d="M28.769,9.619a1.323,1.323,0,0,0-.335-.565,1.39,1.39,0,0,0-.872-.34,2,2,0,0,1-.915-.236.564.564,0,0,0,.313.42,1.351,1.351,0,0,0,.526.127,3.272,3.272,0,0,1,.541.062,1.221,1.221,0,0,1,.73.533" fill="#1a2544"/>
    <path d="M26.84,8.73a1.033,1.033,0,0,0,.326.646.618.618,0,0,1,.217-.452Z" fill="#1a2544"/>
    <path d="M28.769,9.62A.788.788,0,0,1,28.3,9.8a.593.593,0,0,1-.454-.2.445.445,0,0,1-.072-.465.274.274,0,0,1,.155-.151,1.777,1.777,0,0,1,.845.637" fill="#1a2544"/>
    <path d="M32.793,10.781a1.313,1.313,0,0,0-1.53-.511,1.1,1.1,0,0,1-.185.057.239.239,0,0,1-.19-.028c.04-.028.084-.063.125-.088a1.847,1.847,0,0,1,1.025-.277,1.316,1.316,0,0,1,.944.452Z" fill="#1a2544"/>
    <path d="M26.654,22.291a7.662,7.662,0,0,0,3.469.889,3.969,3.969,0,0,0,3.814-2.546,4.861,4.861,0,0,0-3.675-.174,10.036,10.036,0,0,0-1.69,1.136,3.016,3.016,0,0,1-1.878.69" fill="#1a2544"/>
    <path d="M25.677,22.112a7.677,7.677,0,0,1-3.574.224,3.971,3.971,0,0,1-3.27-3.216,4.862,4.862,0,0,1,3.643.517,10.048,10.048,0,0,1,1.447,1.433,3.021,3.021,0,0,0,1.716,1.03" fill="#1a2544"/>
    <path d="M24.784,3.157l-.012-.136a5.051,5.051,0,0,0-1.465.721,2.9,2.9,0,0,0-.953,1.28,1.657,1.657,0,0,0,.122,1.541L23,6.974a2.512,2.512,0,0,1-.06-2.437,3.192,3.192,0,0,1,1.841-1.38" fill="#1a2544"/>
    <path d="M24.82,3.157l-.012-.136a.035.035,0,0,0-.045-.034A3.828,3.828,0,0,0,22.625,4.42a2.487,2.487,0,0,0-.433,1.142A1.413,1.413,0,0,0,22.46,6.6a5.355,5.355,0,0,0,.518.4c.029.023.08-.006.056-.043A2.435,2.435,0,0,1,22.9,4.7a3.068,3.068,0,0,1,1.9-1.513c.043-.013.025-.082-.019-.068a3.109,3.109,0,0,0-1.958,1.584,2.513,2.513,0,0,0,.155,2.285l.056-.043a5.154,5.154,0,0,1-.521-.406,1.2,1.2,0,0,1-.242-.678,1.818,1.818,0,0,1,.105-.787,2.866,2.866,0,0,1,.883-1.25,4.675,4.675,0,0,1,1.529-.773l-.045-.034.012.136c0,.045.075.046.071,0" fill="#1a2544"/>
    <path d="M22.9,6.777a2.613,2.613,0,0,1,.762-1.688A3.344,3.344,0,0,1,25.3,4.2a9.565,9.565,0,0,1,2.1-.211,9.228,9.228,0,0,0-1.841-.021,4.185,4.185,0,0,0-2.338.971,1.77,1.77,0,0,0-.6.828A.967.967,0,0,0,22.9,6.777" fill="#1a2544"/>
    <path d="M22.931,6.777a2.743,2.743,0,0,1,1.5-2.219A6.451,6.451,0,0,1,27.4,4.022a.036.036,0,0,0,0-.071,6.525,6.525,0,0,0-2.972.236,4.2,4.2,0,0,0-1.15.658,1.79,1.79,0,0,0-.709.984.969.969,0,0,0,.313.979c.038.026.074-.036.036-.062a1,1,0,0,1-.1-1.318,3.171,3.171,0,0,1,1.231-1A6,6,0,0,1,27.4,4.022V3.951a6.335,6.335,0,0,0-3.088.6A2.8,2.8,0,0,0,22.86,6.777c0,.046.068.046.071,0" fill="#1a2544"/>
    <path d="M32.495,5.881a7.79,7.79,0,0,0,2.077.663c0-.06,0-.12,0-.18a4.848,4.848,0,0,0-.109-.848A4.962,4.962,0,0,0,34.2,4.7c-.055-.132-.115-.262-.181-.388a1.423,1.423,0,0,0-.1-.188c-.055-.076-.1-.16-.148-.24a5.054,5.054,0,0,0-.3-.43,5.138,5.138,0,0,0-.652-.7,5.207,5.207,0,0,0-.77-.569,5.1,5.1,0,0,0-.861-.416,4.711,4.711,0,0,0-3.395.143c-.328.137-1.211.464-1.5.582-.223.091-1.285.442-1.522.527l.012.136c.621-.212,2.524-.9,3.088-1.1a4.484,4.484,0,0,1,2.472-.2,4.592,4.592,0,0,1,.761.236,4.678,4.678,0,0,1,1.349.843,2.93,2.93,0,0,1,.788,1.284,6.512,6.512,0,0,0-2.757-1.328,4.507,4.507,0,0,1,1.675.8A7.921,7.921,0,0,1,33.5,5c.27.325.36.608.728.815a1.066,1.066,0,0,1-.708-.079c-.191-.068-.375-.154-.562-.234a4.793,4.793,0,0,0-2.07-.562c1.026.152,1.169.771,1.606.938" fill="#1a2544"/>
    <path d="M32.47,5.906a1.128,1.128,0,0,0,.413.223c.232.088.471.156.71.221.321.085.644.162.97.228a.036.036,0,0,0,.045-.034,5.279,5.279,0,0,0-3.189-4.723A4.539,4.539,0,0,0,28.663,1.6a7.862,7.862,0,0,0-1.165.393c-.335.131-.673.257-1.009.387-.569.221-1.151.4-1.727.607a.038.038,0,0,0-.026.034l.012.136a.037.037,0,0,0,.046.035c.944-.322,1.881-.667,2.819-1.007A5.263,5.263,0,0,1,29.649,1.8a4.475,4.475,0,0,1,2.363.826,3.2,3.2,0,0,1,.744.707,1.976,1.976,0,0,1,.451.883l.061-.026A6.634,6.634,0,0,0,30.5,2.857c-.045-.01-.064.058-.019.068A4.951,4.951,0,0,1,32.7,4.194a7.375,7.375,0,0,1,.864.946,2.311,2.311,0,0,0,.647.709c0-.022,0-.044.008-.066a1.318,1.318,0,0,1-.746-.1c-.3-.112-.582-.249-.874-.371a4.059,4.059,0,0,0-1.71-.406c-.038,0-.051.064-.01.071a1.943,1.943,0,0,1,1.053.494,1.951,1.951,0,0,0,.553.443c.042.017.061-.052.019-.069a2.558,2.558,0,0,1-.614-.506,1.982,1.982,0,0,0-.992-.431l-.009.07a4.434,4.434,0,0,1,1.894.489c.27.116.536.239.814.336a1.2,1.2,0,0,0,.641.048.036.036,0,0,0,.009-.065,2.991,2.991,0,0,1-.721-.81,8.515,8.515,0,0,0-.9-.949A4.908,4.908,0,0,0,30.5,2.857c-.007.023-.013.046-.019.068a6.552,6.552,0,0,1,2.741,1.319c.021.017.065.009.061-.025a1.755,1.755,0,0,0-.338-.75,3.211,3.211,0,0,0-.461-.559,4.479,4.479,0,0,0-4.634-.886q-.694.25-1.388.5c-.56.2-1.119.405-1.683.6l.046.034c0-.028-.008-.132-.018-.117s.09-.022.113-.03c.132-.046.265-.09.4-.135.292-.1.584-.2.874-.3.559-.2,1.116-.423,1.668-.648a4.779,4.779,0,0,1,2.887-.256A4.965,4.965,0,0,1,33.271,3.26a5.108,5.108,0,0,1,1.265,3.284l.046-.034c-.3-.062-.605-.133-.9-.212-.227-.06-.454-.124-.677-.2a1.223,1.223,0,0,1-.48-.241c-.032-.033-.083.018-.051.051" fill="#1a2544"/>
    <path d="M30.8,9.542a2.062,2.062,0,0,0-.406.535,2.623,2.623,0,0,0-.291.721.035.035,0,0,0,.067.019,4.07,4.07,0,0,1,.232-.507,1.869,1.869,0,0,1,.609-.742.036.036,0,0,0-.028-.065l-.167.03c-.046.008-.026.077.019.069l.167-.03c-.009-.022-.019-.043-.027-.065a1.658,1.658,0,0,0-.518.564,4.187,4.187,0,0,0-.3.6c-.017.043-.035.086-.05.13l.067.019a2.662,2.662,0,0,1,.285-.7,2.009,2.009,0,0,1,.395-.52c.034-.031-.016-.081-.05-.051" fill="#1a2544"/>
    <path d="M28.992,12.241a.229.229,0,0,0,.172.259.99.99,0,0,0,.435.054.4.4,0,0,0,.323-.155.56.56,0,0,0,.065-.393c-.006-.045-.077-.045-.072,0a.537.537,0,0,1-.034.322.3.3,0,0,1-.265.153,1.023,1.023,0,0,1-.353-.025c-.089-.023-.234-.076-.2-.2a.036.036,0,0,0-.069-.019" fill="#1a2544"/>
    <path d="M29.918,12.006a1.482,1.482,0,0,1,0,.258.164.164,0,0,1-.133.151.038.038,0,0,0-.036.036.037.037,0,0,0,.036.036.229.229,0,0,0,.2-.177,1.146,1.146,0,0,0,.007-.3.036.036,0,0,0-.071,0" fill="#1a2544"/>
    <path d="M29.794,12.2c0,.012,0,.025,0,.037a.036.036,0,0,0,.031.035.038.038,0,0,0,.039-.026c.017-.046.035-.092.053-.139L29.85,12.1c0,.047,0,.1,0,.142a.036.036,0,0,0,.07.01.654.654,0,0,0,.032-.224.036.036,0,0,0-.031-.035.037.037,0,0,0-.039.026.478.478,0,0,0-.02.113l0,.026v.006s0,0,0,0l0,.013a.231.231,0,0,1-.014.048.036.036,0,0,0,.012.049.036.036,0,0,0,.049-.013.346.346,0,0,0,.029-.119l0-.028V12.1c0-.005,0-.005,0,0a.27.27,0,0,1,.014-.056l-.07-.01a.57.57,0,0,1-.03.205l.07.009c0-.047,0-.1,0-.142a.036.036,0,0,0-.031-.035.034.034,0,0,0-.039.025c-.018.047-.035.093-.053.139l.07.01c0-.012,0-.025,0-.037a.036.036,0,0,0-.035-.036.036.036,0,0,0-.036.036" fill="#1a2544"/>
    <path d="M29.042,12.289a.227.227,0,0,1,.213-.023,2.074,2.074,0,0,0,.233.055.455.455,0,0,0,.388-.106.036.036,0,0,0-.051-.051.444.444,0,0,1-.434.065c-.132-.033-.283-.1-.4.009-.034.031.017.082.051.051" fill="#1a2544"/>
    <path d="M29.835,12.193a1.4,1.4,0,0,0-.13.1.036.036,0,0,0,.035.06.854.854,0,0,1,.142-.04l-.028-.066a1.161,1.161,0,0,0-.183.144c-.03.029.008.074.043.056l.178-.092-.043-.056a.435.435,0,0,1-.115.094.036.036,0,0,0,.028.065l.049-.016-.027-.066a.324.324,0,0,1-.235.044l-.009.07a1.074,1.074,0,0,0,.263-.045.036.036,0,0,0,0-.069.542.542,0,0,0-.25-.01c.006.023.012.046.019.069.057-.016.113-.034.169-.053a.036.036,0,0,0-.01-.07,1.043,1.043,0,0,0-.243.017c.006.023.013.045.019.068l.156-.045c.037-.01.031-.074-.01-.07a1.457,1.457,0,0,1-.33,0v.072l.1-.01a.036.036,0,0,0,.009-.071.342.342,0,0,0-.173-.025c-.023,0-.043,0-.066,0a.144.144,0,0,0-.072.024l.049.049.021-.037a.035.035,0,0,0-.031-.053c-.054,0-.143.02-.155.085,0,.021.009.048.034.046a.082.082,0,0,0,.07-.044l-.066-.018c0,.023-.005.046-.007.068a.036.036,0,0,0,.045.035.123.123,0,0,0,.084-.082L29.1,12.3l-.01.045a.035.035,0,0,0,.034.045.085.085,0,0,0,.086-.067.036.036,0,0,0-.065-.028.155.155,0,0,0-.029.108c0,.024.03.049.054.031a.153.153,0,0,0,.067-.1c.007-.032-.035-.065-.059-.035s-.07.139.007.153.1-.07.1-.123c0-.032-.049-.052-.067-.018a.136.136,0,0,0,0,.134.036.036,0,0,0,.049.012.129.129,0,0,0,.058-.141.037.037,0,0,0-.066-.008c-.024.047-.048.168.03.182s.1-.1.085-.158a.036.036,0,0,0-.069,0c-.015.052-.008.168.074.144a.094.094,0,0,0,.033-.15.036.036,0,0,0-.06.016c-.016.052-.03.17.048.18a.071.071,0,0,0,.068-.032.115.115,0,0,0,0-.105c-.009-.022-.041-.038-.06-.016a.087.087,0,0,0,.063.148.079.079,0,0,0,.031-.148.035.035,0,0,0-.048.013c-.035.057.027.139.091.107a.075.075,0,0,0-.019-.137c-.045-.01-.064.058-.019.069.008,0,0,.008.008,0l-.049.012c.012.007.006.018-.006.014a.015.015,0,0,1,0-.024L29.4,12.4a.114.114,0,0,1,.009.026c0,.014,0,.031.006.006a.319.319,0,0,1,.008-.075l-.06.016s.006.029.009.024l0-.018a.091.091,0,0,1,.006-.032H29.3a.1.1,0,0,1,0,.043l-.006.014c.009.02.011.023.008.011s0-.024,0-.034a.125.125,0,0,1,.014-.041l-.065-.009a.057.057,0,0,1-.025.061l.049.012a.06.06,0,0,1,0-.061l-.067-.018a.049.049,0,0,1,0,.024.051.051,0,0,1-.012.023c.007.038.023-.019.029-.026l-.06-.035a.083.083,0,0,1-.034.057l.054.03a.1.1,0,0,1,.018-.072l-.065-.028c0,.012-.006.017-.017.016l.035.045c0-.015.006-.03.01-.045A.036.036,0,0,0,29.1,12.3a.048.048,0,0,1-.034.032l.045.034c0-.022,0-.045.007-.068s-.05-.047-.066-.018l-.009.008.035.045c0-.025.068-.031.086-.033l-.03-.054-.021.037a.036.036,0,0,0,.049.048.082.082,0,0,1,.063-.01.3.3,0,0,0,.06,0,.3.3,0,0,1,.132.024c0-.023.007-.046.01-.07l-.1.01a.036.036,0,0,0,0,.072,1.517,1.517,0,0,0,.33,0l-.009-.071-.156.046a.035.035,0,0,0,.019.068,1.05,1.05,0,0,1,.224-.014l-.009-.07c-.056.02-.112.037-.169.053s-.026.077.019.069a.448.448,0,0,1,.212.01v-.069a1.016,1.016,0,0,1-.244.043c-.039,0-.052.062-.01.07a.4.4,0,0,0,.29-.051c.033-.02.012-.078-.028-.065l-.049.016.027.066a.472.472,0,0,0,.129-.106.036.036,0,0,0-.043-.056l-.178.092.043.056a1.025,1.025,0,0,1,.169-.132.036.036,0,0,0-.027-.065,1.011,1.011,0,0,0-.143.04c.012.02.024.039.035.059a1.414,1.414,0,0,1,.116-.088c.038-.026,0-.088-.036-.062" fill="#1a2544"/>
    <path d="M29.469,12.354l-.005,0-.011-.007a.017.017,0,0,0-.014,0,.018.018,0,0,0-.014,0l-.011.007-.006.007a.041.041,0,0,0-.005.018l0,.01a.029.029,0,0,0,.009.016l0,0,.012.007.014,0,.013,0,.012-.007.006-.008a.034.034,0,0,0,0-.018V12.37a.042.042,0,0,0-.009-.016" fill="#1a2544"/>
    <path d="M29.014,12.225a.107.107,0,0,0-.031.1l.069-.019a.031.031,0,0,1,0-.015.035.035,0,0,0-.061-.036.1.1,0,0,0,0,.113.54.54,0,0,0,.087.079l.035-.06a.117.117,0,0,1-.057-.051.06.06,0,0,1,0-.069.036.036,0,0,0-.01-.046.035.035,0,0,0-.046,0,.126.126,0,0,0-.023.121.2.2,0,0,0,.079.1.458.458,0,0,0,.244.085.036.036,0,1,0,0-.071.4.4,0,0,1-.189-.062.181.181,0,0,1-.061-.059.069.069,0,0,1-.008-.035.05.05,0,0,1,.008-.027l-.056-.043a.13.13,0,0,0,0,.137.191.191,0,0,0,.1.088c.034.014.059-.036.035-.06s-.05-.036-.071-.058a.052.052,0,0,1-.014-.025l0-.011.006-.011-.061-.036a.09.09,0,0,0,0,.07.036.036,0,0,0,.069-.019.034.034,0,0,1,.013-.029c.033-.032-.018-.083-.051-.051" fill="#1a2544"/>
    <path d="M29.057,12.266l0-.006s0,0,0,0,.008-.006,0,0l.006,0h0l.007,0a.124.124,0,0,1,.047,0,.818.818,0,0,1,.121.028.036.036,0,1,0,.019-.069.828.828,0,0,0-.148-.031A.127.127,0,0,0,29,12.23a.036.036,0,1,0,.062.036" fill="#1a2544"/>
    <path d="M29.846,12.24a.168.168,0,0,0,.03-.052c.007-.018.013-.035.02-.052l.042-.106a.035.035,0,0,0-.024-.044.037.037,0,0,0-.045.025l-.039.1c-.006.017-.013.033-.019.049l0,.011,0,.006h0l0,.009,0,.005h0a.036.036,0,0,0,0,.051.035.035,0,0,0,.05,0" fill="#1a2544"/>
    <path d="M29.935,12.046a.1.1,0,0,1,.007-.025l0,.009a.089.089,0,0,1,.014-.025l-.006.008L29.96,12l-.007.006,0,0-.008,0h0l-.009,0h0l-.01,0h0l-.009,0h0l-.007,0h0l-.006-.007,0,0,0-.009v0a.035.035,0,0,0,.01.025.033.033,0,0,0,.025.01.035.035,0,0,0,.026-.01l.005-.007a.041.041,0,0,0,0-.018.054.054,0,0,0-.006-.031.045.045,0,0,0-.038-.021.059.059,0,0,0-.045.03.142.142,0,0,0-.028.061.033.033,0,0,0,0,.014l.005.013a.035.035,0,0,0,.049.013.031.031,0,0,0,.016-.021" fill="#1a2544"/>
    <path d="M29.917,11.988V12l0,.014.008.012.011.007.014,0h.009a.035.035,0,0,0,.016-.009l.006-.008a.035.035,0,0,0,0-.018v-.016a.017.017,0,0,0,0-.014.019.019,0,0,0-.007-.011.025.025,0,0,0-.012-.008l-.013,0-.01,0a.029.029,0,0,0-.016.009l0,.007a.041.041,0,0,0,0,.018" fill="#1a2544"/>
    <path d="M29.917,11.992V12a.018.018,0,0,0,0,.014l.007.011.007.006a.033.033,0,0,0,.014,0h.009a.028.028,0,0,0,.013,0l.008-.006a.042.042,0,0,0,.009-.016l0-.019,0-.02v0l0-.01v0h0l-.006-.007,0,0,0,0h0l-.008,0H29.94a.022.022,0,0,0-.013,0l-.01.009-.006.012v.01a.039.039,0,0,0,0,.018L29.92,12a.051.051,0,0,0,.016.009h0l-.009,0h0L29.923,12v0l-.006-.008,0,0,0-.008,0,.006v0l.07.01v-.01a.017.017,0,0,0,0-.014.019.019,0,0,0-.007-.011.028.028,0,0,0-.011-.008l-.014,0-.01,0a.029.029,0,0,0-.016.009l0,.007a.041.041,0,0,0,0,.018" fill="#1a2544"/>
    <path d="M29.784,12.507a.23.23,0,0,0,.143-.1.035.035,0,0,0-.013-.049.036.036,0,0,0-.048.013l-.006.008,0,0,0,0-.012.014-.014.012,0,0c.008-.006,0,0,0,0l-.007.005-.016.009-.007,0,0,0s-.006,0,0,0,0,0,0,0h0l-.009,0-.018.005a.036.036,0,0,0-.025.044.037.037,0,0,0,.044.025" fill="#1a2544"/>
    <path d="M29.825,12.258c.014-.018.029-.037.042-.057s.021-.041.031-.063a.035.035,0,0,0,0-.028.034.034,0,0,0-.021-.016.034.034,0,0,0-.026,0l-.009.006a.083.083,0,0,0-.009.016v0l0-.009a.484.484,0,0,1-.05.089l.005-.008-.013.015a.036.036,0,0,0,0,.05.038.038,0,0,0,.052,0" fill="#1a2544"/>
    <path d="M29.8,12.388a.154.154,0,0,0,0-.308.154.154,0,0,0,0,.308" fill="#1a2544"/>
    <path d="M29.818,12.261l.021-.02a.025.025,0,0,0,.008-.012l0-.013,0-.014-.008-.012-.007,0a.027.027,0,0,0-.018-.005h-.009a.042.042,0,0,0-.016.009l-.021.02-.008.012,0,.014,0,.013a.025.025,0,0,0,.008.012l.007.006a.034.034,0,0,0,.018,0H29.8a.032.032,0,0,0,.016-.009" fill="#1a2544"/>
    <path d="M13.543,7.264a1.348,1.348,0,0,0,1.173,1.862,1.346,1.346,0,0,0-1.173-1.862" fill="#1a2544"/>
    <path d="M13.061,9.139a1.347,1.347,0,0,0,1.254,1.807,1.345,1.345,0,0,0-1.254-1.807" fill="#1a2544"/>
    <path d="M12.71,11.333a1.348,1.348,0,0,0,1.658,1.446,1.345,1.345,0,0,0-1.658-1.446" fill="#1a2544"/>
    <path d="M12.709,13.5a1.348,1.348,0,0,0,1.81,1.251,1.346,1.346,0,0,0-1.81-1.251" fill="#1a2544"/>
    <path d="M13.018,15.733a1.349,1.349,0,0,0,2.024.865,1.346,1.346,0,0,0-2.024-.865" fill="#1a2544"/>
    <path d="M16.868,8.226a1.349,1.349,0,0,1-1.981.959,1.346,1.346,0,0,1,1.981-.959" fill="#1a2544"/>
    <path d="M16.407,9.871A1.348,1.348,0,0,1,14.5,10.96a1.346,1.346,0,0,1,1.912-1.089" fill="#1a2544"/>
    <path d="M16.046,11.365a1.349,1.349,0,0,1-1.658,1.448,1.347,1.347,0,0,1,1.658-1.448" fill="#1a2544"/>
    <path d="M16.131,13.064a1.348,1.348,0,0,1-1.455,1.651,1.346,1.346,0,0,1,1.455-1.651" fill="#1a2544"/>
    <path d="M16.307,14.593a1.348,1.348,0,0,1-1.071,1.922,1.346,1.346,0,0,1,1.071-1.922" fill="#1a2544"/>
    <path d="M15.575,18.056a12.8,12.8,0,0,1-.181-11.132l.323.15A12.44,12.44,0,0,0,15.893,17.9Z" fill="#1a2544"/>
    <path d="M15.7,6.329a1.555,1.555,0,0,1-.729,2.2,1.5,1.5,0,0,1,.729-2.2" fill="#1a2544"/>
    <path d="M41.174,10.121c.051,1.8-1.532,1.58-1.532,1.58a1.346,1.346,0,0,1,1.532-1.58" fill="#1a2544"/>
    <path d="M41.26,12.055c-.031,1.8-1.6,1.509-1.6,1.509a1.346,1.346,0,0,1,1.6-1.509" fill="#1a2544"/>
    <path d="M41.149,14.275a1.348,1.348,0,0,1-1.921,1.073,1.346,1.346,0,0,1,1.921-1.073" fill="#1a2544"/>
    <path d="M40.7,16.393a1.348,1.348,0,0,1-2.03.85,1.346,1.346,0,0,1,2.03-.85" fill="#1a2544"/>
    <path d="M39.938,18.516a1.349,1.349,0,0,1-2.159.428,1.346,1.346,0,0,1,2.159-.428" fill="#1a2544"/>
    <path d="M37.723,10.375a1.348,1.348,0,0,0,1.74,1.347,1.346,1.346,0,0,0-1.74-1.347" fill="#1a2544"/>
    <path d="M37.834,12.08a1.349,1.349,0,0,0,1.646,1.461,1.346,1.346,0,0,0-1.646-1.461" fill="#1a2544"/>
    <path d="M37.879,13.617A1.348,1.348,0,0,0,39.2,15.376a1.346,1.346,0,0,0-1.322-1.759" fill="#1a2544"/>
    <path d="M37.444,15.261a1.348,1.348,0,0,0,1.083,1.916,1.346,1.346,0,0,0-1.083-1.916" fill="#1a2544"/>
    <path d="M36.956,16.72a1.348,1.348,0,0,0,.651,2.1,1.346,1.346,0,0,0-.651-2.1" fill="#1a2544"/>
    <path d="M36.957,20.261A12.8,12.8,0,0,0,39.434,9.407l-.347.08a12.433,12.433,0,0,1-2.408,10.551Z" fill="#1a2544"/>
    <path d="M39.258,8.76a1.555,1.555,0,0,0,.259,2.3,1.5,1.5,0,0,0-.259-2.3" fill="#1a2544"/>
  </g>
</svg>
