<svg xmlns="http://www.w3.org/2000/svg" width="32.437mm" height="16.269mm" viewBox="0 0 91.947 46.116">
  <g>
    <path d="M74.766,14.217c-.359-.045-.674.391-.716.561a6,6,0,0,1-.415,1.341,13.361,13.361,0,0,1-.774,1.389,12.267,12.267,0,0,0-1.076-2.481,7.97,7.97,0,0,0-1.364-2.1,12.157,12.157,0,0,0-1.657-1.73,11.767,11.767,0,0,0-1.953-1.368,9.214,9.214,0,0,0-2.261-1,10.3,10.3,0,0,0-2.574-.641,17.149,17.149,0,0,0-3.395-.224,15.292,15.292,0,0,0-3.032.429,23.4,23.4,0,0,0-2.658.935c-.822.379-1.58.909-2.271,1.294-.691.621-1.315.968-1.872,1.505a13.317,13.317,0,0,0-1.461,1.57c-.417.646-.763,1.127-1.038,1.486-.181.306-.079.563.227.883.308.263.7-.026.882-.228.293-.368.676-1.077,1.146-1.594a16.036,16.036,0,0,1,1.672-1.666,7.961,7.961,0,0,1,2.178-1.524,18.744,18.744,0,0,0,2.67-1.171,11.709,11.709,0,0,1,3.142-.6,15.306,15.306,0,0,1,3.6.178,10.764,10.764,0,0,1,2.727.709,13.11,13.11,0,0,1,2.318,1.153,9.178,9.178,0,0,1,1.926,1.61,11.15,11.15,0,0,1,1.561,2.081c.462.749.866,1.866,1.217,2.565a2.587,2.587,0,0,0-.59-.226,2.613,2.613,0,0,0-1.345-.528,6.867,6.867,0,0,1-1.525-.715.631.631,0,0,0-.855.248l-.013.026a.686.686,0,0,0,.273.868,16.986,16.986,0,0,1,1.623.76,5.973,5.973,0,0,0,1.387.545,3.628,3.628,0,0,1,1.025.4c.328.081,1.466.891,1.466.7,0,.038.325-.512.325-.462a9.9,9.9,0,0,1,.917-1.4c.283-.43.536-1.3.732-1.429a8.525,8.525,0,0,0,.394-1.438c.044-.517-.207-.885-.559-.714" fill="#a2c052"/>
    <path d="M72.409,28.984a.64.64,0,0,0-.847.321l0,.006a4.328,4.328,0,0,1-.956,1.715,5.925,5.925,0,0,1-1.473,1.845,14.962,14.962,0,0,1-1.991,1.764A17.971,17.971,0,0,1,64.621,36.1c-.928.309-1.945.617-3.052.961a11.968,11.968,0,0,1-3.591.238,25.358,25.358,0,0,1-2.8-.391,8.5,8.5,0,0,1-2.441-.877,10.674,10.674,0,0,1-2.108-1.376,11.465,11.465,0,0,1-1.794-1.89c-.548-.913-1.048-1.522-1.5-2.419.212.138.424.068.641.165a4.2,4.2,0,0,0,1.4.37,11.472,11.472,0,0,1,1.6.535c.331.108.7.178.833-.37.128-.375-.038-.563-.37-.833a14.029,14.029,0,0,0-1.7-.57,4.669,4.669,0,0,0-1.441-.381,6.215,6.215,0,0,1-1.066-.279c-.341-.157-.672-.182-1.011-.332,0,.111-.527-.347-.527-.2s-.269.47-.269.5c-.264.606-.523,1.046-.75,1.49a8.968,8.968,0,0,0-.564,1.505,5.972,5.972,0,0,0-.227,1.473.691.691,0,0,0,.641.647c0-.027,0-.064,0,0,.353.111.641-.286.641-.64a4.413,4.413,0,0,1,.252-1.37c.154-.329.368-1.038.608-1.466.412.694.863,1.564,1.355,2.34a8.059,8.059,0,0,0,1.6,1.932,7.952,7.952,0,0,0,1.847,1.528,4.746,4.746,0,0,0,2.1,1.128,11.432,11.432,0,0,0,2.362.73,8.417,8.417,0,0,0,2.63.338c.321.011.547.014.9.024a14.482,14.482,0,0,0,3.176-.312c.991-.347,1.915-.5,2.773-.846A23.842,23.842,0,0,0,67.133,36.2a13.806,13.806,0,0,0,1.98-1.518c.595-.506,1.125-1.2,1.591-1.656a20,20,0,0,0,1.205-1.661c.337-.7.611-1.044.823-1.538.148-.152,0-.6-.323-.844" fill="#a2c052"/>
    <path d="M19.193,20.706h1.548a.3.3,0,0,1,.314.3v.3a.306.306,0,0,1-.3.307h-1.5v4c0,.623.74.782.74,1.153v.053c0,.159-.124.252-.316.252H16.661c-.192,0-.315-.093-.315-.252v-.053c0-.372.549-.531.549-1.153v-4H16a.306.306,0,0,1-.314-.3v-.3a.3.3,0,0,1,.3-.3h.9v-.663a2.521,2.521,0,0,1,2.834-2.666,2,2,0,0,1,2.191,1.684.828.828,0,0,1-.857.8l-.033,0c-1.617,0-.822-1.842-1.807-1.842-1.013,0-.4,2.055-.028,2.691" fill="#215475"/>
    <path d="M25.381,25.573l-.054-.61c-.1-.8-.452-1.1-.85-1.1s-.7.357-.7.9c0,.941.327,1.763.889,1.763.452,0,.712-.5.712-.954m3.15,1.14c0,.345-.795.437-1.548.437-.822,0-1.217-.158-1.328-.636a2.052,2.052,0,0,1-1.739.689c-1.465,0-2.588-.649-2.588-2.015,0-1.34,1.164-2.029,2.465-2.029a2.749,2.749,0,0,1,1.381.332v-.04c-.164-1.565-.26-2.242-.972-2.242-.945,0-.56,1.778-1.78,1.778a.862.862,0,0,1-.955-.759.9.9,0,0,1-.006-.1c0-1.089,1.345-1.552,2.738-1.552a3.085,3.085,0,0,1,3.331,2.679l.3,2.374c.125.942.7.717.7,1.087" fill="#215475"/>
    <path d="M34.158,24.883c0-1.432-.4-3.66-1.4-3.66-.494,0-.823.424-.823,1.168v2.571c0,.809.577,1.592,1.178,1.592.7,0,1.041-.584,1.041-1.671m2.41-1.114a3.267,3.267,0,0,1-3.095,3.43c-.046,0-.091,0-.137,0a2.329,2.329,0,0,1-1.656-.583v.119c0,.253-.11.345-.356.345l-2.067-.013c-.193,0-.316-.093-.316-.252v-.053c0-.372.548-.531.548-1.153V19.578c0-.623-.671-.729-.671-1.1v-.054c0-.159.068-.239.37-.371l2.108-.941c.342-.16.641-.08.641.3v3.554a2.3,2.3,0,0,1,1.4-.4,3.116,3.116,0,0,1,3.233,2.993c0,.068,0,.135,0,.2" fill="#215475"/>
    <path d="M43.207,21.886c0,.663-.261,1.247-1.054,1.247-1.246,0-.685-1.247-1.37-1.247-.438,0-.506.69-.506,1.273v2.465c0,.609.726.768.726,1.14v.052c0,.159-.137.253-.329.253H37.729c-.192,0-.329-.094-.329-.253v-.052c0-.372.548-.531.548-1.14V22.985c0-.624-.657-.677-.657-1.062v-.04c0-.158.109-.277.315-.384l1.93-.874c.357-.16.493.025.493.291v.967a1.859,1.859,0,0,1,1.89-1.312,1.231,1.231,0,0,1,1.289,1.172,1.137,1.137,0,0,1,0,.143" fill="#215475"/>
    <path d="M43.946,18.6a1.59,1.59,0,1,1,1.832,1.3,1.7,1.7,0,0,1-.256.022,1.409,1.409,0,0,1-1.567-1.232c0-.031-.007-.063-.009-.095m-.218,8.222v-.053c0-.384.548-.543.548-1.153v-2.52c0-.611-.548-.8-.548-1.114v-.053c0-.146.122-.212.314-.3l2.068-.981c.384-.186.617.027.617.279v4.693c0,.611.616.769.616,1.153v.053c0,.159-.137.252-.343.252H44.053c-.2,0-.325-.092-.325-.251" fill="#215475"/>
    <path d="M47.985,23.876a3.285,3.285,0,0,1,3.479-3.3c1.6-.013,2.916.783,2.916,1.963,0,.4-.261.8-1,.768-1.4-.08-1.274-2.1-2.287-2.082-.576.013-.961.677-.961,1.485,0,1.724.877,2.864,2.232,2.864a1.847,1.847,0,0,0,1.52-.768c.178-.212.52-.146.52.145C54.364,26.1,53.42,27.2,51.543,27.2a3.4,3.4,0,0,1-3.555-3.235l0-.092" fill="#215475"/>
    <path d="M59.213,25.575l-.055-.61c-.1-.8-.449-1.1-.849-1.1s-.7.357-.7.9c0,.941.329,1.763.891,1.763.451,0,.712-.5.712-.956Zm-2.958-7.111.449-.9a.485.485,0,0,1,.626-.282.479.479,0,0,1,.182.122L59.867,19.2a.411.411,0,0,1,.083.543.5.5,0,0,1-.562.173l-2.819-.731a.456.456,0,0,1-.314-.715Zm6.107,8.249c0,.345-.794.437-1.548.437-.821,0-1.217-.158-1.328-.636a2.048,2.048,0,0,1-1.739.689c-1.464,0-2.588-.649-2.588-2.015,0-1.34,1.165-2.029,2.466-2.029a2.766,2.766,0,0,1,1.383.331v-.039c-.165-1.565-.261-2.242-.972-2.242-.945,0-.562,1.777-1.781,1.777a.863.863,0,0,1-.955-.762.67.67,0,0,1,0-.1c0-1.089,1.342-1.552,2.739-1.552a3.079,3.079,0,0,1,3.326,2.679l.3,2.374c.126.943.7.718.7,1.088" fill="#a2c052"/>
    <path d="M67.99,24.883c0-1.432-.4-3.66-1.4-3.66-.492,0-.821.424-.821,1.168v2.571c0,.809.577,1.592,1.178,1.592.7,0,1.041-.584,1.041-1.671M70.4,23.769A3.267,3.267,0,0,1,67.3,27.2c-.046,0-.091,0-.137,0a2.329,2.329,0,0,1-1.656-.583v.119c0,.253-.11.345-.356.345l-2.067-.013c-.193,0-.316-.093-.316-.252v-.053c0-.372.548-.531.548-1.153V19.578c0-.623-.671-.729-.671-1.1v-.054c0-.159.068-.239.37-.371l2.109-.941c.342-.16.64-.08.64.3v3.554a2.311,2.311,0,0,1,1.4-.4A3.116,3.116,0,0,1,70.4,23.565c0,.068,0,.136,0,.2" fill="#215475"/>
    <path d="M77.039,21.886c0,.663-.26,1.247-1.055,1.247-1.246,0-.684-1.247-1.368-1.247-.438,0-.507.69-.507,1.273v2.465c0,.609.725.768.725,1.14v.052c0,.159-.137.253-.328.253H71.56c-.193,0-.33-.094-.33-.253v-.052c0-.372.549-.531.549-1.14V22.985c0-.624-.658-.677-.658-1.062v-.04c0-.158.109-.277.316-.384l1.93-.874c.356-.16.492.025.492.291v.967a1.858,1.858,0,0,1,1.891-1.312,1.232,1.232,0,0,1,1.29,1.172,1.137,1.137,0,0,1,0,.143" fill="#215475"/>
    <path d="M82.337,24.923c0-1.034-.56-3.7-1.642-3.7-.658,0-.891.584-.891,1.658s.548,3.672,1.657,3.672c.643,0,.875-.636.875-1.631Zm-4.956-1.047a3.75,3.75,0,0,1,7.449.029,3.432,3.432,0,0,1-3.656,3.3,3.531,3.531,0,0,1-3.793-3.33" fill="#215475"/>
    <path d="M85.527,23.876a3.285,3.285,0,0,1,3.478-3.3c1.6-.013,2.917.783,2.917,1.963,0,.4-.261.8-1,.768-1.4-.08-1.274-2.1-2.287-2.082-.576.013-.961.677-.961,1.485,0,1.724.877,2.864,2.232,2.864a1.846,1.846,0,0,0,1.52-.768.283.283,0,0,1,.521.145C91.905,26.1,90.96,27.2,89.085,27.2a3.4,3.4,0,0,1-3.555-3.235l0-.092" fill="#215475"/>
    <path d="M0,26.819v-.053c0-.372.548-.531.548-1.14V19.1c0-.611-.548-.769-.548-1.141v-.053c0-.16.137-.251.328-.251H3.339c.192,0,.329.091.329.251v.053c0,.371-.617.53-.617,1.141v6.179c0,.438.2.862.671.862H5.146c1.153,0,1.369-1.883,2.012-1.883h.193a.256.256,0,0,1,.283.225.259.259,0,0,1-.01.107l-.353,2.057c-.054.292-.177.424-.479.424H.329c-.191,0-.329-.095-.329-.254" fill="#a2c052"/>
    <path d="M12.3,25.573l-.053-.61c-.1-.8-.453-1.1-.849-1.1-.412,0-.7.357-.7.9,0,.941.329,1.763.89,1.763.449,0,.711-.5.711-.954m3.147,1.14c0,.345-.794.437-1.547.437-.821,0-1.217-.158-1.328-.636a2.049,2.049,0,0,1-1.739.689c-1.466,0-2.588-.649-2.588-2.015,0-1.34,1.164-2.029,2.464-2.029a2.745,2.745,0,0,1,1.383.331v-.039c-.164-1.565-.259-2.242-.972-2.242-.945,0-.561,1.777-1.779,1.777a.864.864,0,0,1-.955-.763.822.822,0,0,1-.006-.1c0-1.089,1.345-1.552,2.739-1.552a3.079,3.079,0,0,1,3.327,2.679l.3,2.374c.125.943.7.718.7,1.088" fill="#a2c052"/>
  </g>
</svg>
