<svg xmlns="http://www.w3.org/2000/svg" width="37.585mm" height="16.269mm" viewBox="0 0 106.54 46.116">
  <path d="M61.73,24.115l1.106-2.283.146,2.283Zm2.85-4.063H61.885l-3.668,6.872h2.156l.528-1.106h2.187l.066,1.106h2.2Z"/>
  <g>
    <path d="M70.458,22.521a.878.878,0,0,1-.516.14h-.914l.223-1.039h.856a.59.59,0,0,1,.423.125.457.457,0,0,1,.126.338.5.5,0,0,1-.2.436m-.386,2.666a1.034,1.034,0,0,1-.621.168h-1L68.72,24.1h.924a.725.725,0,0,1,.506.145.529.529,0,0,1,.158.413.609.609,0,0,1-.236.533m2.306-.4a1.482,1.482,0,0,0-.235-.871,1.7,1.7,0,0,0-.6-.526,1.93,1.93,0,0,0,.839-.638,1.789,1.789,0,0,0,.193-1.675,1.391,1.391,0,0,0-.4-.534,1.966,1.966,0,0,0-.711-.363,3.894,3.894,0,0,0-1.074-.13h-2.8l-1.455,6.873h3.148a4.944,4.944,0,0,0,1.336-.161,3.032,3.032,0,0,0,.969-.435,1.842,1.842,0,0,0,.794-1.54"/>
    <path d="M73.973,26.481A2.972,2.972,0,0,0,76,27.1a4.038,4.038,0,0,0,1.3-.193,2.786,2.786,0,0,0,.964-.548,2.828,2.828,0,0,0,.648-.856,4.707,4.707,0,0,0,.386-1.117l.914-4.331H78.031l-.848,4a1.928,1.928,0,0,1-.376.911.834.834,0,0,1-.643.253.705.705,0,0,1-.544-.185.763.763,0,0,1-.17-.526,1.97,1.97,0,0,1,.06-.453l.846-4H74.161l-.779,3.7a4.961,4.961,0,0,0-.082.5c-.016.16-.023.315-.023.463a2.243,2.243,0,0,0,.7,1.77"/>
  </g>
  <polygon points="82.443 25.047 83.5 20.052 81.316 20.052 79.862 26.925 84.771 26.925 85.29 25.047 82.443 25.047"/>
  <g>
    <path d="M90.447,23.677a2.81,2.81,0,0,1-.226.726,1.739,1.739,0,0,1-.448.586,1.072,1.072,0,0,1-.716.24.913.913,0,0,1-.5-.12.838.838,0,0,1-.29-.308,1.294,1.294,0,0,1-.138-.408,2.414,2.414,0,0,1-.04-.433,4.358,4.358,0,0,1,.063-.659,2.777,2.777,0,0,1,.223-.726,1.652,1.652,0,0,1,.44-.588,1.075,1.075,0,0,1,.719-.24.916.916,0,0,1,.5.125.88.88,0,0,1,.3.313,1.184,1.184,0,0,1,.141.408,3.177,3.177,0,0,1,.032.423,4.122,4.122,0,0,1-.062.661m1.314,2.188a3.971,3.971,0,0,0,.764-1.309,4.55,4.55,0,0,0,.265-1.548,3.626,3.626,0,0,0-.235-1.357,2.729,2.729,0,0,0-.656-.983,2.7,2.7,0,0,0-.987-.591,3.709,3.709,0,0,0-1.239-.2,3.774,3.774,0,0,0-1.612.338,3.538,3.538,0,0,0-1.222.909,4.027,4.027,0,0,0-.756,1.309,4.607,4.607,0,0,0-.261,1.545,3.613,3.613,0,0,0,.236,1.357,2.686,2.686,0,0,0,.651.976,2.658,2.658,0,0,0,.986.586,4.017,4.017,0,0,0,2.847-.135,3.66,3.66,0,0,0,1.219-.9"/>
    <path d="M99.415,24.383l.914-4.331H98.146l-.846,4a1.928,1.928,0,0,1-.376.911.845.845,0,0,1-.646.253.7.7,0,0,1-.543-.185.757.757,0,0,1-.168-.526,1.905,1.905,0,0,1,.058-.453l.846-4H94.278l-.782,3.7a4.653,4.653,0,0,0-.1.964,2.235,2.235,0,0,0,.7,1.77,2.962,2.962,0,0,0,2.025.616A4.051,4.051,0,0,0,97.42,26.9a2.79,2.79,0,0,0,.961-.548,2.848,2.848,0,0,0,.649-.856,4.752,4.752,0,0,0,.385-1.117"/>
    <path d="M105.616,23.3a2.339,2.339,0,0,0-.621-.38,5.05,5.05,0,0,0-.793-.261l-.742-.183a1.143,1.143,0,0,1-.485-.2.357.357,0,0,1-.12-.273.386.386,0,0,1,.177-.343.921.921,0,0,1,.516-.121.865.865,0,0,1,.616.188.917.917,0,0,1,.25.5l2.126-.22a2.191,2.191,0,0,0-.318-1.054,2.035,2.035,0,0,0-.684-.651,2.761,2.761,0,0,0-.893-.331,4.971,4.971,0,0,0-.944-.092,4.239,4.239,0,0,0-1.217.165,2.852,2.852,0,0,0-.949.465,2.1,2.1,0,0,0-.611.742,2.246,2.246,0,0,0-.215,1,1.637,1.637,0,0,0,.476,1.237,3.517,3.517,0,0,0,1.544.736l.694.183a1.3,1.3,0,0,1,.45.182.355.355,0,0,1,.146.308.437.437,0,0,1-.231.4,1.252,1.252,0,0,1-.636.136,1.106,1.106,0,0,1-.668-.178.789.789,0,0,1-.265-.611h-2.156a2.466,2.466,0,0,0,.24,1.139,2.062,2.062,0,0,0,.656.761,2.709,2.709,0,0,0,.952.423,4.765,4.765,0,0,0,1.136.131,4.471,4.471,0,0,0,1.3-.178,3,3,0,0,0,.981-.5,2.219,2.219,0,0,0,.621-.779,2.339,2.339,0,0,0,.215-1.006,1.894,1.894,0,0,0-.145-.779,1.542,1.542,0,0,0-.4-.553"/>
  </g>
  <polygon points="65.148 17.516 63.593 17.516 64.169 14.79 62.977 14.79 62.184 18.54 64.863 18.54 65.148 17.516"/>
  <polygon points="68.44 17.621 66.732 17.621 66.843 17.105 68.355 17.105 68.55 16.186 67.038 16.186 67.136 15.708 68.755 15.708 68.948 14.789 66.159 14.789 65.366 18.54 68.187 18.54 68.44 17.621"/>
  <polygon points="59.697 19.884 55.308 19.884 55.889 17.971 60.538 17.971 61.422 15.04 53.138 15.04 49.625 26.729 53.26 26.729 54.427 22.816 58.217 22.816 59.697 19.884"/>
  <polygon points="99.917 28.428 99.709 28.779 100.161 28.779 100.476 28.428 99.917 28.428"/>
  <g>
    <g>
      <path d="M65.14,29.665a.4.4,0,0,1-.111.219.28.28,0,0,1-.21.093h-.411l.1-.591h.412a.2.2,0,0,1,.181.082.257.257,0,0,1,.035.2m-.057-.834H63.952l-.47,2.663h.658l.169-.957h.473a1.03,1.03,0,0,0,.672-.241,1,1,0,0,0,.359-.613.728.728,0,0,0-.134-.6.707.707,0,0,0-.6-.252" fill="#ef7a17"/>
      <path d="M67.682,29.893a.262.262,0,0,1-.2.093h-.532l.106-.6h.514a.2.2,0,0,1,.172.086.258.258,0,0,1,.043.207.409.409,0,0,1-.108.214m-.055-1.062H66.5l-.47,2.663h.663l.175-.994.516.994h.829l-.556-.99a.956.956,0,0,0,.786-.826.668.668,0,0,0-.156-.612.86.86,0,0,0-.656-.235" fill="#ef7a17"/>
      <path d="M71.054,30.163a.979.979,0,0,1-.317.572.881.881,0,0,1-.608.23.62.62,0,0,1-.529-.228.709.709,0,0,1-.113-.574.985.985,0,0,1,.315-.575.882.882,0,0,1,.61-.228.619.619,0,0,1,.527.23.706.706,0,0,1,.115.573m-.533-1.421a1.734,1.734,0,0,0-1.7,1.421,1.146,1.146,0,0,0,1.2,1.42,1.743,1.743,0,0,0,1.707-1.42,1.149,1.149,0,0,0-1.206-1.421" fill="#ef7a17"/>
      <path d="M73.278,30.567a.536.536,0,0,1-.147.321.415.415,0,0,1-.278.091.245.245,0,0,1-.206-.077.376.376,0,0,1-.058-.233l-.644.021a.7.7,0,0,0,.165.651.9.9,0,0,0,.67.242,1.178,1.178,0,0,0,.734-.247,1.007,1.007,0,0,0,.4-.654l.327-1.851h-.654Z" fill="#ef7a17"/>
    </g>
    <polygon points="74.312 31.494 76.151 31.494 76.25 30.935 75.073 30.935 75.157 30.456 76.198 30.456 76.298 29.888 75.258 29.888 75.342 29.407 76.469 29.407 76.571 28.831 74.782 28.831 74.312 31.494" fill="#ef7a17"/>
    <polygon points="76.926 28.831 76.825 29.407 77.427 29.407 77.059 31.494 77.726 31.494 78.094 29.407 78.708 29.407 78.81 28.831 76.926 28.831" fill="#ef7a17"/>
    <polygon points="80.642 30.456 80.742 29.888 79.701 29.888 79.786 29.407 80.913 29.407 81.014 28.831 79.225 28.831 78.756 31.494 80.595 31.494 80.694 30.935 79.517 30.935 79.601 30.456 80.642 30.456" fill="#ef7a17"/>
    <polygon points="81.422 29.431 82.502 29.431 80.915 31.431 80.904 31.494 83.136 31.494 83.242 30.889 82.008 30.889 83.638 28.893 83.649 28.831 81.528 28.831 81.422 29.431" fill="#ef7a17"/>
    <polygon points="86.902 28.831 86.132 30.114 85.813 28.831 85.122 28.831 85.831 31.583 85.913 31.583 87.593 28.831 86.902 28.831" fill="#ef7a17"/>
    <g>
      <path d="M89.817,30.163a.979.979,0,0,1-.317.572.881.881,0,0,1-.608.23.624.624,0,0,1-.53-.228.712.712,0,0,1-.112-.574.985.985,0,0,1,.315-.575.882.882,0,0,1,.61-.228.617.617,0,0,1,.527.23.706.706,0,0,1,.115.573m-.533-1.421a1.734,1.734,0,0,0-1.705,1.421,1.146,1.146,0,0,0,1.2,1.42,1.743,1.743,0,0,0,1.707-1.42,1.149,1.149,0,0,0-1.206-1.421" fill="#ef7a17"/>
      <path d="M92.217,28.742a1.088,1.088,0,0,0-.694.253.994.994,0,0,0-.378.61.639.639,0,0,0,.082.511,1.044,1.044,0,0,0,.482.312l.087.033.094.032c.02.007.047.018.082.034a.337.337,0,0,1,.078.044.5.5,0,0,1,.052.051.132.132,0,0,1,.034.065.189.189,0,0,1,0,.075.262.262,0,0,1-.1.166.328.328,0,0,1-.209.065.224.224,0,0,1-.184-.082.234.234,0,0,1-.047-.2H90.95a.734.734,0,0,0,.137.621.773.773,0,0,0,.633.248,1.073,1.073,0,0,0,.692-.253.986.986,0,0,0,.376-.607.679.679,0,0,0-.563-.826l-.092-.027-.094-.029-.082-.029a.264.264,0,0,1-.075-.035.338.338,0,0,1-.05-.045.127.127,0,0,1-.032-.062.216.216,0,0,1,0-.076.275.275,0,0,1,.117-.19.362.362,0,0,1,.212-.066.226.226,0,0,1,.194.078.248.248,0,0,1,.037.2h.622a.845.845,0,0,0-.148-.632.742.742,0,0,0-.618-.239" fill="#ef7a17"/>
    </g>
    <polygon points="94.47 31.494 95.132 31.494 95.602 28.831 94.939 28.831 94.47 31.494" fill="#ef7a17"/>
    <path d="M97.572,30.16a.879.879,0,0,1-.871.741h-.264l.258-1.478h.265a.6.6,0,0,1,.5.209.637.637,0,0,1,.108.528m-.5-1.329h-.934l-.465,2.663h.934a1.6,1.6,0,0,0,1.082-.392,1.572,1.572,0,0,0,.553-.942,1.075,1.075,0,0,0-.239-.948,1.179,1.179,0,0,0-.931-.381" fill="#ef7a17"/>
    <polygon points="98.595 31.494 100.435 31.494 100.533 30.935 99.356 30.935 99.44 30.456 100.481 30.456 100.581 29.888 99.54 29.888 99.625 29.407 100.752 29.407 100.853 28.831 99.064 28.831 98.595 31.494" fill="#ef7a17"/>
    <polygon points="100.864 31.494 102.704 31.494 102.802 30.935 101.625 30.935 101.71 30.456 102.75 30.456 102.85 29.888 101.81 29.888 101.894 29.407 103.021 29.407 103.123 28.831 101.334 28.831 100.864 31.494" fill="#ef7a17"/>
    <path d="M104.525,28.742a1.088,1.088,0,0,0-.694.253.994.994,0,0,0-.378.61.639.639,0,0,0,.082.511,1.04,1.04,0,0,0,.481.312l.088.033.093.032c.02.007.048.018.083.034a.308.308,0,0,1,.077.044.5.5,0,0,1,.053.051.132.132,0,0,1,.034.065.189.189,0,0,1,0,.075.262.262,0,0,1-.1.166.329.329,0,0,1-.21.065.222.222,0,0,1-.183-.082.234.234,0,0,1-.047-.2h-.644a.731.731,0,0,0,.137.621.773.773,0,0,0,.633.248,1.073,1.073,0,0,0,.692-.253.986.986,0,0,0,.376-.607.679.679,0,0,0-.563-.826l-.092-.027-.094-.029-.082-.029a.264.264,0,0,1-.075-.035.338.338,0,0,1-.05-.045.127.127,0,0,1-.032-.062.216.216,0,0,1,0-.076.275.275,0,0,1,.117-.19.362.362,0,0,1,.211-.066.228.228,0,0,1,.2.078.252.252,0,0,1,.037.2h.622a.845.845,0,0,0-.148-.632.742.742,0,0,0-.618-.239" fill="#ef7a17"/>
  </g>
  <polygon points="33.622 7.669 27.648 4.219 27.02 5.301 32.378 8.392 33.622 7.669"/>
  <polygon points="23.167 3.591 23.793 4.675 23.794 4.675 23.944 4.933 25.789 4.933 25.937 4.675 26.565 3.594 26.713 3.336 25.789 1.736 23.944 1.736 23.02 3.336 23.167 3.591"/>
  <polygon points="8.651 22.19 8.651 15.908 7.399 15.908 7.399 22.919 8.651 22.19"/>
  <rect x="9.573" y="7.57" width="13.744" height="1.25" transform="translate(-1.894 9.323) rotate(-30.008)"/>
  <polygon points="41.081 29.653 42.333 29.653 42.333 20.117 41.081 20.933 41.081 29.653"/>
  <rect x="26.413" y="36.739" width="13.746" height="1.252" transform="translate(-14.224 21.653) rotate(-30.005)"/>
  <polygon points="15.579 37.587 22.083 41.342 22.709 40.258 16.753 36.818 15.579 37.587"/>
  <polygon points="8.947 14.657 9.871 13.057 9.723 12.799 9.097 11.718 8.947 11.46 7.102 11.46 6.178 13.057 7.102 14.657 8.947 14.657"/>
  <polygon points="42.333 30.905 42.333 30.905 41.08 30.905 40.783 30.905 39.862 32.502 40.009 32.76 40.635 33.844 40.783 34.102 42.63 34.102 43.552 32.502 42.63 30.905 42.333 30.905"/>
  <polygon points="23.944 40.627 23.794 40.884 23.794 40.885 23.793 40.884 23.167 41.969 23.02 42.226 23.944 43.824 25.789 43.824 26.712 42.226 26.562 41.969 25.937 40.884 25.789 40.627 23.944 40.627"/>
  <path d="M6.588,37.967l.438-1.121a.643.643,0,0,0,0-.478.7.7,0,0,0-.052-.106.558.558,0,0,0-.073-.095h0A.69.69,0,0,0,6.185,36l-5.12,1.675,3.669-3.943a.685.685,0,0,0,.152-.724.654.654,0,0,0-.053-.1.638.638,0,0,0-.513-.293l-1.2-.073,2.456-1.179h0l1.052-.506a.761.761,0,0,0,.427-.566.609.609,0,0,0-.19-.555l-.552-.516L7.4,29.137l1.253-.092,1.307-.1.423.661-1.732.658-.946.358a.353.353,0,0,0-.236.336.294.294,0,0,0,.211.273l.958.3c.005,0,.01,0,.013.007h0v.068h0s0,.01-.01.015l-1.162,1.18-.726.736L6.4,33.9a.311.311,0,0,0,.331.516l.417-.15h0l1.654-.6.934-.336a.1.1,0,0,1,.042-.006.052.052,0,0,1,.027.011c.013.008.015.02.013.038l-.105.818-.023.178a.291.291,0,0,0,.161.306.343.343,0,0,0,.1.031.369.369,0,0,0,.3-.1l.062-.063.928-.908L12.3,32.6l.423.661-.516.928L11.6,35.289l-.653,1.176-.236-.718a.622.622,0,0,0-.428-.408.718.718,0,0,0-.177-.028.779.779,0,0,0-.513.183L8.356,36.51ZM9.648,33.1l-1.14.411-1.487.533-.38.138c-.073.025-.11-.038-.058-.093l.3-.3h0L7.65,33l1-1.017.172-.175a.333.333,0,0,0,.092-.313.259.259,0,0,0-.037-.085.3.3,0,0,0-.162-.125l-.065-.02-.9-.283a.034.034,0,0,1-.029-.033.083.083,0,0,1,.036-.067.089.089,0,0,1,.03-.018l.858-.325,1.871-.711h0l1.633,2.551-1.147,1.124-.929.909-.01.01a.113.113,0,0,1-.058.032.074.074,0,0,1-.049-.005.035.035,0,0,1-.02-.035l0-.007.01-.068.118-.929a.3.3,0,0,0-.108-.27.315.315,0,0,0-.151-.065.353.353,0,0,0-.169.017m3.859.053a.679.679,0,0,0-.015-.07.623.623,0,0,0-.073-.16l-2.847-4.457c-.015-.022-.033-.045-.049-.065a.835.835,0,0,0-.059-.06.689.689,0,0,0-.5-.168h0l-1.309.1L7.4,28.359l-1.246.092a.791.791,0,0,0-.679.516.63.63,0,0,0,.161.681l.581.543L5.2,30.677,2.466,32a.732.732,0,0,0-.427.789.611.611,0,0,0,.031.1.51.51,0,0,0,.1.177.657.657,0,0,0,.465.226l1.37.082L.2,37.469a.672.672,0,0,0-.1.826.669.669,0,0,0,.791.256l5.318-1.738-.5,1.279a.62.62,0,0,0,.208.754.73.73,0,0,0,.892-.055l1.926-1.585,1.289-1.061.248.753a.627.627,0,0,0,.551.431.782.782,0,0,0,.751-.4l.7-1.254.605-1.095.551-.988a.672.672,0,0,0,.082-.421.085.085,0,0,0,0-.025" fill="#2989a0"/>
  <path d="M44.7,10.173c-.007-.028-.015-.055-.025-.083a.453.453,0,0,0-.03-.08,1.159,1.159,0,0,0-.078-.148.728.728,0,0,0-.042-.06c-.015-.02-.03-.037-.045-.055a.454.454,0,0,0-.048-.052.378.378,0,0,0-.05-.048l-.005-.005a.693.693,0,0,0-.093-.075c-.022-.017-.047-.032-.072-.05-.043-.028-.088-.053-.135-.078l-.02-.01a1.26,1.26,0,0,0-.153-.067c-.038-.015-.078-.028-.12-.043s-.085-.027-.13-.04-.091-.025-.138-.035c-.068-.015-.135-.03-.208-.042a.1.1,0,0,0-.03-.005c-.073-.013-.148-.025-.228-.033-.055-.008-.112-.015-.173-.02-.035-.005-.07-.008-.1-.01-.073-.008-.147-.013-.224-.018h0c-.077,0-.155-.008-.237-.012L42.05,9.1h0a17.43,17.43,0,0,0-2.866.223l-.173.028,1.452,2.27,1.87,2.927.371.579h0l.1-.146c.178-.27.345-.538.5-.8.11-.181.21-.356.307-.526.061-.105.116-.208.171-.311q.165-.307.3-.593c.045-.1.088-.188.128-.278s.065-.152.095-.228c.063-.147.118-.29.163-.423a.076.076,0,0,0,.012-.03c.018-.042.03-.085.043-.125a.1.1,0,0,0,.012-.04c.018-.053.035-.105.05-.155s.028-.1.043-.148.025-.1.035-.143.02-.092.03-.137a.414.414,0,0,0,.015-.08c0-.025.008-.051.013-.078a.247.247,0,0,0,0-.038,1.409,1.409,0,0,0,.017-.177c0-.038.005-.073.005-.108a1.37,1.37,0,0,0-.012-.205,1.042,1.042,0,0,0-.033-.183" fill="#706f6f"/>
  <path d="M34.6,17.811a1.33,1.33,0,1,0-1.838-.406,1.331,1.331,0,0,0,1.838.406"/>
  <g>
    <polygon points="25.012 17.696 24.154 16.354 24.029 17.368 25.012 17.696" fill="none"/>
    <polygon points="36.679 17.401 36.639 16.507 36.569 14.975 35.485 14.411 35.207 14.269 34.413 13.858 33.93 13.608 33.742 13.51 32.015 14.614 31.787 14.762 31.061 15.225 31.136 16.87 31.151 17.185 31.179 17.819 31.204 18.362 31.244 18.425 31.244 18.424 31.244 18.425 31.725 18.675 32.29 18.968 32.568 19.111 34.033 19.872 34.759 19.409 34.756 19.406 34.984 19.261 34.984 19.263 36.714 18.157 36.704 17.944 36.679 17.401" fill="none"/>
  </g>
  <path d="M41.714,15.718l-.145-.228-.488-.763v0l-.481-.748-.145-.231-.7-1.094h0l-.439-.688-.147-.228-.876-1.372L38.2,10.22l-.145-.228-.273-.428-.313.065c-.105.02-.215.045-.326.071-.03.005-.06.012-.09.02l-.163.037a.68.68,0,0,0-.075.018c-.192.045-.393.092-.6.145-.263.065-.536.138-.819.215-.09.025-.183.053-.276.078-.252.072-.515.15-.783.233-.526.162-1.074.345-1.648.55-.31.116-.631.236-.956.361q-.442.172-.9.368c-.155.065-.313.133-.471.2l-.476.213c-.3.137-.6.277-.906.428-.1.047-.205.1-.308.15-.41.208-.826.423-1.244.653-.168.093-.336.186-.5.283s-.336.193-.506.293-.338.2-.508.306-.338.21-.509.317-.34.218-.51.331c-.341.225-.684.461-1.024.7l.288.749.858,1.342L22.967,19h0l-1.818,1.162h0l-.227.145h0l-.909.581,1.114,1.743.906-.581h0l1.506-.963.435.679h0l.7,1.1L21.85,24.677l-.5.317h0l-.744.476,1.114,1.742.511-.328h0l4.323-2.764h0l.949-.606L28.648,25.3,27.7,25.9h0l-.231.147h0l-.984.628.318.5h0l.423.664,2.268-.957a36.889,36.889,0,0,0,11.585-9.551v0a1.129,1.129,0,0,0,.087-.106c.308-.388.581-.748.821-1.076Zm-6.73,3.545v0l-.228.145,0,0-.726.463-1.465-.761-.278-.143-.565-.293-.481-.25-.04-.063h0l-.025-.543-.028-.634-.015-.315-.075-1.645.726-.463.228-.148,1.727-1.1.188.1.483.25.794.411.278.142,1.084.564.07,1.532.04.894.025.543.01.213Z" fill="#ef7a17"/>
  <path d="M28.169,27.45l-1.056,1.537-.105-.163-.358-.56.245-.283h0l0,0h0l.329-.137-.423-.664-.926.386-.033-.053L25.1,26.343l1.815-1.161.555.868L27.7,25.9l-.555-.869.946-.606.556.869-1.139-1.783.438.686L27,24.806l-.438-.685-4.323,2.764.44.685-1.818,1.162-.969-1.515,1.3-.833.531.828L20.611,25.47l.438.686-1.3.833L18.6,25.207l1.818-1.162.7,1.1-.511.328.744-.476-.7-1.1,1.815-1.161.7,1.1-1.32.845,2.827-1.809-1.277.817-.7-1.1,1.274-.816h0l-.435-.679.288.451-1.277.816-.288-.45,1.277-.817-1.506.963.29.449-1.818,1.162-.969-1.512.909-.583.681,1.064-1.114-1.743.288.451-.909.581-.551-.859v0l1.612-1.479h0l.466.728.227-.145-.49-.768v0l1.612-1.477.7,1.085L25.012,17.7,23.2,18.858l-.721-1.124v0l.731-.668c.135-.106.268-.208.4-.308s.27-.2.405-.3c.046-.032.093-.067.138-.1h0l-.288-.749q-.534.38-1.067.792L16.886,17.4h0l-1.975.336a2.643,2.643,0,0,0-1.965,1.512,2.159,2.159,0,0,0-.166.541,1.968,1.968,0,0,0,.276,1.419L14.708,23.8l.365.571-2.376.794a1.458,1.458,0,0,0-.919.886,1.186,1.186,0,0,0,.1,1.039l3.33,5.208a1.178,1.178,0,0,0,.9.53,1.458,1.458,0,0,0,1.189-.46l1.718-1.823.363.568h0L21.042,33.7a1.915,1.915,0,0,0,.157.213,2.064,2.064,0,0,0,1.575.711,2.481,2.481,0,0,0,.814-.123,2.448,2.448,0,0,0,.438-.185,2.677,2.677,0,0,0,.946-.841l2.519-3.671,0,0,2-2.922-2.268.957Zm-1.867.779.007.01L25.03,29.708l-.478-.751Zm-2.646,1.1,0,0h0l.634-.265.549.856-1.432,1.647-.826-1.294Zm-1.219.71-.1-.159h0l.54-.225Zm3.186-2.375v0l-1.344.561-.268.113-.408.168-.551-.859,1.818-1.164Zm.709-3.4.438.683-1.818,1.162-.438-.683Zm-3.863,2.469,1.817-1.162.438.686-1.817,1.162Zm.353,1.064.526.818-.884.371-1.137.473h0l-.321-.5Zm-3.307-.666-1.245.8-1.139-1.783,1.244-.793ZM17.764,21l-.7.644h0l-.165-.261Zm-1.014.151L16,19.972l2.095-.611.539.844-.236.217h0l0,0,0,0Zm.511,2.461.969,1.514-1.244.8h0l-.966-1.514Zm-1.389.568-.038-.058-.12-.188,1.1-1.013.3.463Zm.966,2.957.135.21-1.208.773-.794-1.241,1.324-.591Zm.281.441.678,1.061-1.091.953-.8-1.244Zm3.157-3.761-1.818,1.164-.969-1.515L19.307,22.3Zm-1.115-1.743-1.817,1.162-.321-.5,1.613-1.479Zm-.328-2.055-.465-.734,1.86-.543Zm2.89-2.649-1.039.956h0l-.325.1-.473-.739Zm-2.133.361.493.771-1.87.545-.624-.976Zm-2.294.39.644,1-2.1.611L15.053,18.5Zm-3.645,1.447a1.717,1.717,0,0,1,.293-.453,1.887,1.887,0,0,1,.831-.546l.03.045.766,1.2-2.023.588A1.364,1.364,0,0,1,13.651,19.566Zm.055,1.229a.869.869,0,0,1-.072-.135l1.534-.445.556-.163.774,1.209-1.946.856Zm1,1.555,1.942-.858.216.335v0l-1.57,1.439Zm.8,2.7.643,1.006v0l-1.324.59L14.1,25.517Zm-2.967,1.627a.415.415,0,0,1-.028-.363.684.684,0,0,1,.434-.408l.891-.3.738,1.154-1.542.689Zm.643,1h0l1.539-.688.814,1.274-1.405.9Zm1.1,1.715,1.407-.9.816,1.277L15.226,30.88Zm2.463,2.446a.693.693,0,0,1-.553.22.419.419,0,0,1-.318-.178l-.491-.768h0L16.646,30l.735,1.149Zm.837-.889-.721-1.129,1.091-.951.641,1Zm1.809-1.277-.966-1.512v0l1.244-.794.967,1.515Zm.183.291,0,0h0l0,0-.033-.052,1.244-.8.3.461-1.387.578Zm.546.846,1.968-.819.15.233-1.6,1.405ZM21.7,33.286l-.911-1.424h0l1.6-1.4.846,1.324L21.8,33.421A.963.963,0,0,1,21.7,33.286Zm1.092.566A1.383,1.383,0,0,1,22,33.6h0l.13-.148.06-.07.234-.267h0v0l0-.005.949-1.089.212.333.574.9A1.861,1.861,0,0,1,22.787,33.852Zm1.557-.827-.523-.82-.255-.4L25,30.159l.575.9.058.09Zm1.455-2.12-.616-.959,1.279-1.469.483.756Z" fill="#2989a0"/>
</svg>
