<svg xmlns="http://www.w3.org/2000/svg" width="21.9mm" height="16.269mm" viewBox="0 0 62.078 46.116">
  <polygon points="36.267 28.526 36.267 15.998 33.393 15.998 33.393 25.682 29.635 25.682 22.142 15.998 18.521 15.998 28.217 28.526 36.267 28.526"/>
  <rect y="10.294" width="2.873" height="21.986"/>
  <polygon points="4.789 19.629 4.789 32.28 7.663 32.28 7.663 22.473 11.466 22.473 19.056 32.28 22.676 32.28 12.885 19.629 4.789 19.629"/>
  <polygon points="4.789 10.293 4.789 17.732 13.831 17.732 25.853 33.265 41.056 33.265 41.056 15.998 38.183 15.998 38.183 30.421 27.27 30.421 15.249 14.889 7.662 14.889 7.662 10.293 4.789 10.293"/>
  <polygon points="43.186 20.584 43.186 16.001 44.071 16.001 44.071 17.883 45.916 17.883 45.916 16.001 46.801 16.001 46.801 20.584 45.916 20.584 45.916 18.623 44.071 18.623 44.071 20.584 43.186 20.584"/>
  <g>
    <path d="M47.861,19.4V17.149h.852v2.188a.8.8,0,0,0,.119.472.487.487,0,0,0,.426.17.681.681,0,0,0,.545-.233.914.914,0,0,0,.2-.61V17.149h.851v3.435H50v-.5a1.124,1.124,0,0,1-.405.433,1.183,1.183,0,0,1-.619.149,1.031,1.031,0,0,1-.838-.334,1.411,1.411,0,0,1-.279-.932"/>
    <path d="M52.612,19.35a.63.63,0,0,0,.194.475.721.721,0,0,0,.523.186.7.7,0,0,0,.6-.243,1.031,1.031,0,0,0,.187-.646V18.61a1.028,1.028,0,0,0-.187-.647.706.706,0,0,0-.6-.242.729.729,0,0,0-.525.184.628.628,0,0,0-.192.474Zm-.884-.484a2.886,2.886,0,0,1,.083-.7,1.7,1.7,0,0,1,.253-.573,1.21,1.21,0,0,1,1.031-.525,1.141,1.141,0,0,1,1.017.546v-.464h.851v3.383a1.327,1.327,0,0,1-.13.606,1.23,1.23,0,0,1-.347.424,1.554,1.554,0,0,1-.5.252,2.06,2.06,0,0,1-.589.083,2.8,2.8,0,0,1-.572-.056,1.432,1.432,0,0,1-.47-.183,1.065,1.065,0,0,1-.333-.335,1.289,1.289,0,0,1-.17-.5H52.7a.506.506,0,0,0,.185.313.721.721,0,0,0,.445.112,1.429,1.429,0,0,0,.293-.031.619.619,0,0,0,.252-.115.6.6,0,0,0,.173-.232.956.956,0,0,0,.065-.379V20.12a1.22,1.22,0,0,1-.408.4,1.155,1.155,0,0,1-.595.145,1.242,1.242,0,0,1-.6-.142,1.256,1.256,0,0,1-.432-.385,1.749,1.749,0,0,1-.259-.571,2.767,2.767,0,0,1-.086-.7"/>
    <path d="M56.715,19.363a.58.58,0,0,0,.211.479.825.825,0,0,0,.532.169.844.844,0,0,0,.532-.164.577.577,0,0,0,.211-.484v-1a.572.572,0,0,0-.211-.481.844.844,0,0,0-.532-.164.835.835,0,0,0-.532.167.576.576,0,0,0-.211.478Zm-.884-.5a2.354,2.354,0,0,1,.109-.735,1.657,1.657,0,0,1,.318-.57,1.38,1.38,0,0,1,.51-.367,1.758,1.758,0,0,1,.69-.128,1.777,1.777,0,0,1,.693.128,1.4,1.4,0,0,1,.51.367,1.639,1.639,0,0,1,.317.57,2.552,2.552,0,0,1,0,1.469,1.653,1.653,0,0,1-.317.569,1.378,1.378,0,0,1-.51.369,1.777,1.777,0,0,1-.693.128,1.758,1.758,0,0,1-.69-.128,1.362,1.362,0,0,1-.51-.369,1.671,1.671,0,0,1-.318-.569,2.347,2.347,0,0,1-.109-.734"/>
  </g>
  <polygon points="43.169 23.003 44.12 23.003 45.109 26.583 45.136 26.583 46.105 23.003 47.079 23.003 45.608 27.586 44.626 27.586 43.169 23.003"/>
  <path d="M48.512,26.366a.58.58,0,0,0,.211.479.827.827,0,0,0,.532.169.844.844,0,0,0,.532-.164A.577.577,0,0,0,50,26.366v-1a.572.572,0,0,0-.211-.481.938.938,0,0,0-1.064,0,.577.577,0,0,0-.211.478Zm-.884-.5a2.354,2.354,0,0,1,.109-.735,1.674,1.674,0,0,1,.318-.57,1.38,1.38,0,0,1,.51-.367,1.758,1.758,0,0,1,.69-.128,1.777,1.777,0,0,1,.693.128,1.388,1.388,0,0,1,.51.367,1.639,1.639,0,0,1,.317.57,2.552,2.552,0,0,1,0,1.469,1.653,1.653,0,0,1-.317.569,1.37,1.37,0,0,1-.51.369,1.777,1.777,0,0,1-.693.128,1.758,1.758,0,0,1-.69-.128,1.362,1.362,0,0,1-.51-.369,1.688,1.688,0,0,1-.318-.569,2.347,2.347,0,0,1-.109-.734"/>
  <path d="M51.754,27.586h.852V24.152h-.852Zm-.012-3.833h.878V23h-.878Z"/>
  <path d="M53.427,26.493h.851a.545.545,0,0,0,.629.52.9.9,0,0,0,.419-.09.3.3,0,0,0,.173-.288.29.29,0,0,0-.144-.271,1.234,1.234,0,0,0-.375-.133l-.6-.129a.991.991,0,0,1-.779-1.4.961.961,0,0,1,.264-.333,1.29,1.29,0,0,1,.422-.222,1.844,1.844,0,0,1,.569-.081,1.574,1.574,0,0,1,.97.283,1.063,1.063,0,0,1,.406.856h-.85a.49.49,0,0,0-.157-.364.553.553,0,0,0-.369-.12.608.608,0,0,0-.358.1.362.362,0,0,0-.036.536.629.629,0,0,0,.267.122l.689.147a1.76,1.76,0,0,1,.365.113,1,1,0,0,1,.3.191.88.88,0,0,1,.2.281.941.941,0,0,1,.072.385.913.913,0,0,1-.1.417.989.989,0,0,1-.279.339,1.4,1.4,0,0,1-.452.23,2.03,2.03,0,0,1-.615.086,1.667,1.667,0,0,1-1.074-.3,1.122,1.122,0,0,1-.406-.87"/>
  <path d="M57.164,27.586h.851V24.152h-.851Zm-.013-3.833h.878V23h-.878Z"/>
  <path d="M59.062,27.586V24.151h.851v.5a1.142,1.142,0,0,1,.407-.428,1.184,1.184,0,0,1,.62-.151,1.045,1.045,0,0,1,.861.337,1.427,1.427,0,0,1,.277.929v2.251h-.851V25.394a.751.751,0,0,0-.131-.47.515.515,0,0,0-.435-.168.683.683,0,0,0-.55.232.909.909,0,0,0-.2.611v1.987Z"/>
</svg>
