<svg xmlns="http://www.w3.org/2000/svg" width="35.153mm" height="16.269mm" viewBox="0 0 99.648 46.116">
  <path d="M4.064,20.4a1.336,1.336,0,0,1-.737.219,1.377,1.377,0,0,1-1.365-1.4,1.415,1.415,0,0,1,.2-.727,1.352,1.352,0,0,1,1.165-.668A1.378,1.378,0,0,1,4.7,19.223,1.394,1.394,0,0,1,4.064,20.4m6.318,1.21L6.64,17.869V16.4a.424.424,0,0,0-.423-.425H3.359c-.1,0-.2.005-.3.014a3.25,3.25,0,0,0-.38.055,3.355,3.355,0,0,0-1.7,5.662,3.423,3.423,0,0,0,.77.574,3.4,3.4,0,0,0-.77.575,3.36,3.36,0,0,0,0,4.747,3.362,3.362,0,0,0,4.748,0l4.652-4.653a.946.946,0,0,0,0-1.339" fill="#9982ec"/>
  <path d="M9.423,32.8a1.406,1.406,0,0,1-.728-.2,1.355,1.355,0,0,1-.668-1.165,1.377,1.377,0,0,1,1.4-1.366,1.4,1.4,0,0,1,1.176.629,1.334,1.334,0,0,1,.22.737,1.378,1.378,0,0,1-1.4,1.365M17.8,29.029l-4.652-4.652a.948.948,0,0,0-1.34,0L8.068,28.118H6.6a.424.424,0,0,0-.425.424V31.4a2.938,2.938,0,0,0,.014.3,3.8,3.8,0,0,0,.055.381,3.354,3.354,0,0,0,6.236.927A3.356,3.356,0,1,0,17.8,29.029" fill="#415e85"/>
  <path d="M22.794,26.064a1.353,1.353,0,0,1-1.165.667,1.377,1.377,0,0,1-1.366-1.4,1.4,1.4,0,0,1,.629-1.177,1.334,1.334,0,0,1,.737-.219,1.378,1.378,0,0,1,1.365,1.4,1.412,1.412,0,0,1-.2.728m.41-3.784a3.441,3.441,0,0,0,.771-.575,3.357,3.357,0,0,0-4.748-4.748L14.575,21.61a.946.946,0,0,0,0,1.339l3.741,3.742V28.16a.424.424,0,0,0,.424.425H21.6c.1,0,.2-.006.3-.015a3.094,3.094,0,0,0,.381-.055A3.353,3.353,0,0,0,23.2,22.28" fill="#e67364"/>
  <path d="M15.535,14.5a1.4,1.4,0,0,1-1.177-.629,1.334,1.334,0,0,1-.219-.737,1.378,1.378,0,0,1,1.4-1.365,1.405,1.405,0,0,1,.727.2,1.352,1.352,0,0,1,.668,1.165A1.377,1.377,0,0,1,15.535,14.5m3.234-1.632a3.3,3.3,0,0,0-.055-.381,3.355,3.355,0,0,0-5.98-1.328c-.042.058-.083.116-.121.176s-.092.146-.134.222v0a3.354,3.354,0,0,0-5.322-.771,3.362,3.362,0,0,0,0,4.748l4.653,4.652a.948.948,0,0,0,1.339,0l3.741-3.741h1.469a.424.424,0,0,0,.425-.424V13.16c0-.1-.005-.2-.014-.3" fill="#70d0c7"/>
  <path d="M32.819,27.9h2.466V17.892H32.819Zm2.689-12.777a1.456,1.456,0,0,1-2.911,0,1.456,1.456,0,0,1,2.911,0" fill="#415e85"/>
  <path d="M45.858,26.625A5.129,5.129,0,0,1,42.017,28.2a4.946,4.946,0,0,1-5.3-5.277,4.945,4.945,0,0,1,5.3-5.276,4.733,4.733,0,0,1,3.6,1.476l-1.556,1.637a3.031,3.031,0,0,0-2-.788,2.8,2.8,0,0,0-2.871,2.951,2.716,2.716,0,0,0,2.831,2.912,3,3,0,0,0,2.183-.829Z" fill="#415e85"/>
  <path d="M54,21.753c-.162-1.293-1.173-1.941-2.588-1.941a2.686,2.686,0,0,0-2.79,1.941ZM48.586,23.8c.162,1.233,1.233,2.123,2.972,2.123a4.112,4.112,0,0,0,2.668-.93L55.8,26.545a6.125,6.125,0,0,1-4.286,1.617c-3.437,0-5.478-2.123-5.478-5.317a4.987,4.987,0,0,1,5.3-5.216c3.336,0,5.418,2.062,5.034,6.166Z" fill="#415e85"/>
  <path d="M60.351,22.906a2.861,2.861,0,1,0,5.721,0A2.749,2.749,0,0,0,63.242,20a2.844,2.844,0,0,0-2.891,2.911m-.162-9.138v5.519a4.126,4.126,0,0,1,3.275-1.6c2.911,0,5.074,1.779,5.074,5.216A4.891,4.891,0,0,1,63.4,28.122a3.626,3.626,0,0,1-3.214-1.6L60.027,27.9h-2.3V13.768Z" fill="#415e85"/>
  <path d="M77.352,21.753c-.162-1.293-1.173-1.941-2.588-1.941a2.686,2.686,0,0,0-2.79,1.941ZM71.934,23.8c.162,1.233,1.233,2.123,2.972,2.123a4.112,4.112,0,0,0,2.668-.93l1.577,1.557a6.125,6.125,0,0,1-4.286,1.617c-3.437,0-5.478-2.123-5.478-5.317a4.987,4.987,0,0,1,5.3-5.216c3.336,0,5.418,2.062,5.034,6.166Z" fill="#415e85"/>
  <path d="M83.354,17.932l.182,1.152a2.938,2.938,0,0,1,2.81-1.415,3.778,3.778,0,0,1,2.567.95L87.8,20.762a2.469,2.469,0,0,0-1.78-.646,2.3,2.3,0,0,0-2.486,2.526V27.9H81.07V17.932Z" fill="#415e85"/>
  <path d="M91.257,22.663a2.763,2.763,0,0,0,2.992,2.749,2.724,2.724,0,0,0,2.933-2.749,2.752,2.752,0,0,0-2.933-2.77,2.711,2.711,0,0,0-2.992,2.77m6.673-5.8,1.818,1.374L98.5,19.691a4.307,4.307,0,0,1,1.153,2.972,3.822,3.822,0,0,1-2.466,3.74,3.28,3.28,0,0,1,2.466,3.234c0,2.831-2.77,4.206-5.438,4.206-3.457,0-5.479-1.739-5.377-4.59h2.446c-.082,1.395,1.374,2.184,2.931,2.2,1.375,0,2.87-.586,2.87-1.82,0-1.192-.969-1.961-2.831-1.961-3.294,0-5.457-1.9-5.457-5.013,0-3.356,2.668-5.054,5.457-5.054a4.99,4.99,0,0,1,2.568.626Z" fill="#415e85"/>
</svg>
