<svg xmlns="http://www.w3.org/2000/svg" width="41.936mm" height="16.269mm" viewBox="0 0 118.874 46.116">
  <g>
    <path d="M51.915,25.009l2.209-3.339,2.247,3.339Zm3.177-5.574H53.243l-6.12,9.012h2.521l1.079-1.639h6.852l1.1,1.639h2.569Z"/>
    <g>
      <path d="M72.493,23.78v2.843H68.732c-2.2,0-4.035.012-4.035-2.682s1.839-2.681,4.035-2.681h5.76V19.435H68.4c-2.431,0-3.972.348-4.914,1.291a4.382,4.382,0,0,0-1.166,3.215,4.383,4.383,0,0,0,1.166,3.215c.942.944,2.483,1.291,4.914,1.291h6.355V23.78Z"/>
      <path d="M87.4,19.435v5.151a1.779,1.779,0,0,1-.459,1.4c-.508.485-1.477.658-3.226.658h-.461c-1.749,0-2.718-.173-3.226-.658a1.779,1.779,0,0,1-.46-1.4V19.435H77.308v5.45a2.957,2.957,0,0,0,.968,2.582c.856.743,2.345,1.129,4.878,1.129h.632c2.52,0,4.023-.372,4.879-1.129a2.957,2.957,0,0,0,.968-2.582v-5.45Z"/>
    </g>
    <path d="M95.354,25.009l2.209-3.339,2.248,3.339Zm3.178-5.574h-1.85l-6.119,9.012h2.519l1.081-1.639h6.852l1.1,1.639h2.57Z"/>
    <path d="M114.108,24.114H108.6V21.222h5.512c1.142,0,1.874.15,1.874,1.441s-.72,1.451-1.874,1.451m3,2.718A4.426,4.426,0,0,0,115.6,25.8a2.819,2.819,0,0,0,2.694-3.14c0-2.544-1.663-3.227-3.96-3.227h-8.006v9.012H108.6V25.9h3.29a2.872,2.872,0,0,1,2.433.994l1.712,1.552h2.843Z"/>
    <polygon points="36.975 26.734 36.991 26.734 36.976 26.731 36.975 26.734"/>
    <path d="M46.379,19.509V24.66a3.574,3.574,0,0,1-.882,2.794c-.794.794-1.985,1.067-3.91,1.067h-5.4l.783-1.787H41.29c1.887,0,2.818-.2,2.818-2.259V19.509Z"/>
    <polygon points="36.975 26.734 36.991 26.734 36.976 26.731 36.975 26.734"/>
    <path d="M35.061,24.307l.885-3.011-6.584-4.2-.553,1.884a8.444,8.444,0,0,0-8.681,1.384,6.923,6.923,0,0,1-5.3,1.616A8.443,8.443,0,0,0,6.8,25.736l-.056.086a2.9,2.9,0,0,1-5.261-1.677c0-2.154,1.873-3.545,4.773-3.545,1.71,0,3.082.1,4.409.2,1.2.086,2.332.167,3.6.167a5.31,5.31,0,0,0,3.28-.864,2.759,2.759,0,0,0,1.074-2.267,2.945,2.945,0,0,0-2.4-2.887l-.562-.115-.418,1.423.684.141a1.462,1.462,0,0,1,1.222,1.438c0,1.1-.969,1.653-2.876,1.653-1.215,0-2.321-.08-3.493-.164-1.354-.1-2.753-.2-4.516-.2C1.933,19.122,0,21.644,0,24.145a4.376,4.376,0,0,0,8.031,2.407l.083-.128a6.968,6.968,0,0,1,6.544-2.975,8.5,8.5,0,0,0,6.427-1.957,6.961,6.961,0,0,1,7.229-1.117L29,20.66l.766.321.464-1.58,2.9,1.849,1.088.694-.233.8-.162.551a15.579,15.579,0,0,0-14.836,5.229h6.775A7.958,7.958,0,0,1,34.9,24.842Z" fill="#4ac1e0"/>
  </g>
</svg>
