<svg xmlns="http://www.w3.org/2000/svg" width="31.082mm" height="16.269mm" viewBox="0 0 88.107 46.116">
  <g>
    <path d="M7.175,22.83C6.489,28.46,6.149,33.2,15.809,33.2s30.87,1.419,37.416,1.419,11.767-.99,16.214-.825c7.444.275,11.1-4.307,11.1-10.163S81.953,13.2,70.443,13.2s-9.718-2.71-24.194-2.71-23.84,2.914-30.176,3.614c-5.052.559-8.239,3.29-8.9,8.724" fill="#e5a0be"/>
    <path d="M15.81,33.2c9.66,0,30.869,1.419,37.415,1.419s11.767-.99,16.215-.825c7.443.275,11.1-4.307,11.1-10.163,0-.838.029-1.646.045-2.421-.643.728-1.238,1.419-1.745,2.037-2.971,3.618-28.82,2.633-38.079.933-7.363-1.352-23.5.622-32.83,6.433,1.163,1.6,3.484,2.587,7.883,2.587" fill="#e082a7"/>
  </g>
  <g>
    <path d="M26.768,21.545h1.124c.147.885.1.948-.72.955-1.14.009-2.283,0-3.469,0v-.963a6.366,6.366,0,0,0,1.024-.016c.168-.027.432-.215.442-.345.135-1.94.234-3.883.259-5.875-.08.126-.172.247-.241.38-.667,1.282-1.327,2.567-2,3.846-.145.275-.24.569-.7.569s-.517-.282-.661-.572c-.711-1.431-1.433-2.856-2.194-4.37a1.912,1.912,0,0,0-.067.309c.007,1.582.013,3.164.028,4.745.009.847.019.846.857.88.152.006.3.018.45.027.21.874.168.927-.665.923-.949,0-1.9,0-2.9,0-.035-.325-.066-.623-.107-1.009h1.385V13.97H17.19c-.026-.351-.047-.646-.069-.96.978,0,1.9-.015,2.824.018.126,0,.283.234.361.39.728,1.465,1.443,2.937,2.162,4.408.057.116.126.228.227.412.885-1.652,1.748-3.24,2.58-4.847a.593.593,0,0,1,.666-.38c.789.058,1.579.093,2.432.14-.032.308-.06.583-.094.9h-1.51c0,2.5,0,4.952,0,7.492"/>
    <path d="M33.543,18.062c-.894.076-1.627.08-2.338.211-.619.114-.766.5-.652,1.3.076.54.38.876.955.735a4.438,4.438,0,0,0,1.756-.88c.25-.211.178-.8.279-1.371m.014-.858a26.229,26.229,0,0,0-.25-2.854,1.5,1.5,0,0,0-2.572-.632c-.319.41-.255,1.117-.353,1.692a1.542,1.542,0,0,0,.028.365H29.118a2.433,2.433,0,0,1,2.019-3.364,4.862,4.862,0,0,1,2.052.246c1.327.481,1.532,1.705,1.572,2.9.056,1.715.013,3.433.013,5.207h1.564v.972h-3V20.62c-.251.141-.424.236-.6.334a2.323,2.323,0,0,1-3.073-.276,2.267,2.267,0,0,1-.367-2.343c.344-.869,1.192-1.052,2.018-1.119.69-.057,1.388-.012,2.234-.012"/>
    <path d="M39.266,13.276c.06,2.5.119,4.935.179,7.359,1.52.138,2.539-.532,2.615-1.839a27.985,27.985,0,0,0-.1-3.98,1.606,1.606,0,0,0-1.415-1.535c-.384-.025-.771-.005-1.276-.005m-2.728.033v-.956c1.672,0,3.316-.1,4.94.035,1.126.1,1.639,1.108,1.833,2.084a9.339,9.339,0,0,1-.026,4.745,3.293,3.293,0,0,1-3.292,2.507c-1.064.029-2.128.006-3.232.006V20.7h1.273V20.04c-.006-1.947-.019-3.894-.016-5.842,0-.863.013-.861-.877-.853-.19,0-.38-.022-.6-.036"/>
    <path d="M49.1,18.062c-.894.076-1.628.08-2.339.211-.617.114-.765.5-.651,1.3.076.54.38.876.955.735a4.434,4.434,0,0,0,1.755-.88c.25-.211.179-.8.28-1.371m.013-.858a26.227,26.227,0,0,0-.249-2.854,1.505,1.505,0,0,0-2.573-.632c-.319.411-.256,1.117-.353,1.693a1.535,1.535,0,0,0,.029.364H44.676A2.432,2.432,0,0,1,46.7,12.412a4.862,4.862,0,0,1,2.052.246c1.327.481,1.531,1.705,1.571,2.9.056,1.715.014,3.433.014,5.206H51.9v.973H48.9V20.62c-.251.141-.425.236-.6.334a2.321,2.321,0,0,1-3.072-.276,2.267,2.267,0,0,1-.368-2.343c.343-.869,1.193-1.052,2.019-1.122.69-.054,1.388-.009,2.233-.009"/>
    <path d="M60.991,21.4c.046-.38.076-.647.114-.967h1.111a2.3,2.3,0,0,0,.076-.376c.009-1.33.021-2.66.015-3.991,0-.505-.012-1.04-.58-1.278-.586-.245-1.03.064-1.47.422a2.072,2.072,0,0,0-.855,1.871c.076,1.321.021,2.65.021,4.044h1.166v.928H56.647c.016-.3.031-.579.047-.9h1.154a2.023,2.023,0,0,0,.076-.36c0-1.621.01-3.242,0-4.864,0-.447-.037-.906-.506-1.15a1.313,1.313,0,0,0-1.411.205,1.717,1.717,0,0,0-.906,1.707c.083,1.222.022,2.453.022,3.73H56.3v.97H52.177c.027-.279.056-.574.088-.9l1.376-.072c.071-2.056.141-4.092.213-6.2H52.373v-1h2.766v1.031a15.184,15.184,0,0,1,2.188-.566,1.643,1.643,0,0,1,1.863.915,9.48,9.48,0,0,1,2.154-.9c2.06-.312,2.539.941,2.522,2.467,0,.112-.062.223-.062.335v3.946h1.229V21.4Z"/>
    <path d="M69.905,15.67c.228-1.54-.14-2.288-1.21-2.382-.793-.07-1.631.257-1.591,2.382Zm1.444,1.038H67.137a10.652,10.652,0,0,0,.216,3.591,1.6,1.6,0,0,0,1.782.849,1.279,1.279,0,0,0,.959-1.343c.007-.249,0-.5,0-.836l1.2-.11a4.2,4.2,0,0,1-.352,2.422,1.866,1.866,0,0,1-.849.766,3.839,3.839,0,0,1-2.838-.019,2.3,2.3,0,0,1-1.424-2.318c-.01-1.882.031-3.771.185-5.647a1.818,1.818,0,0,1,1.9-1.734h.025a7.675,7.675,0,0,1,2.229.222,1.578,1.578,0,0,1,1.174,1.672c.005.8.005,1.612.005,2.484"/>
    <path d="M23.6,27.781l-1.233.057c-.019-.33-.022-.63-.055-.927-.083-.743-.323-.988-1.064-1.038-.443-.031-.889-.024-1.334-.015a.806.806,0,0,0-.446.1c-.651.485-.373,1.192-.395,1.819a.756.756,0,0,0,.622.869l.042.006a14.779,14.779,0,0,0,1.56.1c1.2.025,1.754.474,1.874,1.659a9.422,9.422,0,0,1,.007,1.958,1.933,1.933,0,0,1-1.849,2.013c-.042,0-.085,0-.127,0a5.858,5.858,0,0,1-1.672-.045,1.513,1.513,0,0,1-1.406-1.52c-.047-.435-.056-.875-.084-1.353h1.437c.053.4.1.777.152,1.154a.853.853,0,0,0,.912.789c.735.037,1.253-.18,1.292-.7a12.065,12.065,0,0,0-.118-2.395c-.022-.158-.442-.334-.7-.376-.7-.113-1.418-.152-2.128-.234A.887.887,0,0,1,18,28.916a24.493,24.493,0,0,1-.133-2.735,1.349,1.349,0,0,1,1.368-1.317,13.066,13.066,0,0,1,2.66-.04,1.837,1.837,0,0,1,1.7,1.824c.024.357,0,.72,0,1.133"/>
    <path d="M29.084,30.225c-.894.076-1.628.08-2.338.211-.618.113-.766.5-.652,1.3.076.54.38.876.955.735a4.44,4.44,0,0,0,1.756-.881c.253-.21.181-.8.282-1.37Zm.013-.858a26.227,26.227,0,0,0-.249-2.854,1.506,1.506,0,0,0-2.573-.633c-.318.411-.255,1.118-.352,1.693a1.542,1.542,0,0,0,.028.365H24.659a2.43,2.43,0,0,1,2.019-3.363,4.88,4.88,0,0,1,2.052.245c1.327.482,1.532,1.706,1.571,2.9.057,1.715.014,3.433.014,5.206h1.564V33.9H28.885v-1.12l-.6.333a2.321,2.321,0,0,1-3.072-.275,2.267,2.267,0,0,1-.367-2.343c.343-.869,1.192-1.052,2.018-1.12.69-.056,1.388-.011,2.23-.011"/>
    <path d="M40.014,34.3H37.182v-1.3a4.463,4.463,0,0,0-.443.247,3.274,3.274,0,0,1-2.55.512c-.836-.129-1.324-.79-1.349-1.844-.036-1.5-.013-3.01-.015-4.515v-.864l-1.216-.076v-.88h3.96v.98H34.363c-.013.221-.032.389-.031.558,0,1.485-.021,2.973.03,4.457a1.485,1.485,0,0,0,.428,1.043,1.174,1.174,0,0,0,1.405-.137,1.924,1.924,0,0,0,1-1.861c-.1-1.127-.024-2.27-.024-3.456H36V26.051h4.02v1H38.688c-.065,2.1-.128,4.134-.194,6.231h1.52Z"/>
    <path d="M45,28.087c-.045-.345-.071-.653-.129-.954-.086-.437-.17-.893-.711-1.011a1.416,1.416,0,0,0-1.589.565,2.239,2.239,0,0,0-.33,1.031c.026,1.421.076,2.843.2,4.256a1.207,1.207,0,0,0,1.331,1.068l.031,0a1.274,1.274,0,0,0,1.182-1.216c.032-.361.005-.728.005-1.117h1.332a10.461,10.461,0,0,1-.115,1.6c-.309,1.357-1.451,1.96-3.031,1.661a2.451,2.451,0,0,1-2.264-2.454,18.41,18.41,0,0,1,.052-4.091c.318-1.918,1.159-2.465,3.434-2.165,1.487.2,2.014,1.109,1.834,2.831Z"/>
    <path d="M48.056,25.317a1.079,1.079,0,0,1,1.1-1.036,1.034,1.034,0,0,1,.016,2.062,1.094,1.094,0,0,1-1.119-1.026m3.1,7.8v.9h-4.12c.035-.355.063-.631.095-.972h1.333c.067-1.6.132-3.129.2-4.72H47.147v-1.04h2.812V33.02Z"/>
    <path d="M52.141,31.158h1.368c.05.37.1.711.142,1.05.084.617.345.862.932.879.771.022,1.233-.218,1.263-.806a12.673,12.673,0,0,0-.118-2.176c-.019-.151-.3-.363-.485-.394-.608-.1-1.226-.138-1.84-.2-1.03-.1-1.362-.321-1.52-1.328a11.125,11.125,0,0,1-.029-2.182A1.383,1.383,0,0,1,53.2,24.66a11.617,11.617,0,0,1,2.655-.061,1.866,1.866,0,0,1,1.762,1.964l0,.045c.01.283,0,.567,0,.893l-1.229.068a5.5,5.5,0,0,0-.175-1.224,1.077,1.077,0,0,0-.624-.64,5.871,5.871,0,0,0-1.785-.042c-.243.032-.456.37-.659.593-.065.072-.048.222-.057.336-.124,1.618.1,1.861,1.725,1.879a7.243,7.243,0,0,1,1.04.083,1.433,1.433,0,0,1,1.292,1.286,11.177,11.177,0,0,1,.049,2.187,2.092,2.092,0,0,1-2.307,2.084c-.136.005-.271-.014-.406-.008-1.885.1-2.615-.842-2.338-2.945"/>
    <path d="M58.879,31.158h1.368c.05.37.1.711.142,1.05.085.617.345.862.932.879.771.022,1.232-.218,1.263-.806a12.573,12.573,0,0,0-.118-2.176c-.019-.151-.3-.363-.485-.394-.608-.1-1.225-.138-1.84-.2-1.029-.1-1.362-.321-1.52-1.328a11.048,11.048,0,0,1-.028-2.182,1.382,1.382,0,0,1,1.346-1.345A11.624,11.624,0,0,1,62.6,24.6a1.865,1.865,0,0,1,1.761,1.964l0,.045c.01.283,0,.567,0,.893l-1.229.068a5.5,5.5,0,0,0-.175-1.224,1.077,1.077,0,0,0-.624-.64,5.871,5.871,0,0,0-1.785-.042c-.243.032-.456.37-.659.593-.065.072-.048.222-.057.336-.124,1.618.1,1.861,1.725,1.879a7.257,7.257,0,0,1,1.041.083,1.434,1.434,0,0,1,1.292,1.286,11.177,11.177,0,0,1,.049,2.187,2.092,2.092,0,0,1-2.307,2.084c-.136.005-.271-.014-.407-.008-1.884.1-2.614-.842-2.338-2.945"/>
    <path d="M69.5,27.833c.228-1.541-.139-2.287-1.21-2.382-.793-.07-1.631.257-1.591,2.382Zm1.439,1.038H66.735a10.626,10.626,0,0,0,.215,3.591,1.6,1.6,0,0,0,1.782.849,1.279,1.279,0,0,0,.959-1.343c.007-.249,0-.5,0-.836l1.2-.11a4.19,4.19,0,0,1-.353,2.422,1.866,1.866,0,0,1-.849.766,3.841,3.841,0,0,1-2.837-.019,2.3,2.3,0,0,1-1.424-2.317c-.011-1.883.031-3.772.185-5.648a1.816,1.816,0,0,1,1.9-1.734h.026a7.675,7.675,0,0,1,2.229.222,1.581,1.581,0,0,1,1.175,1.672c0,.8,0,1.612,0,2.484"/>
    <path d="M13.149,34.978q-.427,0-.854-.026c-4.074-.078-7.538-5.69-7.538-12.252,0-6.762,5.592-9.851,7.747-10.47a7.053,7.053,0,0,1,2.406-.116.646.646,0,1,1-.16,1.282,5.715,5.715,0,0,0-1.93.086c-.027.009-6.771,2.146-6.771,9.218,0,6.388,3.319,10.9,6.3,10.961a12.785,12.785,0,0,0,2.609-.1.646.646,0,0,1,.184,1.278,13.806,13.806,0,0,1-1.991.143"/>
    <path d="M74.2,34.784a7.911,7.911,0,0,1-1.055-.071.646.646,0,0,1,.174-1.28,6.6,6.6,0,0,0,1.383.04c2.569-.194,6.553-2.753,7-9.009.282-3.92-.163-10.569-6.3-11.046-.845-.066-.733-.064-1.159-.087a.628.628,0,0,1-.671-.69c0-.444.318-.631.763-.6s.578.042,1.168.087c5.3.409,8.029,4.941,7.491,12.428-.479,6.621-4.584,9.931-8.2,10.2-.2.016-.4.023-.6.023"/>
    <path d="M2.444,19.678v0Zm2.2,2.159,0,0,.417,1.721a1.457,1.457,0,0,1-.712-.229C4.313,23.309.675,21.009.622,19.757A.912.912,0,0,1,2.4,19.44,16.411,16.411,0,0,0,5.26,21.751a.915.915,0,0,1-.2,1.808"/>
    <path d="M3.408,23.633a6.18,6.18,0,0,1-2.915-.512.908.908,0,0,1-.274-1.253.918.918,0,0,1,1.259-.282,9.634,9.634,0,0,0,3.511.15.912.912,0,1,1,.166,1.816c-.338.031-1,.081-1.747.081"/>
    <path d="M1.76,26.409a.916.916,0,0,1-.879-1.176c.233-.814,1.124-1.48,2.456-2.4a9.253,9.253,0,0,0,1.046-.784.912.912,0,1,1,1.377,1.2,8.06,8.06,0,0,1-1.384,1.088,8.329,8.329,0,0,0-1.75,1.429.9.9,0,0,1-.866.651"/>
    <path d="M85.867,19.58m-.082.28v0ZM83.51,21.943h0Zm0,0h0Zm0,0h0Zm-.44,1.708a.926.926,0,0,1-.466-.125.912.912,0,0,1,.3-1.689,16.375,16.375,0,0,0,2.931-2.215A.912.912,0,0,1,87.6,20c-.095,1.246-3.8,3.426-3.839,3.446a1.5,1.5,0,0,1-.692.208"/>
    <path d="M85.183,23.789a19.042,19.042,0,0,1-2.233-.147.912.912,0,0,1,.225-1.81A9.61,9.61,0,0,0,86.69,21.8a.912.912,0,0,1,.933,1.567,5.294,5.294,0,0,1-2.44.424"/>
    <path d="M86.279,26.6a.912.912,0,0,1-.879-.672,8.485,8.485,0,0,0-1.7-1.478,8.036,8.036,0,0,1-1.351-1.135.912.912,0,1,1,1.416-1.149,9.114,9.114,0,0,0,1.022.82c1.3.965,2.167,1.659,2.374,2.479a.912.912,0,0,1-.662,1.107.9.9,0,0,1-.223.028"/>
  </g>
</svg>
