<svg xmlns="http://www.w3.org/2000/svg" width="16.1mm" height="16.269mm" viewBox="0 0 45.639 46.116">
  <g>
    <path d="M42.809,15.762c-.262-.017-.551-.026-.856-.026a64.23,64.23,0,0,0-7.52.746c-2.085.279-4.449.6-6.873.826l-.7.067.778,3.958-2.677.527-.145.148a16,16,0,0,0-2.047,2.714c-.241-1.933-.508-3.839-.8-5.69l-.107-.685-5.217,1.281.014.062H11.519l-.022.61c-.226,6.31-1.39,11.844-2.492,11.844-1.832,0-3.623-3.126-3.823-5.165a4.705,4.705,0,0,1,.153-2.054A3.958,3.958,0,0,1,6.1,26.364l.206.795,4.254-2.333-.212-.518a7.311,7.311,0,0,0-5.229-3.86h-.09l-2.519.711-.2.265A7.975,7.975,0,0,0,.642,26.8c0,3.523,3.267,9.591,6.611,9.591,1.72,0,3.36-1.386,4.449-2.878l.081,9.643,5.348-3.26-.1-6.4,1.894-.154c.236,1.864.457,3.737.672,5.553l.283,2.38c.07.7.13,1.091.133,1.107l.13.856,3.915-1.894-.013-.408c-.008-.245-.018-.49-.029-.737L24,39.745a45.916,45.916,0,0,1,.183-6.321l3.757-.783a28.687,28.687,0,0,0,2.678,4.75l.346.478,4.073-2.447-.352-.545c-.712-1.1-1.338-2.171-1.9-3.244l1.984-.414a34.293,34.293,0,0,0,3.113,7.773l.281.5L41.9,37.909l-.247-.58a46.056,46.056,0,0,1-3.7-17.447,36.916,36.916,0,0,1,4.832-.591l.622-.018V15.8ZM16.983,30.245l-.15-9.75c.616,2.864,1.147,5.922,1.656,9.555Zm8.346-.818a16.243,16.243,0,0,1,.834-1.617c.118.427.25.867.4,1.317Zm5.911-1.151a40.444,40.444,0,0,1-1.976-6.536l-.119-.553c1.5-.158,2.919-.361,4.034-.537a50.423,50.423,0,0,0,1.106,8.584Z" fill="#fdc300"/>
    <g>
      <polygon points="9.407 17.142 11.288 17.142 12.529 10.21 14.284 10.21 14.584 8.477 9.194 8.477 8.893 10.21 10.648 10.21 9.407 17.142"/>
      <path d="M4.68,15.631a1.433,1.433,0,0,1-1.5-1.337l-1.768.483c.126,1.423,1.379,2.488,3.222,2.488,1.981,0,3.1-1,3.1-2.661a2.526,2.526,0,0,0-1.717-2.4l-1-.52a.933.933,0,0,1-.6-.817c0-.532.314-.878.99-.878a1.178,1.178,0,0,1,1.192,1.089l1.779-.483a2.715,2.715,0,0,0-2.908-2.24c-1.73,0-2.983.915-2.983,2.7a2.323,2.323,0,0,0,1.491,2.228l1.091.57a1.105,1.105,0,0,1,.74.94C5.8,15.285,5.419,15.631,4.68,15.631Z"/>
      <path d="M15.883,17.137l.56-3.09h1.01l.94,3.09h1.881l-1.041-3.45a2.747,2.747,0,0,0,1.96-2.73,2.276,2.276,0,0,0-2.46-2.48h-3.18L14,17.137Zm1.23-6.93h1.02c.75,0,1.141.3,1.141.91,0,.73-.511,1.2-1.531,1.2h-.99Z"/>
      <path d="M41.953,15.107a35.919,35.919,0,0,0-3.929.28l.929-5.18h1.761l.3-1.73h-5.39l-.3,1.73h1.75l-.97,5.41c-.569.08-1.16.16-1.759.24-.181.02-.37.05-.56.08l.089-.53h-3.76l.32-1.79h2.76l.31-1.74h-2.76l.291-1.67h3.649l.3-1.73H29.464l-1.451,8.15c-.169.02-.35.03-.52.05l-.58.05.241-1.32H23.393l.321-1.79h2.76l.31-1.74h-2.76l.289-1.67h3.651l.3-1.73h-5.52l-1.54,8.66h4.96l.2,1.04.53,2.71-1.84.32-.41.06-.29.3a15.64,15.64,0,0,0-1.17,1.39c-.18-1.36-.38-2.71-.58-4.02l-.22-1.37-1.359.33-3.93.97-.781.19H10.9l-.051,1.22c0,.02-.05,1.39-.21,3.19a7.945,7.945,0,0,0-2.34-2.39,6.689,6.689,0,0,0-3.19-1.26h-.18l-.17.05-2.22.62-.42.12-.26.34-.07.09A8.63,8.63,0,0,0,0,26.8c0,3.85,3.51,10.23,7.25,10.23a5.8,5.8,0,0,0,3.82-1.82l.06,6.83.021,2.25,1.929-1.18,4.071-2.48.62-.38-.011-.72-.08-5.45.68-.06c.21,1.67.411,3.34.6,4.96.089.79.19,1.58.279,2.37.07.7.13,1.11.14,1.13l.26,1.71,1.571-.76,2.76-1.34.74-.35-.031-.82c0-.26-.02-.51-.029-.77l-.011-.43a48.549,48.549,0,0,1,.12-5.77l2.81-.58a27.792,27.792,0,0,0,2.521,4.39l.69.96,1.019-.61,3.01-1.81.83-.5a32.277,32.277,0,0,0,1.68,3.5l.56,1,1.07-.45,2.61-1.11,1.17-.5-.49-1.15a45.324,45.324,0,0,1-3.64-16.67,32.2,32.2,0,0,1,4.2-.49l1.24-.04v-4.68l-1.19-.08C42.573,15.107,42.274,15.107,41.953,15.107Zm-31.54,10.53c-.009.03-.009.06-.02.09-.57,4.41-1.31,5.53-1.52,5.77-1-.14-2.279-1.79-2.82-3.48l1.291-.7,3.029-1.67Zm20.73,11.38a28.812,28.812,0,0,1-2.83-5.1l-4.7.98c-.01.08-.03.16-.04.24a46.924,46.924,0,0,0-.22,6.63c.02.39.04.79.051,1.19l-2.75,1.33s-.06-.39-.13-1.08c-.341-2.83-.671-5.68-1.041-8.55l-3.1.26.1,6.63-4.07,2.48-.09-11.11c-.45,1.79-2.8,4.84-5.07,4.84-2.83,0-5.969-5.66-5.969-8.96a7.33,7.33,0,0,1,1.609-5.09l2.22-.63a6.794,6.794,0,0,1,4.64,3.47l-3.029,1.66A3.746,3.746,0,0,0,5.163,24c-.35.34-.8,1.2-.62,3.04.231,2.32,2.231,5.74,4.46,5.74,2.69,0,3.13-12.45,3.13-12.45h4.06l.16,10.64,2.861-.37c-.481-3.46-1.041-6.96-1.81-10.5l3.929-.97q.6,3.8,1.03,7.64a17.63,17.63,0,0,1,2.911-4.32l3.26-.56.1-.018a40.632,40.632,0,0,0,2.122,6.918l2.971.93.339.11.08.88-.169.04-2.141.43a43.32,43.32,0,0,0,2.31,4.04Zm-13.549-8.66c.06.37.109.76.169,1.15l-.15.02Zm12.329-6.61c.96-.12,1.861-.25,2.65-.36a51.142,51.142,0,0,0,.85,6.91l-1.7-.53A41.2,41.2,0,0,1,29.923,21.747Zm3.83,10.33.55-.12c.221.78.46,1.53.731,2.27C34.563,33.507,34.133,32.787,33.753,32.077Zm9.01-13.42a43.684,43.684,0,0,0-5.46.69,46.788,46.788,0,0,0,3.76,18.23l-2.62,1.11a32.973,32.973,0,0,1-2.94-7.16l-.08-.94-.079-.87-.081-.84-.45-.14a51.314,51.314,0,0,1-1.02-8.83c-1.329.22-2.72.43-4.139.58l-.021-.07-1.12.19c-.12.02-.239.03-.359.04l-.531-2.71c2.96-.28,5.77-.68,8.25-1,.67-.09,1.31-.18,1.92-.25a37.224,37.224,0,0,1,4.16-.32q.435,0,.81.03Z"/>
      <path d="M24.274,30.337l3.119-.76a24.93,24.93,0,0,1-.95-3.35A15.948,15.948,0,0,0,24.274,30.337Z"/>
      <path d="M43.543,8.687h-.009a2.106,2.106,0,1,0,.009,0Zm0,3.65a1.62,1.62,0,0,1-.019-3.24h.01a1.588,1.588,0,0,1,1.579,1.63A1.569,1.569,0,0,1,43.543,12.337Z"/>
      <path d="M44.013,10.777v-.02a.54.54,0,0,0,.42-.49.529.529,0,0,0-.209-.43,1.116,1.116,0,0,0-.7-.16,6.389,6.389,0,0,0-.791.06v2.03h.47v-.8h.23c.26,0,.39.1.42.31a1.5,1.5,0,0,0,.171.49h.5a1.484,1.484,0,0,1-.151-.49C44.313,11,44.214,10.837,44.013,10.777Zm-.57-.15h-.219v-.58a1.325,1.325,0,0,1,.259-.02c.3,0,.44.12.44.31C43.923,10.547,43.7,10.627,43.443,10.627Z"/>
    </g>
  </g>
</svg>
