<svg xmlns="http://www.w3.org/2000/svg" xmlns:xlink="http://www.w3.org/1999/xlink" width="29.762mm" height="16.269mm" viewBox="0 0 84.366 46.116">
  <defs>
    <linearGradient id="a" data-name="Dégradé sans nom 15" x1="24.153" y1="21.609" x2="33.109" y2="17.646" gradientUnits="userSpaceOnUse">
      <stop offset="0.128" stop-color="#fff"/>
      <stop offset="1" stop-color="#e2131b"/>
    </linearGradient>
  </defs>
  <rect x="12.124" y="9.876" width="72.242" height="26.364" fill="#e2131b"/>
  <path d="M2.651,21.685,0,28.983a19.154,19.154,0,0,0,12.124-1.348V23.651C9.282,23.651,5.2,23.227,2.651,21.685Z" fill="#e2131b"/>
  <path d="M33.087,18.831A46.455,46.455,0,0,1,23.293,22.1c2.716-1.536,5.419-3.179,8.065-4.867l1.408.669Z" fill="url(#a)"/>
  <path d="M12.124,23.651v3.984A104.451,104.451,0,0,0,23.292,22.1,57.278,57.278,0,0,1,12.124,23.651Z" fill="#fff"/>
  <polygon points="36.862 17.054 34.657 17.939 33.912 21.22 33.087 18.831 32.766 17.901 31.358 17.232 29.844 16.512 32.76 15.95 33.677 13.508 34.743 16.214 36.862 17.054" fill="#fff"/>
  <path d="M42.013,18.064a1.726,1.726,0,0,1-.428-1.264V15.428a1.726,1.726,0,0,1,.428-1.264,1.537,1.537,0,0,1,1.148-.435H43.2a1.539,1.539,0,0,1,1.148.435,1.73,1.73,0,0,1,.428,1.264h-.754a1.24,1.24,0,0,0-.194-.792.785.785,0,0,0-.628-.227h-.041a.787.787,0,0,0-.629.227,1.24,1.24,0,0,0-.193.792V16.8a1.235,1.235,0,0,0,.193.791.784.784,0,0,0,.629.228H43.2a.782.782,0,0,0,.628-.228,1.235,1.235,0,0,0,.194-.791h.754a1.73,1.73,0,0,1-.428,1.264A1.538,1.538,0,0,1,43.2,18.5h-.041A1.536,1.536,0,0,1,42.013,18.064Z" fill="#fff"/>
  <path d="M45.946,18.1a1.6,1.6,0,0,1-.38-1.151v-.435a1.616,1.616,0,0,1,.38-1.155,1.358,1.358,0,0,1,1.033-.4h.041a1.356,1.356,0,0,1,1.032.4,1.612,1.612,0,0,1,.381,1.155v.435a1.6,1.6,0,0,1-.381,1.151,1.36,1.36,0,0,1-1.032.4h-.041A1.363,1.363,0,0,1,45.946,18.1Zm1.074-.268a.63.63,0,0,0,.519-.2,1.111,1.111,0,0,0,.16-.686v-.435a1.133,1.133,0,0,0-.156-.686.628.628,0,0,0-.523-.2h-.041a.626.626,0,0,0-.523.2,1.132,1.132,0,0,0-.157.686v.435a1.134,1.134,0,0,0,.157.686.629.629,0,0,0,.523.2Z" fill="#fff"/>
  <path d="M49.3,15.027h.748v.5h.074a1.038,1.038,0,0,1,.35-.415A.922.922,0,0,1,51,14.959h.027a.937.937,0,0,1,.764.343,1.474,1.474,0,0,1,.282.961v2.168H51.32V16.318c0-.44-.177-.659-.53-.659h-.027a.654.654,0,0,0-.53.217.913.913,0,0,0-.183.605v1.95H49.3Z" fill="#fff"/>
  <path d="M53.256,19.1h1.576a.179.179,0,0,0,.224-.224v-.985h-.074a.939.939,0,0,1-.337.445.963.963,0,0,1-.567.159h-.013a.971.971,0,0,1-.833-.4,1.925,1.925,0,0,1-.3-1.151v-.394a1.988,1.988,0,0,1,.3-1.165.945.945,0,0,1,.815-.425h.02a.98.98,0,0,1,.544.146.945.945,0,0,1,.346.418h.075v-.5h.754V18.8a.961.961,0,0,1-.258.7.94.94,0,0,1-.707.265H53.256Zm1.1-1.3a.584.584,0,0,0,.516-.235,1.092,1.092,0,0,0,.163-.635v-.394a1.112,1.112,0,0,0-.163-.639.583.583,0,0,0-.516-.237H54.33a.545.545,0,0,0-.483.241,1.253,1.253,0,0,0-.163.7v.285q0,.91.646.911Z" fill="#fff"/>
  <path d="M56.8,15.027h.748v.326h.081a.666.666,0,0,1,.632-.326h.516V15.7h-.93a.359.359,0,0,0-.238.058.328.328,0,0,0-.061.235v2.439H56.8Z" fill="#fff"/>
  <path d="M59.975,16.929v.021a1.139,1.139,0,0,0,.163.7.657.657,0,0,0,.544.2h.04a.544.544,0,0,0,.618-.448h.748a1.234,1.234,0,0,1-.445.8,1.407,1.407,0,0,1-.9.288h-.061a1.381,1.381,0,0,1-1.043-.4,1.592,1.592,0,0,1-.384-1.151v-.435a1.616,1.616,0,0,1,.38-1.155,1.358,1.358,0,0,1,1.033-.4h.041a1.356,1.356,0,0,1,1.032.4,1.612,1.612,0,0,1,.381,1.155v.414Zm.611-2.391-.828-.945v-.081h.822l.679.951v.075Zm-.431,1.25a.982.982,0,0,0-.18.611H61.4a.968.968,0,0,0-.184-.611.659.659,0,0,0-.509-.177h-.041A.659.659,0,0,0,60.155,15.788Z" fill="#fff"/>
  <path d="M63.209,18.2a1.08,1.08,0,0,1-.381-.9h.734a.528.528,0,0,0,.16.431.767.767,0,0,0,.5.133h.02q.591,0,.591-.374a.3.3,0,0,0-.183-.278,3.531,3.531,0,0,0-.632-.218,2.254,2.254,0,0,1-.836-.4.8.8,0,0,1-.292-.635.878.878,0,0,1,.33-.734,1.423,1.423,0,0,1,.9-.258h.02a1.444,1.444,0,0,1,.958.295,1.083,1.083,0,0,1,.354.88h-.734a.551.551,0,0,0-.146-.411.623.623,0,0,0-.425-.125h-.027a.63.63,0,0,0-.38.095.307.307,0,0,0-.129.265.273.273,0,0,0,.173.251,3.951,3.951,0,0,0,.615.217,2.41,2.41,0,0,1,.869.391.821.821,0,0,1,.279.676.87.87,0,0,1-.354.74,1.544,1.544,0,0,1-.951.265h-.02A1.593,1.593,0,0,1,63.209,18.2Z" fill="#fff"/>
  <path d="M41.755,20.46h.754v4.633h-.754Z" fill="#fff"/>
  <path d="M43.609,21.689h.747v.5h.075a1.028,1.028,0,0,1,.35-.414.915.915,0,0,1,.527-.15h.027a.939.939,0,0,1,.764.343,1.477,1.477,0,0,1,.282.962v2.167h-.754V22.98q0-.659-.53-.659H45.07a.654.654,0,0,0-.53.217.913.913,0,0,0-.184.605v1.95h-.747Z" fill="#fff"/>
  <path d="M49.227,24.427v.666h-.7a.944.944,0,0,1-.707-.265.961.961,0,0,1-.258-.7V22.362h-.618v-.673h.618v-.768l.747-.061v.829h.9v.673h-.9V24.21a.25.25,0,0,0,.044.169.238.238,0,0,0,.174.048Z" fill="#fff"/>
  <path d="M50.58,23.591v.021a1.143,1.143,0,0,0,.163.7.657.657,0,0,0,.543.2h.041a.545.545,0,0,0,.618-.448h.747a1.224,1.224,0,0,1-.445.8,1.4,1.4,0,0,1-.9.289h-.061a1.383,1.383,0,0,1-1.043-.4,1.591,1.591,0,0,1-.384-1.151v-.435a1.612,1.612,0,0,1,.381-1.155,1.356,1.356,0,0,1,1.032-.4h.041a1.358,1.358,0,0,1,1.033.4,1.616,1.616,0,0,1,.38,1.155v.414Zm.18-1.141a.979.979,0,0,0-.18.612h1.426a.972.972,0,0,0-.183-.612.663.663,0,0,0-.51-.177h-.041A.658.658,0,0,0,50.76,22.45Z" fill="#fff"/>
  <path d="M53.6,21.689h.747v.326h.082a.665.665,0,0,1,.632-.326h.516v.673h-.931a.36.36,0,0,0-.238.057.333.333,0,0,0-.061.235v2.439H53.6Z" fill="#fff"/>
  <path d="M56.279,21.689h.748v.5H57.1a1.028,1.028,0,0,1,.35-.414.915.915,0,0,1,.527-.15h.027a.939.939,0,0,1,.764.343,1.477,1.477,0,0,1,.282.962v2.167H58.3V22.98q0-.659-.53-.659H57.74a.654.654,0,0,0-.53.217.913.913,0,0,0-.183.605v1.95h-.748Z" fill="#fff"/>
  <path d="M63.209,24.427v.666H62.04l-.054-.449H61.9a.91.91,0,0,1-.917.517H60.96a1.108,1.108,0,0,1-.774-.265.892.892,0,0,1-.293-.693v-.034a.791.791,0,0,1,.3-.656,1.753,1.753,0,0,1,.893-.3l.9-.109v-.095a.809.809,0,0,0-.15-.547.544.544,0,0,0-.428-.166h-.027a.671.671,0,0,0-.428.129.6.6,0,0,0-.183.455h-.761a1.341,1.341,0,0,1,.438-.941,1.449,1.449,0,0,1,.961-.316h.028a1.239,1.239,0,0,1,.941.347A1.448,1.448,0,0,1,62.706,23v1.427Zm-1.223-.768v-.013l-.788.095a1.022,1.022,0,0,0-.459.139.317.317,0,0,0-.132.268v.028a.3.3,0,0,0,.122.254.564.564,0,0,0,.347.092H61.1A.772.772,0,0,0,61.986,23.659Z" fill="#fff"/>
  <path d="M65.716,24.427v.666h-.7a.944.944,0,0,1-.707-.265.961.961,0,0,1-.258-.7V22.362h-.618v-.673h.618v-.768l.747-.061v.829h.9v.673h-.9V24.21a.245.245,0,0,0,.045.169.234.234,0,0,0,.173.048Z" fill="#fff"/>
  <path d="M66.449,20.235h.883v.856h-.883Zm.068,1.454h.747v3.4h-.747Z" fill="#fff"/>
  <path d="M68.515,24.763a1.6,1.6,0,0,1-.381-1.151v-.435a1.612,1.612,0,0,1,.381-1.155,1.354,1.354,0,0,1,1.032-.4h.041a1.354,1.354,0,0,1,1.032.4A1.612,1.612,0,0,1,71,23.177v.435a1.6,1.6,0,0,1-.381,1.151,1.36,1.36,0,0,1-1.032.4h-.041A1.36,1.36,0,0,1,68.515,24.763Zm1.073-.268a.633.633,0,0,0,.52-.2,1.116,1.116,0,0,0,.159-.686v-.435a1.133,1.133,0,0,0-.156-.686.631.631,0,0,0-.523-.2h-.041a.631.631,0,0,0-.523.2,1.133,1.133,0,0,0-.156.686v.435a1.133,1.133,0,0,0,.156.686.631.631,0,0,0,.523.2Z" fill="#fff"/>
  <path d="M71.871,21.689h.747v.5h.075a1.018,1.018,0,0,1,.349-.414.917.917,0,0,1,.527-.15H73.6a.938.938,0,0,1,.764.343,1.477,1.477,0,0,1,.282.962v2.167h-.754V22.98c0-.439-.176-.659-.53-.659h-.027a.654.654,0,0,0-.53.217.913.913,0,0,0-.183.605v1.95h-.747Z" fill="#fff"/>
  <path d="M78.8,24.427v.666H77.631l-.054-.449H77.5a.913.913,0,0,1-.918.517h-.027a1.11,1.11,0,0,1-.774-.265.892.892,0,0,1-.292-.693v-.034a.791.791,0,0,1,.3-.656,1.754,1.754,0,0,1,.894-.3l.9-.109v-.095a.815.815,0,0,0-.149-.547A.547.547,0,0,0,77,22.294h-.028a.671.671,0,0,0-.428.129.605.605,0,0,0-.183.455H75.6a1.341,1.341,0,0,1,.438-.941A1.451,1.451,0,0,1,77,21.621h.027a1.239,1.239,0,0,1,.941.347A1.448,1.448,0,0,1,78.3,23v1.427Zm-1.223-.768v-.013l-.788.095a1.026,1.026,0,0,0-.459.139.317.317,0,0,0-.132.268v.028a.3.3,0,0,0,.122.254.564.564,0,0,0,.347.092h.027A.771.771,0,0,0,77.577,23.659Z" fill="#fff"/>
  <path d="M79.486,20.2h.747v4.892h-.747Z" fill="#fff"/>
  <path d="M42.658,32.14a.966.966,0,0,1-.835-.4,1.94,1.94,0,0,1-.293-1.151V30.19a2,2,0,0,1,.3-1.165.946.946,0,0,1,.816-.424h.02a.966.966,0,0,1,.543.146.947.947,0,0,1,.347.418h.075V27.181h.754v4.891H43.65v-.536h-.075a.976.976,0,0,1-.343.445.953.953,0,0,1-.56.159Zm.812-.934a1.115,1.115,0,0,0,.16-.635v-.394a1.129,1.129,0,0,0-.16-.642.584.584,0,0,0-.52-.234h-.027q-.645,0-.645.944v.285q0,.91.645.911h.027A.584.584,0,0,0,43.47,31.206Z" fill="#fff"/>
  <path d="M45.607,28.506v-.15H45.28v-.917H46.2v.917l-.442,1.087H45.28Z" fill="#fff"/>
  <path d="M47.515,31.733a1.586,1.586,0,0,1-.407-1.169V27.439h.754v3.125a1.092,1.092,0,0,0,.17.7.759.759,0,0,0,.6.2h.04a.759.759,0,0,0,.6-.2,1.092,1.092,0,0,0,.17-.7V27.439h.754v3.125a1.586,1.586,0,0,1-.407,1.169,1.511,1.511,0,0,1-1.115.407h-.04A1.511,1.511,0,0,1,47.515,31.733Z" fill="#fff"/>
  <path d="M52.3,27.894a.255.255,0,0,0-.044.17v.605h.829v.672h-.829v2.731H51.5V29.341h-.618v-.672H51.5v-.476a1.013,1.013,0,0,1,.272-.723.966.966,0,0,1,.74-.289h.666v.666h-.706A.243.243,0,0,0,52.3,27.894Z" fill="#fff"/>
  <path d="M53.9,31.743a1.605,1.605,0,0,1-.38-1.152v-.434A1.616,1.616,0,0,1,53.9,29a1.354,1.354,0,0,1,1.033-.4h.041a1.351,1.351,0,0,1,1.032.4,1.612,1.612,0,0,1,.381,1.155v.434a1.6,1.6,0,0,1-.381,1.152,1.359,1.359,0,0,1-1.032.4h-.041A1.363,1.363,0,0,1,53.9,31.743Zm1.074-.269a.63.63,0,0,0,.52-.2,1.116,1.116,0,0,0,.159-.686v-.434a1.137,1.137,0,0,0-.156-.687.631.631,0,0,0-.523-.2h-.041a.629.629,0,0,0-.523.2,1.137,1.137,0,0,0-.156.687v.434a1.133,1.133,0,0,0,.156.686.626.626,0,0,0,.523.2Z" fill="#fff"/>
  <path d="M57.257,27.181h.748v4.891h-.748Z" fill="#fff"/>
  <path d="M59.255,31.743a1.6,1.6,0,0,1-.381-1.152v-.434A1.612,1.612,0,0,1,59.255,29a1.352,1.352,0,0,1,1.032-.4h.041a1.354,1.354,0,0,1,1.033.4,1.616,1.616,0,0,1,.38,1.155v.434a1.605,1.605,0,0,1-.38,1.152,1.363,1.363,0,0,1-1.033.4h-.041A1.36,1.36,0,0,1,59.255,31.743Zm1.073-.269a.63.63,0,0,0,.52-.2,1.116,1.116,0,0,0,.159-.686v-.434a1.137,1.137,0,0,0-.156-.687.629.629,0,0,0-.523-.2h-.041a.631.631,0,0,0-.523.2,1.137,1.137,0,0,0-.156.687v.434a1.133,1.133,0,0,0,.156.686.628.628,0,0,0,.523.2Z" fill="#fff"/>
  <path d="M62.794,32.745H64.37a.179.179,0,0,0,.224-.224v-.985H64.52a.944.944,0,0,1-.336.445.968.968,0,0,1-.568.159H63.6a.971.971,0,0,1-.833-.4,1.925,1.925,0,0,1-.3-1.151V30.19a1.99,1.99,0,0,1,.3-1.165.944.944,0,0,1,.815-.424h.02a.972.972,0,0,1,.544.146.945.945,0,0,1,.346.418h.075v-.5h.754v3.77a.961.961,0,0,1-.258.7.94.94,0,0,1-.706.265h-1.57Zm1.1-1.3a.586.586,0,0,0,.516-.235,1.092,1.092,0,0,0,.163-.635v-.394a1.112,1.112,0,0,0-.163-.639A.583.583,0,0,0,63.9,29.3h-.027a.545.545,0,0,0-.483.241,1.26,1.26,0,0,0-.163.7v.285q0,.91.646.911Z" fill="#fff"/>
  <path d="M66.266,27.215h.883v.856h-.883Zm.068,1.454h.747v3.4h-.747Z" fill="#fff"/>
  <path d="M68.671,30.571v.02a1.141,1.141,0,0,0,.163.7.654.654,0,0,0,.543.2h.041a.546.546,0,0,0,.618-.449h.747a1.226,1.226,0,0,1-.445.806,1.4,1.4,0,0,1-.9.288h-.061a1.383,1.383,0,0,1-1.043-.4,1.593,1.593,0,0,1-.384-1.152v-.434A1.612,1.612,0,0,1,68.331,29a1.352,1.352,0,0,1,1.032-.4H69.4a1.354,1.354,0,0,1,1.033.4,1.616,1.616,0,0,1,.38,1.155v.414Zm.18-1.141a.974.974,0,0,0-.18.611H70.1a.966.966,0,0,0-.183-.611.663.663,0,0,0-.51-.177h-.041A.658.658,0,0,0,68.851,29.43Z" fill="#fff"/>
</svg>
