<svg xmlns="http://www.w3.org/2000/svg" width="27.286mm" height="16.269mm" viewBox="0 0 77.347 46.116">
  <g>
    <polygon points="34.049 14.006 35.849 14.006 35.849 20.897 39.202 20.897 39.202 22.35 34.049 22.35 34.049 14.006"/>
    <g>
      <path d="M41.745,18.925h1.808c.013-.7-.22-1.078-.847-1.078-.577,0-.961.372-.976,1.078Zm0,1.069c.046.623.394,1.113,1.474,1.113a4.884,4.884,0,0,0,1.717-.349h.058l-.149,1.358a4.906,4.906,0,0,1-1.9.371c-2.182,0-3.017-1.229-3.017-2.923a2.652,2.652,0,0,1,2.8-2.948c1.8,0,2.47,1.1,2.47,2.6,0,.208-.012.569-.022.779Z"/>
      <path d="M45.956,20.712H46a5.64,5.64,0,0,0,2,.44c.7,0,.893-.139.893-.394,0-.777-2.946-.127-2.946-2.238,0-1.246,1.038-1.9,2.47-1.9a6.225,6.225,0,0,1,1.786.29l.141,1.394h-.058a5.693,5.693,0,0,0-1.7-.337c-.533,0-.87.1-.87.415,0,.831,2.843.127,2.843,2.228,0,1.148-.858,1.869-2.506,1.869a5.027,5.027,0,0,1-1.973-.4Z"/>
    </g>
    <polygon points="37.994 32.789 35.795 32.789 33.161 24.447 35.017 24.447 36.931 31.118 36.966 31.118 38.997 24.447 40.749 24.447 37.994 32.789"/>
    <g>
      <path d="M42.255,29.366h1.811c.01-.7-.22-1.078-.847-1.078-.569,0-.951.37-.964,1.078m.013,1.067c.046.623.394,1.115,1.472,1.115a4.884,4.884,0,0,0,1.717-.349h.058l-.149,1.358a4.935,4.935,0,0,1-1.9.372c-2.18,0-3.017-1.23-3.017-2.924a2.652,2.652,0,0,1,2.8-2.948c1.8,0,2.47,1.1,2.47,2.6,0,.208-.01.569-.022.777Z"/>
      <path d="M48.485,32.789H46.758V27.2h1.727Zm-.893-8.435c.673,0,1.038.326,1.038.928s-.361.928-1.021.928a.93.93,0,1,1-.017-1.856"/>
    </g>
    <polygon points="49.215 24.447 51.594 24.447 51.594 32.789 49.865 32.789 49.865 25.688 49.215 25.688 49.215 24.447"/>
    <polygon points="52.319 24.447 54.696 24.447 54.696 32.789 52.969 32.789 52.969 25.688 52.319 25.688 52.319 24.447"/>
    <g>
      <path d="M57.568,29.366h1.81c.012-.7-.22-1.078-.847-1.078-.569,0-.951.37-.963,1.078m.012,1.067c.046.623.394,1.115,1.474,1.115a4.884,4.884,0,0,0,1.717-.349h.06l-.151,1.358a4.925,4.925,0,0,1-1.9.372c-2.182,0-3.017-1.23-3.017-2.924a2.652,2.652,0,0,1,2.795-2.948c1.8,0,2.472,1.1,2.472,2.6,0,.208-.012.569-.024.777Z"/>
      <path d="M62.034,30.781V27.2h1.729v3.343c0,.66.185.986.8.986.764,0,.951-.488.951-1.011V27.191h1.729v5.6H65.69l-.058-.623h-.025a1.747,1.747,0,0,1-1.6.753c-1.436.009-1.972-.8-1.972-2.138"/>
      <path d="M72.2,28.844h-.058a4.435,4.435,0,0,0-.754-.071c-.637,0-1.067.208-1.067.721v3.3H68.588V27.2h1.486l.081.72.023.01a1.6,1.6,0,0,1,1.426-.87,1.316,1.316,0,0,1,.465.081Z"/>
      <path d="M72.753,31.153H72.8a5.64,5.64,0,0,0,2,.44c.695,0,.893-.139.893-.394,0-.777-2.946-.127-2.946-2.238,0-1.246,1.038-1.9,2.47-1.9a6.239,6.239,0,0,1,1.788.29l.139,1.394h-.058a5.689,5.689,0,0,0-1.707-.333c-.533,0-.87.106-.87.416,0,.83,2.842.126,2.842,2.227,0,1.148-.857,1.869-2.5,1.869a5.023,5.023,0,0,1-1.973-.4Z"/>
      <path d="M9.309,14.442,7.44,20.087l-3.1-.67A3.146,3.146,0,1,1,6.326,13.46Z"/>
      <path d="M14.566,17.168l-1.225,2.678a1.892,1.892,0,0,1-2.13,1.061l-2.874-.623,1.551-4.667Z"/>
      <path d="M16.269,13.446l-1.32,2.873L9.3,14.451l.995-2.984a3.144,3.144,0,0,1,5.965,1.987Z"/>
      <path d="M7.011,21.349,5.142,26.994l-2.991-.986a3.144,3.144,0,1,1,1.987-5.965Z"/>
      <path d="M10.779,28.88h0l-.671,3.091a3.145,3.145,0,1,1-6.077-1.624,3.074,3.074,0,0,1,.121-.362L5.144,27Z"/>
      <path d="M11.6,25.086l-.623,2.873L6.307,26.413,7.86,21.745l2.68,1.225A1.9,1.9,0,0,1,11.6,25.086"/>
      <path d="M17.7,31.178,16.7,34.161a3.145,3.145,0,0,1-5.967-1.986L12.042,29.3Z"/>
      <path d="M18.658,25.336,17.105,30l-4.667-1.551,1.227-2.68a1.885,1.885,0,0,1,2.113-1.059Z"/>
      <path d="M24.654,30.181a3.141,3.141,0,0,1-3.972,1.99h0L17.7,31.178l1.868-5.645,3.092.67a3.147,3.147,0,0,1,2,3.973l0,.005"/>
      <path d="M25.952,23.291a2.186,2.186,0,0,1-2.73,1.4l-2.906-1.337,1.278-3.843,2.961,1a2.2,2.2,0,0,1,1.4,2.772m-6.531-.336-2.562-1.167a.951.951,0,0,1-.53-1.061l.609-2.8,3.751,1.246-.016.045ZM17.137,16.99l.07-.328.6-2.768a2.2,2.2,0,0,1,4.156,1.435l-.722,2.165-.092.278-.182.547L17.129,17.04Zm7.717,2.622-2.983-.995.992-2.983A3.145,3.145,0,0,0,16.9,13.647l-.668,3.092-.823,3.78a1.886,1.886,0,0,0,1.061,2.12L20,24.252l2.867,1.312A3.143,3.143,0,1,0,24.852,19.6Z"/>
    </g>
  </g>
  <g>
    <path d="M19.636,25.469l-1.887,5.665-5.664-1.886,1.62-3.535a1.9,1.9,0,0,1,2.129-1.066Z" fill="#d4457f"/>
    <path d="M24.736,30.135a3.157,3.157,0,0,1-3.992,2l-3-1,1.887-5.667,3.1.674a3.154,3.154,0,0,1,2,3.987Z" fill="#b32c62"/>
    <path d="M17.749,31.136l-1,3a3.156,3.156,0,0,1-5.988-1.994l1.321-2.887Z" fill="#b32c62"/>
    <path d="M10.8,28.823,5.138,26.937l1.887-5.661,3.535,1.616a1.9,1.9,0,0,1,1.066,2.129Z" fill="#d4457f"/>
    <path d="M10.13,31.926a3.156,3.156,0,0,1-5.989-1.994l1-2.995L10.8,28.823Z" fill="#b32c62"/>
    <path d="M7.025,21.276,5.138,26.937l-2.993-1a3.156,3.156,0,0,1,1.994-5.989Z" fill="#b32c62"/>
    <path d="M15,16.227l-1.619,3.535a1.9,1.9,0,0,1-2.129,1.066L7.447,20l1.885-5.665Z" fill="#d4457f"/>
    <path d="M9.332,14.34,7.447,20l-3.1-.672a3.156,3.156,0,0,1,1.994-5.989Z" fill="#b32c62"/>
    <path d="M16.319,13.34,15,16.227,9.332,14.34l.995-2.994a3.157,3.157,0,0,1,6.016,1.914c-.008.027-.017.054-.026.08Z" fill="#b32c62"/>
    <path d="M21.944,18.54,20.058,24.2l-3.538-1.62a1.9,1.9,0,0,1-1.068-2.123l.825-3.8Z" fill="#f9d954"/>
    <path d="M22.941,15.545l-1,2.995-5.665-1.887.674-3.1a3.156,3.156,0,1,1,5.988,1.994Z" fill="#efb75e"/>
    <path d="M26.936,23.528a3.157,3.157,0,0,1-3.992,2L20.058,24.2l1.886-5.664,2.994,1a3.155,3.155,0,0,1,2,3.988Z" fill="#efb75e"/>
  </g>
</svg>
