<svg width="1516" height="230" viewBox="0 0 1516 230" fill="none" xmlns="http://www.w3.org/2000/svg">
<rect x="1" width="1515" height="230" fill="white"/>
<path d="M1.5 18H10.5V14.96H4.68V12.42H9.3V9.38H4.68V6.84H10.5V3.8H1.5V18ZM18.6058 18.24C22.0258 18.24 24.4458 15.92 24.4458 12.38V3.8H21.2658V12.42C21.2658 14.12 20.2058 15.16 18.6058 15.16C17.0058 15.16 15.9458 14.12 15.9458 12.42V3.8H12.7658V12.38C12.7658 15.92 15.1858 18.24 18.6058 18.24ZM33.8213 18.24C36.7613 18.24 39.2413 16.68 40.4613 14.36L37.6613 12.84C36.8613 14.28 35.6013 15.16 33.8213 15.16C31.5013 15.16 29.6813 13.2 29.6813 10.9C29.6813 8.6 31.5013 6.64 33.8213 6.64C35.6013 6.64 36.8613 7.52 37.6613 8.96L40.4613 7.44C39.2413 5.12 36.7613 3.56 33.8213 3.56C29.7613 3.56 26.4813 6.86 26.4813 10.9C26.4813 14.94 29.7613 18.24 33.8213 18.24ZM42.3203 18H51.3803V14.96H45.5003V3.8H42.3203V18ZM53.3555 18H56.5355V3.8H53.3555V18ZM59.5273 18H64.3673C68.3673 18 71.6073 14.82 71.6073 10.9C71.6073 6.98 68.3673 3.8 64.3673 3.8H59.5273V18ZM62.7073 15.08V6.72H64.3673C66.7673 6.72 68.3873 8.6 68.3873 10.9C68.3873 13.2 66.7673 15.08 64.3673 15.08H62.7073ZM82.5364 18.24C85.4964 18.24 87.6164 16.44 87.6164 13.86C87.6364 11.72 86.2964 10.36 84.2364 9.62L83.2364 9.26C81.7164 8.72 81.0364 8.4 81.0364 7.62C81.0364 6.88 81.8964 6.54 82.7564 6.54C83.6564 6.54 84.5564 6.92 85.2164 7.72L87.2964 5.52C85.9564 4.08 84.4564 3.56 82.7164 3.56C79.8964 3.56 77.8164 5.18 77.8164 7.94C77.8164 9.88 79.0764 11.26 81.3964 12.04L82.3964 12.38C83.8364 12.86 84.3764 13.36 84.3764 14.08C84.3764 14.78 83.7164 15.26 82.6564 15.26C81.6164 15.26 80.4164 14.66 79.7164 13.64L77.2764 15.7C78.3964 17.3 80.2764 18.24 82.5364 18.24ZM96.3408 18.24C98.0008 18.24 99.5008 17.72 100.721 16.78L102.421 18.16L104.221 15.94L102.641 14.66C103.301 13.54 103.681 12.28 103.681 10.9C103.681 6.86 100.381 3.56 96.3408 3.56C92.2808 3.56 89.0008 6.86 89.0008 10.9C89.0008 14.94 92.2808 18.24 96.3408 18.24ZM96.3408 15.16C94.0208 15.16 92.2008 13.2 92.2008 10.9C92.2008 8.6 94.0208 6.64 96.3408 6.64C98.6408 6.64 100.461 8.6 100.461 10.9C100.461 11.52 100.321 12.06 100.101 12.6L97.9608 10.86L96.1608 13.06L98.1808 14.7C97.6008 15 97.0008 15.16 96.3408 15.16ZM111.77 18.24C115.19 18.24 117.61 15.92 117.61 12.38V3.8H114.43V12.42C114.43 14.12 113.37 15.16 111.77 15.16C110.17 15.16 109.11 14.12 109.11 12.42V3.8H105.93V12.38C105.93 15.92 108.35 18.24 111.77 18.24ZM118.339 18H121.659L122.919 15H128.799L130.059 18H133.379L127.299 3.8H124.419L118.339 18ZM125.859 7.98L127.639 12.24H124.059L125.859 7.98ZM134.859 18H138.039V12.14H138.539L143.279 18H147.099L142.079 11.74C143.899 11.1 144.859 9.92 144.859 8.08C144.859 5.74 143.139 3.8 140.459 3.8H134.859V18ZM138.039 9.44V6.72H140.079C141.019 6.72 141.699 7.22 141.699 8.08C141.699 8.9 141.019 9.44 140.079 9.44H138.039ZM148.102 18H157.102V14.96H151.282V12.42H155.902V9.38H151.282V6.84H157.102V3.8H148.102V18ZM164.4 18H166.26V11.54H167.64L173.1 18H175.44L169.96 11.52C172.18 11.2 173.48 9.8 173.48 7.72C173.48 5.38 171.88 3.8 169.24 3.8H164.4V18ZM166.26 9.88V5.52H169.02C170.64 5.52 171.62 6.28 171.62 7.72C171.62 9.16 170.64 9.88 169.02 9.88H166.26ZM177.095 18H185.375V16.24H178.955V11.62H184.175V9.86H178.955V5.56H185.375V3.8H177.095V18ZM194.517 18.24C196.657 18.24 198.797 17.6 200.097 16.24V9.88H194.277V11.62H198.297V15.42C197.357 16.16 195.897 16.48 194.517 16.48C190.997 16.48 188.737 14.04 188.737 10.9C188.737 7.78 191.057 5.32 194.277 5.32C196.057 5.32 197.357 5.94 198.377 6.88L199.617 5.54C198.277 4.26 196.517 3.56 194.277 3.56C190.037 3.56 186.877 6.8 186.877 10.9C186.877 15.06 190.037 18.24 194.517 18.24ZM208.51 18.24C211.79 18.24 214.07 16.02 214.07 12.48V3.8H212.21V12.52C212.21 15.08 210.75 16.48 208.51 16.48C206.27 16.48 204.81 15.08 204.81 12.52V3.8H202.95V12.48C202.95 16.02 205.23 18.24 208.51 18.24ZM217.642 18H226.362V16.24H219.502V3.8H217.642V18ZM226.839 18H228.759L230.559 13.86H237.179L239.019 18H240.959L234.659 3.8H233.119L226.839 18ZM233.859 6.32L236.439 12.18H231.299L233.859 6.32ZM242.954 18H244.814V11.54H246.194L251.654 18H253.994L248.514 11.52C250.734 11.2 252.034 9.8 252.034 7.72C252.034 5.38 250.434 3.8 247.794 3.8H242.954V18ZM244.814 9.88V5.52H247.574C249.194 5.52 250.174 6.28 250.174 7.72C250.174 9.16 249.194 9.88 247.574 9.88H244.814ZM254.19 20.2H255.81L263.53 3.8H261.91L254.19 20.2ZM265.445 18H271.685C274.145 18 276.005 16.16 276.005 13.82C276.005 12.3 275.185 11.08 273.985 10.46C274.605 9.84 275.005 9.04 275.005 8.02C275.005 5.68 273.105 3.8 270.785 3.8H265.445V18ZM268.625 15.08V12.24H271.405C272.265 12.24 272.905 12.88 272.905 13.66C272.905 14.46 272.285 15.08 271.425 15.08H268.625ZM268.625 9.54V6.7H270.425C271.285 6.7 271.905 7.36 271.905 8.14C271.905 8.92 271.285 9.54 270.425 9.54H268.625ZM284.681 15.16C282.361 15.16 280.541 13.2 280.541 10.9C280.541 8.6 282.361 6.64 284.681 6.64C286.981 6.64 288.801 8.6 288.801 10.9C288.801 13.2 286.981 15.16 284.681 15.16ZM284.681 18.24C288.721 18.24 292.021 14.94 292.021 10.9C292.021 6.86 288.721 3.56 284.681 3.56C280.621 3.56 277.341 6.86 277.341 10.9C277.341 14.94 280.621 18.24 284.681 18.24ZM294.215 18H303.275V14.96H297.395V3.8H294.215V18ZM305.25 18H310.09C314.09 18 317.33 14.82 317.33 10.9C317.33 6.98 314.09 3.8 310.09 3.8H305.25V18ZM308.43 15.08V6.72H310.09C312.49 6.72 314.11 8.6 314.11 10.9C314.11 13.2 312.49 15.08 310.09 15.08H308.43Z" fill="black"/>
<path d="M0 135.951H5.77556L7.96749 130.768H18.1965L20.3884 135.951H26.164L15.5871 111.419H10.5769L0 135.951ZM13.082 118.641L16.1785 126H9.95067L13.082 118.641Z" fill="black"/>
<path d="M35.2579 136.331C37.0323 136.331 38.424 135.709 39.3634 134.846V135.951H44.6171V118.675H39.3634V119.746C38.424 118.917 37.0323 118.295 35.2579 118.295C30.1086 118.295 26.6989 122.476 26.6989 127.313C26.6989 132.151 30.1086 136.331 35.2579 136.331ZM36.0581 131.598C33.6922 131.598 32.1266 129.628 32.1266 127.313C32.1266 124.998 33.6922 123.029 36.0581 123.029C37.6934 123.029 38.6328 123.72 39.3634 124.653V129.939C38.6328 130.907 37.6934 131.598 36.0581 131.598Z" fill="black"/>
<path d="M57.2115 135.951H68.0667C72.3462 135.951 75.5819 132.772 75.5819 128.73C75.5819 126.104 74.1554 123.996 72.0679 122.925C73.1464 121.854 73.8423 120.472 73.8423 118.71C73.8423 114.667 70.537 111.419 66.5011 111.419H57.2115V135.951ZM62.7435 130.907V126H67.5796C69.0757 126 70.1891 127.106 70.1891 128.453C70.1891 129.836 69.1105 130.907 67.6144 130.907H62.7435ZM62.7435 121.336V116.429H65.8748C67.3709 116.429 68.4494 117.569 68.4494 118.917C68.4494 120.264 67.3709 121.336 65.8748 121.336H62.7435Z" fill="black"/>
<path d="M87.9996 136.331C93.1489 136.331 96.5586 132.151 96.5586 127.313C96.5586 122.476 93.1489 118.295 87.9996 118.295C86.2252 118.295 84.8335 118.917 83.8941 119.746V110.728H78.6404V135.951H83.8941V134.846C84.8335 135.709 86.2252 136.331 87.9996 136.331ZM87.1994 131.598C85.5641 131.598 84.6247 130.907 83.8941 129.939V124.653C84.6247 123.72 85.5641 123.029 87.1994 123.029C89.5653 123.029 91.1309 124.998 91.1309 127.313C91.1309 129.628 89.5653 131.598 87.1994 131.598Z" fill="black"/>
<path d="M119.52 136.366C124.635 136.366 128.949 133.671 131.071 129.663L126.2 127.037C124.809 129.525 122.617 131.045 119.52 131.045C115.484 131.045 112.318 127.659 112.318 123.685C112.318 119.712 115.484 116.325 119.52 116.325C122.617 116.325 124.809 117.846 126.2 120.334L131.071 117.708C128.949 113.7 124.635 111.004 119.52 111.004C112.457 111.004 106.751 116.706 106.751 123.685C106.751 130.665 112.457 136.366 119.52 136.366Z" fill="black"/>
<path d="M142.064 136.331C145.648 136.331 148.918 134.293 150.38 131.287L145.787 128.868C145.126 130.354 143.839 131.459 142.064 131.459C139.872 131.459 138.098 129.766 138.098 127.313C138.098 124.86 139.872 123.167 142.064 123.167C143.839 123.167 145.126 124.273 145.787 125.758L150.38 123.34C148.918 120.334 145.648 118.295 142.064 118.295C136.95 118.295 132.809 122.061 132.809 127.313C132.809 132.565 136.95 136.331 142.064 136.331Z" fill="black"/>
<path d="M161.453 135.951H169.873C176.831 135.951 182.468 130.457 182.468 123.685C182.468 116.913 176.831 111.419 169.873 111.419H161.453V135.951ZM166.985 130.907V116.464H169.873C174.048 116.464 176.866 119.712 176.866 123.685C176.866 127.659 174.048 130.907 169.873 130.907H166.985Z" fill="black"/>
<path d="M193.387 136.331C195.162 136.331 196.553 135.709 197.493 134.846V135.951H202.747V110.728H197.493V119.746C196.553 118.917 195.162 118.295 193.387 118.295C188.238 118.295 184.828 122.476 184.828 127.313C184.828 132.151 188.238 136.331 193.387 136.331ZM194.188 131.598C191.822 131.598 190.256 129.628 190.256 127.313C190.256 124.998 191.822 123.029 194.188 123.029C195.823 123.029 196.762 123.72 197.493 124.653V129.939C196.762 130.907 195.823 131.598 194.188 131.598Z" fill="black"/>
<path d="M215.341 135.951H230.997V130.699H220.873V126.311H228.91V121.059H220.873V116.671H230.997V111.419H215.341V135.951Z" fill="black"/>
<path d="M242.365 136.331C246.018 136.331 248.906 134.846 250.541 132.531L246.644 129.628C245.983 130.63 244.487 131.598 242.434 131.598C240.451 131.598 238.503 130.63 238.19 128.557H250.819C250.924 127.728 250.924 127.175 250.924 126.726C250.924 121.128 246.853 118.295 242.26 118.295C236.972 118.295 233.11 122.199 233.11 127.313C233.11 132.876 237.25 136.331 242.365 136.331ZM238.329 125.136C238.781 123.236 240.59 122.545 242.121 122.545C243.652 122.545 245.252 123.305 245.705 125.136H238.329Z" fill="black"/>
<path d="M262.501 135.951H268.033V126.346H275.583V121.094H268.033V116.671H277.705V111.419H262.501V135.951Z" fill="black"/>
<path d="M283.005 135.951H288.259V123.201H294.069V118.675H288.259V117.708C288.259 116.222 289.233 115.22 290.764 115.22C291.703 115.22 292.295 115.531 292.817 115.807L294.73 111.557C293.791 111.108 292.295 110.521 290.068 110.521C285.267 110.521 283.005 113.941 283.005 117.708V118.675H278.83V123.201H283.005V135.951Z" fill="black"/>
<path d="M316.23 136.366C320.266 136.366 324.128 135.226 326.355 132.738V121.094H316.126V126.242H320.962V129.87C319.883 130.699 318.109 131.045 316.16 131.045C311.324 131.045 308.367 127.831 308.367 123.685C308.367 119.712 311.359 116.325 315.812 116.325C318.631 116.325 320.649 117.466 322.04 118.951L325.937 115.185C323.571 112.559 320.231 111.004 315.812 111.004C308.158 111.004 302.8 116.706 302.8 123.685C302.8 130.872 308.541 136.366 316.23 136.366Z" fill="black"/>
<path d="M338.034 143C342.349 143 347.289 141.307 347.289 135.018V118.675H342.035V119.746C341.096 118.917 339.67 118.295 337.86 118.295C332.885 118.295 329.197 122.096 329.197 126.933C329.197 131.77 332.85 135.571 337.86 135.571C339.67 135.571 341.096 134.949 342.035 134.085V135.087C342.035 137.437 339.913 138.439 337.965 138.439C336.399 138.439 334.659 138.024 333.163 136.884L330.415 140.789C332.502 142.413 335.39 143 338.034 143ZM338.73 130.838C336.364 130.838 334.625 129.283 334.625 126.933C334.625 124.584 336.364 123.029 338.73 123.029C340.365 123.029 341.305 123.72 342.035 124.653V129.179C341.305 130.146 340.365 130.838 338.73 130.838Z" fill="black"/>
<path d="M359.879 135.951H365.411V126.242H375.362V135.951H380.894V111.419H375.362V121.025H365.411V111.419H359.879V135.951Z" fill="black"/>
<path d="M390.537 135.951V124.618C391.268 123.685 392.555 123.029 393.912 123.029C395.965 123.029 396.87 124.653 396.87 127.002V135.951H402.123V126.104C402.123 121.439 399.583 118.295 395.06 118.295C393.216 118.295 391.616 118.917 390.537 119.919V110.728H385.284V135.951H390.537Z" fill="black"/>
<path d="M414.481 135.951H420.013V111.419H414.481V135.951Z" fill="black"/>
<path d="M427.069 117.017C428.913 117.017 430.374 115.565 430.374 113.769C430.374 111.972 428.913 110.521 427.069 110.521C425.294 110.521 423.798 111.972 423.798 113.769C423.798 115.565 425.294 117.017 427.069 117.017ZM424.459 135.951H429.713V118.675H424.459V135.951Z" fill="black"/>
<path d="M444.701 136.366C448.633 136.366 452.495 134.224 452.495 129.248V111.419H446.963V128.903C446.963 130.527 445.815 131.252 444.458 131.252C443.449 131.252 442.475 130.838 441.57 130.008L438.508 134.085C439.657 135.122 441.535 136.366 444.701 136.366Z" fill="black"/>
<path d="M455.519 142.827C459.311 142.827 462.303 140.72 462.303 136.297V118.675H457.05V135.433C457.05 137.506 456.18 138.335 454.788 138.335C454.092 138.335 453.223 138.163 452.422 137.748L451.205 141.998C452.04 142.378 453.849 142.827 455.519 142.827ZM459.659 117.017C461.503 117.017 462.965 115.565 462.965 113.769C462.965 111.972 461.503 110.521 459.659 110.521C457.885 110.521 456.389 111.972 456.389 113.769C456.389 115.565 457.885 117.017 459.659 117.017Z" fill="black"/>
<path d="M490.444 135.951H497.542L485.817 123.201L495.559 111.419H488.774L480.389 121.681V111.419H474.892V135.951H480.389V124.964L490.444 135.951Z" fill="black"/>
<path d="M510.526 135.951H516.893L508.961 126.484L515.362 118.675H509.135L504.055 124.86V110.728H498.801V135.951H504.055V128.246L510.526 135.951Z" fill="black"/>
<path d="M525.891 135.951H541.653V130.699H531.424V111.419H525.891V135.951Z" fill="black"/>
<path d="M544.466 135.951H549.72V110.728H544.466V135.951Z" fill="black"/>
<path d="M562.315 135.951H567.847V121.854L573.275 130.699H576.893L582.251 121.923V135.951H587.818V111.419H582.773L575.049 123.927L567.36 111.419H562.315V135.951Z" fill="black"/>
<path d="M613.95 135.951H619.204V126.173C619.204 121.888 617.082 118.295 611.932 118.295C609.184 118.295 607.34 119.332 606.331 120.403C605.113 119.055 603.513 118.295 601.46 118.295C599.929 118.295 598.259 118.951 597.424 119.884V118.675H592.17V135.951H597.424V124.584C597.981 123.72 599.164 123.098 600.312 123.098C602.399 123.098 603.06 124.86 603.06 127.106V135.951H608.314V126.173C608.314 125.689 608.279 125.205 608.175 124.756C608.836 123.685 609.984 123.098 611.202 123.098C613.289 123.098 613.95 124.86 613.95 127.106V135.951Z" fill="black"/>
<path d="M653.897 135.951V111.419H648.33V126.588L636.327 111.419H631.56V135.951H637.092V120.783L649.13 135.951H653.897Z" fill="black"/>
<path d="M658.256 135.951H663.509V124.618C664.24 123.685 665.527 123.029 666.884 123.029C668.937 123.029 669.842 124.653 669.842 127.002V135.951H675.095V126.104C675.095 121.439 672.555 118.295 668.032 118.295C666.188 118.295 664.588 118.917 663.509 119.919V118.675H658.256V135.951Z" fill="black"/>
<path d="M698.83 131.045C694.794 131.045 691.628 127.659 691.628 123.685C691.628 119.712 694.794 116.325 698.83 116.325C702.831 116.325 705.997 119.712 705.997 123.685C705.997 127.659 702.831 131.045 698.83 131.045ZM698.83 136.366C705.858 136.366 711.599 130.665 711.599 123.685C711.599 116.706 705.858 111.004 698.83 111.004C691.767 111.004 686.061 116.706 686.061 123.685C686.061 130.665 691.767 136.366 698.83 136.366Z" fill="black"/>
<path d="M723.035 136.331C728.045 136.331 732.186 132.392 732.186 127.313C732.186 122.234 728.045 118.295 723.035 118.295C718.025 118.295 713.885 122.234 713.885 127.313C713.885 132.392 718.025 136.331 723.035 136.331ZM723.035 131.459C720.809 131.459 719.173 129.801 719.173 127.313C719.173 124.825 720.809 123.167 723.035 123.167C725.262 123.167 726.897 124.825 726.897 127.313C726.897 129.801 725.262 131.459 723.035 131.459Z" fill="black"/>
<path d="M760.768 119.815C760.768 115.082 757.045 111.419 752.07 111.419H743.685V135.951H749.217V128.177H752.07C757.045 128.177 760.768 124.549 760.768 119.815ZM755.41 119.815C755.41 121.612 753.983 123.029 752 123.029H749.217V116.602H752C753.983 116.602 755.41 117.984 755.41 119.815Z" fill="black"/>
<path d="M763.483 142.654H768.736V134.846C769.676 135.709 771.068 136.331 772.842 136.331C777.991 136.331 781.401 132.151 781.401 127.313C781.401 122.476 777.991 118.295 772.842 118.295C771.068 118.295 769.676 118.917 768.736 119.746V118.675H763.483V142.654ZM772.042 131.598C770.406 131.598 769.467 130.907 768.736 129.939V124.653C769.467 123.72 770.406 123.029 772.042 123.029C774.408 123.029 775.973 124.998 775.973 127.313C775.973 129.628 774.408 131.598 772.042 131.598Z" fill="black"/>
<path d="M804.363 136.366C807.25 136.366 809.86 135.468 811.982 133.844L814.94 136.228L818.071 132.392L815.322 130.181C816.47 128.246 817.132 126.069 817.132 123.685C817.132 116.706 811.391 111.004 804.363 111.004C797.3 111.004 791.594 116.706 791.594 123.685C791.594 130.665 797.3 136.366 804.363 136.366ZM804.363 131.045C800.327 131.045 797.161 127.659 797.161 123.685C797.161 119.712 800.327 116.325 804.363 116.325C808.364 116.325 811.53 119.712 811.53 123.685C811.53 124.756 811.286 125.689 810.904 126.622L807.181 123.616L804.049 127.417L807.564 130.25C806.555 130.768 805.511 131.045 804.363 131.045Z" fill="black"/>
<path d="M832.491 142.654H837.744V118.675H832.491V119.746C831.551 118.917 830.16 118.295 828.385 118.295C823.236 118.295 819.826 122.476 819.826 127.313C819.826 132.151 823.236 136.331 828.385 136.331C830.16 136.331 831.551 135.709 832.491 134.846V142.654ZM829.185 131.598C826.82 131.598 825.254 129.628 825.254 127.313C825.254 124.998 826.82 123.029 829.185 123.029C830.821 123.029 831.76 123.72 832.491 124.653V129.939C831.76 130.907 830.821 131.598 829.185 131.598Z" fill="black"/>
<path d="M850.339 135.951H855.871V125.827H856.741L864.986 135.951H871.632L862.899 125.136C866.065 124.031 867.735 121.992 867.735 118.813C867.735 114.771 864.743 111.419 860.081 111.419H850.339V135.951ZM855.871 121.163V116.464H859.42C861.055 116.464 862.238 117.328 862.238 118.813C862.238 120.23 861.055 121.163 859.42 121.163H855.871Z" fill="black"/>
<path d="M872.923 135.951H878.177V125.033C879.046 123.823 880.682 123.478 881.899 123.478C882.63 123.478 883.222 123.582 883.361 123.685L884.161 118.813C883.778 118.675 882.978 118.468 882.039 118.468C880.264 118.468 878.733 119.401 878.177 120.61V118.675H872.923V135.951Z" fill="black"/>
<path d="M901.442 136.366C906.592 136.366 910.28 133.256 910.28 128.799C910.315 125.102 907.983 122.752 904.4 121.474L902.66 120.852C900.016 119.919 898.833 119.366 898.833 118.019C898.833 116.74 900.329 116.153 901.825 116.153C903.391 116.153 904.957 116.809 906.105 118.191L909.723 114.391C907.392 111.903 904.783 111.004 901.756 111.004C896.85 111.004 893.231 113.803 893.231 118.571C893.231 121.923 895.423 124.307 899.459 125.655L901.199 126.242C903.704 127.071 904.643 127.935 904.643 129.179C904.643 130.388 903.495 131.218 901.651 131.218C899.842 131.218 897.754 130.181 896.537 128.419L892.292 131.978C894.24 134.742 897.511 136.366 901.442 136.366Z" fill="black"/>
<path d="M919.34 136.331C923.132 136.331 926.125 133.913 926.125 130.596C926.125 127.52 924.176 125.966 921.01 125.136L919.41 124.722C918.053 124.342 917.948 123.858 917.948 123.478C917.948 122.821 918.714 122.579 919.375 122.579C920.384 122.579 921.323 122.96 922.123 123.962L925.533 121.163C924.141 119.262 922.089 118.295 919.41 118.295C915.582 118.295 912.834 120.403 912.729 123.616C912.625 126.38 914.33 128.488 917.67 129.283L918.818 129.559C920.627 130.008 920.94 130.319 920.94 130.907C920.94 131.598 920.14 131.874 919.34 131.874C917.705 131.874 916.383 131.218 915.582 130.077L912.103 133.222C913.738 135.329 916.278 136.331 919.34 136.331Z" fill="black"/>
<path d="M941.094 135.951H946.661V116.671H953.028V111.419H934.797V116.671H941.094V135.951Z" fill="black"/>
<path d="M963.323 136.159C965.098 136.159 967.22 135.571 968.02 135.122L966.455 130.872C965.933 131.149 964.958 131.425 964.089 131.425C962.314 131.425 961.479 130.63 961.479 128.557V123.201H966.698V118.675H961.479V113.423H956.226V118.675H952.05V123.201H956.226V129.628C956.226 134.051 959.148 136.159 963.323 136.159Z" fill="black"/>
<path d="M988.483 136.366C994.433 136.366 998.643 132.358 998.643 126.242V111.419H993.111V126.311C993.111 129.248 991.267 131.045 988.483 131.045C985.7 131.045 983.856 129.248 983.856 126.311V111.419H978.324V126.242C978.324 132.358 982.534 136.366 988.483 136.366Z" fill="black"/>
<path d="M1018.83 118.675H1013.57V130.008C1012.77 131.01 1011.59 131.598 1010.65 131.598C1008.46 131.598 1007.62 129.974 1007.62 127.624V118.675H1002.37V128.523C1002.37 133.187 1004.91 136.331 1009.54 136.331C1010.89 136.331 1012.5 135.779 1013.57 134.777V135.951H1018.83V118.675Z" fill="black"/>
<path d="M1037.93 135.951H1042.91L1053.03 111.419H1046.94L1040.4 127.762L1033.83 111.419H1027.81L1037.93 135.951Z" fill="black"/>
<path d="M1059.86 135.951H1064.73L1072.35 118.675H1066.5L1062.26 129.179L1058.05 118.675H1052.24L1059.86 135.951Z" fill="black"/>
<path d="M1086.54 135.951H1091.51L1096.42 119.815L1101.36 135.951H1106.37L1114.06 111.419H1108.14L1103.65 127.071L1098.85 111.419H1093.98L1089.18 127.037L1084.69 111.419H1078.85L1086.54 135.951Z" fill="black"/>
<path d="M1131.23 135.951H1136.52L1142.22 118.675H1136.58L1133.56 129.283L1130.25 118.675H1126.22L1122.91 129.283L1119.88 118.675H1114.25L1119.99 135.951H1125.28L1128.23 126.829L1131.23 135.951Z" fill="black"/>
<path d="M1155.06 135.951L1161.15 127.831L1167.27 135.951H1173.71L1164.49 123.547L1173.15 111.419H1166.75L1161.15 119.297L1155.55 111.419H1149.15L1157.84 123.547L1148.59 135.951H1155.06Z" fill="black"/>
<path d="M1187.14 135.951H1193.41L1186.76 127.59L1193.37 118.675H1187.11L1183.42 123.72L1179.73 118.675H1173.54L1180.15 127.59L1173.47 135.951H1179.77L1183.45 131.252L1187.14 135.951Z" fill="black"/>
<path d="M1209.74 135.951H1215.3V125.655L1224.31 111.419H1217.88L1212.48 120.264L1207.16 111.419H1200.72L1209.74 125.62V135.951Z" fill="black"/>
<path d="M1231.62 142.654L1242.2 118.675H1236.42L1232.14 129.352L1227.83 118.675H1222.09L1229.33 134.949L1225.95 142.654H1231.62Z" fill="black"/>
<path d="M1250.53 135.951H1269.59V130.699H1258.01L1269.38 115.185V111.419H1250.7V116.671H1261.87L1250.53 132.185V135.951Z" fill="black"/>
<path d="M1272.2 135.951H1286.92V131.252H1279.02L1286.64 122.787V118.675H1272.31V123.374H1279.82L1272.2 131.874V135.951Z" fill="black"/>
<path d="M1307.09 136.331C1312.58 136.331 1316.41 132.185 1316.41 126.518V120.817C1316.41 115.151 1312.58 111.004 1307.09 111.004C1301.52 111.004 1297.73 115.151 1297.73 120.817V126.518C1297.73 132.185 1301.52 136.331 1307.09 136.331ZM1307.09 131.183C1304.62 131.183 1302.98 129.455 1302.98 126.518V120.817C1302.98 117.88 1304.62 116.153 1307.09 116.153C1309.49 116.153 1311.16 117.88 1311.16 120.817V126.518C1311.16 129.455 1309.49 131.183 1307.09 131.183Z" fill="black"/>
<path d="M1323.29 135.951H1328.55V111.419H1318.74V116.567H1323.29V135.951Z" fill="black"/>
<path d="M1332.58 135.951H1349.56V130.803H1340.55L1345.32 126.242C1347.65 124.031 1349.32 121.992 1349.32 118.433C1349.32 113.423 1345.7 111.004 1341.49 111.004C1336.93 111.004 1333.52 113.596 1332.41 118.157L1337.49 119.401C1338.04 117.638 1339.4 116.153 1341.25 116.153C1343.05 116.153 1344.1 117.362 1344.1 118.71C1344.1 120.092 1343.3 121.025 1342.22 122.096L1332.58 131.356V135.951Z" fill="black"/>
<path d="M1360.87 136.366C1366.16 136.366 1369.64 133.222 1369.64 128.246C1369.64 124.411 1367.59 121.232 1363.41 120.679L1368.49 115.496V111.419H1353.64V116.464H1361.5L1357.32 120.714V124.998H1360.6C1362.82 124.998 1364.39 126.277 1364.39 128.246C1364.39 129.905 1363.38 131.218 1361.01 131.218C1358.93 131.218 1357.5 129.905 1356.84 128.108L1351.79 130.077C1352.8 133.913 1356.91 136.366 1360.87 136.366Z" fill="black"/>
<path d="M1383.74 135.951H1389V130.63H1392.16V125.862H1389V111.419H1384.27L1371.67 126.415V130.63H1383.74V135.951ZM1378.07 125.862L1383.74 119.124V125.862H1378.07Z" fill="black"/>
<path d="M1403.77 136.331C1409.06 136.331 1412.54 133.291 1412.54 128.177C1412.54 123.201 1409.65 119.712 1404.71 119.712C1403.49 119.712 1402 120.023 1401.06 120.679V116.464H1410.83V111.419H1395.8V126.242H1400.74C1401.19 125.136 1402.45 124.411 1403.87 124.411C1405.86 124.411 1407.28 125.966 1407.28 127.797C1407.28 129.732 1406.14 131.183 1403.77 131.183C1401.68 131.183 1400.29 129.87 1399.63 128.073L1394.62 130.008C1395.63 133.844 1399.7 136.331 1403.77 136.331Z" fill="black"/>
<path d="M1423.74 136.331C1429.13 136.331 1432.43 132.634 1432.43 127.797C1432.43 122.96 1428.68 120.264 1425.27 119.988L1431.32 111.419H1424.85L1417.96 121.163C1416.01 123.962 1415.04 125.309 1415.04 127.762C1415.04 132.634 1418.34 136.331 1423.74 136.331ZM1423.74 131.321C1421.68 131.321 1420.33 129.801 1420.33 127.866C1420.33 125.931 1421.68 124.411 1423.74 124.411C1425.72 124.411 1427.15 125.931 1427.15 127.866C1427.15 129.801 1425.72 131.321 1423.74 131.321Z" fill="black"/>
<path d="M1440.87 135.951L1452.21 115.945V111.419H1434.71V116.464H1445.98L1434.92 135.951H1440.87Z" fill="black"/>
<path d="M1462.99 136.331C1467.97 136.331 1471.9 133.049 1471.9 128.384C1471.9 125.724 1470.82 123.823 1468.9 122.614C1470.19 121.405 1470.92 119.712 1470.92 117.742C1470.92 113.872 1467.83 111.004 1462.99 111.004C1458.15 111.004 1455.06 113.872 1455.06 117.742C1455.06 119.746 1455.72 121.37 1457.04 122.614C1455.13 123.823 1454.08 125.724 1454.08 128.384C1454.08 133.049 1457.95 136.331 1462.99 136.331ZM1462.99 131.529C1460.76 131.529 1459.51 129.905 1459.51 128.246C1459.51 126.588 1460.76 124.964 1462.99 124.964C1465.18 124.964 1466.47 126.588 1466.47 128.246C1466.47 129.905 1465.18 131.529 1462.99 131.529ZM1462.99 120.852C1461.35 120.852 1460.14 119.746 1460.14 118.226C1460.14 116.706 1461.35 115.6 1462.99 115.6C1464.63 115.6 1465.84 116.706 1465.84 118.226C1465.84 119.746 1464.63 120.852 1462.99 120.852Z" fill="black"/>
<path d="M1475.68 135.951H1482.15L1489.08 126.173C1490.99 123.443 1492 121.992 1492 119.573C1492 114.702 1488.69 111.004 1483.3 111.004C1477.91 111.004 1474.6 114.702 1474.6 119.539C1474.6 124.411 1478.29 127.106 1481.74 127.382L1475.68 135.951ZM1483.3 122.925C1481.32 122.925 1479.89 121.405 1479.89 119.47C1479.89 117.535 1481.32 116.015 1483.3 116.015C1485.35 116.015 1486.71 117.535 1486.71 119.47C1486.71 121.405 1485.35 122.925 1483.3 122.925Z" fill="black"/>
<path d="M0.243548 84.4306H3.58363L6.71496 77.2783H18.2313L21.4322 84.4306H24.8071L13.8474 59.8984H11.1684L0.243548 84.4306ZM12.4557 64.252L16.944 74.3758H8.00229L12.4557 64.252Z" fill="black"/>
<path d="M34.9312 84.7761C37.1927 84.7761 39.2107 84.016 40.6024 82.5302V84.4306H43.5945V67.1544H40.6024V69.0548C39.2107 67.569 37.1927 66.8089 34.9312 66.8089C29.7471 66.8089 26.1634 70.886 26.1634 75.7925C26.1634 80.6989 29.7471 84.7761 34.9312 84.7761ZM35.1747 82.0465C31.6955 82.0465 29.26 79.2477 29.26 75.7925C29.26 72.3373 31.6955 69.5385 35.1747 69.5385C37.7842 69.5385 39.5934 70.7478 40.6024 72.3718V79.1786C39.5934 80.8026 37.7842 82.0465 35.1747 82.0465Z" fill="black"/>
<path d="M58.0764 84.4306H66.9137C71.9238 84.4306 75.1943 81.3554 75.1943 77.2783C75.1943 73.9958 73.3155 72.2681 70.9148 71.4043C72.4805 70.4369 73.5591 68.8475 73.5591 66.3942C73.5591 62.939 70.7756 59.8984 66.183 59.8984H58.0764V84.4306ZM61.3121 81.5282V73.2011H67.0876C70.3929 73.2011 72.0282 74.9978 72.0282 77.3819C72.0282 79.8351 70.3929 81.5282 67.0528 81.5282H61.3121ZM61.3121 70.4369V62.8008H66.183C68.8273 62.8008 70.3929 64.5629 70.3929 66.6361C70.3929 68.8475 68.8273 70.4369 66.183 70.4369H61.3121Z" fill="black"/>
<path d="M88.1347 84.7761C93.3188 84.7761 96.9024 80.6989 96.9024 75.7925C96.9024 70.886 93.3188 66.8089 88.1347 66.8089C85.908 66.8089 83.89 67.569 82.4635 69.0548V59.2073H79.4713V84.4306H82.4635V82.5302C83.89 84.016 85.908 84.7761 88.1347 84.7761ZM87.8911 82.0465C85.2817 82.0465 83.4725 80.8026 82.4635 79.1786V72.3718C83.4725 70.7478 85.2817 69.5385 87.8911 69.5385C91.3704 69.5385 93.8059 72.3373 93.8059 75.7925C93.8059 79.2477 91.3704 82.0465 87.8911 82.0465Z" fill="black"/>
<path d="M121.091 84.8452C125.823 84.8452 129.79 82.5302 132.016 78.9022L129.302 77.2783C127.598 80.0424 124.71 81.8046 121.091 81.8046C115.699 81.8046 111.593 77.5547 111.593 72.1645C111.593 66.7743 115.699 62.5244 121.091 62.5244C124.71 62.5244 127.598 64.2865 129.302 67.0507L132.016 65.4268C129.79 61.7988 125.823 59.4837 121.091 59.4837C113.994 59.4837 108.323 65.0812 108.323 72.1645C108.323 79.2477 113.994 84.8452 121.091 84.8452Z" fill="black"/>
<path d="M143.598 84.7761C147.217 84.7761 150.104 82.9103 151.635 80.1461L149.026 78.6949C148.052 80.6644 146.103 82.0119 143.598 82.0119C139.98 82.0119 137.509 79.2477 137.509 75.7925C137.509 72.3373 139.98 69.5731 143.598 69.5731C146.103 69.5731 148.052 70.9206 149.026 72.8901L151.635 71.4389C150.104 68.6747 147.217 66.8089 143.598 66.8089C138.31 66.8089 134.482 70.7824 134.482 75.7925C134.482 80.8026 138.31 84.7761 143.598 84.7761Z" fill="black"/>
<path d="M164.357 84.4306H171.454C179.039 84.4306 184.606 79.1786 184.606 72.1645C184.606 65.1503 179.039 59.8984 171.454 59.8984H164.357V84.4306ZM167.592 81.4245V62.9044H171.454C177.404 62.9044 181.335 66.8089 181.335 72.1645C181.335 77.5201 177.404 81.4245 171.454 81.4245H167.592Z" fill="black"/>
<path d="M196.39 84.7761C198.652 84.7761 200.67 84.016 202.062 82.5302V84.4306H205.054V59.2073H202.062V69.0548C200.67 67.569 198.652 66.8089 196.39 66.8089C191.206 66.8089 187.623 70.886 187.623 75.7925C187.623 80.6989 191.206 84.7761 196.39 84.7761ZM196.634 82.0465C193.155 82.0465 190.719 79.2477 190.719 75.7925C190.719 72.3373 193.155 69.5385 196.634 69.5385C199.243 69.5385 201.053 70.7478 202.062 72.3718V79.1786C201.053 80.8026 199.243 82.0465 196.634 82.0465Z" fill="black"/>
<path d="M219.536 84.4306H233.94V81.39H222.771V73.4084H231.852V70.3678H222.771V62.939H233.94V59.8984H219.536V84.4306Z" fill="black"/>
<path d="M245.561 84.7761C249.179 84.7761 251.824 83.1867 253.389 80.6644L251.023 79.0404C249.945 80.8717 248.275 82.0465 245.596 82.0465C242.151 82.0465 239.681 79.5933 239.577 76.3799H253.842C253.876 75.9998 253.876 75.7925 253.876 75.4815C253.876 69.9531 250.119 66.8089 245.596 66.8089C240.272 66.8089 236.55 70.7133 236.55 75.7925C236.55 80.8717 240.133 84.7761 245.561 84.7761ZM239.785 73.9612C240.342 71.0934 242.882 69.4348 245.491 69.4348C248.136 69.4348 250.362 71.1279 250.815 73.9612H239.785Z" fill="black"/>
<path d="M266.968 84.4306H270.203V73.4084H279.006V70.3678H270.203V62.939H281.337V59.8984H266.968V84.4306Z" fill="black"/>
<path d="M286.469 84.4306H289.461V69.884H295.376V67.1544H289.461V64.8048C289.461 62.9044 290.435 61.7296 292.21 61.7296C293.184 61.7296 294.054 62.1097 294.576 62.3516L295.689 59.8638C294.889 59.4492 293.741 59 292.071 59C288.591 59 286.469 61.2114 286.469 64.6321V67.1544H282.364V69.884H286.469V84.4306Z" fill="black"/>
<path d="M318.104 84.8452C321.826 84.8452 325.549 83.7396 327.811 81.39V70.4023H317.686V73.4084H324.679V79.9733C323.044 81.2518 320.504 81.8046 318.104 81.8046C311.98 81.8046 308.049 77.5892 308.049 72.1645C308.049 66.7743 312.085 62.5244 317.686 62.5244C320.783 62.5244 323.044 63.5955 324.819 65.2194L326.976 62.9044C324.645 60.6931 321.583 59.4837 317.686 59.4837C310.31 59.4837 304.813 65.0812 304.813 72.1645C304.813 79.3514 310.31 84.8452 318.104 84.8452Z" fill="black"/>
<path d="M340.045 91.4793C344.742 91.4793 348.744 88.9224 348.744 83.394V67.1544H345.751V69.0548C344.36 67.569 342.307 66.8089 340.08 66.8089C334.966 66.8089 331.278 70.6787 331.278 75.5161C331.278 80.3534 334.931 84.2578 340.08 84.2578C342.307 84.2578 344.36 83.4977 345.751 81.9774V83.2904C345.751 87.1603 342.794 88.7842 340.045 88.7842C337.54 88.7842 335.662 87.8513 334.27 86.2273L332.217 88.3005C333.713 90.1318 336.462 91.4793 340.045 91.4793ZM340.324 81.4937C336.879 81.4937 334.374 78.9368 334.374 75.5161C334.374 72.1645 336.845 69.5385 340.324 69.5385C342.933 69.5385 344.742 70.7478 345.751 72.3718V78.6604C344.742 80.2843 342.933 81.4937 340.324 81.4937Z" fill="black"/>
<path d="M363.225 84.4306H366.46V73.3738H379.995V84.4306H383.23V59.8984H379.995V70.3678H366.46V59.8984H363.225V84.4306Z" fill="black"/>
<path d="M392.233 84.4306V72.9592C392.929 70.9206 394.564 69.5385 397.034 69.5385C399.713 69.5385 401.383 71.2316 401.383 74.2722V84.4306H404.341V73.823C404.341 69.5039 401.627 66.8089 397.73 66.8089C395.503 66.8089 393.45 67.569 392.233 69.3312V59.2073H389.241V84.4306H392.233Z" fill="black"/>
<path d="M418.573 84.4306H421.809V59.8984H418.573V84.4306Z" fill="black"/>
<path d="M429.369 63.2154C430.587 63.2154 431.492 62.317 431.492 61.1077C431.492 59.9675 430.587 59 429.369 59C428.152 59 427.212 59.9675 427.212 61.1077C427.212 62.317 428.152 63.2154 429.369 63.2154ZM427.838 84.4306H430.831V67.1544H427.838V84.4306Z" fill="black"/>
<path d="M447.325 84.8452C451.187 84.8452 454.144 82.6339 454.144 77.7274V59.8984H450.909V77.5892C450.909 80.7335 449.482 81.8737 447.255 81.8737C445.342 81.8737 444.194 81.0445 443.185 79.9042L441.062 82.1502C442.315 83.6359 444.402 84.8452 447.325 84.8452Z" fill="black"/>
<path d="M458.208 91.3066C460.887 91.3066 463.183 89.6135 463.183 86.02V67.1544H460.191V85.6745C460.191 87.8859 459.147 88.6115 457.93 88.6115C457.095 88.6115 456.608 88.4387 456.225 88.3005L455.564 90.8228C455.981 91.0647 457.234 91.3066 458.208 91.3066ZM461.722 63.2154C462.94 63.2154 463.844 62.317 463.844 61.1077C463.844 59.9675 462.94 59 461.722 59C460.504 59 459.565 59.9675 459.565 61.1077C459.565 62.317 460.504 63.2154 461.722 63.2154Z" fill="black"/>
<path d="M494.011 84.4306H498.569L484.13 71.5771L495.89 59.8984H491.68L480.894 70.5405V59.8984H477.694V84.4306H480.894V72.7519L494.011 84.4306Z" fill="black"/>
<path d="M513.004 84.4306H517.04L506.568 74.7905L515.127 67.1544H511.16L503.576 73.8921V59.2073H500.583V84.4306H503.576V75.7925L513.004 84.4306Z" fill="black"/>
<path d="M527.504 84.4306H542.673V81.39H530.74V59.8984H527.504V84.4306Z" fill="black"/>
<path d="M546.079 84.4306H549.071V59.2073H546.079V84.4306Z" fill="black"/>
<path d="M563.588 84.4306H566.823V66.0833L574.582 78.2457H576.878L584.637 66.1178V84.4306H587.838V59.8984H584.881L575.695 74.2722L566.545 59.8984H563.588V84.4306Z" fill="black"/>
<path d="M616.257 84.4306H619.249V73.823C619.249 69.5731 616.883 66.8089 612.743 66.8089C610.516 66.8089 608.29 67.6036 606.898 69.6422C605.819 67.8454 604.01 66.8089 601.818 66.8089C599.974 66.8089 598.061 67.4654 596.843 68.9857V67.1544H593.851V84.4306H596.843V72.5791C597.504 70.7824 599.035 69.5385 601.122 69.5385C603.593 69.5385 605.054 71.3698 605.054 74.3067V84.4306H608.046V73.823C608.046 73.512 608.011 73.2356 607.976 72.9246C608.637 70.886 610.099 69.5385 612.291 69.5385C614.796 69.5385 616.257 71.3698 616.257 74.3067V84.4306Z" fill="black"/>
<path d="M654.528 84.4306V59.8984H651.327V79.0059L636.297 59.8984H633.478V84.4306H636.714V65.3231L651.745 84.4306H654.528Z" fill="black"/>
<path d="M660.582 84.4306H663.574V72.9592C664.27 70.9206 665.905 69.5385 668.375 69.5385C671.054 69.5385 672.724 71.2316 672.724 74.2722V84.4306H675.682V73.823C675.682 69.5039 672.968 66.8089 669.071 66.8089C666.844 66.8089 664.792 67.569 663.574 69.3312V67.1544H660.582V84.4306Z" fill="black"/>
<path d="M700.978 81.8046C695.586 81.8046 691.48 77.5547 691.48 72.1645C691.48 66.7743 695.586 62.5244 700.978 62.5244C706.406 62.5244 710.512 66.7743 710.512 72.1645C710.512 77.5547 706.406 81.8046 700.978 81.8046ZM700.978 84.8452C708.111 84.8452 713.747 79.2477 713.747 72.1645C713.747 65.0812 708.111 59.4837 700.978 59.4837C693.881 59.4837 688.21 65.0812 688.21 72.1645C688.21 79.2477 693.881 84.8452 700.978 84.8452Z" fill="black"/>
<path d="M725.897 84.7761C731.116 84.7761 734.978 80.7681 734.978 75.7925C734.978 70.8169 731.116 66.8089 725.897 66.8089C720.608 66.8089 716.781 70.8169 716.781 75.7925C716.781 80.7681 720.608 84.7761 725.897 84.7761ZM725.897 82.0119C722.278 82.0119 719.843 79.2477 719.843 75.7925C719.843 72.3373 722.278 69.5731 725.897 69.5731C729.515 69.5731 731.916 72.3373 731.916 75.7925C731.916 79.2477 729.515 82.0119 725.897 82.0119Z" fill="black"/>
<path d="M764.157 67.7072C764.157 63.2845 760.816 59.8984 755.667 59.8984H748.117V84.4306H751.353V75.4815H755.667C760.816 75.4815 764.157 72.1299 764.157 67.7072ZM760.956 67.7072C760.956 70.4369 759.077 72.51 755.667 72.51H751.353V62.9044H755.667C759.077 62.9044 760.956 64.9776 760.956 67.7072Z" fill="black"/>
<path d="M767.813 91.1338H770.806V82.5302C772.232 84.016 774.25 84.7761 776.477 84.7761C781.661 84.7761 785.244 80.6989 785.244 75.7925C785.244 70.886 781.661 66.8089 776.477 66.8089C774.25 66.8089 772.232 67.569 770.806 69.0548V67.1544H767.813V91.1338ZM776.233 82.0465C773.624 82.0465 771.814 80.8026 770.806 79.1786V72.3718C771.814 70.7478 773.624 69.5385 776.233 69.5385C779.712 69.5385 782.148 72.3373 782.148 75.7925C782.148 79.2477 779.712 82.0465 776.233 82.0465Z" fill="black"/>
<path d="M809.433 84.8452C812.356 84.8452 815.07 83.9123 817.192 82.2884L819.871 84.707L821.854 82.4957L819.349 80.2152C821.124 78.0039 822.202 75.3088 822.202 72.1645C822.202 65.0812 816.566 59.4837 809.433 59.4837C802.336 59.4837 796.665 65.0812 796.665 72.1645C796.665 79.2477 802.336 84.8452 809.433 84.8452ZM809.433 81.8046C804.04 81.8046 799.935 77.5547 799.935 72.1645C799.935 66.7743 804.04 62.5244 809.433 62.5244C814.861 62.5244 818.967 66.7743 818.967 72.1645C818.967 74.4104 818.236 76.449 817.018 78.073L812.947 74.3067L810.964 76.5181L814.896 80.1461C813.33 81.2518 811.486 81.8046 809.433 81.8046Z" fill="black"/>
<path d="M839.947 91.1338H842.94V67.1544H839.947V69.0548C838.556 67.569 836.538 66.8089 834.276 66.8089C829.092 66.8089 825.509 70.886 825.509 75.7925C825.509 80.6989 829.092 84.7761 834.276 84.7761C836.538 84.7761 838.556 84.016 839.947 82.5302V91.1338ZM834.52 82.0465C831.041 82.0465 828.605 79.2477 828.605 75.7925C828.605 72.3373 831.041 69.5385 834.52 69.5385C837.129 69.5385 838.938 70.7478 839.947 72.3718V79.1786C838.938 80.8026 837.129 82.0465 834.52 82.0465Z" fill="black"/>
<path d="M857.421 84.4306H860.657V73.2702H863.058L872.556 84.4306H876.627L867.094 73.2356C870.956 72.6828 873.217 70.2641 873.217 66.6706C873.217 62.628 870.434 59.8984 865.841 59.8984H857.421V84.4306ZM860.657 70.4023V62.8699H865.459C868.277 62.8699 869.982 64.1829 869.982 66.6706C869.982 69.1584 868.277 70.4023 865.459 70.4023H860.657Z" fill="black"/>
<path d="M879.054 84.4306H882.046V73.2356C882.742 71.0588 884.621 69.9186 886.396 69.9186C886.917 69.9186 887.37 69.9531 887.892 70.1259L888.274 67.1544C887.822 67.0507 887.335 66.9816 886.743 66.9816C884.656 66.9816 882.708 68.2946 882.046 69.7113V67.1544H879.054V84.4306Z" fill="black"/>
<path d="M906.096 84.8452C910.688 84.8452 913.994 82.1847 913.994 78.0384C913.994 74.4104 911.941 72.3373 908.218 70.9552L905.261 69.8149C902.721 68.882 901.538 67.9491 901.538 65.8759C901.538 63.8373 903.556 62.4898 905.991 62.4898C908.114 62.4898 909.61 63.4227 910.897 64.9085L913.228 62.8353C911.732 60.8658 909.158 59.4837 906.061 59.4837C901.642 59.4837 898.302 62.0061 898.302 66.0141C898.302 69.3657 900.042 71.3698 903.939 72.7864L907.209 74.0303C909.54 74.8941 910.758 76.2071 910.758 78.1766C910.758 80.4571 908.775 81.8392 906.165 81.8392C903.382 81.8392 901.399 80.5607 900.042 78.4876L897.467 80.4225C898.685 82.9449 902.06 84.8452 906.096 84.8452Z" fill="black"/>
<path d="M923.484 84.7761C926.963 84.7761 929.538 82.9103 929.538 79.5933C929.538 76.9673 927.833 75.447 924.806 74.5141L922.892 73.9267C920.944 73.3393 920.422 72.51 920.422 71.4389C920.422 70.1604 921.814 69.3657 923.31 69.3657C924.98 69.3657 926.128 70.2296 926.928 71.3352L929.155 69.8149C928.007 67.88 926.023 66.8089 923.414 66.8089C920.109 66.8089 917.43 68.6056 917.43 71.5425C917.43 73.9958 918.891 75.7579 921.779 76.5872L923.518 77.14C925.78 77.8311 926.545 78.5912 926.545 79.8351C926.545 81.3209 925.188 82.1502 923.518 82.1502C921.57 82.1502 919.761 81.1827 919.1 79.4205L916.664 80.7681C917.743 83.4977 920.387 84.7761 923.484 84.7761Z" fill="black"/>
<path d="M946.593 84.4306H949.759V62.939H957.448V59.8984H938.904V62.939H946.593V84.4306Z" fill="black"/>
<path d="M966.108 84.6034C967.883 84.6034 969.135 84.1887 969.866 83.8087L968.961 81.2863C968.439 81.5973 967.604 81.9428 966.456 81.9428C964.891 81.9428 963.673 81.1481 963.673 78.9368V69.884H969.066V67.1544H963.673V62.2479H960.681V67.1544H956.297V69.884H960.681V79.3168C960.681 82.9103 963.186 84.6034 966.108 84.6034Z" fill="black"/>
<path d="M991.307 84.8452C997.013 84.8452 1000.98 81.0099 1000.98 74.8941V59.8984H997.743V74.9632C997.743 79.386 995.203 81.8046 991.307 81.8046C987.41 81.8046 984.87 79.386 984.87 74.9632V59.8984H981.634V74.8941C981.634 81.0099 985.601 84.8452 991.307 84.8452Z" fill="black"/>
<path d="M1020.87 67.1544H1017.88V78.6258C1017.15 80.6644 1015.52 82.0465 1013.29 82.0465C1010.68 82.0465 1009.12 80.3534 1009.12 77.3128V67.1544H1006.12V77.762C1006.12 82.081 1008.8 84.7761 1012.63 84.7761C1014.58 84.7761 1016.67 84.016 1017.88 82.2538V84.4306H1020.87V67.1544Z" fill="black"/>
<path d="M1041.82 84.4306H1044.54L1055.04 59.8984H1051.53L1043.18 79.4205L1034.86 59.8984H1031.28L1041.82 84.4306Z" fill="black"/>
<path d="M1063.2 84.4306H1065.71L1073.74 67.1544H1070.4L1064.45 80.2498L1058.5 67.1544H1055.16L1063.2 84.4306Z" fill="black"/>
<path d="M1089.02 84.4306H1091.88L1098.14 65.1503L1104.4 84.4306H1107.22L1114.95 59.8984H1111.5L1105.66 78.7986L1099.5 59.8984H1096.71L1090.59 78.7986L1084.71 59.8984H1081.34L1089.02 84.4306Z" fill="black"/>
<path d="M1133.07 84.4306H1135.72L1141.63 67.1544H1138.47L1134.26 79.766L1129.91 67.1544H1127.61L1123.26 79.766L1119.05 67.1544H1115.92L1121.84 84.4306H1124.48L1128.76 72.0263L1133.07 84.4306Z" fill="black"/>
<path d="M1153.31 84.4306L1160.86 74.6177L1168.45 84.4306H1172.38L1162.88 72.0263L1172 59.8984H1168.14L1160.86 69.4694L1153.59 59.8984H1149.73L1158.88 72.0263L1149.35 84.4306H1153.31Z" fill="black"/>
<path d="M1187.02 84.4306H1190.71L1183.58 75.6888L1190.16 67.1544H1186.5L1181.74 73.4084L1176.94 67.1544H1173.32L1179.86 75.6888L1172.73 84.4306H1176.45L1181.74 77.9002L1187.02 84.4306Z" fill="black"/>
<path d="M1208.29 84.4306H1211.49V74.0649L1221.13 59.8984H1217.27L1209.89 70.8169L1202.55 59.8984H1198.69L1208.29 74.0303V84.4306Z" fill="black"/>
<path d="M1227.43 91.1338L1238.6 67.1544H1235.26L1229.31 80.2843L1223.33 67.1544H1220.02L1227.64 83.5322L1224.09 91.1338H1227.43Z" fill="black"/>
<path d="M1247.57 84.4306H1265.59V81.39H1251.85L1265.24 62.0406V59.8984H1247.95V62.939H1260.96L1247.57 82.2884V84.4306Z" fill="black"/>
<path d="M1268.16 84.4306H1282.29V81.701H1272.02L1281.97 69.5385V67.1544H1268.3V69.884H1278.11L1268.16 82.081V84.4306Z" fill="black"/>
<path d="M1302.83 84.7761C1307.91 84.7761 1311.6 81.0099 1311.6 75.5506V68.7092C1311.6 63.2845 1307.91 59.4837 1302.83 59.4837C1297.72 59.4837 1294.1 63.2845 1294.1 68.7092V75.5506C1294.1 81.0099 1297.72 84.7761 1302.83 84.7761ZM1302.83 81.8737C1299.49 81.8737 1297.09 79.5242 1297.09 75.5506V68.7092C1297.09 64.7357 1299.49 62.3861 1302.83 62.3861C1306.21 62.3861 1308.61 64.7012 1308.61 68.7092V75.5506C1308.61 79.5587 1306.21 81.8737 1302.83 81.8737Z" fill="black"/>
<path d="M1318.25 84.4306H1321.24V59.8984H1314.84V62.8353H1318.25V84.4306Z" fill="black"/>
<path d="M1325.85 84.4306H1342V81.5628H1330.41L1337.44 74.8941C1340.05 72.4064 1341.68 69.9877 1341.68 66.8434C1341.68 62.5244 1338.41 59.4837 1334.1 59.4837C1329.92 59.4837 1326.76 62.2479 1326.1 66.0141L1329.09 66.6361C1329.47 64.252 1331.52 62.3861 1333.99 62.3861C1336.6 62.3861 1338.66 64.3556 1338.66 66.9816C1338.66 69.2275 1337.02 71.197 1335.39 72.7519L1325.85 81.9428V84.4306Z" fill="black"/>
<path d="M1353.3 84.7761C1358.31 84.7761 1361.72 81.4591 1361.72 77.0018C1361.72 72.821 1358.86 69.4694 1354.24 69.2966L1360.57 62.3516V59.8984H1345.99V62.8008H1356.57L1350.3 69.6076V72.0608H1353.23C1356.46 72.0608 1358.69 73.8576 1358.69 77.0018C1358.69 79.8697 1356.22 81.8737 1353.33 81.8737C1350.37 81.8737 1348.29 80.1807 1347.63 77.7274L1344.6 78.764C1345.54 82.4957 1349.4 84.7761 1353.3 84.7761Z" fill="black"/>
<path d="M1377.14 84.4306H1380.13V77.762H1383.54V74.9632H1380.13V59.8984H1377.53L1363.99 75.3779V77.762H1377.14V84.4306ZM1367.89 74.9632L1377.14 64.3902V74.9632H1367.89Z" fill="black"/>
<path d="M1395.1 84.7761C1399.69 84.7761 1403.24 81.3209 1403.24 77.0018C1403.24 72.199 1400.01 68.5019 1395.38 68.5019C1393.19 68.5019 1391.45 69.3312 1390.51 70.2641V62.8008H1401.61V59.8984H1387.52V73.4429H1390.58C1391.45 72.0954 1393.05 71.3352 1395 71.3352C1398.06 71.3352 1400.18 73.6848 1400.18 76.6218C1400.18 79.5242 1398.02 81.8737 1395.1 81.8737C1392.14 81.8737 1390.02 80.1116 1389.43 77.7274L1386.4 78.764C1387.31 82.4266 1391.21 84.7761 1395.1 84.7761Z" fill="black"/>
<path d="M1414.29 84.7761C1419.12 84.7761 1422.64 81.1481 1422.64 76.6218C1422.64 72.3373 1419.05 68.7092 1414.91 68.7092C1414.53 68.7092 1414.25 68.7438 1413.94 68.7783L1421.49 59.8984H1417.7L1408.68 70.4369C1407.15 72.2336 1405.9 74.0994 1405.9 76.6909C1405.9 81.1481 1409.45 84.7761 1414.29 84.7761ZM1414.29 81.9083C1411.22 81.9083 1408.96 79.5242 1408.96 76.6218C1408.96 73.7193 1411.22 71.3352 1414.29 71.3352C1417.28 71.3352 1419.57 73.7193 1419.57 76.6218C1419.57 79.5242 1417.28 81.9083 1414.29 81.9083Z" fill="black"/>
<path d="M1429.48 84.4306L1441.24 62.3861V59.8984H1425.02V62.8008H1437.65L1426.14 84.4306H1429.48Z" fill="black"/>
<path d="M1451.43 84.7761C1456.3 84.7761 1459.71 81.5282 1459.71 77.0709C1459.71 74.134 1458.32 71.8881 1455.85 70.6787C1457.41 69.5731 1458.35 67.88 1458.35 65.8068C1458.35 62.1097 1455.5 59.4837 1451.43 59.4837C1447.43 59.4837 1444.47 62.1097 1444.47 65.8068C1444.47 67.88 1445.45 69.5731 1447.01 70.6787C1444.54 71.8881 1443.11 74.134 1443.11 77.0709C1443.11 81.5282 1446.59 84.7761 1451.43 84.7761ZM1451.43 81.9428C1448.19 81.9428 1446.14 79.766 1446.14 77.0709C1446.14 74.3067 1448.19 72.1645 1451.43 72.1645C1454.77 72.1645 1456.68 74.3067 1456.68 77.0709C1456.68 79.766 1454.77 81.9428 1451.43 81.9428ZM1451.43 69.5039C1448.99 69.5039 1447.43 67.8109 1447.43 65.8759C1447.43 63.8028 1449.03 62.2825 1451.43 62.2825C1453.93 62.2825 1455.4 63.8028 1455.4 65.8759C1455.4 67.8109 1453.93 69.5039 1451.43 69.5039Z" fill="black"/>
<path d="M1463.93 84.4306H1467.76L1476.8 73.823C1478.33 72.0263 1479.59 70.1604 1479.59 67.569C1479.59 63.1117 1476 59.4837 1471.2 59.4837C1466.37 59.4837 1462.85 63.1117 1462.85 67.6727C1462.85 71.9226 1466.44 75.5506 1470.58 75.5506C1470.89 75.5506 1471.17 75.5506 1471.55 75.5161L1463.93 84.4306ZM1471.2 72.9246C1468.17 72.9246 1465.91 70.5405 1465.91 67.6381C1465.91 64.7357 1468.17 62.3516 1471.2 62.3516C1474.26 62.3516 1476.53 64.7357 1476.53 67.6381C1476.53 70.5405 1474.26 72.9246 1471.2 72.9246Z" fill="black"/>
</svg>
