<?xml version="1.0" encoding="utf-8"?>
<!-- Generator: Adobe Illustrator 27.0.0, SVG Export Plug-In . SVG Version: 6.00 Build 0)  -->
<svg version="1.0" id="Calque_1" xmlns="http://www.w3.org/2000/svg" xmlns:xlink="http://www.w3.org/1999/xlink" x="0px" y="0px"
	 viewBox="0 0 800 400" style="enable-background:new 0 0 800 400;" xml:space="preserve">
<style type="text/css">
	.st0{fill:#1D1D1B;}
	.st1{fill:#fff;}
	.st2{fill:#fff;}
</style>
<rect class="st0" width="800" height="400"/>
<g>
	<g>
		<g>
			<path class="st1" d="M320.8,207c0-10.4,7.3-19.3,18.3-19.3c4.1,0,7.3,1.4,9.5,3.5V173h10.1v52.6h-10.1v-2.7
				c-2.1,2.1-5.4,3.6-9.5,3.6C328.2,226.4,320.8,217.4,320.8,207z M348.6,213V201c-1.7-2.3-4.1-4-8-4c-5.6,0-9.3,4.6-9.3,10.1
				c0,5.5,3.7,10.1,9.3,10.1C344.5,217.1,346.9,215.4,348.6,213z"/>
			<path class="st1" d="M368.5,188.5h10.1v37h-10.1V188.5z"/>
			<path class="st1" d="M388.4,188.5h10.1v3.1c2.4-2.6,5.9-3.9,10.1-3.9c9.3,0,14.8,6.6,14.8,16.4v21.5h-10.1v-19.8
				c0-5.3-2.2-8.8-6.9-8.8c-3.5,0-6.3,1.8-7.8,4.2v24.4h-10.1V188.5z"/>
			<path class="st1" d="M430.4,207c0-10.4,7.3-19.3,18.3-19.3c4.1,0,7.3,1.4,9.5,3.5v-2.7h10.1v37h-10.1v-2.7
				c-2.1,2.1-5.4,3.6-9.5,3.6C437.8,226.4,430.4,217.4,430.4,207z M458.2,213V201c-1.7-2.3-4.1-4-8-4c-5.6,0-9.3,4.6-9.3,10.1
				c0,5.5,3.7,10.1,9.3,10.1C454.1,217.1,456.5,215.4,458.2,213z"/>
			<path class="st1" d="M524.8,206c0-5.1-1.7-9-6.4-9c-3,0-5.7,1.7-7.1,4.4c0.2,1,0.3,1.9,0.3,2.8v21.3h-10.1V206c0-5.1-1.7-9-6.4-9
				c-2.9,0-5.6,1.6-6.8,3.9v24.6h-10.1v-37h10.1v2.9c2-2.3,5.6-3.7,9-3.7c4.4,0,7.8,1.9,10.4,4.9c2.3-2.7,6.4-4.9,12.1-4.9
				c10.4,0,15.1,7.3,15.1,16.5v21.3h-10.1V206z"/>
			<path class="st1" d="M541.8,207c0-10.8,8.7-19.3,19.5-19.3c10.7,0,19.5,8.5,19.5,19.3c0,10.9-8.7,19.3-19.5,19.3
				C550.5,226.4,541.8,217.9,541.8,207z M570.4,207c0-5.7-3.9-9.8-9.2-9.8c-5.3,0-9.3,4.1-9.3,9.8c0,5.7,3.9,9.8,9.3,9.8
				C566.5,216.9,570.4,212.7,570.4,207z"/>
		</g>
	</g>
	<rect x="335.5" y="167.3" class="st1" width="23.3" height="9.1"/>
	<path class="st2" d="M367.1,177.5c0-3.6,3-6.4,6.4-6.4c3.6,0,6.5,2.9,6.5,6.4c0,3.6-2.9,6.4-6.5,6.4
		C370.1,183.9,367.1,181,367.1,177.5z"/>
	<path class="st2" d="M238.8,226.4c-5,0-10-1.9-13.8-5.7c-7.6-7.6-7.6-20.1,0-27.7c7.6-7.6,20.1-7.6,27.7,0c7.6,7.6,7.6,20.1,0,27.7
		C248.9,224.5,243.9,226.4,238.8,226.4z M238.8,197.5c-2.4,0-4.8,0.9-6.6,2.7c-3.6,3.6-3.6,9.5,0,13.2c3.6,3.6,9.5,3.6,13.2,0
		c3.6-3.6,3.6-9.5,0-13.2C243.6,198.4,241.2,197.5,238.8,197.5z"/>
	<path class="st2" d="M277.3,200.2l-18-18c-2.4-2.4-6.3-2.4-8.7,0c-2.4,2.4-2.4,6.3,0,8.7l2.1,2.1l-7.3,7.3l-2.1-2.1
		c-6.4-6.4-6.4-16.8,0-23.2c6.4-6.4,16.8-6.4,23.2,0l18,18L277.3,200.2z"/>
	<path class="st2" d="M286,226.4c-5,0-10-1.9-13.9-5.7c-7.6-7.6-7.6-20.1,0-27.7c7.6-7.6,20.1-7.6,27.7,0c7.6,7.6,7.6,20.1,0,27.7
		l0,0C296.1,224.5,291,226.4,286,226.4z M286,197.5c-2.4,0-4.8,0.9-6.6,2.7c-3.6,3.6-3.6,9.5,0,13.2c3.6,3.6,9.5,3.6,13.2,0
		c3.6-3.6,3.6-9.5,0-13.2C290.8,198.4,288.4,197.5,286,197.5z"/>
	<path class="st2" d="M266.8,148.6c-2.4,0-4.8,0.9-6.6,2.7c-3.6,3.6-3.6,9.5,0,13.2c1.8,1.8,4.1,2.7,6.6,2.7c2.5,0,4.8-1,6.6-2.7h0
		c3.6-3.6,3.6-9.5,0-13.2C271.5,149.5,269.1,148.6,266.8,148.6z"/>
</g>
</svg>
