<?xml version="1.0" encoding="utf-8"?>
<!-- Generator: Adobe Illustrator 26.0.3, SVG Export Plug-In . SVG Version: 6.00 Build 0)  -->
<svg version="1.1" xmlns="http://www.w3.org/2000/svg" xmlns:xlink="http://www.w3.org/1999/xlink" x="0px" y="0px"
	 viewBox="0 0 1190.6 841.9" style="enable-background:new 0 0 1190.6 841.9;" xml:space="preserve">
<style type="text/css">
	.st0{fill:#FFFFFF;}
	.st1{display:none;}
	.st2{display:inline;}
	.st3{font-family:'PxGrotesk-Light';}
	.st4{font-size:12.3907px;}
	.st5{display:inline;fill:#FFFFFF;}
</style>
<g id="Calque_1">
	<rect y="-1.5" width="1190.6" height="841.9"/>
	<path class="st0" d="M937.4,382.1l-3.1,8.6c-6.6-2-16.8-3.9-27.5-1.1c-7.3,1.9-11.3,5.1-14.8,7.9c-3.4,2.7-6.3,5.1-12.1,6.6
		c-4.7,1-8.3,0.9-12.1,0.7c-5.2-0.3-11-0.6-20,2.3c-9.8,3.2-13.5,8.9-16.5,13.5c-3.1,4.7-4.9,7.6-12.6,7.6
		c-9.2,0-13.9-3.7-13.9-10.9c0-9.2,5.9-15,18.1-17.7c5.8-1.3,13.6-0.8,21.9-0.2c9.6,0.7,19.6,1.3,28.1-0.8c7.9-1.9,12.8-9.6,11-17.4
		c-1.4-6.2-6.1-10.4-12.7-11.5l-2.9,6.7c3,0.1,7.7,1.1,8.8,6.3c0.9,4.1-1.7,8.1-5.9,9.1c-7.5,1.8-16.9,1.2-26,0.6
		c-8.8-0.6-17-1.2-23.8,0.4c-19.5,4.3-23.6,15.7-23.6,24.5c0,11.2,7.8,17.9,20.9,17.9c11.5,0,15.2-5.7,18.5-10.7
		c2.7-4.2,5.3-8.2,12.8-10.6c7.8-2.5,12.5-2.3,17.5-2c4.1,0.2,8.3,0.4,14-0.8l0.1,0c7.3-1.9,11.3-5.1,14.8-7.9
		c3.4-2.7,6.3-5.1,12.1-6.6c10.9-2.8,21.4,0.1,26.7,2l3.3,1.2l2.5-7l18.6,11.7l-2.6,7.5c-1-0.3-1.9-0.5-2.9-0.7h0
		c-2.3-0.7-5.4-1.3-9.3-1.3c-17.8,0-40.9,7.5-57.2,25.5h16.8h8.4h5.6c6.8-10.4,15.6-16.4,25-17.7c0,0,0,0,0,0
		c5.3-0.6,9.8,0,14.5,1.8l3.4,1.3l6.8-19.4L937.4,382.1z"/>
	<path class="st0" d="M571.6,380.6l-9.5-0.4c-12.9,4.4-28.7,9.4-21.7,16.2c8.4,8.1,17.4,5.3,22.9,12.2c4.2,5.2-24.3,21.4-38.4,26.1
		h72.6c0,0,8.6-15.7-0.6-26.4c-11.6-13.5-36.8-13.4-42-16.2C547.8,388.3,571.6,380.6,571.6,380.6"/>
	<path class="st0" d="M419.7,387.8l11.1,3.2c1.1,0.3,2.1,0.9,2.9,1.8l7.6,8.2c1.5,1.6,2,3.8,1.4,6c-0.6,2.1-2.2,3.7-4.3,4.3
		l-31.9,9.1c-1.1,0.3-1.5,1.1-1.7,1.5c-0.2,0.4-0.4,1.3,0.2,2.3c0.4,0.7,1.2,1.2,2,1.3l19,2c0.6,0.1,1.2-0.1,1.7-0.4l25.9-16.4
		l0.5-0.1c2-0.6,3.8-1.5,5.5-2.7l-35.5-32.2L419.7,387.8z M426.3,434.6c-0.3,0-0.7,0-1-0.1l-19-2c-3.1-0.3-5.9-2.1-7.5-4.9
		c-1.5-2.6-1.7-5.8-0.6-8.6c1.1-2.8,3.5-4.9,6.4-5.8l30.4-8.7l-6.4-6.9l-11.8-3.4c-1.7-0.5-3.1-1.6-3.9-3.2c-0.8-1.6-0.9-3.4-0.3-5
		l5.3-14.3c0.7-2,2.4-3.4,4.4-3.9c2-0.5,4.2,0,5.7,1.4l37.3,33.8c1.4,1.2,2.1,3,2.1,4.8c0,1.8-0.9,3.5-2.3,4.7
		c-2.5,2-5.3,3.6-8.4,4.5l-25.1,15.8C429.9,434.1,428.1,434.6,426.3,434.6"/>
	<path class="st0" d="M435,385.6l-0.9-0.8l4.8-5.3l0.9,0.8L435,385.6z M436.8,387.2l-0.9-0.8l4.8-5.3l0.9,0.8L436.8,387.2z
		 M438.6,388.8l-0.9-0.8l4.8-5.3l0.9,0.8L438.6,388.8z"/>
	<path class="st0" d="M695.7,436c-3.6,0-7.2-0.7-10.8-2.2c-8.4-3.5-16-10.9-17.6-17.2c-0.9-3.6-0.2-7.6,1.9-10.9
		c2.4-3.9,6.1-6.3,10.2-6.7c4.2-0.4,8.4,1.4,11.6,4.9l4.6,5c1.9,2.1,7.7,5.9,12.5,5.9c1.8,0,3.1-0.5,4.2-1.6c0.8-0.8,1.1-1.9,1-3.3
		c-0.2-2.5-1.9-5.3-4.1-6.9c-4.4-3.2-8.4-3.6-12.6-4.1c-5.3-0.5-11.3-1.2-16.3-8.2l-2.2-3.1l6.3-4.5l2.2,3.1c3,4.2,5.9,4.5,10.8,5
		c4.5,0.5,10.2,1.1,16.3,5.5c4,2.9,6.8,7.7,7.2,12.4c0.3,3.6-0.8,6.9-3.1,9.3c-2.5,2.7-6,4-9.9,4c-7.2-0.1-14.9-5-18.1-8.4l-4.6-5
		c-1.6-1.7-3.5-2.6-5.2-2.4c-1.7,0.2-3.2,1.2-4.4,3.1c-1,1.6-1.4,3.4-1,4.9c0.8,3,5.9,9,13.1,12c4.1,1.7,10.2,3,16.3-0.6l3.3-2
		l3.9,6.6l-3.3,2C704.3,434.9,700,436,695.7,436z"/>
	<path class="st0" d="M671.5,384.8l10.9-8.5l3.7,4.7c2.3,3,1.8,7.3-1.2,9.7c-3,2.3-7.3,1.8-9.7-1.2L671.5,384.8z"/>
	<rect x="677.7" y="374" transform="matrix(0.7899 -0.6132 0.6132 0.7899 -89.3995 495.6671)" class="st0" width="2" height="8.7"/>
	
		<rect x="673.2" y="377.5" transform="matrix(0.7899 -0.6132 0.6132 0.7899 -92.4949 493.6361)" class="st0" width="2" height="8.7"/>
	<g>
		<path class="st0" d="M368.1,405.4v-1.9h4.1v-4h1.9v4h4.1v1.9h-4.1v4h-1.9v-4H368.1z"/>
	</g>
	<g>
		<path class="st0" d="M492.9,405.4v-1.9h4.1v-4h1.9v4h4.1v1.9h-4.1v4H497v-4H492.9z"/>
	</g>
	<g>
		<path class="st0" d="M623.7,405.4v-1.9h4.1v-4h1.9v4h4.1v1.9h-4.1v4h-1.9v-4H623.7z"/>
	</g>
	<g>
		<path class="st0" d="M754.5,403.5v-1.9h10v1.9H754.5z M754.5,407.2v-1.9h10v1.9H754.5z"/>
	</g>
	<path class="st0" d="M261.9,418.9c-0.1,0.6-0.2,1.3-0.3,2c-2,0.4-4.1,0.7-5.8,1C258,420.8,260.1,419.8,261.9,418.9 M350.1,387.6
		c-0.5-0.6-3-2.7-3.2-3.1c-0.3-0.4,0.1-1.2-0.6-1.8c-1.3-1.3-7.7-3.3-17.2-2.3c-3.5,0.4-5.1,1.3-9,2.1c-3.9,0.8-5.3,1.6-7.9,2.3
		c-2.5,0.7-4.6,2.2-6,2.6c-0.5,0.2-6.9,2.6-13.8,6c-4.2,2.1-8.1,4.6-12.5,6.9c-1.6,0.8-3,1.5-4.3,2.1c-1.2,0.4-2.8,1.1-5,2.2
		c-0.6,0.3-1.2,0.7-1.8,1c-0.7,0.4-1.4,0.9-2.1,1.5c-1,0.7-1.9,1.4-2.6,1.8c-1.9,1.2-8.2,5.8-9.6,7c-1.4,1.2-5.2,3.2-7.6,4.8
		c-2.4,1.6-6.2,4.4-8.1,5.6c-1.9,1.2-4.5,2.9-7.5,3.3c-3,0.3-4.4-1.6-6.4-1.4c-1.5,0.2-2.1,0.9-2,2c0.2,1.5,3.1,4.6,8,4.1
		c6.1-0.7,8.2-4.2,13-6.8c0.7-0.4,1.5-0.8,2.3-1.2c0.6,0.5,1.4,0.8,2.5,1.1c1.8,0.6,11.8,0.6,16.8,0.2c0.1,0,0.1,0,0.2,0
		c0.1,0,0.1,0,0.2,0c0.2,0,0.4,0,0.5-0.1c0.9-0.1,1.9-0.4,2.8-0.8c4.6-1.8,6.7-5.9,8.6-9.9c0.5-1,1.1-1.9,1.6-2.8
		c1.7-1.1,3.5-2,5.5-2.2c5.1-0.5,5.1,0.8,12.3,0c3.1-0.3,6.6-1.2,9.9-2.5c0.7,0.4,1.5,0.5,2.4,0.5c0.1,0,0.1,0,0.2,0
		c0.3,0,0.7,0,1-0.1c2.8-0.3,13.3-5.6,16.4-6.1c1.4-0.2,2.2-0.1,2.8,0c0.2,0.1,0.4,0.2,0.5,0.6c0.2,0.5,1.3,1.7,2.5,2.5
		c0.6,0.7,1.4,1,2.3,0.9c0.5,0,1-0.2,1.4-0.6c0.7-0.6,1.1-1.4,1-2.4c0-0.4-0.2-0.9-0.4-1.2c0,0,0,0,0,0c-0.8-2.1-5.7-5.3-6.8-5.4
		c0,0,0,0,0,0c-1.3-0.4-3.1-0.6-5.6-0.3c-0.5,0.1-1,0.1-1.4,0.3c2.5-2.5,4.8-4.5,8.5-4.8c5.9-0.6,8,2.1,8.3,2.5
		c0.4,0.4,1.2,1.6,2.2,1.5c1-0.1,2.5-1.3,2.5-1.7c0-0.3-0.2-0.6-0.5-0.8c0,0,0.2-1,0.2-1l-0.8,0.6c-1-0.8-2.2-1.4-2.3-2.8
		c-0.2-1.7,0.5-2.8,1.3-2.9c0.9-0.1,2.5,0.8,2.7,2.6c0.2,1.7-0.4,2-0.4,2l1.1-0.6c0,0,1.5,0.1,2.3-0.8c0.8-0.9,1.7-2.3,2-2.8
		C351,388.8,350.5,388.2,350.1,387.6"/>
</g>
<g id="Calque_2" class="st1">
	<text transform="matrix(1 0 0 1 551.7734 454.7578)" class="st2"><tspan x="0" y="0" class="st0 st3 st4">R</tspan><tspan x="7.2" y="0" class="st0 st3 st4">oute</tspan></text>
	<text transform="matrix(1 0 0 1 543.249 467.2129)" class="st5 st3 st4">sinueuse</text>
	<text transform="matrix(1 0 0 1 437.6533 454.7578)" class="st5 st3 st4">Circuit</text>
	<text transform="matrix(1 0 0 1 424.5439 467.2129)" class="st5 st3 st4">automobile</text>
	<text transform="matrix(1 0 0 1 311.21 454.7578)" class="st5 st3 st4">Jaguar</text>
	<text transform="matrix(1 0 0 1 664.3691 454.7578)" class="st5 st3 st4">Câble</text>
	<text transform="matrix(1 0 0 1 653.125 467.2129)" class="st5 st3 st4">électrique</text>
	<text transform="matrix(1 0 0 1 299.96 467.2129)" class="st5 st3 st4">bondissant</text>
</g>
<g id="Calque_3">
	<g>
		<path class="st0" d="M546.2,460v-9.8h3.7c1,0,1.7,0.2,2.1,0.7c0.4,0.5,0.6,1.1,0.6,2c0,0.9-0.2,1.5-0.6,2s-1,0.7-1.7,0.8l2.3,4.3
			h-1.1l-2.3-4.3h-2.1v4.3H546.2z M547.2,454.8h3c0.4,0,0.7-0.1,1-0.3c0.3-0.2,0.4-0.5,0.4-1v-1.2c0-0.4-0.1-0.7-0.4-0.9
			c-0.3-0.2-0.6-0.3-1-0.3h-3V454.8z"/>
		<path class="st0" d="M554,456.3c0-0.6,0.1-1.1,0.2-1.5s0.3-0.9,0.6-1.2c0.3-0.3,0.6-0.6,1-0.8c0.4-0.2,0.9-0.3,1.4-0.3
			c0.5,0,1,0.1,1.4,0.3c0.4,0.2,0.7,0.5,1,0.8c0.3,0.3,0.5,0.7,0.6,1.2s0.2,1,0.2,1.5c0,0.6-0.1,1.1-0.2,1.5s-0.3,0.9-0.6,1.2
			c-0.3,0.3-0.6,0.6-1,0.8c-0.4,0.2-0.9,0.3-1.4,0.3s-1-0.1-1.4-0.3c-0.4-0.2-0.7-0.5-1-0.8c-0.3-0.3-0.5-0.7-0.6-1.2
			S554,456.9,554,456.3z M555,457.4c0,0.3,0.1,0.5,0.2,0.8c0.1,0.2,0.3,0.4,0.5,0.6c0.2,0.2,0.4,0.3,0.7,0.4
			c0.3,0.1,0.5,0.1,0.8,0.1c0.3,0,0.6,0,0.9-0.1c0.3-0.1,0.5-0.2,0.7-0.4c0.2-0.2,0.3-0.4,0.5-0.6c0.1-0.2,0.2-0.5,0.2-0.8v-2.2
			c0-0.3-0.1-0.5-0.2-0.8c-0.1-0.2-0.3-0.4-0.5-0.6c-0.2-0.2-0.4-0.3-0.7-0.4c-0.3-0.1-0.5-0.1-0.9-0.1c-0.3,0-0.6,0-0.8,0.1
			c-0.3,0.1-0.5,0.2-0.7,0.4c-0.2,0.2-0.3,0.4-0.5,0.6c-0.1,0.2-0.2,0.5-0.2,0.8V457.4z"/>
		<path class="st0" d="M562.4,457.5v-4.9h0.9v4.7c0,0.6,0.1,1.1,0.3,1.4c0.2,0.4,0.6,0.5,1.3,0.5c0.3,0,0.6-0.1,0.8-0.2
			c0.3-0.1,0.5-0.3,0.7-0.5c0.2-0.2,0.3-0.5,0.4-0.8c0.1-0.3,0.2-0.6,0.2-1v-4.2h0.9v7.3H567v-1.3c-0.2,0.5-0.5,0.8-0.9,1.1
			s-0.8,0.4-1.4,0.4c-0.3,0-0.7,0-0.9-0.1c-0.3-0.1-0.5-0.2-0.7-0.5c-0.2-0.2-0.4-0.5-0.5-0.8C562.5,458.4,562.4,458,562.4,457.5z"
			/>
		<path class="st0" d="M569.7,453.5v-0.8h1.2v-2.5h0.9v2.5h1.8v0.8h-1.8v5.7h1.8v0.8h-2.7v-6.5H569.7z"/>
		<path class="st0" d="M575.1,456.3c0-0.6,0.1-1.1,0.2-1.5s0.3-0.9,0.6-1.2c0.3-0.3,0.6-0.6,0.9-0.8c0.4-0.2,0.8-0.3,1.3-0.3
			c0.5,0,0.9,0.1,1.3,0.3c0.4,0.2,0.7,0.4,0.9,0.8c0.3,0.3,0.4,0.7,0.6,1.1c0.1,0.4,0.2,0.9,0.2,1.3v0.6h-5v0.8
			c0,0.3,0.1,0.6,0.2,0.8c0.1,0.2,0.3,0.4,0.5,0.6c0.2,0.2,0.4,0.3,0.7,0.4c0.2,0.1,0.5,0.1,0.8,0.1c0.5,0,1-0.1,1.3-0.4
			c0.4-0.3,0.6-0.7,0.6-1.2h0.9c0,0.4-0.2,0.7-0.3,1c-0.2,0.3-0.4,0.6-0.6,0.8c-0.3,0.2-0.6,0.4-0.9,0.5c-0.3,0.1-0.7,0.2-1.1,0.2
			c-0.5,0-1-0.1-1.4-0.3c-0.4-0.2-0.7-0.5-0.9-0.8c-0.2-0.3-0.4-0.7-0.5-1.2C575.1,457.4,575.1,456.9,575.1,456.3z M576.1,455.8h4
			v-0.5c0-0.3-0.1-0.6-0.2-0.8c-0.1-0.2-0.2-0.4-0.4-0.6c-0.2-0.2-0.4-0.3-0.6-0.4c-0.2-0.1-0.5-0.1-0.8-0.1c-0.3,0-0.5,0-0.8,0.1
			c-0.2,0.1-0.5,0.2-0.6,0.4c-0.2,0.2-0.3,0.4-0.4,0.6c-0.1,0.2-0.2,0.5-0.2,0.8V455.8z"/>
	</g>
	<g>
		<path class="st0" d="M535.6,472.2h0.9c0,0.5,0.2,0.9,0.6,1.2c0.4,0.3,0.8,0.4,1.3,0.4c0.2,0,0.5,0,0.7-0.1
			c0.2-0.1,0.4-0.1,0.6-0.2c0.2-0.1,0.3-0.2,0.4-0.4c0.1-0.2,0.1-0.3,0.1-0.6c0-0.4-0.1-0.6-0.3-0.8c-0.2-0.2-0.6-0.3-1.1-0.5
			l-1.2-0.3c-0.5-0.1-1-0.3-1.3-0.6c-0.3-0.3-0.5-0.8-0.5-1.3c0-0.3,0.1-0.6,0.2-0.8s0.3-0.5,0.5-0.6c0.2-0.2,0.5-0.3,0.8-0.4
			c0.3-0.1,0.7-0.2,1-0.2c0.3,0,0.6,0,0.9,0.1c0.3,0.1,0.6,0.2,0.8,0.4c0.2,0.2,0.4,0.4,0.6,0.7c0.2,0.3,0.2,0.6,0.2,1H540
			c0-0.5-0.2-0.9-0.5-1.1c-0.3-0.2-0.7-0.3-1.2-0.3c-0.5,0-0.9,0.1-1.2,0.3c-0.3,0.2-0.5,0.5-0.5,0.9c0,0.4,0.1,0.6,0.3,0.8
			c0.2,0.2,0.5,0.3,0.8,0.4l1.2,0.3c0.7,0.1,1.2,0.4,1.6,0.7c0.4,0.3,0.5,0.8,0.5,1.4c0,0.3-0.1,0.6-0.2,0.9
			c-0.1,0.3-0.3,0.5-0.5,0.7c-0.2,0.2-0.5,0.3-0.9,0.4c-0.3,0.1-0.7,0.2-1.1,0.2c-0.4,0-0.8-0.1-1.1-0.2c-0.3-0.1-0.6-0.3-0.9-0.5
			c-0.2-0.2-0.4-0.5-0.6-0.8C535.7,472.9,535.6,472.6,535.6,472.2z"/>
		<path class="st0" d="M543.2,465.8v-1h1v1H543.2z M543.2,474.4v-7.3h0.9v7.3H543.2z"/>
		<path class="st0" d="M546.7,474.4v-7.3h0.9v1.3c0.2-0.5,0.5-0.8,0.9-1.1c0.4-0.3,0.8-0.4,1.4-0.4c0.4,0,0.7,0,1,0.1
			c0.3,0.1,0.5,0.2,0.7,0.5c0.2,0.2,0.4,0.5,0.5,0.8c0.1,0.3,0.2,0.7,0.2,1.2v4.9h-0.9v-4.7c0-0.6-0.1-1.1-0.4-1.4
			c-0.2-0.4-0.7-0.5-1.3-0.5c-0.3,0-0.6,0.1-0.8,0.2c-0.2,0.1-0.5,0.3-0.7,0.5c-0.2,0.2-0.3,0.5-0.4,0.8c-0.1,0.3-0.2,0.6-0.2,1v4.2
			H546.7z"/>
		<path class="st0" d="M554.7,472v-4.9h0.9v4.7c0,0.6,0.1,1.1,0.3,1.4c0.2,0.4,0.6,0.5,1.3,0.5c0.3,0,0.6-0.1,0.8-0.2
			c0.3-0.1,0.5-0.3,0.7-0.5c0.2-0.2,0.3-0.5,0.4-0.8c0.1-0.3,0.2-0.6,0.2-1v-4.2h0.9v7.3h-0.9v-1.3c-0.2,0.5-0.5,0.8-0.9,1.1
			c-0.4,0.3-0.8,0.4-1.4,0.4c-0.3,0-0.7,0-0.9-0.1c-0.3-0.1-0.5-0.2-0.7-0.5c-0.2-0.2-0.4-0.5-0.5-0.8
			C554.8,472.9,554.7,472.5,554.7,472z"/>
		<path class="st0" d="M562.4,470.8c0-0.6,0.1-1.1,0.2-1.5s0.3-0.9,0.6-1.2c0.3-0.3,0.6-0.6,0.9-0.8c0.4-0.2,0.8-0.3,1.3-0.3
			c0.5,0,0.9,0.1,1.3,0.3c0.4,0.2,0.7,0.4,0.9,0.8c0.3,0.3,0.4,0.7,0.6,1.1c0.1,0.4,0.2,0.9,0.2,1.3v0.6h-5v0.8
			c0,0.3,0.1,0.6,0.2,0.8c0.1,0.2,0.3,0.4,0.5,0.6c0.2,0.2,0.4,0.3,0.7,0.4c0.2,0.1,0.5,0.1,0.8,0.1c0.5,0,1-0.1,1.3-0.4
			c0.4-0.3,0.6-0.7,0.6-1.2h0.9c0,0.4-0.2,0.7-0.3,1c-0.2,0.3-0.4,0.6-0.6,0.8c-0.3,0.2-0.6,0.4-0.9,0.5c-0.3,0.1-0.7,0.2-1.1,0.2
			c-0.5,0-1-0.1-1.4-0.3c-0.4-0.2-0.7-0.5-0.9-0.8c-0.2-0.3-0.4-0.7-0.5-1.2C562.4,471.9,562.4,471.3,562.4,470.8z M563.4,470.2h4
			v-0.5c0-0.3-0.1-0.6-0.2-0.8c-0.1-0.2-0.2-0.4-0.4-0.6c-0.2-0.2-0.4-0.3-0.6-0.4c-0.2-0.1-0.5-0.1-0.8-0.1c-0.3,0-0.5,0-0.8,0.1
			c-0.2,0.1-0.5,0.2-0.6,0.4c-0.2,0.2-0.3,0.4-0.4,0.6c-0.1,0.2-0.2,0.5-0.2,0.8V470.2z"/>
		<path class="st0" d="M570.4,472v-4.9h0.9v4.7c0,0.6,0.1,1.1,0.3,1.4c0.2,0.4,0.6,0.5,1.3,0.5c0.3,0,0.6-0.1,0.8-0.2
			s0.5-0.3,0.7-0.5c0.2-0.2,0.3-0.5,0.4-0.8c0.1-0.3,0.2-0.6,0.2-1v-4.2h0.9v7.3H575v-1.3c-0.2,0.5-0.5,0.8-0.9,1.1
			c-0.4,0.3-0.8,0.4-1.4,0.4c-0.3,0-0.7,0-0.9-0.1c-0.3-0.1-0.5-0.2-0.7-0.5c-0.2-0.2-0.4-0.5-0.5-0.8
			C570.5,472.9,570.4,472.5,570.4,472z"/>
		<path class="st0" d="M578,472.2h0.9c0,0.5,0.2,0.9,0.6,1.2c0.4,0.3,0.8,0.4,1.3,0.4c0.2,0,0.5,0,0.7-0.1c0.2-0.1,0.4-0.1,0.6-0.2
			c0.2-0.1,0.3-0.2,0.4-0.4c0.1-0.2,0.1-0.3,0.1-0.6c0-0.4-0.1-0.6-0.3-0.8c-0.2-0.2-0.6-0.3-1.1-0.5L580,471
			c-0.5-0.1-1-0.3-1.3-0.6c-0.3-0.3-0.5-0.8-0.5-1.3c0-0.3,0.1-0.6,0.2-0.8s0.3-0.5,0.5-0.6c0.2-0.2,0.5-0.3,0.8-0.4
			c0.3-0.1,0.7-0.2,1-0.2c0.3,0,0.6,0,0.9,0.1c0.3,0.1,0.6,0.2,0.8,0.4c0.2,0.2,0.4,0.4,0.6,0.7c0.2,0.3,0.2,0.6,0.2,1h-0.9
			c0-0.5-0.2-0.9-0.5-1.1c-0.3-0.2-0.7-0.3-1.2-0.3c-0.5,0-0.9,0.1-1.2,0.3c-0.3,0.2-0.5,0.5-0.5,0.9c0,0.4,0.1,0.6,0.3,0.8
			c0.2,0.2,0.5,0.3,0.8,0.4l1.2,0.3c0.7,0.1,1.2,0.4,1.6,0.7c0.4,0.3,0.5,0.8,0.5,1.4c0,0.3-0.1,0.6-0.2,0.9
			c-0.1,0.3-0.3,0.5-0.5,0.7c-0.2,0.2-0.5,0.3-0.9,0.4c-0.3,0.1-0.7,0.2-1.1,0.2c-0.4,0-0.8-0.1-1.1-0.2c-0.3-0.1-0.6-0.3-0.9-0.5
			c-0.2-0.2-0.4-0.5-0.6-0.8C578.1,472.9,578,472.6,578,472.2z"/>
		<path class="st0" d="M585.2,470.8c0-0.6,0.1-1.1,0.2-1.5s0.3-0.9,0.6-1.2c0.3-0.3,0.6-0.6,0.9-0.8c0.4-0.2,0.8-0.3,1.3-0.3
			c0.5,0,0.9,0.1,1.3,0.3c0.4,0.2,0.7,0.4,0.9,0.8c0.3,0.3,0.4,0.7,0.6,1.1c0.1,0.4,0.2,0.9,0.2,1.3v0.6h-5v0.8
			c0,0.3,0.1,0.6,0.2,0.8c0.1,0.2,0.3,0.4,0.5,0.6c0.2,0.2,0.4,0.3,0.7,0.4c0.2,0.1,0.5,0.1,0.8,0.1c0.5,0,1-0.1,1.3-0.4
			c0.4-0.3,0.6-0.7,0.6-1.2h0.9c0,0.4-0.2,0.7-0.3,1c-0.2,0.3-0.4,0.6-0.6,0.8c-0.3,0.2-0.6,0.4-0.9,0.5c-0.3,0.1-0.7,0.2-1.1,0.2
			c-0.5,0-1-0.1-1.4-0.3c-0.4-0.2-0.7-0.5-0.9-0.8c-0.2-0.3-0.4-0.7-0.5-1.2C585.3,471.9,585.2,471.3,585.2,470.8z M586.2,470.2h4
			v-0.5c0-0.3-0.1-0.6-0.2-0.8c-0.1-0.2-0.2-0.4-0.4-0.6c-0.2-0.2-0.4-0.3-0.6-0.4c-0.2-0.1-0.5-0.1-0.8-0.1s-0.5,0-0.8,0.1
			c-0.2,0.1-0.5,0.2-0.6,0.4c-0.2,0.2-0.3,0.4-0.4,0.6c-0.1,0.2-0.2,0.5-0.2,0.8V470.2z"/>
	</g>
	<g>
		<path class="st0" d="M413.2,455.2c0-0.8,0.1-1.5,0.2-2.1c0.2-0.6,0.4-1.2,0.7-1.6c0.3-0.5,0.7-0.8,1.2-1.1s1.1-0.4,1.7-0.4
			c0.4,0,0.9,0.1,1.3,0.2c0.4,0.1,0.7,0.3,1,0.6c0.3,0.3,0.5,0.6,0.7,0.9c0.2,0.4,0.3,0.8,0.3,1.3h-1c0-0.4-0.1-0.7-0.3-0.9
			c-0.1-0.3-0.3-0.5-0.5-0.6c-0.2-0.2-0.5-0.3-0.7-0.4c-0.3-0.1-0.6-0.1-0.9-0.1c-0.4,0-0.8,0.1-1.1,0.2c-0.3,0.1-0.6,0.3-0.8,0.6
			c-0.2,0.2-0.4,0.5-0.5,0.9c-0.1,0.3-0.2,0.7-0.2,1.1v2.9c0,0.4,0.1,0.8,0.2,1.1c0.1,0.3,0.3,0.6,0.6,0.9c0.2,0.2,0.5,0.4,0.8,0.6
			c0.3,0.1,0.7,0.2,1,0.2c0.7,0,1.4-0.2,1.8-0.5c0.5-0.3,0.7-0.9,0.8-1.6h1c0,0.5-0.1,0.9-0.3,1.3c-0.2,0.4-0.4,0.7-0.7,1
			c-0.3,0.3-0.7,0.5-1.1,0.6c-0.4,0.1-0.9,0.2-1.4,0.2c-1.3,0-2.2-0.4-2.9-1.3C413.5,458.1,413.2,456.8,413.2,455.2z"/>
		<path class="st0" d="M422.6,451.3v-1h1v1H422.6z M422.6,460v-7.3h0.9v7.3H422.6z"/>
		<path class="st0" d="M426.1,460v-7.3h3.2v0.8H427v6.5H426.1z"/>
		<path class="st0" d="M430.6,456.3c0-0.6,0.1-1.1,0.2-1.6c0.1-0.5,0.3-0.9,0.6-1.2s0.6-0.6,0.9-0.8c0.4-0.2,0.8-0.3,1.3-0.3
			c0.4,0,0.7,0.1,1,0.2c0.3,0.1,0.6,0.3,0.8,0.5c0.2,0.2,0.4,0.5,0.6,0.8c0.2,0.3,0.2,0.7,0.3,1.1h-0.9c0-0.3-0.1-0.5-0.2-0.8
			c-0.1-0.2-0.3-0.4-0.4-0.5s-0.4-0.2-0.6-0.3c-0.2-0.1-0.4-0.1-0.7-0.1c-0.2,0-0.5,0-0.7,0.1c-0.2,0.1-0.4,0.2-0.6,0.4
			c-0.2,0.2-0.3,0.4-0.4,0.6c-0.1,0.2-0.2,0.5-0.2,0.8v2.1c0,0.3,0.1,0.5,0.2,0.8c0.1,0.2,0.2,0.4,0.4,0.6c0.2,0.2,0.4,0.3,0.6,0.4
			c0.2,0.1,0.5,0.2,0.8,0.2c0.3,0,0.5,0,0.7-0.1c0.2-0.1,0.4-0.2,0.6-0.3c0.2-0.1,0.3-0.3,0.4-0.5s0.2-0.5,0.2-0.7h0.9
			c0,0.4-0.2,0.8-0.3,1.1c-0.2,0.3-0.4,0.6-0.6,0.8c-0.3,0.2-0.5,0.4-0.9,0.5c-0.3,0.1-0.7,0.2-1,0.2c-0.5,0-1-0.1-1.3-0.3
			c-0.4-0.2-0.7-0.5-0.9-0.8c-0.2-0.3-0.4-0.7-0.5-1.2C430.7,457.4,430.6,456.9,430.6,456.3z"/>
		<path class="st0" d="M438.5,457.5v-4.9h0.9v4.7c0,0.6,0.1,1.1,0.3,1.4c0.2,0.4,0.6,0.5,1.3,0.5c0.3,0,0.6-0.1,0.8-0.2
			c0.3-0.1,0.5-0.3,0.7-0.5c0.2-0.2,0.3-0.5,0.4-0.8s0.2-0.6,0.2-1v-4.2h0.9v7.3h-0.9v-1.3c-0.2,0.5-0.5,0.8-0.9,1.1
			c-0.4,0.3-0.8,0.4-1.4,0.4c-0.3,0-0.7,0-0.9-0.1c-0.3-0.1-0.5-0.2-0.7-0.5c-0.2-0.2-0.4-0.5-0.5-0.8
			C438.5,458.4,438.5,458,438.5,457.5z"/>
		<path class="st0" d="M446.5,451.3v-1h1v1H446.5z M446.6,460v-7.3h0.9v7.3H446.6z"/>
		<path class="st0" d="M449.3,453.5v-0.8h1.2v-2.5h0.9v2.5h1.8v0.8h-1.8v5.7h1.8v0.8h-2.7v-6.5H449.3z"/>
	</g>
	<g>
		<path class="st0" d="M397.8,472.4c0-0.6,0.2-1,0.5-1.4c0.3-0.4,0.8-0.6,1.4-0.7l2.8-0.3v-0.7c0-0.3,0-0.6-0.1-0.8
			c-0.1-0.2-0.2-0.4-0.4-0.5c-0.1-0.1-0.3-0.2-0.5-0.3c-0.2-0.1-0.5-0.1-0.7-0.1c-0.5,0-0.9,0.1-1.2,0.4c-0.3,0.2-0.5,0.6-0.5,1.1
			h-0.9c0-0.3,0.1-0.7,0.2-0.9c0.1-0.3,0.3-0.5,0.5-0.7c0.2-0.2,0.5-0.4,0.8-0.5c0.3-0.1,0.7-0.2,1.1-0.2c0.4,0,0.7,0.1,1.1,0.2
			c0.3,0.1,0.6,0.3,0.8,0.5c0.2,0.2,0.4,0.5,0.5,0.8c0.1,0.3,0.2,0.7,0.2,1.1v4.2h1.1v0.8h-1.9l0-1.4h0c-0.2,0.5-0.5,0.9-0.9,1.2
			c-0.4,0.3-0.9,0.4-1.4,0.4c-0.4,0-0.7-0.1-1-0.2c-0.3-0.1-0.6-0.3-0.8-0.5c-0.2-0.2-0.3-0.4-0.4-0.7
			C397.9,473,397.8,472.7,397.8,472.4z M398.8,472.7c0,0.4,0.1,0.7,0.4,0.8c0.3,0.2,0.6,0.3,1.1,0.3c0.3,0,0.6-0.1,0.9-0.2
			c0.3-0.1,0.5-0.3,0.7-0.5c0.2-0.2,0.3-0.5,0.4-0.8s0.1-0.7,0.1-1v-0.4l-3.1,0.3c-0.2,0-0.4,0.1-0.5,0.2c-0.1,0.1-0.1,0.3-0.1,0.5
			V472.7z"/>
		<path class="st0" d="M406,472v-4.9h0.9v4.7c0,0.6,0.1,1.1,0.3,1.4c0.2,0.4,0.6,0.5,1.3,0.5c0.3,0,0.6-0.1,0.8-0.2s0.5-0.3,0.7-0.5
			c0.2-0.2,0.3-0.5,0.4-0.8s0.2-0.6,0.2-1v-4.2h0.9v7.3h-0.9v-1.3c-0.2,0.5-0.5,0.8-0.9,1.1c-0.4,0.3-0.8,0.4-1.4,0.4
			c-0.3,0-0.7,0-0.9-0.1c-0.3-0.1-0.5-0.2-0.7-0.5c-0.2-0.2-0.4-0.5-0.5-0.8C406.1,472.9,406,472.5,406,472z"/>
		<path class="st0" d="M413.3,467.9v-0.8h1.2v-2.5h0.9v2.5h1.8v0.8h-1.8v5.7h1.8v0.8h-2.7v-6.5H413.3z"/>
		<path class="st0" d="M418.7,470.8c0-0.6,0.1-1.1,0.2-1.5s0.3-0.9,0.6-1.2c0.3-0.3,0.6-0.6,1-0.8c0.4-0.2,0.9-0.3,1.4-0.3
			c0.5,0,1,0.1,1.4,0.3c0.4,0.2,0.7,0.5,1,0.8c0.3,0.3,0.5,0.7,0.6,1.2s0.2,1,0.2,1.5c0,0.6-0.1,1.1-0.2,1.5s-0.3,0.9-0.6,1.2
			c-0.3,0.3-0.6,0.6-1,0.8c-0.4,0.2-0.9,0.3-1.4,0.3c-0.5,0-1-0.1-1.4-0.3c-0.4-0.2-0.7-0.5-1-0.8c-0.3-0.3-0.5-0.7-0.6-1.2
			S418.7,471.3,418.7,470.8z M419.7,471.9c0,0.3,0.1,0.5,0.2,0.8c0.1,0.2,0.3,0.4,0.5,0.6c0.2,0.2,0.4,0.3,0.7,0.4
			c0.3,0.1,0.5,0.1,0.8,0.1c0.3,0,0.6,0,0.9-0.1c0.3-0.1,0.5-0.2,0.7-0.4c0.2-0.2,0.3-0.4,0.5-0.6c0.1-0.2,0.2-0.5,0.2-0.8v-2.2
			c0-0.3-0.1-0.5-0.2-0.8c-0.1-0.2-0.3-0.4-0.5-0.6c-0.2-0.2-0.4-0.3-0.7-0.4c-0.3-0.1-0.5-0.1-0.9-0.1c-0.3,0-0.6,0-0.8,0.1
			c-0.3,0.1-0.5,0.2-0.7,0.4c-0.2,0.2-0.3,0.4-0.5,0.6c-0.1,0.2-0.2,0.5-0.2,0.8V471.9z"/>
		<path class="st0" d="M427.1,474.4v-7.3h0.9v1.3c0.2-0.4,0.4-0.8,0.8-1.1c0.3-0.3,0.8-0.4,1.3-0.4c0.5,0,0.9,0.1,1.3,0.4
			c0.4,0.2,0.6,0.7,0.8,1.2c0.2-0.5,0.4-0.8,0.8-1.1c0.4-0.3,0.8-0.4,1.4-0.4c0.3,0,0.6,0,0.9,0.1c0.3,0.1,0.5,0.2,0.7,0.5
			c0.2,0.2,0.4,0.5,0.5,0.8c0.1,0.3,0.2,0.7,0.2,1.2v4.9h-0.9v-4.8c0-0.6-0.1-1.1-0.4-1.4c-0.2-0.3-0.6-0.5-1.2-0.5
			c-0.3,0-0.5,0.1-0.7,0.2c-0.2,0.1-0.4,0.3-0.6,0.5c-0.2,0.2-0.3,0.5-0.4,0.8c-0.1,0.3-0.1,0.6-0.1,1v4.2h-0.9v-4.8
			c0-0.6-0.1-1.1-0.4-1.4c-0.2-0.3-0.6-0.5-1.2-0.5c-0.3,0-0.5,0.1-0.7,0.2c-0.2,0.1-0.4,0.3-0.6,0.5c-0.2,0.2-0.3,0.5-0.4,0.8
			c-0.1,0.3-0.1,0.6-0.1,1v4.2H427.1z"/>
		<path class="st0" d="M438.8,470.8c0-0.6,0.1-1.1,0.2-1.5s0.3-0.9,0.6-1.2c0.3-0.3,0.6-0.6,1-0.8c0.4-0.2,0.9-0.3,1.4-0.3
			c0.5,0,1,0.1,1.4,0.3c0.4,0.2,0.7,0.5,1,0.8c0.3,0.3,0.5,0.7,0.6,1.2s0.2,1,0.2,1.5c0,0.6-0.1,1.1-0.2,1.5s-0.3,0.9-0.6,1.2
			c-0.3,0.3-0.6,0.6-1,0.8c-0.4,0.2-0.9,0.3-1.4,0.3c-0.5,0-1-0.1-1.4-0.3c-0.4-0.2-0.7-0.5-1-0.8c-0.3-0.3-0.5-0.7-0.6-1.2
			S438.8,471.3,438.8,470.8z M439.8,471.9c0,0.3,0.1,0.5,0.2,0.8c0.1,0.2,0.3,0.4,0.5,0.6c0.2,0.2,0.4,0.3,0.7,0.4
			c0.3,0.1,0.5,0.1,0.8,0.1c0.3,0,0.6,0,0.9-0.1c0.3-0.1,0.5-0.2,0.7-0.4c0.2-0.2,0.3-0.4,0.5-0.6c0.1-0.2,0.2-0.5,0.2-0.8v-2.2
			c0-0.3-0.1-0.5-0.2-0.8c-0.1-0.2-0.3-0.4-0.5-0.6c-0.2-0.2-0.4-0.3-0.7-0.4c-0.3-0.1-0.5-0.1-0.9-0.1c-0.3,0-0.6,0-0.8,0.1
			c-0.3,0.1-0.5,0.2-0.7,0.4c-0.2,0.2-0.3,0.4-0.5,0.6c-0.1,0.2-0.2,0.5-0.2,0.8V471.9z"/>
		<path class="st0" d="M447.2,474.4v-9.8h0.9v3.7c0.5-1,1.3-1.4,2.4-1.4c0.5,0,0.9,0.1,1.3,0.3s0.7,0.5,0.9,0.8
			c0.3,0.3,0.4,0.7,0.6,1.2c0.1,0.5,0.2,1,0.2,1.6c0,0.6-0.1,1.1-0.2,1.6c-0.1,0.5-0.3,0.9-0.6,1.2c-0.2,0.3-0.6,0.6-0.9,0.8
			c-0.4,0.2-0.8,0.3-1.3,0.3c-0.5,0-1-0.1-1.4-0.4c-0.4-0.2-0.8-0.6-1-1.1v1.3H447.2z M448.1,471.4c0,0.3,0,0.7,0.2,1
			c0.1,0.3,0.2,0.6,0.4,0.8c0.2,0.2,0.4,0.4,0.7,0.5c0.3,0.1,0.6,0.2,0.9,0.2c0.3,0,0.6,0,0.9-0.2c0.3-0.1,0.5-0.2,0.7-0.4
			c0.2-0.2,0.3-0.4,0.4-0.6c0.1-0.2,0.1-0.5,0.1-0.8v-2.2c0-0.3,0-0.5-0.1-0.7c-0.1-0.2-0.2-0.4-0.4-0.6c-0.2-0.2-0.4-0.3-0.7-0.4
			c-0.3-0.1-0.5-0.2-0.9-0.2c-0.3,0-0.7,0.1-0.9,0.2c-0.3,0.1-0.5,0.3-0.7,0.5c-0.2,0.2-0.3,0.5-0.4,0.8c-0.1,0.3-0.2,0.6-0.2,1
			V471.4z"/>
		<path class="st0" d="M455.6,465.8v-1h1v1H455.6z M455.6,474.4v-7.3h0.9v7.3H455.6z"/>
		<path class="st0" d="M459.1,474.4v-9.8h0.9v9.8H459.1z"/>
		<path class="st0" d="M462.3,470.8c0-0.6,0.1-1.1,0.2-1.5c0.1-0.5,0.3-0.9,0.6-1.2c0.3-0.3,0.6-0.6,0.9-0.8
			c0.4-0.2,0.8-0.3,1.3-0.3c0.5,0,0.9,0.1,1.3,0.3c0.4,0.2,0.7,0.4,0.9,0.8c0.3,0.3,0.4,0.7,0.6,1.1c0.1,0.4,0.2,0.9,0.2,1.3v0.6h-5
			v0.8c0,0.3,0.1,0.6,0.2,0.8c0.1,0.2,0.3,0.4,0.5,0.6c0.2,0.2,0.4,0.3,0.7,0.4c0.2,0.1,0.5,0.1,0.8,0.1c0.5,0,1-0.1,1.3-0.4
			c0.4-0.3,0.6-0.7,0.6-1.2h0.9c0,0.4-0.2,0.7-0.3,1c-0.2,0.3-0.4,0.6-0.6,0.8c-0.3,0.2-0.6,0.4-0.9,0.5c-0.3,0.1-0.7,0.2-1.1,0.2
			c-0.5,0-1-0.1-1.4-0.3c-0.4-0.2-0.7-0.5-0.9-0.8c-0.2-0.3-0.4-0.7-0.5-1.2C462.3,471.9,462.3,471.3,462.3,470.8z M463.3,470.2h4
			v-0.5c0-0.3-0.1-0.6-0.2-0.8c-0.1-0.2-0.2-0.4-0.4-0.6c-0.2-0.2-0.4-0.3-0.6-0.4c-0.2-0.1-0.5-0.1-0.8-0.1c-0.3,0-0.5,0-0.8,0.1
			c-0.2,0.1-0.5,0.2-0.6,0.4c-0.2,0.2-0.3,0.4-0.4,0.6c-0.1,0.2-0.2,0.5-0.2,0.8V470.2z"/>
	</g>
	<g>
		<path class="st0" d="M265.8,460V459h3.2v-8.8h1v9.8H265.8z"/>
		<path class="st0" d="M272.2,458c0-0.6,0.2-1,0.5-1.4c0.3-0.4,0.8-0.6,1.4-0.7l2.8-0.3v-0.7c0-0.3,0-0.6-0.1-0.8
			c-0.1-0.2-0.2-0.4-0.4-0.5c-0.1-0.1-0.3-0.2-0.5-0.3c-0.2-0.1-0.5-0.1-0.7-0.1c-0.5,0-0.9,0.1-1.2,0.4c-0.3,0.2-0.5,0.6-0.5,1.1
			h-0.9c0-0.3,0.1-0.7,0.2-0.9c0.1-0.3,0.3-0.5,0.5-0.7c0.2-0.2,0.5-0.4,0.8-0.5c0.3-0.1,0.7-0.2,1.1-0.2c0.4,0,0.7,0.1,1.1,0.2
			c0.3,0.1,0.6,0.3,0.8,0.5c0.2,0.2,0.4,0.5,0.5,0.8c0.1,0.3,0.2,0.7,0.2,1.1v4.2h1.1v0.8h-1.9l0-1.4h0c-0.2,0.5-0.5,0.9-0.9,1.2
			c-0.4,0.3-0.9,0.4-1.4,0.4c-0.4,0-0.7-0.1-1-0.2c-0.3-0.1-0.6-0.3-0.8-0.5c-0.2-0.2-0.3-0.4-0.4-0.7
			C272.2,458.5,272.2,458.2,272.2,458z M273.2,458.2c0,0.4,0.1,0.7,0.4,0.8c0.3,0.2,0.6,0.3,1.1,0.3c0.3,0,0.6-0.1,0.9-0.2
			c0.3-0.1,0.5-0.3,0.7-0.5c0.2-0.2,0.3-0.5,0.4-0.8c0.1-0.3,0.1-0.7,0.1-1v-0.4l-3.1,0.3c-0.2,0-0.4,0.1-0.5,0.2
			c-0.1,0.1-0.1,0.3-0.1,0.5V458.2z"/>
		<path class="st0" d="M280,456.3c0-0.6,0.1-1.1,0.2-1.6c0.1-0.5,0.3-0.9,0.6-1.2s0.6-0.6,0.9-0.8c0.4-0.2,0.8-0.3,1.3-0.3
			c1.1,0,1.9,0.5,2.4,1.4v-1.3h0.9v7.1c0,0.5-0.1,1-0.3,1.3c-0.2,0.4-0.4,0.7-0.7,0.9c-0.3,0.2-0.6,0.4-1,0.6
			c-0.4,0.1-0.7,0.2-1.1,0.2c-0.4,0-0.7,0-1.1-0.1s-0.6-0.2-0.9-0.4c-0.3-0.2-0.5-0.4-0.7-0.7c-0.2-0.3-0.3-0.6-0.3-1.1h0.9
			c0.1,0.5,0.2,0.8,0.6,1s0.8,0.4,1.4,0.4c0.6,0,1.1-0.2,1.5-0.5c0.4-0.4,0.6-0.9,0.6-1.7v-1.1c-0.2,0.5-0.6,0.8-1,1.1
			c-0.4,0.2-0.9,0.4-1.4,0.4c-0.5,0-0.9-0.1-1.3-0.3c-0.4-0.2-0.7-0.4-0.9-0.8c-0.3-0.3-0.4-0.7-0.6-1.2
			C280,457.4,280,456.9,280,456.3z M281,457.4c0,0.3,0,0.5,0.1,0.7c0.1,0.2,0.2,0.4,0.4,0.6c0.2,0.2,0.4,0.3,0.7,0.4
			c0.3,0.1,0.5,0.2,0.9,0.2c0.3,0,0.7-0.1,0.9-0.2c0.3-0.1,0.5-0.3,0.7-0.5c0.2-0.2,0.3-0.5,0.4-0.8c0.1-0.3,0.2-0.6,0.2-1v-1.2
			c0-0.3-0.1-0.7-0.2-1c-0.1-0.3-0.2-0.6-0.4-0.8c-0.2-0.2-0.4-0.4-0.7-0.5c-0.3-0.1-0.6-0.2-0.9-0.2c-0.3,0-0.6,0-0.9,0.2
			c-0.3,0.1-0.5,0.2-0.7,0.4c-0.2,0.2-0.3,0.4-0.4,0.6c-0.1,0.2-0.1,0.5-0.1,0.7V457.4z"/>
		<path class="st0" d="M288.7,457.5v-4.9h0.9v4.7c0,0.6,0.1,1.1,0.3,1.4c0.2,0.4,0.6,0.5,1.3,0.5c0.3,0,0.6-0.1,0.8-0.2
			c0.3-0.1,0.5-0.3,0.7-0.5c0.2-0.2,0.3-0.5,0.4-0.8c0.1-0.3,0.2-0.6,0.2-1v-4.2h0.9v7.3h-0.9v-1.3c-0.2,0.5-0.5,0.8-0.9,1.1
			s-0.8,0.4-1.4,0.4c-0.3,0-0.7,0-0.9-0.1c-0.3-0.1-0.5-0.2-0.7-0.5c-0.2-0.2-0.4-0.5-0.5-0.8C288.8,458.4,288.7,458,288.7,457.5z"
			/>
		<path class="st0" d="M296.3,458c0-0.6,0.2-1,0.5-1.4c0.3-0.4,0.8-0.6,1.4-0.7l2.8-0.3v-0.7c0-0.3,0-0.6-0.1-0.8
			c-0.1-0.2-0.2-0.4-0.4-0.5c-0.1-0.1-0.3-0.2-0.5-0.3c-0.2-0.1-0.5-0.1-0.7-0.1c-0.5,0-0.9,0.1-1.2,0.4c-0.3,0.2-0.5,0.6-0.5,1.1
			h-0.9c0-0.3,0.1-0.7,0.2-0.9c0.1-0.3,0.3-0.5,0.5-0.7c0.2-0.2,0.5-0.4,0.8-0.5c0.3-0.1,0.7-0.2,1.1-0.2c0.4,0,0.7,0.1,1.1,0.2
			c0.3,0.1,0.6,0.3,0.8,0.5c0.2,0.2,0.4,0.5,0.5,0.8c0.1,0.3,0.2,0.7,0.2,1.1v4.2h1.1v0.8h-1.9l0-1.4h0c-0.2,0.5-0.5,0.9-0.9,1.2
			c-0.4,0.3-0.9,0.4-1.4,0.4c-0.4,0-0.7-0.1-1-0.2c-0.3-0.1-0.6-0.3-0.8-0.5c-0.2-0.2-0.3-0.4-0.4-0.7
			C296.4,458.5,296.3,458.2,296.3,458z M297.3,458.2c0,0.4,0.1,0.7,0.4,0.8c0.3,0.2,0.6,0.3,1.1,0.3c0.3,0,0.6-0.1,0.9-0.2
			c0.3-0.1,0.5-0.3,0.7-0.5s0.3-0.5,0.4-0.8c0.1-0.3,0.1-0.7,0.1-1v-0.4l-3.1,0.3c-0.2,0-0.4,0.1-0.5,0.2c-0.1,0.1-0.1,0.3-0.1,0.5
			V458.2z"/>
		<path class="st0" d="M304.6,460v-7.3h3.2v0.8h-2.3v6.5H304.6z"/>
	</g>
	<g>
		<path class="st0" d="M676.4,455.2c0-0.8,0.1-1.5,0.2-2.1s0.4-1.2,0.7-1.6c0.3-0.5,0.7-0.8,1.2-1.1c0.5-0.3,1.1-0.4,1.7-0.4
			c0.5,0,0.9,0.1,1.3,0.2c0.4,0.1,0.7,0.3,1,0.6c0.3,0.3,0.5,0.6,0.7,0.9c0.2,0.4,0.3,0.8,0.3,1.3h-1c0-0.4-0.1-0.7-0.3-0.9
			c-0.1-0.3-0.3-0.5-0.5-0.6c-0.2-0.2-0.5-0.3-0.7-0.4c-0.3-0.1-0.6-0.1-0.9-0.1c-0.4,0-0.8,0.1-1.1,0.2c-0.3,0.1-0.6,0.3-0.8,0.6
			c-0.2,0.2-0.4,0.5-0.5,0.9c-0.1,0.3-0.2,0.7-0.2,1.1v2.9c0,0.4,0.1,0.8,0.2,1.1c0.1,0.3,0.3,0.6,0.6,0.9c0.2,0.2,0.5,0.4,0.8,0.6
			c0.3,0.1,0.7,0.2,1,0.2c0.7,0,1.4-0.2,1.8-0.5c0.5-0.3,0.7-0.9,0.8-1.6h1c0,0.5-0.1,0.9-0.3,1.3c-0.2,0.4-0.4,0.7-0.7,1
			c-0.3,0.3-0.7,0.5-1.1,0.6c-0.4,0.1-0.9,0.2-1.4,0.2c-1.3,0-2.2-0.4-2.9-1.3C676.7,458.1,676.4,456.8,676.4,455.2z"/>
		<path class="st0" d="M685.4,458c0-0.6,0.2-1.1,0.5-1.4c0.3-0.4,0.8-0.6,1.4-0.7l2.8-0.3v-0.7c0-0.3,0-0.6-0.1-0.8
			c-0.1-0.2-0.2-0.4-0.4-0.5c-0.1-0.1-0.3-0.2-0.5-0.3c-0.2-0.1-0.5-0.1-0.7-0.1c-0.5,0-0.9,0.1-1.2,0.4c-0.3,0.2-0.5,0.6-0.5,1.1
			h-0.9c0-0.3,0.1-0.7,0.2-0.9c0.1-0.3,0.3-0.5,0.5-0.7c0.2-0.2,0.5-0.4,0.8-0.5c0.3-0.1,0.7-0.2,1.1-0.2c0.4,0,0.7,0.1,1.1,0.2
			c0.3,0.1,0.6,0.3,0.8,0.5c0.2,0.2,0.4,0.5,0.5,0.8c0.1,0.3,0.2,0.7,0.2,1.1v4.2h1.1v0.8h-1.9l0-1.4h0c-0.2,0.5-0.5,0.9-0.9,1.2
			c-0.4,0.3-0.9,0.4-1.4,0.4c-0.4,0-0.7-0.1-1-0.2c-0.3-0.1-0.6-0.3-0.8-0.5c-0.2-0.2-0.3-0.4-0.4-0.7
			C685.4,458.5,685.4,458.3,685.4,458z M686.4,458.2c0,0.4,0.1,0.7,0.4,0.8c0.3,0.2,0.6,0.3,1.1,0.3c0.3,0,0.6-0.1,0.9-0.2
			c0.3-0.1,0.5-0.3,0.7-0.5s0.3-0.5,0.4-0.8c0.1-0.3,0.1-0.7,0.1-1v-0.4l-3.1,0.3c-0.2,0-0.4,0.1-0.5,0.2c-0.1,0.1-0.1,0.3-0.1,0.5
			V458.2z M686.5,451.7l1.2-1.7h1.1l1.2,1.7h-0.8l-1-1.3l-1,1.3H686.5z"/>
		<path class="st0" d="M693.6,460v-9.8h0.9v3.7c0.5-1,1.3-1.4,2.4-1.4c0.5,0,0.9,0.1,1.3,0.3c0.4,0.2,0.7,0.5,0.9,0.8
			c0.3,0.3,0.4,0.7,0.6,1.2c0.1,0.5,0.2,1,0.2,1.6s-0.1,1.1-0.2,1.6c-0.1,0.5-0.3,0.9-0.6,1.2c-0.2,0.3-0.6,0.6-0.9,0.8
			c-0.4,0.2-0.8,0.3-1.3,0.3c-0.5,0-1-0.1-1.4-0.4c-0.4-0.2-0.8-0.6-1-1.1v1.3H693.6z M694.5,456.9c0,0.3,0,0.7,0.2,1
			c0.1,0.3,0.2,0.6,0.4,0.8c0.2,0.2,0.4,0.4,0.7,0.5c0.3,0.1,0.6,0.2,0.9,0.2c0.3,0,0.6,0,0.9-0.2c0.3-0.1,0.5-0.2,0.7-0.4
			c0.2-0.2,0.3-0.4,0.4-0.6c0.1-0.2,0.1-0.5,0.1-0.8v-2.2c0-0.3,0-0.5-0.1-0.7c-0.1-0.2-0.2-0.4-0.4-0.6c-0.2-0.2-0.4-0.3-0.7-0.4
			c-0.3-0.1-0.5-0.2-0.9-0.2c-0.3,0-0.7,0.1-0.9,0.2c-0.3,0.1-0.5,0.3-0.7,0.5s-0.3,0.5-0.4,0.8c-0.1,0.3-0.2,0.6-0.2,1V456.9z"/>
		<path class="st0" d="M702,460v-9.8h0.9v9.8H702z"/>
		<path class="st0" d="M705.2,456.3c0-0.6,0.1-1.1,0.2-1.5c0.1-0.5,0.3-0.9,0.6-1.2c0.3-0.3,0.6-0.6,0.9-0.8
			c0.4-0.2,0.8-0.3,1.3-0.3c0.5,0,0.9,0.1,1.3,0.3c0.4,0.2,0.7,0.4,0.9,0.8c0.3,0.3,0.4,0.7,0.6,1.1c0.1,0.4,0.2,0.9,0.2,1.3v0.6h-5
			v0.8c0,0.3,0.1,0.6,0.2,0.8c0.1,0.2,0.3,0.4,0.5,0.6c0.2,0.2,0.4,0.3,0.6,0.4c0.2,0.1,0.5,0.1,0.8,0.1c0.5,0,1-0.1,1.3-0.4
			c0.4-0.3,0.6-0.7,0.6-1.2h0.9c0,0.4-0.2,0.7-0.3,1c-0.2,0.3-0.4,0.6-0.6,0.8c-0.3,0.2-0.6,0.4-0.9,0.5c-0.3,0.1-0.7,0.2-1.1,0.2
			c-0.5,0-1-0.1-1.4-0.3c-0.4-0.2-0.7-0.5-0.9-0.8c-0.2-0.3-0.4-0.7-0.5-1.2C705.2,457.4,705.2,456.9,705.2,456.3z M706.2,455.8h4
			v-0.5c0-0.3-0.1-0.6-0.2-0.8c-0.1-0.2-0.2-0.4-0.4-0.6c-0.2-0.2-0.4-0.3-0.6-0.4c-0.2-0.1-0.5-0.1-0.8-0.1s-0.5,0-0.8,0.1
			c-0.2,0.1-0.5,0.2-0.6,0.4c-0.2,0.2-0.3,0.4-0.4,0.6c-0.1,0.2-0.2,0.5-0.2,0.8V455.8z"/>
	</g>
	<g>
		<path class="st0" d="M663.3,470.8c0-0.6,0.1-1.1,0.2-1.5c0.1-0.5,0.3-0.9,0.6-1.2c0.3-0.3,0.6-0.6,0.9-0.8
			c0.4-0.2,0.8-0.3,1.3-0.3c0.5,0,0.9,0.1,1.3,0.3c0.4,0.2,0.7,0.4,0.9,0.8c0.3,0.3,0.4,0.7,0.6,1.1c0.1,0.4,0.2,0.9,0.2,1.3v0.6h-5
			v0.8c0,0.3,0.1,0.6,0.2,0.8c0.1,0.2,0.3,0.4,0.5,0.6c0.2,0.2,0.4,0.3,0.6,0.4c0.2,0.1,0.5,0.1,0.8,0.1c0.5,0,1-0.1,1.3-0.4
			c0.4-0.3,0.6-0.7,0.6-1.2h0.9c0,0.4-0.2,0.7-0.3,1c-0.2,0.3-0.4,0.6-0.6,0.8c-0.3,0.2-0.6,0.4-0.9,0.5c-0.3,0.1-0.7,0.2-1.1,0.2
			c-0.5,0-1-0.1-1.4-0.3c-0.4-0.2-0.7-0.5-0.9-0.8c-0.2-0.3-0.4-0.7-0.5-1.2C663.3,471.9,663.3,471.3,663.3,470.8z M664.3,470.2h4
			v-0.5c0-0.3-0.1-0.6-0.2-0.8c-0.1-0.2-0.2-0.4-0.4-0.6c-0.2-0.2-0.4-0.3-0.6-0.4c-0.2-0.1-0.5-0.1-0.8-0.1s-0.5,0-0.8,0.1
			c-0.2,0.1-0.5,0.2-0.6,0.4c-0.2,0.2-0.3,0.4-0.4,0.6c-0.1,0.2-0.2,0.5-0.2,0.8V470.2z M665.8,466.2l1.2-1.7h1.1l-1.5,1.7H665.8z"
			/>
		<path class="st0" d="M671.4,474.4v-9.8h0.9v9.8H671.4z"/>
		<path class="st0" d="M674.5,470.8c0-0.6,0.1-1.1,0.2-1.5c0.1-0.5,0.3-0.9,0.6-1.2c0.3-0.3,0.6-0.6,0.9-0.8
			c0.4-0.2,0.8-0.3,1.3-0.3c0.5,0,0.9,0.1,1.3,0.3c0.4,0.2,0.7,0.4,0.9,0.8c0.3,0.3,0.4,0.7,0.6,1.1c0.1,0.4,0.2,0.9,0.2,1.3v0.6h-5
			v0.8c0,0.3,0.1,0.6,0.2,0.8c0.1,0.2,0.3,0.4,0.5,0.6c0.2,0.2,0.4,0.3,0.6,0.4c0.2,0.1,0.5,0.1,0.8,0.1c0.5,0,1-0.1,1.3-0.4
			c0.4-0.3,0.6-0.7,0.6-1.2h0.9c0,0.4-0.2,0.7-0.3,1c-0.2,0.3-0.4,0.6-0.6,0.8c-0.3,0.2-0.6,0.4-0.9,0.5c-0.3,0.1-0.7,0.2-1.1,0.2
			c-0.5,0-1-0.1-1.4-0.3c-0.4-0.2-0.7-0.5-0.9-0.8c-0.2-0.3-0.4-0.7-0.5-1.2C674.6,471.9,674.5,471.3,674.5,470.8z M675.5,470.2h4
			v-0.5c0-0.3-0.1-0.6-0.2-0.8c-0.1-0.2-0.2-0.4-0.4-0.6c-0.2-0.2-0.4-0.3-0.6-0.4c-0.2-0.1-0.5-0.1-0.8-0.1s-0.5,0-0.8,0.1
			c-0.2,0.1-0.5,0.2-0.6,0.4c-0.2,0.2-0.3,0.4-0.4,0.6c-0.1,0.2-0.2,0.5-0.2,0.8V470.2z"/>
		<path class="st0" d="M682.3,470.8c0-0.6,0.1-1.1,0.2-1.6c0.1-0.5,0.3-0.9,0.6-1.2c0.3-0.3,0.6-0.6,0.9-0.8
			c0.4-0.2,0.8-0.3,1.3-0.3c0.4,0,0.7,0.1,1,0.2c0.3,0.1,0.6,0.3,0.8,0.5c0.2,0.2,0.4,0.5,0.6,0.8c0.2,0.3,0.2,0.7,0.3,1.1h-0.9
			c0-0.3-0.1-0.5-0.2-0.8c-0.1-0.2-0.3-0.4-0.4-0.5c-0.2-0.1-0.4-0.2-0.6-0.3c-0.2-0.1-0.5-0.1-0.7-0.1c-0.2,0-0.5,0-0.7,0.1
			c-0.2,0.1-0.4,0.2-0.6,0.4c-0.2,0.2-0.3,0.4-0.4,0.6c-0.1,0.2-0.2,0.5-0.2,0.8v2.1c0,0.3,0,0.5,0.2,0.8c0.1,0.2,0.2,0.4,0.4,0.6
			c0.2,0.2,0.4,0.3,0.6,0.4c0.2,0.1,0.5,0.2,0.8,0.2c0.3,0,0.5,0,0.7-0.1c0.2-0.1,0.4-0.2,0.6-0.3c0.2-0.1,0.3-0.3,0.4-0.5
			c0.1-0.2,0.2-0.5,0.2-0.7h0.9c0,0.4-0.2,0.8-0.3,1.1c-0.2,0.3-0.4,0.6-0.6,0.8c-0.3,0.2-0.5,0.4-0.9,0.5c-0.3,0.1-0.7,0.2-1,0.2
			c-0.5,0-1-0.1-1.3-0.3c-0.4-0.2-0.7-0.5-0.9-0.8c-0.2-0.3-0.4-0.7-0.5-1.2C682.3,471.9,682.3,471.4,682.3,470.8z"/>
		<path class="st0" d="M689.4,467.9v-0.8h1.3v-2.5h0.9v2.5h1.8v0.8h-1.8v5.7h1.8v0.8h-2.7v-6.5H689.4z"/>
		<path class="st0" d="M695.2,474.4v-7.3h3.2v0.8h-2.3v6.5H695.2z"/>
		<path class="st0" d="M700.1,465.8v-1h1v1H700.1z M700.1,474.4v-7.3h0.9v7.3H700.1z"/>
		<path class="st0" d="M703.2,470.8c0-0.6,0.1-1.1,0.2-1.6c0.1-0.5,0.3-0.9,0.6-1.2c0.3-0.3,0.6-0.6,0.9-0.8s0.8-0.3,1.3-0.3
			c1.1,0,1.9,0.5,2.4,1.4v-1.3h0.9v9.8h-0.9v-3.7c-0.2,0.5-0.6,0.8-1,1.1c-0.4,0.2-0.9,0.4-1.4,0.4c-0.5,0-0.9-0.1-1.3-0.3
			s-0.7-0.4-0.9-0.8c-0.3-0.3-0.4-0.7-0.6-1.2C703.2,471.9,703.2,471.3,703.2,470.8z M704.2,471.9c0,0.3,0,0.5,0.1,0.7
			c0.1,0.2,0.2,0.4,0.4,0.6c0.2,0.2,0.4,0.3,0.7,0.4c0.3,0.1,0.5,0.2,0.9,0.2c0.3,0,0.7-0.1,0.9-0.2c0.3-0.1,0.5-0.3,0.7-0.5
			c0.2-0.2,0.3-0.5,0.4-0.8c0.1-0.3,0.2-0.6,0.2-1v-1.2c0-0.3-0.1-0.7-0.2-1c-0.1-0.3-0.2-0.6-0.4-0.8c-0.2-0.2-0.4-0.4-0.7-0.5
			c-0.3-0.1-0.6-0.2-0.9-0.2c-0.3,0-0.6,0-0.9,0.2c-0.3,0.1-0.5,0.2-0.7,0.4c-0.2,0.2-0.3,0.4-0.4,0.6c-0.1,0.2-0.1,0.5-0.1,0.7
			V471.9z"/>
		<path class="st0" d="M711.9,472v-4.9h0.9v4.7c0,0.6,0.1,1.1,0.3,1.4c0.2,0.4,0.6,0.5,1.3,0.5c0.3,0,0.6-0.1,0.8-0.2
			s0.5-0.3,0.7-0.5c0.2-0.2,0.3-0.5,0.4-0.8c0.1-0.3,0.2-0.6,0.2-1v-4.2h0.9v7.3h-0.9v-1.3c-0.2,0.5-0.5,0.8-0.9,1.1
			c-0.4,0.3-0.8,0.4-1.4,0.4c-0.3,0-0.7,0-0.9-0.1c-0.3-0.1-0.5-0.2-0.7-0.5s-0.4-0.5-0.5-0.8C712,472.9,711.9,472.5,711.9,472z"/>
		<path class="st0" d="M719.6,470.8c0-0.6,0.1-1.1,0.2-1.5c0.1-0.5,0.3-0.9,0.6-1.2c0.3-0.3,0.6-0.6,0.9-0.8
			c0.4-0.2,0.8-0.3,1.3-0.3c0.5,0,0.9,0.1,1.3,0.3c0.4,0.2,0.7,0.4,0.9,0.8c0.3,0.3,0.4,0.7,0.6,1.1c0.1,0.4,0.2,0.9,0.2,1.3v0.6h-5
			v0.8c0,0.3,0.1,0.6,0.2,0.8c0.1,0.2,0.3,0.4,0.5,0.6c0.2,0.2,0.4,0.3,0.6,0.4c0.2,0.1,0.5,0.1,0.8,0.1c0.5,0,1-0.1,1.3-0.4
			c0.4-0.3,0.6-0.7,0.6-1.2h0.9c0,0.4-0.2,0.7-0.3,1c-0.2,0.3-0.4,0.6-0.6,0.8c-0.3,0.2-0.6,0.4-0.9,0.5c-0.3,0.1-0.7,0.2-1.1,0.2
			c-0.5,0-1-0.1-1.4-0.3c-0.4-0.2-0.7-0.5-0.9-0.8c-0.2-0.3-0.4-0.7-0.5-1.2C719.7,471.9,719.6,471.3,719.6,470.8z M720.6,470.2h4
			v-0.5c0-0.3-0.1-0.6-0.2-0.8c-0.1-0.2-0.2-0.4-0.4-0.6c-0.2-0.2-0.4-0.3-0.6-0.4c-0.2-0.1-0.5-0.1-0.8-0.1s-0.5,0-0.8,0.1
			c-0.2,0.1-0.5,0.2-0.6,0.4c-0.2,0.2-0.3,0.4-0.4,0.6c-0.1,0.2-0.2,0.5-0.2,0.8V470.2z"/>
	</g>
	<g>
		<path class="st0" d="M253.7,474.4v-9.8h0.9v3.7c0.5-1,1.3-1.4,2.4-1.4c0.5,0,0.9,0.1,1.3,0.3s0.7,0.5,0.9,0.8
			c0.3,0.3,0.4,0.7,0.6,1.2c0.1,0.5,0.2,1,0.2,1.6c0,0.6-0.1,1.1-0.2,1.6c-0.1,0.5-0.3,0.9-0.6,1.2c-0.2,0.3-0.6,0.6-0.9,0.8
			c-0.4,0.2-0.8,0.3-1.3,0.3c-0.5,0-1-0.1-1.4-0.4c-0.4-0.2-0.8-0.6-1-1.1v1.3H253.7z M254.6,471.4c0,0.3,0,0.7,0.2,1
			c0.1,0.3,0.2,0.6,0.4,0.8c0.2,0.2,0.4,0.4,0.7,0.5s0.6,0.2,0.9,0.2c0.3,0,0.6,0,0.9-0.2c0.3-0.1,0.5-0.2,0.7-0.4
			c0.2-0.2,0.3-0.4,0.4-0.6c0.1-0.2,0.1-0.5,0.1-0.8v-2.2c0-0.3,0-0.5-0.1-0.7c-0.1-0.2-0.2-0.4-0.4-0.6c-0.2-0.2-0.4-0.3-0.7-0.4
			c-0.3-0.1-0.5-0.2-0.9-0.2c-0.3,0-0.7,0.1-0.9,0.2s-0.5,0.3-0.7,0.5c-0.2,0.2-0.3,0.5-0.4,0.8c-0.1,0.3-0.2,0.6-0.2,1V471.4z"/>
		<path class="st0" d="M261.7,470.8c0-0.6,0.1-1.1,0.2-1.5s0.3-0.9,0.6-1.2c0.3-0.3,0.6-0.6,1-0.8c0.4-0.2,0.9-0.3,1.4-0.3
			c0.5,0,1,0.1,1.4,0.3c0.4,0.2,0.7,0.5,1,0.8c0.3,0.3,0.5,0.7,0.6,1.2s0.2,1,0.2,1.5c0,0.6-0.1,1.1-0.2,1.5s-0.3,0.9-0.6,1.2
			c-0.3,0.3-0.6,0.6-1,0.8c-0.4,0.2-0.9,0.3-1.4,0.3c-0.5,0-1-0.1-1.4-0.3c-0.4-0.2-0.7-0.5-1-0.8c-0.3-0.3-0.5-0.7-0.6-1.2
			S261.7,471.3,261.7,470.8z M262.7,471.9c0,0.3,0.1,0.5,0.2,0.8c0.1,0.2,0.3,0.4,0.5,0.6c0.2,0.2,0.4,0.3,0.7,0.4
			c0.3,0.1,0.5,0.1,0.8,0.1c0.3,0,0.6,0,0.9-0.1c0.3-0.1,0.5-0.2,0.7-0.4c0.2-0.2,0.3-0.4,0.5-0.6c0.1-0.2,0.2-0.5,0.2-0.8v-2.2
			c0-0.3-0.1-0.5-0.2-0.8c-0.1-0.2-0.3-0.4-0.5-0.6c-0.2-0.2-0.4-0.3-0.7-0.4c-0.3-0.1-0.5-0.1-0.9-0.1c-0.3,0-0.6,0-0.8,0.1
			c-0.3,0.1-0.5,0.2-0.7,0.4c-0.2,0.2-0.3,0.4-0.5,0.6c-0.1,0.2-0.2,0.5-0.2,0.8V471.9z"/>
		<path class="st0" d="M270.1,474.4v-7.3h0.9v1.3c0.2-0.5,0.5-0.8,0.9-1.1c0.4-0.3,0.8-0.4,1.4-0.4c0.4,0,0.7,0,1,0.1
			c0.3,0.1,0.5,0.2,0.7,0.5c0.2,0.2,0.4,0.5,0.5,0.8c0.1,0.3,0.2,0.7,0.2,1.2v4.9h-0.9v-4.7c0-0.6-0.1-1.1-0.4-1.4
			c-0.2-0.4-0.7-0.5-1.3-0.5c-0.3,0-0.6,0.1-0.8,0.2c-0.2,0.1-0.5,0.3-0.7,0.5c-0.2,0.2-0.3,0.5-0.4,0.8c-0.1,0.3-0.2,0.6-0.2,1v4.2
			H270.1z"/>
		<path class="st0" d="M277.8,470.8c0-0.6,0.1-1.1,0.2-1.6s0.3-0.9,0.6-1.2c0.3-0.3,0.6-0.6,0.9-0.8c0.4-0.2,0.8-0.3,1.3-0.3
			c1.1,0,1.9,0.5,2.4,1.4v-3.7h0.9v9.8h-0.9v-1.3c-0.2,0.5-0.6,0.8-1,1.1c-0.4,0.2-0.9,0.4-1.4,0.4c-0.5,0-0.9-0.1-1.3-0.3
			c-0.4-0.2-0.7-0.4-0.9-0.8c-0.3-0.3-0.4-0.7-0.6-1.2C277.9,471.9,277.8,471.3,277.8,470.8z M278.8,471.9c0,0.3,0,0.5,0.1,0.7
			c0.1,0.2,0.2,0.4,0.4,0.6c0.2,0.2,0.4,0.3,0.7,0.4c0.3,0.1,0.5,0.2,0.9,0.2c0.3,0,0.7-0.1,0.9-0.2c0.3-0.1,0.5-0.3,0.7-0.5
			c0.2-0.2,0.3-0.5,0.4-0.8c0.1-0.3,0.2-0.6,0.2-1v-1.2c0-0.3-0.1-0.7-0.2-1c-0.1-0.3-0.2-0.6-0.4-0.8c-0.2-0.2-0.4-0.4-0.7-0.5
			c-0.3-0.1-0.6-0.2-0.9-0.2c-0.3,0-0.6,0-0.9,0.2c-0.3,0.1-0.5,0.2-0.7,0.4c-0.2,0.2-0.3,0.4-0.4,0.6c-0.1,0.2-0.1,0.5-0.1,0.7
			V471.9z"/>
		<path class="st0" d="M286.6,465.8v-1h1v1H286.6z M286.6,474.4v-7.3h0.9v7.3H286.6z"/>
		<path class="st0" d="M289.6,472.2h0.9c0,0.5,0.2,0.9,0.6,1.2c0.4,0.3,0.8,0.4,1.3,0.4c0.2,0,0.5,0,0.7-0.1
			c0.2-0.1,0.4-0.1,0.6-0.2c0.2-0.1,0.3-0.2,0.4-0.4c0.1-0.2,0.1-0.3,0.1-0.6c0-0.4-0.1-0.6-0.3-0.8c-0.2-0.2-0.6-0.3-1.1-0.5
			l-1.2-0.3c-0.5-0.1-1-0.3-1.3-0.6c-0.3-0.3-0.5-0.8-0.5-1.3c0-0.3,0.1-0.6,0.2-0.8s0.3-0.5,0.5-0.6c0.2-0.2,0.5-0.3,0.8-0.4
			c0.3-0.1,0.7-0.2,1-0.2c0.3,0,0.6,0,0.9,0.1c0.3,0.1,0.6,0.2,0.8,0.4c0.2,0.2,0.4,0.4,0.6,0.7c0.2,0.3,0.2,0.6,0.2,1H294
			c0-0.5-0.2-0.9-0.5-1.1c-0.3-0.2-0.7-0.3-1.2-0.3c-0.5,0-0.9,0.1-1.2,0.3c-0.3,0.2-0.5,0.5-0.5,0.9c0,0.4,0.1,0.6,0.3,0.8
			c0.2,0.2,0.5,0.3,0.8,0.4l1.2,0.3c0.7,0.1,1.2,0.4,1.6,0.7c0.4,0.3,0.5,0.8,0.5,1.4c0,0.3-0.1,0.6-0.2,0.9
			c-0.1,0.3-0.3,0.5-0.5,0.7c-0.2,0.2-0.5,0.3-0.9,0.4c-0.3,0.1-0.7,0.2-1.1,0.2c-0.4,0-0.8-0.1-1.1-0.2c-0.3-0.1-0.6-0.3-0.9-0.5
			c-0.2-0.2-0.4-0.5-0.6-0.8C289.7,472.9,289.6,472.6,289.6,472.2z"/>
		<path class="st0" d="M296.7,472.2h0.9c0,0.5,0.2,0.9,0.6,1.2c0.4,0.3,0.8,0.4,1.3,0.4c0.2,0,0.5,0,0.7-0.1
			c0.2-0.1,0.4-0.1,0.6-0.2c0.2-0.1,0.3-0.2,0.4-0.4c0.1-0.2,0.1-0.3,0.1-0.6c0-0.4-0.1-0.6-0.3-0.8c-0.2-0.2-0.6-0.3-1.1-0.5
			l-1.2-0.3c-0.5-0.1-1-0.3-1.3-0.6c-0.3-0.3-0.5-0.8-0.5-1.3c0-0.3,0.1-0.6,0.2-0.8s0.3-0.5,0.5-0.6c0.2-0.2,0.5-0.3,0.8-0.4
			c0.3-0.1,0.7-0.2,1-0.2c0.3,0,0.6,0,0.9,0.1c0.3,0.1,0.6,0.2,0.8,0.4c0.2,0.2,0.4,0.4,0.6,0.7c0.2,0.3,0.2,0.6,0.2,1h-0.9
			c0-0.5-0.2-0.9-0.5-1.1c-0.3-0.2-0.7-0.3-1.2-0.3c-0.5,0-0.9,0.1-1.2,0.3c-0.3,0.2-0.5,0.5-0.5,0.9c0,0.4,0.1,0.6,0.3,0.8
			c0.2,0.2,0.5,0.3,0.8,0.4l1.2,0.3c0.7,0.1,1.2,0.4,1.6,0.7c0.4,0.3,0.5,0.8,0.5,1.4c0,0.3-0.1,0.6-0.2,0.9s-0.3,0.5-0.5,0.7
			c-0.2,0.2-0.5,0.3-0.9,0.4c-0.3,0.1-0.7,0.2-1.1,0.2c-0.4,0-0.8-0.1-1.1-0.2c-0.3-0.1-0.6-0.3-0.9-0.5c-0.2-0.2-0.4-0.5-0.6-0.8
			C296.8,472.9,296.7,472.6,296.7,472.2z"/>
		<path class="st0" d="M303.9,472.4c0-0.6,0.2-1,0.5-1.4c0.3-0.4,0.8-0.6,1.4-0.7l2.8-0.3v-0.7c0-0.3,0-0.6-0.1-0.8
			c-0.1-0.2-0.2-0.4-0.4-0.5c-0.1-0.1-0.3-0.2-0.5-0.3c-0.2-0.1-0.5-0.1-0.7-0.1c-0.5,0-0.9,0.1-1.2,0.4c-0.3,0.2-0.5,0.6-0.5,1.1
			h-0.9c0-0.3,0.1-0.7,0.2-0.9c0.1-0.3,0.3-0.5,0.5-0.7c0.2-0.2,0.5-0.4,0.8-0.5c0.3-0.1,0.7-0.2,1.1-0.2c0.4,0,0.7,0.1,1.1,0.2
			c0.3,0.1,0.6,0.3,0.8,0.5c0.2,0.2,0.4,0.5,0.5,0.8c0.1,0.3,0.2,0.7,0.2,1.1v4.2h1.1v0.8h-1.9l0-1.4h0c-0.2,0.5-0.5,0.9-0.9,1.2
			c-0.4,0.3-0.9,0.4-1.4,0.4c-0.4,0-0.7-0.1-1-0.2c-0.3-0.1-0.6-0.3-0.8-0.5c-0.2-0.2-0.3-0.4-0.4-0.7
			C303.9,473,303.9,472.7,303.9,472.4z M304.9,472.7c0,0.4,0.1,0.7,0.4,0.8c0.3,0.2,0.6,0.3,1.1,0.3c0.3,0,0.6-0.1,0.9-0.2
			c0.3-0.1,0.5-0.3,0.7-0.5c0.2-0.2,0.3-0.5,0.4-0.8s0.1-0.7,0.1-1v-0.4l-3.1,0.3c-0.2,0-0.4,0.1-0.5,0.2c-0.1,0.1-0.1,0.3-0.1,0.5
			V472.7z"/>
		<path class="st0" d="M312.1,474.4v-7.3h0.9v1.3c0.2-0.5,0.5-0.8,0.9-1.1c0.4-0.3,0.8-0.4,1.4-0.4c0.4,0,0.7,0,1,0.1
			c0.3,0.1,0.5,0.2,0.7,0.5c0.2,0.2,0.4,0.5,0.5,0.8c0.1,0.3,0.2,0.7,0.2,1.2v4.9h-0.9v-4.7c0-0.6-0.1-1.1-0.4-1.4
			c-0.2-0.4-0.7-0.5-1.3-0.5c-0.3,0-0.6,0.1-0.8,0.2c-0.2,0.1-0.5,0.3-0.7,0.5c-0.2,0.2-0.3,0.5-0.4,0.8c-0.1,0.3-0.2,0.6-0.2,1v4.2
			H312.1z"/>
		<path class="st0" d="M319.4,467.9v-0.8h1.2v-2.5h0.9v2.5h1.8v0.8h-1.8v5.7h1.8v0.8h-2.7v-6.5H319.4z"/>
	</g>
</g>
</svg>
