<?xml version="1.0" encoding="utf-8"?>
<!-- Generator: Adobe Illustrator 26.0.3, SVG Export Plug-In . SVG Version: 6.00 Build 0)  -->
<svg version="1.1" id="Calque_1" xmlns="http://www.w3.org/2000/svg" xmlns:xlink="http://www.w3.org/1999/xlink" x="0px" y="0px"
	 viewBox="0 0 1920 1080" style="enable-background:new 0 0 1920 1080;" xml:space="preserve">
<style type="text/css">
	.st0{fill:#4AC1E0;}
	.st1{fill:#FFFFFF;}
</style>
<rect y="0" width="1920" height="1080"/>
<g>
	<g>
		<polygon class="st0" points="778.2,537 767.6,533.8 772,518.7 742.2,499.6 739.7,508.2 729.1,505.1 735.8,482.4 785,513.8 		"/>
		<polygon class="st0" points="777.2,540.3 767.6,533.8 772,518.7 742.2,499.6 738.7,511.4 728.5,507.2 735.7,482.4 785,513.8 		"/>
		<path class="st0" d="M708.8,567.8c13.7-23.9,42-35.3,68.4-27.5l2.6-9c-44.2-13-91.9,1.3-121.7,36.5L708.8,567.8z"/>
	</g>
	<path class="st0" d="M549,567.8c-18.1,0-32.7-14.7-32.7-32.7c0-18.7,14.5-37.6,46.7-37.6c13.2,0,23.6,0.8,33.8,1.5
		c8.8,0.6,17,1.2,26.1,1.2c14.3,0,21.5-4.2,21.5-12.4c0-5.3-3.9-9.9-9.1-10.8l-5.4-1.1l2.2-10.8l5.4,1.1c10.4,1.9,17.9,11,18,21.6
		c0.2,6.6-2.8,12.9-8,17c-5.5,4.3-13.8,6.5-24.5,6.5c-9.5,0-17.9-0.6-26.9-1.3c-9.9-0.7-20.2-1.5-33-1.5
		c-21.7,0-35.7,10.4-35.7,26.5c0,12,9.7,21.7,21.7,21.7c7,0,13.6-3.4,17.7-9.1l0.4-0.6c13.1-20,36.3-30.8,60-28.1
		c14.3,1.7,28.7-2.7,39.6-12.1c18.2-15.5,43.5-19.4,65.5-10.1l5.1,2.1l-4.3,10.2l-5.1-2.1c-18.1-7.7-39.1-4.4-54,8.4
		c-13.3,11.3-30.7,16.6-48,14.6c-19.2-2.2-38,6.3-48.9,22.2l-0.6,1C570.2,562.3,560,567.8,549,567.8z"/>
</g>
<polygon points="610.9,477.1 610.9,463.6 633.8,463.6 629.8,477.1 "/>
<g>
	<path class="st1" d="M928.1,500.5h-13.8l-45.8,67.4h18.8l8.1-12.2h51.2l8.3,12.2h19.2L928.1,500.5z M904.3,542.1l16.5-25l16.8,25
		H904.3z"/>
	<path class="st1" d="M1058.2,532.9v21.2h-28.1c-16.4,0-30.2,0.1-30.2-20s13.7-20,30.2-20h43.1v-13.6h-45.6
		c-18.2,0-29.7,2.6-36.7,9.6c-5.6,5.6-8.7,13.6-8.7,24s3.2,18.5,8.7,24c7,7,18.6,9.7,36.7,9.7h47.5v-34.9H1058.2z"/>
	<path class="st1" d="M1169.6,500.5V539c0,4.7-0.8,8-3.4,10.5c-3.8,3.6-11,4.9-24.1,4.9h-3.4c-13.1,0-20.3-1.3-24.1-4.9
		c-2.6-2.5-3.4-5.8-3.4-10.5v-38.5h-16.9v40.7c0,9.7,2,14.9,7.2,19.3c6.4,5.6,17.5,8.4,36.5,8.4h4.7c18.8,0,30.1-2.8,36.5-8.4
		c5.2-4.4,7.2-9.7,7.2-19.3v-40.7H1169.6z"/>
	<path class="st1" d="M1252.8,500.5H1239l-45.7,67.4h18.8l8.1-12.2h51.2l8.2,12.2h19.2L1252.8,500.5z M1229.1,542.1l16.5-25l16.8,25
		H1229.1z"/>
	<path class="st1" d="M1391.7,555.8c-4.4-4-7.1-6.1-11.3-7.7c13.6-2,20.1-9.5,20.1-23.5c0-19-12.4-24.1-29.6-24.1h-59.8v67.4h17v-19
		h24.6c8.3,0,11.2,1.1,18.2,7.4l12.8,11.6h21.2L1391.7,555.8z M1369.3,535.4h-41.2v-21.6h41.2c8.5,0,14,1.1,14,10.8
		S1377.9,535.4,1369.3,535.4z"/>
</g>
<polygon points="792.8,554.5 792.7,554.5 792.7,554.4 "/>
<path class="st1" d="M863,500.5V539c0,10.2-1.9,16.1-6.6,20.9c-5.9,5.9-14.8,8-29.2,8h-40.3l5.8-13.4h32.3
	c14.1,0,21.1-1.5,21.1-16.9v-37.1H863z"/>
<polygon class="st1" points="792.8,554.5 792.7,554.5 792.7,554.4 "/>
</svg>
