<?xml version="1.0" encoding="utf-8"?>
<!-- Generator: Adobe Illustrator 26.0.3, SVG Export Plug-In . SVG Version: 6.00 Build 0)  -->
<svg version="1.1" id="Calque_1" xmlns="http://www.w3.org/2000/svg" xmlns:xlink="http://www.w3.org/1999/xlink" x="0px" y="0px"
	 viewBox="0 0 759 722" style="enable-background:new 0 0 759 722;" xml:space="preserve">
<style type="text/css">
	.st0{fill:none;stroke:#FFFFFF;stroke-width:0.58;stroke-miterlimit:10.0002;stroke-dasharray:4.0711,4.0711;}
	.st1{fill:none;stroke:#FFFFFF;stroke-width:0.58;stroke-miterlimit:10;stroke-dasharray:3.857,3.857;}
	.st2{fill:none;stroke:#FFFFFF;stroke-width:0.58;stroke-miterlimit:10;stroke-dasharray:4.045,4.045;}
	.st3{fill:none;stroke:#FFFFFF;stroke-width:0.58;stroke-miterlimit:10;stroke-dasharray:4.081,4.081;}
	.st4{fill:none;stroke:#FFFFFF;stroke-width:0.58;stroke-miterlimit:10;stroke-dasharray:3.978,3.978;}
	.st5{fill:none;stroke:#FFFFFF;stroke-width:0.58;stroke-miterlimit:10;stroke-dasharray:3.979,3.979;}
	.st6{fill:none;stroke:#FFFFFF;stroke-width:0.58;stroke-miterlimit:10;stroke-dasharray:4.015,4.015;}
	.st7{fill:none;stroke:#FFFFFF;stroke-width:0.58;stroke-miterlimit:10;stroke-dasharray:4.032,4.032;}
	.st8{fill:none;stroke:#FFFFFF;stroke-width:0.58;stroke-miterlimit:10;}
	.st9{fill:none;stroke:#FFFFFF;stroke-width:0.58;stroke-miterlimit:10;stroke-dasharray:4.162,4.162;}
	.st10{fill:none;stroke:#FFFFFF;stroke-width:0.58;stroke-miterlimit:10;stroke-dasharray:3.308,3.308;}
	.st11{fill:none;stroke:#FFFFFF;stroke-width:0.58;stroke-miterlimit:10;stroke-dasharray:4.006,4.006;}
	.st12{fill:none;stroke:#FFFFFF;stroke-width:0.597;stroke-miterlimit:10;stroke-dasharray:4.006,4.006;}
	.st13{fill:none;stroke:#FFFFFF;stroke-width:0.597;stroke-miterlimit:9.9999;stroke-dasharray:3.989,3.989;}
	.st14{fill:none;stroke:#FFFFFF;stroke-miterlimit:10;stroke-dasharray:3.998,3.998;}
	.st15{fill:none;stroke:#FFFFFF;stroke-width:0.58;stroke-miterlimit:10;stroke-dasharray:3.991,3.991;}
	.st16{fill:none;stroke:#FFFFFF;stroke-width:0.58;stroke-miterlimit:10;stroke-dasharray:3.994,3.994;}
	.st17{fill:none;stroke:#FFFFFF;stroke-width:0.58;stroke-miterlimit:10;stroke-dasharray:3.996,3.996;}
	.st18{fill:none;stroke:#FFFFFF;stroke-width:0.58;stroke-miterlimit:10;stroke-dasharray:3.988,3.988;}
	.st19{fill:none;stroke:#FFFFFF;stroke-width:0.58;stroke-miterlimit:10;stroke-dasharray:3.993,3.993;}
	.st20{fill:none;stroke:#FFFFFF;stroke-width:0.58;stroke-miterlimit:10;stroke-dasharray:4.002,4.002;}
	.st21{fill:none;stroke:#FFFFFF;stroke-width:13.899;stroke-miterlimit:10;}
	.st22{fill:#FFFFFF;}
	.st23{fill:none;stroke:#FFFFFF;stroke-width:13.899;stroke-linecap:square;stroke-miterlimit:10;}
</style>
<rect x="-579.5" y="-154.8" width="1920" height="1080"/>
<g>
	<ellipse class="st0" cx="318.6" cy="287.9" rx="31.1" ry="31.1"/>
	<circle class="st1" cx="318.6" cy="287.9" r="17.2"/>
</g>
<g>
	<circle class="st2" cx="212.8" cy="349.6" r="41.2"/>
	<circle class="st3" cx="212.8" cy="349.6" r="27.3"/>
</g>
<g>
	<path class="st4" d="M302.4,488.3c-3.1,0-6.1-0.2-9.1-0.5c-43.6-5-74.9-44.4-69.9-88.1c5-43.6,44.4-74.9,88.1-69.9
		s74.9,44.4,69.9,88.1C376.7,458,342.8,488.2,302.4,488.3z"/>
	<path class="st4" d="M302.2,342.6c-36.4,0-65.9,29.5-65.9,65.9s29.5,65.9,65.9,65.9s65.9-29.5,65.9-65.9
		c0-33.5-25.2-61.7-58.4-65.4C307.2,342.8,304.7,342.6,302.2,342.6z"/>
</g>
<g>
	<path class="st4" d="M318.7,343.6c-2.2,0-4.4-0.1-6.7-0.3c-43.8-3.6-76.4-42.1-72.8-85.9c3.6-43.8,42.1-76.4,85.9-72.8
		c43.8,3.6,76.4,42.1,72.8,85.9C394.6,311.8,360.1,343.5,318.7,343.6z"/>
	<path class="st4" d="M318.5,198c-36.4,0.1-65.8,29.6-65.7,65.9c0.1,36.4,29.6,65.8,65.9,65.7c36.4-0.1,65.8-29.6,65.7-65.9
		c0-15.6-5.6-30.6-15.6-42.5C356.3,206.4,337.9,197.9,318.5,198z"/>
</g>
<g>
	<path class="st4" d="M412.9,454.6c-44,0-79.7-35.7-79.7-79.7s35.7-79.7,79.7-79.7s79.7,35.7,79.7,79.7c0,23.4-10.3,45.7-28.2,60.8
		C450,447.9,431.7,454.6,412.9,454.6z"/>
	<path class="st5" d="M412.7,309c-36.5,0-66,29.6-66,66.1s29.6,66,66.1,66s66-29.6,66-66.1c0-34.3-26.3-62.9-60.6-65.8
		C416.4,309,414.5,309,412.7,309z"/>
</g>
<g>
	<path class="st6" d="M218.9,396.9c-26.1,0-47.3-21.2-47.3-47.3s21.2-47.3,47.3-47.3s47.3,21.2,47.3,47.3l0,0
		C266.2,375.7,245,396.9,218.9,396.9z"/>
	<path class="st7" d="M218.9,316.2c-18.4,0-33.4,14.9-33.4,33.4s14.9,33.4,33.4,33.4c18.4,0,33.4-14.9,33.4-33.4l0,0
		C252.3,331.2,237.4,316.2,218.9,316.2z"/>
</g>
<g>
	<path class="st8" d="M318.6,317.1v2h-2"/>
	<path class="st9" d="M312.4,319c-19.3-0.1-31.6-0.8-43.5-1.4c-12.4-0.7-25.2-1.3-45.9-1.4"/>
	<path class="st8" d="M220.9,316.2h-2v-2"/>
	<line class="st10" x1="218.9" y1="310.9" x2="218.9" y2="305.9"/>
	<path class="st8" d="M218.9,304.3v-2h2"/>
	<path class="st9" d="M225.1,302.3c19.9,0.1,32.4,0.8,44.5,1.4c12.8,0.7,24.8,1.3,44.9,1.4"/>
	<path class="st8" d="M316.6,305.1h2v2"/>
	<line class="st10" x1="318.6" y1="310.4" x2="318.6" y2="315.4"/>
</g>
<circle class="st11" cx="462.3" cy="485.5" r="146.6"/>
<g>
	<circle class="st12" cx="462.3" cy="485.5" r="146.6"/>
	
		<ellipse transform="matrix(0.7071 -0.7071 0.7071 0.7071 -162.3642 464.2247)" class="st13" cx="479.2" cy="428.1" rx="74.9" ry="74.9"/>
</g>
<line class="st14" x1="1382" y1="383.2" x2="-855" y2="396.1"/>
<line class="st15" x1="672.8" y1="-230.1" x2="319.7" y2="970.3"/>
<line class="st16" x1="699.8" y1="-371.1" x2="294.7" y2="1006.3"/>
<line class="st17" x1="653.8" y1="-415.1" x2="223.7" y2="1047.3"/>
<line class="st17" x1="517.1" y1="-415.1" x2="86.9" y2="1047.3"/>
<line class="st18" x1="601.8" y1="-191.1" x2="260.7" y2="970.3"/>
<line class="st19" x1="-258.4" y1="-167.6" x2="1423.2" y2="905"/>
<line class="st20" x1="-460.4" y1="-279.6" x2="1481.2" y2="959"/>
<g>
	<g>
		<polyline class="st21" points="446.3,313.7 452,294 501.7,325.7 494.7,349.8 		"/>
		<polygon class="st22" points="500.1,356 488,347.9 493.6,328.8 456.1,304.9 451.7,319.7 438.8,314.3 448,283.2 509.9,322.7 		"/>
		<path class="st22" d="M414.1,390.6c17.2-30,52.8-44.3,86-34.6l3.3-11.3c-55.6-16.3-115.6,1.7-153,45.9H414.1z"/>
	</g>
	<path class="st23" d="M322.9,269.8c9.7,2,17,10,17,20.3c0,12.2-8.4,22.5-34,22.5c-24.7,0-44.4-3.4-75.3-3.4
		c-33.9,0-51.8,18-51.8,40.3c0,18.9,15.3,34.2,34.2,34.2c11.5,0,22.2-5.8,28.6-15.4l0,0c15.1-22.9,41.7-35.3,68.9-32.2
		c19.9,2.3,39.9-3.8,55.1-16.8c20.9-17.7,49.9-22.2,75.1-11.6"/>
</g>
</svg>
