<?xml version="1.0" encoding="utf-8"?>
<!-- Generator: Adobe Illustrator 26.0.3, SVG Export Plug-In . SVG Version: 6.00 Build 0)  -->
<svg version="1.1" id="Calque_1" xmlns="http://www.w3.org/2000/svg" xmlns:xlink="http://www.w3.org/1999/xlink" x="0px" y="0px"
	 viewBox="0 0 1056.8 299.8" style="enable-background:new 0 0 1056.8 299.8;" xml:space="preserve">
<g>
	<path d="M28.2,56.6v-24h11.2c5.2,0,8.1,3.5,8.1,7.7c0,4.2-2.9,7.7-8.1,7.7h-6.1v8.6H28.2z M42.3,40.3c0-2-1.5-3.2-3.6-3.2h-5.4v6.4
		h5.4C40.7,43.5,42.3,42.3,42.3,40.3z"/>
	<path d="M64.2,56.6l-4.7-8.5h-3.7v8.5h-5.1v-24h11.2c5,0,8.1,3.3,8.1,7.7c0,4.2-2.7,6.5-5.3,7.1l5.4,9.1H64.2z M64.8,40.3
		c0-2-1.5-3.2-3.6-3.2h-5.4v6.5h5.4C63.2,43.6,64.8,42.3,64.8,40.3z"/>
	<path d="M72.7,44.6c0-7.2,5.3-12.4,12.6-12.4c7.2,0,12.5,5.2,12.5,12.4S92.5,57,85.2,57C78,57,72.7,51.8,72.7,44.6z M92.5,44.6
		c0-4.5-2.8-7.9-7.3-7.9c-4.5,0-7.3,3.4-7.3,7.9c0,4.5,2.8,7.9,7.3,7.9C89.7,52.5,92.5,49.1,92.5,44.6z"/>
	<path d="M115.9,56.6l-6-8.8l-6,8.8h-6.1l8.7-12.3l-8.2-11.7h6.1l5.5,8.2l5.4-8.2h6.2l-8.2,11.7l8.7,12.3H115.9z"/>
	<path d="M124.3,56.6v-24h5.1v24H124.3z"/>
	<path d="M155.1,56.6V39.3l-6.8,17.3h-2.2l-6.8-17.3v17.3h-5.1v-24h7.2l5.8,15l5.8-15h7.2v24H155.1z"/>
	<path d="M181.6,56.6l-1.5-4.1h-10.3l-1.5,4.1h-5.8l9.2-24h6.4l9.3,24H181.6z M174.9,37.7L171.2,48h7.5L174.9,37.7z"/>
	<path d="M215.4,56.6L204,40.9v15.7h-5.1v-24h5.3l11.1,15.1V32.6h5.1v24H215.4z"/>
	<path d="M223.9,44.6c0-7.2,5.3-12.4,12.6-12.4c7.2,0,12.5,5.2,12.5,12.4S243.7,57,236.5,57C229.2,57,223.9,51.8,223.9,44.6z
		 M243.8,44.6c0-4.5-2.8-7.9-7.3-7.9c-4.5,0-7.3,3.4-7.3,7.9c0,4.5,2.8,7.9,7.3,7.9C240.9,52.5,243.8,49.1,243.8,44.6z"/>
	<path d="M258.6,56.6l-9.2-24h5.8l6.7,18.4l6.7-18.4h5.8l-9.3,24H258.6z"/>
	<path d="M291.4,56.6l-1.5-4.1h-10.3l-1.5,4.1h-5.8l9.2-24h6.4l9.3,24H291.4z M284.8,37.7L281,48h7.5L284.8,37.7z"/>
</g>
<g>
	<path d="M39.4,110l-1.1-2.9h-7.4l-1.1,2.9h-4.2l6.7-17.3h4.6l6.7,17.3H39.4z M34.6,96.4l-2.7,7.5h5.4L34.6,96.4z"/>
	<path d="M52.7,110v-1.3c-0.9,1-2.3,1.6-4,1.6c-2,0-4.3-1.4-4.3-4.2c0-3,2.3-4.1,4.3-4.1c1.7,0,3.1,0.5,4,1.5v-1.6
		c0-1.3-1.1-2.1-2.8-2.1c-1.3,0-2.6,0.5-3.6,1.5L45,99.1c1.5-1.4,3.5-2,5.5-2c2.9,0,5.5,1.1,5.5,4.8v8.1H52.7z M52.7,107v-1.6
		c-0.5-0.7-1.6-1.1-2.7-1.1c-1.3,0-2.4,0.7-2.4,1.9s1.1,1.9,2.4,1.9C51.1,108.1,52.1,107.8,52.7,107z"/>
	<path d="M66,110V92.7h9.1c3.3,0,5,2.1,5,4.4c0,2.2-1.4,3.6-3,4c1.9,0.3,3.3,2.1,3.3,4.2c0,2.6-1.7,4.7-5,4.7H66z M76.4,97.8
		c0-1.1-0.8-1.8-2-1.8h-4.6v3.6h4.6C75.6,99.6,76.4,98.9,76.4,97.8z M76.7,104.8c0-1.1-0.8-2-2.2-2h-4.8v4h4.8
		C75.9,106.8,76.7,106.1,76.7,104.8z"/>
	<path d="M83.2,110V92.7h3.3v6.4c1-1.3,2.4-1.9,3.9-1.9c3.2,0,5.6,2.5,5.6,6.6c0,4.2-2.4,6.6-5.6,6.6c-1.5,0-2.9-0.7-3.9-1.9v1.6
		H83.2z M89.3,107.4c1.9,0,3.2-1.5,3.2-3.7c0-2.2-1.3-3.6-3.2-3.6c-1.1,0-2.3,0.6-2.9,1.5v4.4C87,106.8,88.2,107.4,89.3,107.4z"/>
	<path d="M104.3,101.4c0-5.4,4-9,9.3-9c3.8,0,6,2.1,7.2,4.2l-3.2,1.6c-0.7-1.4-2.3-2.5-4.1-2.5c-3.2,0-5.5,2.4-5.5,5.7
		s2.3,5.7,5.5,5.7c1.8,0,3.3-1.1,4.1-2.5l3.2,1.5c-1.2,2.2-3.4,4.3-7.2,4.3C108.4,110.4,104.3,106.7,104.3,101.4z"/>
	<path d="M122.1,103.8c0-3.8,2.8-6.6,6.7-6.6c2.6,0,4.1,1.1,5,2.3l-2.2,2c-0.6-0.9-1.5-1.4-2.7-1.4c-2,0-3.4,1.5-3.4,3.6
		c0,2.2,1.4,3.7,3.4,3.7c1.1,0,2.1-0.5,2.7-1.4l2.2,2c-0.8,1.1-2.4,2.3-5,2.3C124.9,110.4,122.1,107.6,122.1,103.8z"/>
	<path d="M142.7,110V92.7h6.8c5.4,0,9.2,3.5,9.2,8.7c0,5.3-3.8,8.7-9.2,8.7H142.7z M155,101.4c0-3-1.9-5.4-5.4-5.4h-3.2v10.8h3.1
		C153,106.8,155,104.3,155,101.4z"/>
	<path d="M169.9,110v-1.6c-1,1.2-2.3,1.9-3.9,1.9c-3.1,0-5.6-2.4-5.6-6.6c0-4.1,2.4-6.6,5.6-6.6c1.5,0,2.9,0.6,3.9,1.9v-6.4h3.3V110
		H169.9z M169.9,106v-4.4c-0.5-0.8-1.7-1.4-2.8-1.4c-1.9,0-3.2,1.5-3.2,3.6c0,2.2,1.3,3.7,3.2,3.7
		C168.2,107.4,169.4,106.8,169.9,106z"/>
	<path d="M183.3,110V92.7h12.3V96H187v3.6h8.4v3.2H187v4h8.6v3.2H183.3z"/>
	<path d="M197.5,103.8c0-3.6,2.7-6.6,6.5-6.6c3.8,0,6.3,2.8,6.3,6.9v0.8H201c0.2,1.5,1.5,2.8,3.6,2.8c1.1,0,2.5-0.4,3.3-1.2l1.5,2.2
		c-1.2,1.1-3.2,1.7-5.2,1.7C200.4,110.4,197.5,107.8,197.5,103.8z M204,99.9c-2.1,0-2.9,1.4-3.1,2.7h6.2
		C207.1,101.4,206.2,99.9,204,99.9z"/>
	<path d="M219.5,110V92.7h12.3V96h-8.6v3.6h8.4v3.2h-8.4v7.2H219.5z"/>
	<path d="M235,110v-9.7h-2.1v-2.9h2.1V97c0-2.8,1.7-4.5,4.2-4.5c1.2,0,2.5,0.3,3.3,1.2l-1.2,2c-0.3-0.3-0.8-0.5-1.4-0.5
		c-0.9,0-1.6,0.6-1.6,1.8v0.5h2.5v2.9h-2.5v9.7H235z"/>
	<path d="M248.7,101.4c0-5.5,4.2-9,9.3-9c3.6,0,5.8,1.8,7.2,3.9l-3,1.7c-0.8-1.2-2.3-2.3-4.1-2.3c-3.2,0-5.5,2.4-5.5,5.7
		s2.3,5.7,5.5,5.7c1.5,0,3-0.7,3.7-1.3v-2.1H257v-3.2h8.3v6.7c-1.8,2-4.2,3.3-7.4,3.3C252.8,110.4,248.7,106.8,248.7,101.4z"/>
	<path d="M267.9,113.3l1.5-2.4c1,1.1,2.4,1.5,3.9,1.5c1.6,0,3.5-0.7,3.5-3.2V108c-1,1.2-2.3,2-3.9,2c-3.1,0-5.5-2.2-5.5-6.4
		c0-4.1,2.4-6.4,5.5-6.4c1.5,0,2.9,0.6,3.9,1.9v-1.6h3.3v11.7c0,4.8-3.7,5.9-6.8,5.9C271.2,115.1,269.5,114.6,267.9,113.3z
		 M276.8,105.6v-4.1c-0.6-0.8-1.8-1.4-2.8-1.4c-1.9,0-3.2,1.3-3.2,3.5s1.3,3.5,3.2,3.5C275,107,276.2,106.4,276.8,105.6z"/>
	<path d="M302,110v-7.3h-8.2v7.3h-3.7V92.7h3.7v6.8h8.2v-6.8h3.7V110H302z"/>
	<path d="M317.6,110v-7.6c0-1.7-0.9-2.3-2.3-2.3c-1.3,0-2.3,0.7-2.9,1.5v8.5h-3.3V92.7h3.3v6.4c0.8-0.9,2.3-1.9,4.4-1.9
		c2.8,0,4.1,1.5,4.1,4v8.9H317.6z"/>
	<path d="M330.9,110V92.7h3.7V110H330.9z"/>
	<path d="M337.6,94.2c0-1.1,0.9-2,2-2c1.1,0,2,0.9,2,2c0,1.1-0.9,2-2,2C338.5,96.1,337.6,95.2,337.6,94.2z M337.9,110V97.5h3.3V110
		H337.9z"/>
	<path d="M349.7,108.6l1.6-2.8c0.7,0.6,1.6,1.2,2.8,1.2c1.6,0,2.7-1.1,2.7-2.8V92.7h3.7v11.6c0,4.1-2.6,6-6.1,6
		C352.6,110.4,351,109.9,349.7,108.6z"/>
	<path d="M359.5,114.2l0.9-2.4c0.5,0.4,0.9,0.7,1.7,0.7c1,0,1.7-0.7,1.7-2.1V97.5h3.3v12.9c0,2.9-1.5,4.8-4.5,4.8
		C361.1,115.1,360.5,114.9,359.5,114.2z M363.5,94.2c0-1.1,0.9-2,2-2c1.1,0,2,0.9,2,2c0,1.1-0.9,2-2,2
		C364.4,96.1,363.5,95.2,363.5,94.2z"/>
	<path d="M387.5,110l-5.3-7l-1.4,1.6v5.3h-3.7V92.7h3.7v7.7l6.1-7.7h4.6l-6.9,8.1l7.4,9.2H387.5z"/>
	<path d="M401.8,110l-3.3-4.8l-1.5,1.6v3.2h-3.3V92.7h3.3v10.4l4.8-5.6h4.1l-5,5.7l5.1,6.9H401.8z"/>
	<path d="M414.2,110V92.7h3.7v14.1h7.3v3.2H414.2z"/>
	<path d="M427.6,110V92.7h3.3V110H427.6z"/>
	<path d="M456.1,110V97.5l-4.9,12.5h-1.6l-4.9-12.5V110H441V92.7h5.2l4.2,10.8l4.2-10.8h5.2V110H456.1z"/>
	<path d="M478.7,110v-7.9c0-1.2-0.5-2-1.9-2c-1.2,0-2.1,0.8-2.6,1.5v8.5h-3.3v-7.9c0-1.2-0.5-2-1.9-2c-1.1,0-2.1,0.8-2.6,1.5v8.5
		h-3.3V97.5h3.3v1.6c0.5-0.7,2.2-1.9,4.1-1.9c1.8,0,3,0.9,3.5,2.3c0.7-1.1,2.4-2.3,4.3-2.3c2.3,0,3.7,1.2,3.7,3.8v9.1H478.7z"/>
	<path d="M504,110l-8.3-11.3V110h-3.7V92.7h3.8l8,10.9V92.7h3.7V110H504z"/>
	<path d="M519.4,110v-7.6c0-1.7-0.9-2.3-2.3-2.3c-1.3,0-2.3,0.7-2.9,1.5v8.5h-3.3V97.5h3.3v1.6c0.8-0.9,2.4-1.9,4.4-1.9
		c2.8,0,4.1,1.6,4.1,4v8.9H519.4z"/>
	<path d="M26.6,132.6c0-5.2,3.8-9,9.1-9c5.2,0,9,3.7,9,9c0,5.2-3.8,9-9,9C30.4,141.6,26.6,137.8,26.6,132.6z M40.9,132.6
		c0-3.2-2.1-5.7-5.3-5.7c-3.2,0-5.3,2.4-5.3,5.7c0,3.2,2.1,5.7,5.3,5.7C38.9,138.3,40.9,135.8,40.9,132.6z"/>
	<path d="M46.4,135c0-3.6,2.5-6.6,6.6-6.6c4.2,0,6.7,3,6.7,6.6c0,3.6-2.5,6.6-6.7,6.6C48.9,141.6,46.4,138.5,46.4,135z M56.3,135
		c0-2-1.1-3.6-3.2-3.6c-2.1,0-3.2,1.7-3.2,3.6c0,2,1.1,3.7,3.2,3.7C55.1,138.6,56.3,136.9,56.3,135z"/>
	<path d="M68.9,141.2v-17.3h8.1c3.8,0,5.8,2.5,5.8,5.6c0,3-2.1,5.6-5.8,5.6h-4.4v6.2H68.9z M79.1,129.5c0-1.5-1.1-2.3-2.6-2.3h-3.9
		v4.7h3.9C78,131.8,79.1,130.9,79.1,129.5z"/>
	<path d="M88.4,139.6v6.4h-3.3v-17.3h3.3v1.6c1-1.2,2.3-1.9,3.9-1.9c3.2,0,5.6,2.4,5.6,6.6c0,4.2-2.3,6.6-5.6,6.6
		C90.8,141.6,89.5,140.9,88.4,139.6z M94.5,135c0-2.2-1.3-3.6-3.2-3.6c-1.1,0-2.3,0.6-2.8,1.4v4.4c0.5,0.8,1.8,1.5,2.8,1.5
		C93.1,138.6,94.5,137.1,94.5,135z"/>
	<path d="M106.2,132.6c0-5.2,3.8-9,9.1-9c5.2,0,9,3.7,9,9c0,2.4-0.9,4.6-2.3,6.1l1.3,1.5l-2.6,2.1l-1.4-1.6
		c-1.2,0.5-2.6,0.9-4.1,0.9C110,141.6,106.2,137.8,106.2,132.6z M117.1,138l-1.9-2.2l2.6-2.1l1.9,2.2c0.6-0.9,0.9-2.1,0.9-3.3
		c0-3.2-2.1-5.7-5.3-5.7c-3.2,0-5.3,2.4-5.3,5.7c0,3.2,2.1,5.7,5.3,5.7C115.9,138.3,116.5,138.2,117.1,138z"/>
	<path d="M126,135c0-4.2,2.3-6.6,5.5-6.6c1.5,0,2.9,0.7,3.9,1.9v-1.6h3.3V146h-3.3v-6.4c-1,1.3-2.4,1.9-3.9,1.9
		C128.4,141.6,126,139.1,126,135z M135.4,137.2v-4.4c-0.5-0.8-1.7-1.4-2.8-1.4c-1.9,0-3.2,1.5-3.2,3.6c0,2.2,1.3,3.7,3.2,3.7
		C133.7,138.6,134.9,138,135.4,137.2z"/>
	<path d="M158.6,141.2l-3.4-6.2h-2.7v6.2h-3.7v-17.3h8.1c3.6,0,5.9,2.4,5.9,5.6c0,3-2,4.7-3.8,5.1l3.9,6.6H158.6z M158.9,129.5
		c0-1.4-1.1-2.3-2.6-2.3h-3.9v4.7h3.9C157.8,131.8,158.9,130.9,158.9,129.5z"/>
	<path d="M165.4,141.2v-12.6h3.3v1.7c0.9-1.1,2.4-2,4-2v3.2c-0.2-0.1-0.5-0.1-0.9-0.1c-1.1,0-2.5,0.6-3.1,1.4v8.3H165.4z"/>
	<path d="M180.3,138.8l2-2.9c1.2,1.3,3.1,2.4,5.5,2.4c2.1,0,3-0.9,3-1.9c0-3-10-0.9-10-7.4c0-2.9,2.5-5.3,6.6-5.3
		c2.8,0,5,0.8,6.8,2.4l-2.1,2.8c-1.4-1.3-3.3-1.9-5-1.9c-1.6,0-2.4,0.7-2.4,1.7c0,2.7,10,0.9,10,7.4c0,3.2-2.3,5.6-6.9,5.6
		C184.4,141.6,182,140.4,180.3,138.8z"/>
	<path d="M196,139.6l1.4-2.4c0.9,0.9,2.8,1.7,4.3,1.7c1.4,0,2.1-0.5,2.1-1.3c0-2.1-7.4-0.4-7.4-5.3c0-2.1,1.8-4,5.1-4
		c2.1,0,3.8,0.7,5,1.7l-1.3,2.3c-0.8-0.8-2.2-1.5-3.7-1.5c-1.2,0-2,0.5-2,1.2c0,1.8,7.5,0.3,7.5,5.4c0,2.3-2,4-5.5,4
		C199.4,141.6,197.3,140.8,196,139.6z"/>
	<path d="M220.2,141.2v-14.1h-5.1v-3.2H229v3.2h-5v14.1H220.2z"/>
	<path d="M231.9,138.1v-6.5h-2.1v-2.9h2.1v-3.4h3.3v3.4h2.5v2.9h-2.5v5.6c0,0.8,0.4,1.4,1.1,1.4c0.5,0,1-0.2,1.1-0.4l0.7,2.5
		c-0.5,0.4-1.4,0.8-2.8,0.8C233.2,141.6,231.9,140.4,231.9,138.1z"/>
	<path d="M246.8,134.3v-10.4h3.7v10.3c0,2.4,1.4,4.1,4.1,4.1c2.7,0,4.1-1.7,4.1-4.1v-10.3h3.8v10.4c0,4.3-2.5,7.3-7.8,7.3
		C249.4,141.6,246.8,138.6,246.8,134.3z"/>
	<path d="M274.3,141.2v-1.6c-0.9,0.9-2.4,1.9-4.4,1.9c-2.8,0-4.1-1.5-4.1-4v-8.9h3.3v7.6c0,1.7,0.9,2.3,2.3,2.3
		c1.3,0,2.3-0.7,2.9-1.4v-8.5h3.3v12.6H274.3z"/>
	<path d="M292.5,141.2l-6.7-17.3h4.2l4.8,13.3l4.8-13.3h4.2l-6.7,17.3H292.5z"/>
	<path d="M308.1,141.2l-5-12.6h3.5l3.3,8.7l3.3-8.7h3.5l-5,12.6H308.1z"/>
	<path d="M338.2,141.2l-3-11.9l-3,11.9h-3.9l-5-17.3h4.1l3,12.5l3.3-12.5h2.9l3.3,12.5l3-12.5h4.1l-4.9,17.3H338.2z"/>
	<path d="M359.8,141.2l-2.7-8.6l-2.7,8.6H351l-3.8-12.6h3.4l2.3,8.5l2.8-8.5h2.9l2.8,8.5l2.3-8.5h3.5l-3.8,12.6H359.8z"/>
	<path d="M386.9,141.2l-4.3-6.3l-4.4,6.3h-4.4l6.3-8.9l-5.9-8.5h4.4l4,5.9l3.9-5.9h4.4l-5.9,8.4l6.3,8.9H386.9z"/>
	<path d="M400.6,141.2l-2.9-4.2l-2.9,4.2h-3.7l4.5-6.4l-4.2-6.1h3.7l2.6,3.8l2.6-3.8h3.7l-4.2,6.1l4.5,6.4H400.6z"/>
	<path d="M417.5,141.2v-7.1l-6.7-10.2h4.2l4.3,6.9l4.3-6.9h4.2l-6.6,10.2v7.1H417.5z"/>
	<path d="M427.9,143.2c0.3,0.1,0.7,0.2,1,0.2c0.9,0,1.4-0.2,1.7-0.9l0.5-1.1l-5.1-12.7h3.5l3.3,8.7l3.3-8.7h3.5l-5.9,14.6
		c-0.9,2.4-2.6,3-4.8,3c-0.4,0-1.2-0.1-1.6-0.2L427.9,143.2z"/>
	<path d="M447.3,141.2v-3l8.2-11.1h-8.2v-3.2h13v3l-8.2,11.1h8.4v3.2H447.3z"/>
	<path d="M462.7,141.2v-2.5l5.7-7.2h-5.7v-2.9h10.2v2.4l-5.8,7.3h5.9v2.9H462.7z"/>
	<path d="M26.6,163.8c0-4.5,2.2-8.9,7.2-8.9c5,0,7.2,4.5,7.2,8.9c0,4.5-2.2,9-7.2,9C28.8,172.8,26.6,168.3,26.6,163.8z M37.2,163.8
		c0-3.2-0.9-5.7-3.4-5.7c-2.5,0-3.4,2.5-3.4,5.7s0.9,5.7,3.4,5.7C36.2,169.5,37.2,167,37.2,163.8z"/>
	<path d="M47.1,172.4v-12.6l-2.9,2.9l-2.1-2.2l5.5-5.5h3.2v17.3H47.1z"/>
	<path d="M53.7,172.4v-2.9c7.1-5.3,9.2-7,9.2-9.2c0-1.5-1.4-2.3-2.8-2.3c-2,0-3.5,0.8-4.7,2l-2.1-2.4c1.7-2,4.3-2.8,6.7-2.8
		c3.7,0,6.6,2.1,6.6,5.5c0,3-2.4,5.5-6.9,8.8h7.1v3.2H53.7z"/>
	<path d="M68.6,170l1.9-2.5c1.2,1.2,3.1,2,4.8,2c2.1,0,3.3-0.9,3.3-2.2c0-1.4-1.1-2-3.5-2c-0.7,0-1.9,0-2.2,0.1V162
		c0.3,0,1.5,0,2.2,0c1.9,0,3.2-0.6,3.2-1.8c0-1.4-1.4-2.1-3.2-2.1c-1.7,0-3.2,0.6-4.4,1.8l-1.8-2.3c1.4-1.6,3.6-2.8,6.6-2.8
		c4.1,0,6.6,1.8,6.6,4.7c0,2.2-1.9,3.6-3.8,4c1.8,0.2,4.1,1.6,4.1,4.2c0,3-2.7,5.1-6.8,5.1C72.3,172.8,69.9,171.5,68.6,170z"/>
	<path d="M92.3,172.4v-3.6H84v-2.9l6.9-10.8H96v10.5h2.2v3.2H96v3.6H92.3z M92.3,158.4l-4.7,7.2h4.7V158.4z"/>
	<path d="M100.2,170.2l2.1-2.6c1.2,1.2,2.8,1.9,4.6,1.9c2.1,0,3.2-1.2,3.2-2.6c0-1.5-1.1-2.6-3.1-2.6c-1.4,0-2.6,0.4-3.6,1.4
		l-2.6-0.7v-9.9h11.9v3.2h-8.2v4.2c0.8-0.8,2.2-1.5,3.8-1.5c2.9,0,5.6,2.1,5.6,5.6c0,3.7-2.8,6-6.9,6
		C103.8,172.8,101.7,171.8,100.2,170.2z"/>
	<path d="M115.6,163.8c0-5.3,3-9,8.1-9c2.1,0,3.9,0.7,5.1,1.8l-1.7,2.8c-0.9-0.9-1.9-1.4-3.5-1.4c-2.5,0-4.3,2.2-4.3,4.9
		c0,0.1,0,0.2,0,0.4c0.8-1.2,2.5-2.2,4.4-2.2c3.1,0,5.9,2,5.9,5.6c0,3.4-2.7,6-6.7,6C117.8,172.8,115.6,168.7,115.6,163.8z
		 M126,166.9c0-1.8-1.6-2.6-3.2-2.6c-1.3,0-2.6,0.6-3.4,1.6c0.2,1.7,1.1,3.5,3.5,3.5C124.9,169.5,126,168.1,126,166.9z"/>
	<path d="M133.7,172.4l6.2-14.1h-8.7v-3.2h13v2.6l-6.4,14.8H133.7z"/>
	<path d="M145.6,167.9c0-2.1,1.6-3.7,3.7-4.4c-1.9-0.7-3.4-1.9-3.4-4.1c0-3.3,3.5-4.6,6.7-4.6c3.2,0,6.7,1.3,6.7,4.6
		c0,2.2-1.5,3.4-3.4,4.1c2.1,0.7,3.7,2.3,3.7,4.4c0,3.2-3.3,4.8-7,4.8C148.9,172.8,145.6,171.2,145.6,167.9z M155.8,167.4
		c0-1.4-2.2-2.1-3.2-2.3c-1.1,0.2-3.2,0.8-3.2,2.3c0,1.2,1.4,2.1,3.2,2.1C154.3,169.5,155.8,168.7,155.8,167.4z M155.5,160
		c0-1.2-1.2-1.9-2.9-1.9c-1.7,0-2.9,0.7-2.9,1.9c0,1.3,1.9,1.8,2.9,2C153.6,161.9,155.5,161.3,155.5,160z"/>
	<path d="M162.2,170.9l1.6-2.8c0.9,0.9,1.9,1.4,3.5,1.4c2.9,0,4.3-2.4,4.3-4.9c0-0.1,0-0.3,0-0.4c-0.8,1.2-2.6,2.2-4.5,2.2
		c-3.1,0-5.9-2-5.9-5.6c0-3.4,2.7-6,6.6-6c5.3,0,7.5,4.1,7.5,8.9c0,5.3-3,9-8.1,9C165.2,172.7,163.4,172,162.2,170.9z M171.6,161.6
		c-0.2-1.7-1.1-3.5-3.5-3.5c-2,0-3.1,1.4-3.1,2.5c0,1.8,1.6,2.6,3.2,2.6C169.5,163.2,170.8,162.6,171.6,161.6z"/>
</g>
<g>
	<path d="M563.2,110l-1.5-3.9H553l-1.5,3.9H549l7-17.3h2.7l7,17.3H563.2z M557.4,94.9l-3.7,9.4h7.4L557.4,94.9z"/>
	<path d="M575.7,110v-1.4c-1,1.1-2.5,1.7-4.2,1.7c-2.1,0-4.4-1.4-4.4-4.2c0-2.8,2.2-4.1,4.4-4.1c1.7,0,3.1,0.5,4.2,1.7v-2.3
		c0-1.7-1.4-2.6-3.2-2.6c-1.5,0-2.7,0.5-3.8,1.7l-0.9-1.4c1.4-1.4,3-2.1,5-2.1c2.7,0,4.9,1.2,4.9,4.2v8.6H575.7z M575.7,107.4V105
		c-0.8-1-2.1-1.5-3.4-1.5c-1.8,0-3.1,1.1-3.1,2.7c0,1.6,1.3,2.8,3.1,2.8C573.6,109,575,108.4,575.7,107.4z"/>
	<path d="M588.4,110V92.7h7.7c3,0,4.9,1.8,4.9,4.4c0,2.2-1.5,3.6-3,4c1.8,0.3,3.4,2.2,3.4,4.3c0,2.8-1.8,4.7-5,4.7H588.4z
		 M598.8,97.4c0-1.6-1-2.8-3-2.8h-5.2v5.6h5.2C597.7,100.2,598.8,99,598.8,97.4z M599.1,105.1c0-1.6-1.1-3-3.2-3h-5.3v6h5.3
		C597.9,108.1,599.1,107,599.1,105.1z"/>
	<path d="M604.7,110V92.7h2v6.7c1-1.4,2.5-2.2,4.2-2.2c3.3,0,5.6,2.6,5.6,6.6c0,4.1-2.3,6.6-5.6,6.6c-1.8,0-3.3-0.9-4.2-2.2v1.9
		H604.7z M610.4,108.6c2.5,0,4-2.1,4-4.8s-1.5-4.9-4-4.9c-1.6,0-3.1,0.9-3.8,2v5.7C607.3,107.7,608.8,108.6,610.4,108.6z"/>
	<path d="M625.7,101.4c0-5.3,3.9-9,8.9-9c3.1,0,5.2,1.5,6.6,3.4l-1.8,1c-1-1.5-2.8-2.5-4.8-2.5c-3.8,0-6.7,2.9-6.7,7
		c0,4.1,2.9,7,6.7,7c2,0,3.8-1.1,4.8-2.5l1.8,1c-1.5,2-3.5,3.5-6.6,3.5C629.7,110.4,625.7,106.7,625.7,101.4z"/>
	<path d="M643.2,103.8c0-3.7,2.5-6.6,6.3-6.6c2.3,0,3.6,0.9,4.6,2.2l-1.3,1.2c-0.8-1.1-1.9-1.6-3.2-1.6c-2.7,0-4.3,2.1-4.3,4.8
		s1.7,4.9,4.3,4.9c1.3,0,2.4-0.5,3.2-1.6l1.3,1.2c-1,1.2-2.3,2.2-4.6,2.2C645.7,110.4,643.2,107.5,643.2,103.8z"/>
	<path d="M663.6,110V92.7h5.9c5.4,0,8.9,3.8,8.9,8.7c0,4.9-3.5,8.7-8.9,8.7H663.6z M676.2,101.4c0-3.7-2.4-6.8-6.7-6.8h-3.8v13.5
		h3.8C673.8,108.1,676.2,105.1,676.2,101.4z"/>
	<path d="M690.9,110v-1.9c-0.9,1.3-2.5,2.2-4.2,2.2c-3.3,0-5.6-2.5-5.6-6.6c0-4,2.3-6.6,5.6-6.6c1.7,0,3.2,0.8,4.2,2.2v-6.7h2V110
		H690.9z M690.9,106.6v-5.7c-0.7-1.1-2.2-2-3.7-2c-2.5,0-4.1,2.1-4.1,4.9s1.5,4.8,4.1,4.8C688.7,108.6,690.2,107.7,690.9,106.6z"/>
	<path d="M703.5,110V92.7h11.4v1.9h-9.2v5.6h9v1.9h-9v6h9.2v1.9H703.5z"/>
	<path d="M717.5,103.8c0-3.6,2.6-6.6,6.2-6.6c3.8,0,6,3,6,6.7v0.5h-10.1c0.2,2.4,1.8,4.3,4.5,4.3c1.5,0,2.9-0.6,3.9-1.6l0.9,1.3
		c-1.3,1.2-3,2-5,2C720.2,110.4,717.5,107.7,717.5,103.8z M723.7,98.8c-2.7,0-4,2.3-4.1,4.2h8.2C727.8,101.1,726.5,98.8,723.7,98.8z
		"/>
	<path d="M739.7,110V92.7h11.4v1.9h-9.2v5.6h9v1.9h-9v7.9H739.7z"/>
	<path d="M754.5,110V99.2h-2.1v-1.7h2.1v-1c0-2.6,1.4-4.1,3.6-4.1c1,0,1.9,0.2,2.7,1l-0.8,1.2c-0.4-0.4-0.9-0.6-1.5-0.6
		c-1.3,0-2,0.9-2,2.5v1h2.5v1.7h-2.5V110H754.5z"/>
	<path d="M767.4,101.4c0-5.4,4-9,8.9-9c3.1,0,5.2,1.4,6.7,3.2l-1.7,1.1c-1.1-1.4-2.9-2.4-5-2.4c-3.8,0-6.7,2.9-6.7,7
		c0,4.1,2.9,7,6.7,7c2.1,0,3.8-1,4.7-1.9V103h-6v-1.9h8.1v6.2c-1.6,1.8-4,3-6.8,3C771.4,110.4,767.4,106.8,767.4,101.4z"/>
	<path d="M786.6,113.2l1-1.4c1,1.2,2.3,1.7,4.1,1.7c2.1,0,4.1-1,4.1-3.7V108c-0.9,1.3-2.5,2.2-4.2,2.2c-3.3,0-5.6-2.4-5.6-6.5
		c0-4,2.3-6.5,5.6-6.5c1.7,0,3.2,0.8,4.2,2.2v-1.9h2v12.4c0,4-2.9,5.3-6,5.3C789.5,115.1,788.1,114.7,786.6,113.2z M795.7,106.4
		v-5.5c-0.7-1.1-2.2-2-3.7-2c-2.5,0-4.1,2-4.1,4.8c0,2.8,1.5,4.8,4.1,4.8C793.5,108.5,795,107.5,795.7,106.4z"/>
	<path d="M820.7,110v-8h-10.1v8h-2.2V92.7h2.2v7.5h10.1v-7.5h2.2V110H820.7z"/>
	<path d="M835.3,110v-8.3c0-2.2-1.1-2.9-2.8-2.9c-1.5,0-3,0.9-3.7,1.9v9.2h-2V92.7h2v6.6c0.9-1.1,2.6-2.1,4.5-2.1c2.6,0,4,1.3,4,4
		v8.9H835.3z"/>
	<path d="M848,110V92.7h2.2V110H848z"/>
	<path d="M853.8,94.4c0-0.7,0.6-1.3,1.3-1.3c0.7,0,1.3,0.6,1.3,1.3c0,0.7-0.6,1.3-1.3,1.3C854.4,95.7,853.8,95.1,853.8,94.4z
		 M854.1,110V97.5h2V110H854.1z"/>
	<path d="M865,108.4l1.1-1.6c0.7,0.9,1.7,1.7,3.2,1.7c2.1,0,3.5-1.5,3.5-3.6V92.7h2.2v12.1c0,3.7-2.4,5.5-5.5,5.5
		C867.7,110.4,866.2,109.8,865,108.4z"/>
	<path d="M874.5,114.2l0.7-1.5c0.4,0.4,1,0.8,1.8,0.8c1.2,0,2-0.7,2-2.3V97.5h2v13.8c0,2.5-1.3,3.9-3.7,3.9
		C876,115.1,875.3,114.8,874.5,114.2z M878.7,94.4c0-0.7,0.6-1.3,1.3-1.3c0.7,0,1.3,0.6,1.3,1.3c0,0.7-0.6,1.3-1.3,1.3
		C879.3,95.7,878.7,95.1,878.7,94.4z"/>
	<path d="M902.2,110l-6.6-7.8l-1.7,2v5.8h-2.2V92.7h2.2v8.9l7.7-8.9h2.7l-7.2,8.2l7.9,9.1H902.2z"/>
	<path d="M915.8,110l-4.5-5.6l-2.1,2.1v3.6h-2V92.7h2v11.5l6.6-6.7h2.5l-5.6,5.7l5.6,6.9H915.8z"/>
	<path d="M927.1,110V92.7h2.2v15.4h8.1v1.9H927.1z"/>
	<path d="M940.2,110V92.7h2V110H940.2z"/>
	<path d="M967.6,110V95.5l-5.9,14.6h-0.9L955,95.5V110h-2.2V92.7h3.1l5.4,13.4l5.4-13.4h3.1V110H967.6z"/>
	<path d="M988.9,110v-8.5c0-1.6-0.7-2.6-2.3-2.6c-1.3,0-2.7,0.9-3.3,1.9v9.2h-2v-8.5c0-1.6-0.7-2.6-2.3-2.6c-1.3,0-2.6,0.9-3.3,1.9
		v9.2h-2V97.5h2v1.8c0.5-0.8,2.2-2.1,4.1-2.1c1.9,0,3,1,3.4,2.3c0.7-1.1,2.4-2.3,4.2-2.3c2.3,0,3.5,1.3,3.5,3.8v9.1H988.9z"/>
	<path d="M1013.9,110l-10.1-13.8V110h-2.2V92.7h2.2l10,13.5V92.7h2.2V110H1013.9z"/>
	<path d="M1028.4,110v-8.2c0-2.2-1.1-2.9-2.8-2.9c-1.5,0-3,0.9-3.7,1.9v9.2h-2V97.5h2v1.8c0.9-1.1,2.6-2.1,4.5-2.1
		c2.6,0,4,1.3,4,4.1v8.8H1028.4z"/>
	<path d="M550.1,132.6c0-5.1,3.5-9,8.6-9s8.6,3.8,8.6,9s-3.5,9-8.6,9S550.1,137.7,550.1,132.6z M565.1,132.6c0-4.1-2.5-7-6.4-7
		c-3.9,0-6.4,3-6.4,7c0,4,2.5,7,6.4,7C562.6,139.6,565.1,136.6,565.1,132.6z"/>
	<path d="M569.9,135c0-3.6,2.4-6.6,6.2-6.6s6.2,2.9,6.2,6.6c0,3.6-2.4,6.6-6.2,6.6S569.9,138.6,569.9,135z M580.3,135
		c0-2.5-1.5-4.8-4.2-4.8c-2.7,0-4.2,2.3-4.2,4.8c0,2.6,1.5,4.9,4.2,4.9C578.8,139.8,580.3,137.5,580.3,135z"/>
	<path d="M592.3,141.2v-17.3h7c3.5,0,5.4,2.4,5.4,5.2s-2,5.2-5.4,5.2h-4.8v6.9H592.3z M602.5,129.1c0-2-1.4-3.3-3.5-3.3h-4.5v6.6
		h4.5C601.1,132.4,602.5,131.1,602.5,129.1z"/>
	<path d="M609.5,139.3v6.7h-2v-17.3h2v1.9c0.9-1.3,2.5-2.2,4.2-2.2c3.3,0,5.6,2.5,5.6,6.6c0,4.1-2.3,6.6-5.6,6.6
		C612,141.6,610.5,140.7,609.5,139.3z M617.2,135c0-2.8-1.5-4.8-4-4.8c-1.5,0-3.1,0.9-3.7,2v5.7c0.7,1.1,2.2,2,3.7,2
		C615.7,139.8,617.2,137.7,617.2,135z"/>
	<path d="M628.5,132.6c0-5.1,3.5-9,8.6-9s8.6,3.8,8.6,9c0,2.6-0.9,4.8-2.4,6.4l1.6,1.7l-1.5,1.3l-1.7-1.8c-1.3,0.8-2.9,1.3-4.7,1.3
		C632,141.6,628.5,137.7,628.5,132.6z M640.4,138.7l-2.5-2.7l1.5-1.3l2.4,2.7c1-1.2,1.6-2.9,1.6-4.9c0-4.1-2.5-7-6.4-7
		c-3.9,0-6.4,3-6.4,7c0,4,2.5,7,6.4,7C638.4,139.6,639.5,139.3,640.4,138.7z"/>
	<path d="M648.2,135c0-4.1,2.3-6.6,5.6-6.6c1.8,0,3.3,0.9,4.2,2.2v-1.9h2V146h-2v-6.7c-1,1.4-2.5,2.2-4.2,2.2
		C650.5,141.6,648.2,139,648.2,135z M658,137.8v-5.7c-0.7-1.1-2.2-2-3.7-2c-2.5,0-4,2.1-4,4.8s1.5,4.9,4,4.9
		C655.8,139.8,657.4,138.9,658,137.8z"/>
	<path d="M680.7,141.2l-4.4-6.9h-3.5v6.9h-2.2v-17.3h7c3.2,0,5.5,2,5.5,5.2c0,3.1-2.2,4.8-4.5,5l4.7,7.1H680.7z M680.9,129.1
		c0-2-1.4-3.3-3.5-3.3h-4.5v6.6h4.5C679.5,132.5,680.9,131.1,680.9,129.1z"/>
	<path d="M686.5,141.2v-12.6h2v2c1-1.3,2.5-2.3,4.2-2.3v2c-0.2,0-0.5-0.1-0.8-0.1c-1.2,0-2.9,1-3.4,2v8.9H686.5z"/>
	<path d="M700.8,138.8l1.3-1.7c1.1,1.3,3,2.5,5.4,2.5c3.1,0,4.1-1.7,4.1-3c0-4.5-10.3-2-10.3-8.2c0-2.9,2.5-4.8,6-4.8
		c2.6,0,4.7,0.9,6.1,2.4l-1.3,1.6c-1.3-1.5-3.1-2.1-5-2.1c-2.1,0-3.6,1.1-3.6,2.8c0,3.9,10.3,1.7,10.3,8.1c0,2.5-1.7,5.1-6.4,5.1
		C704.5,141.6,702.2,140.4,700.8,138.8z"/>
	<path d="M715.9,139.6l1-1.4c0.8,1,2.4,1.8,4.1,1.8c1.9,0,3-0.9,3-2.2c0-3-7.8-1.2-7.8-5.8c0-2,1.7-3.6,4.7-3.6
		c2.2,0,3.7,0.8,4.7,1.8l-0.9,1.4c-0.8-0.9-2.1-1.6-3.7-1.6c-1.7,0-2.8,0.9-2.8,2c0,2.7,7.8,0.9,7.8,5.8c0,2.1-1.7,3.8-4.9,3.8
		C718.9,141.6,717.2,140.9,715.9,139.6z"/>
	<path d="M740.2,141.2v-15.4h-5.5v-1.9h13.2v1.9h-5.5v15.4H740.2z"/>
	<path d="M751,138.6v-8.2H749v-1.7h2.1v-3.4h2v3.4h2.5v1.7H753v7.8c0,0.9,0.4,1.6,1.2,1.6c0.6,0,1.1-0.3,1.3-0.5l0.6,1.5
		c-0.5,0.5-1.2,0.8-2.3,0.8C752,141.6,751,140.5,751,138.6z"/>
	<path d="M765.1,134.5v-10.6h2.2v10.6c0,3.2,1.7,5.2,4.9,5.2s4.9-2,4.9-5.2v-10.6h2.2v10.6c0,4.3-2.4,7.1-7.1,7.1
		C767.5,141.6,765.1,138.8,765.1,134.5z"/>
	<path d="M791.7,141.2v-1.8c-1,1.1-2.6,2.1-4.5,2.1c-2.6,0-4-1.3-4-4v-8.9h2v8.3c0,2.2,1.1,2.9,2.8,2.9c1.5,0,3-0.9,3.7-1.9v-9.2h2
		v12.6H791.7z"/>
	<path d="M809.6,141.2l-7-17.3h2.5l5.9,15l5.8-15h2.5l-7,17.3H809.6z"/>
	<path d="M824.4,141.2l-5.2-12.6h2.1l4.2,10.3l4.2-10.3h2.1l-5.2,12.6H824.4z"/>
	<path d="M853.9,141.2l-3.8-14l-3.8,14h-2.3l-4.9-17.3h2.4l3.8,14.5l4-14.5h1.8l4,14.5l3.8-14.5h2.4l-5,17.3H853.9z"/>
	<path d="M874.4,141.2l-3.3-10.1l-3.3,10.1h-2l-4-12.6h2l3.1,10l3.3-10h1.7l3.3,10l3.1-10h2.1l-4,12.6H874.4z"/>
	<path d="M901.4,141.2l-5.5-7.4l-5.5,7.4h-2.6l6.8-8.9l-6.4-8.5h2.6l5.1,6.9l5.1-6.9h2.7l-6.4,8.4l6.8,8.9H901.4z"/>
	<path d="M914.4,141.2l-3.8-5.1l-3.8,5.1h-2.2l4.8-6.4l-4.5-6.1h2.3l3.5,4.8l3.5-4.8h2.2l-4.5,6.1l4.8,6.4H914.4z"/>
	<path d="M930.8,141.2v-7.3l-6.8-10h2.5l5.4,8.1l5.4-8.1h2.5l-6.8,10v7.3H930.8z"/>
	<path d="M940,144.4c0.3,0.1,0.8,0.2,1.1,0.2c0.9,0,1.4-0.3,1.9-1.3l0.8-1.9l-5.3-12.7h2.1l4.2,10.3l4.2-10.3h2.1l-6.3,15.1
		c-0.8,1.8-2,2.5-3.7,2.5c-0.4,0-1.1-0.1-1.4-0.2L940,144.4z"/>
	<path d="M959.2,141.2v-1.8l9.8-13.6h-9.8v-1.9h12.5v1.8l-9.8,13.6h10v1.9H959.2z"/>
	<path d="M974.5,141.2v-1.5l6.9-9.3h-6.9v-1.7h9.5v1.5l-7,9.4h7.1v1.7H974.5z"/>
	<path d="M550.1,163.8c0-4.2,1.9-8.9,6.6-8.9c4.7,0,6.6,4.7,6.6,8.9c0,4.2-1.9,9-6.6,9C552,172.8,550.1,168,550.1,163.8z
		 M561.2,163.8c0-3.5-1.1-7-4.4-7c-3.3,0-4.4,3.6-4.4,7s1.1,7,4.4,7C560.1,170.8,561.2,167.2,561.2,163.8z"/>
	<path d="M569.3,172.4v-14.5l-2.8,3l-1.3-1.3l4.3-4.5h1.9v17.3H569.3z"/>
	<path d="M574.9,172.4v-1.7c6.2-4.9,9.6-7.8,9.6-10.8c0-2.2-1.8-3.2-3.6-3.2c-2.1,0-3.7,0.9-4.7,2.2l-1.3-1.4c1.3-1.8,3.6-2.7,6-2.7
		c2.9,0,5.8,1.6,5.8,5.1c0,3.5-3.6,6.8-8.4,10.6h8.5v1.9H574.9z"/>
	<path d="M589.6,169.9l1.3-1.4c1,1.4,2.8,2.3,4.8,2.3c2.5,0,4.1-1.3,4.1-3.2c0-2.2-1.8-3.1-4.3-3.1c-0.7,0-1.5,0-1.8,0v-2
		c0.3,0,1.1,0,1.8,0c2.2,0,4-0.9,4-2.9c0-1.9-1.8-3-3.9-3c-1.9,0-3.3,0.7-4.6,2.1l-1.2-1.4c1.2-1.5,3.2-2.7,6-2.7
		c3.3,0,5.9,1.7,5.9,4.6c0,2.5-2.1,3.8-3.7,4c1.6,0.2,4,1.5,4,4.3c0,2.9-2.3,5-6.2,5C592.8,172.8,590.6,171.5,589.6,169.9z"/>
	<path d="M612.4,172.4V168h-8.2v-1.8l7.4-11.2h3v11.1h2.4v1.9h-2.4v4.4H612.4z M612.4,157.1l-6.1,9h6.1V157.1z"/>
	<path d="M619.5,170l1.3-1.5c1.1,1.5,2.7,2.3,4.8,2.3c2.4,0,4-1.6,4-3.7c0-2.3-1.6-3.7-4-3.7c-1.5,0-2.8,0.5-4,1.6l-1.6-0.5v-9.3
		h10.6v1.9h-8.5v6c0.9-0.8,2.3-1.6,4.1-1.6c2.9,0,5.5,2,5.5,5.5c0,3.5-2.7,5.7-6.2,5.7C622.7,172.8,620.8,171.7,619.5,170z"/>
	<path d="M634.5,163.8c0-4.7,2.2-8.9,7.1-8.9c2.2,0,3.7,0.8,4.8,2.1l-1.1,1.6c-0.9-1-1.9-1.8-3.7-1.8c-3.4,0-4.9,3.4-4.9,6.8
		c0,0.2,0,0.4,0,0.7c0.8-1.2,2.7-2.7,4.9-2.7c3.1,0,5.7,1.8,5.7,5.5c0,3-2.3,5.7-6.1,5.7C636.3,172.8,634.5,168.5,634.5,163.8z
		 M645.1,167.2c0-2.5-1.8-3.7-4-3.7c-1.7,0-3.4,1.1-4.3,2.6c0.2,2.2,1.3,4.8,4.3,4.8C643.8,170.8,645.1,168.8,645.1,167.2z"/>
	<path d="M651.7,172.4l7-15.4h-9.3v-1.9h11.8v1.5l-7.1,15.9H651.7z"/>
	<path d="M663.3,168c0-2.3,2-3.9,4.1-4.5c-2-0.6-3.8-1.9-3.8-4.2c0-3.1,3-4.5,5.9-4.5c2.9,0,6,1.4,6,4.5c0,2.3-1.9,3.6-3.9,4.2
		c2.2,0.7,4.1,2.2,4.1,4.5c0,2.9-2.8,4.7-6.2,4.7C666,172.8,663.3,171,663.3,168z M673.5,167.8c0-2.3-3-3.2-4-3.4
		c-1.1,0.1-4,1.1-4,3.4c0,1.9,1.9,3,4,3C671.6,170.8,673.5,169.7,673.5,167.8z M673.2,159.6c0-1.8-1.7-2.9-3.8-2.9
		c-2.1,0-3.7,1.1-3.7,2.9c0,2.1,2.7,2.8,3.7,3C670.5,162.4,673.2,161.7,673.2,159.6z"/>
	<path d="M679.2,170.7l1.1-1.6c0.9,1,1.9,1.8,3.7,1.8c3.5,0,4.9-3.5,4.9-6.8c0-0.2,0-0.4,0-0.7c-0.8,1.2-2.7,2.7-4.9,2.7
		c-3.1,0-5.7-1.8-5.7-5.5c0-3,2.3-5.7,6.1-5.7c4.8,0,6.7,4.2,6.7,9c0,4.7-2.2,8.9-7.1,8.9C681.8,172.7,680.3,171.9,679.2,170.7z
		 M688.8,161.5c-0.2-2.1-1.4-4.8-4.4-4.8c-2.7,0-4,2-4,3.7c0,2.5,1.8,3.7,4,3.7C686.2,164.2,687.9,163.1,688.8,161.5z"/>
</g>
<text transform="matrix(1 0 0 1 25.8016 516.9228)" style="font-family:'ProximaNova-Bold'; font-size:36px;">PROXIMA NOVA</text>
<rect x="25.7" y="548.7" style="fill:none;" width="501.3" height="138"/>
<text transform="matrix(1 0 0 1 25.7059 570.3839)"><tspan x="0" y="0" style="font-family:'ProximaNova-Bold'; font-size:26px;">Aa Bb Cc Dd Ee Ff Gg Hh Ii Jj Kk Ll Mm Nn </tspan><tspan x="0" y="31.2" style="font-family:'ProximaNova-Bold'; font-size:26px;">Oo Pp Qq Rr Ss Tt Uu Vv Ww Xx Yy Zz </tspan><tspan x="0" y="62.4" style="font-family:'ProximaNova-Bold'; font-size:26px;">0123456789</tspan></text>
<rect x="548.8" y="548.7" style="fill:none;" width="514.2" height="138"/>
<text transform="matrix(1 0 0 1 548.8096 570.3839)"><tspan x="0" y="0" style="font-family:'ProximaNova-Regular'; font-size:26px;">Aa Bb Cc Dd Ee Ff Gg Hh Ii Jj Kk Ll Mm Nn </tspan><tspan x="0" y="31.2" style="font-family:'ProximaNova-Regular'; font-size:26px;">Oo Pp Qq Rr Ss Tt Uu Vv Ww Xx Yy Zz </tspan><tspan x="0" y="62.4" style="font-family:'ProximaNova-Regular'; font-size:26px;">0123456789</tspan></text>
</svg>
