<?xml version="1.0" encoding="utf-8"?>
<!-- Generator: Adobe Illustrator 26.0.3, SVG Export Plug-In . SVG Version: 6.00 Build 0)  -->
<svg version="1.1" id="Calque_1" xmlns="http://www.w3.org/2000/svg" xmlns:xlink="http://www.w3.org/1999/xlink" x="0px" y="0px"
	 viewBox="0 0 1056.8 299.8" style="enable-background:new 0 0 1056.8 299.8;" xml:space="preserve">
<style type="text/css">
	.st0{enable-background:new    ;}
</style>
<g class="st0">
	<path d="M24.5,54h13c5.5,0,8.2-0.6,8.2-6.6V33.1h6.6V48c0,4-0.7,6.3-2.6,8.1c-2.3,2.3-5.8,3.1-11.3,3.1H24.5V54z"/>
	<path d="M60.2,45.3c1.8-1.8,4.4-2.4,8.3-2.4h16.6v16.3H68.5c-3.9,0-6.6-0.6-8.3-2.4C58.8,55.4,58,53.4,58,51
		C58,48.6,58.8,46.7,60.2,45.3z M69.5,54.8H79v-7.5h-9.5c-3,0-5.3,0.2-5.3,3.7C64.2,54.6,66.5,54.8,69.5,54.8z"/>
	<path d="M90.3,51c0-2.4,0.8-4.3,2.2-5.7c1.8-1.8,4.4-2.4,8.3-2.4h16.6v16.6c0,6.9-4,8.5-10.3,8.5H95.8v-4.4h10.5c3.2,0,5-0.4,5-3.9
		v-0.4h-10.5c-3.9,0-6.6-0.7-8.3-2.4C91.1,55.4,90.3,53.4,90.3,51z M101.8,54.8h9.5v-7.5h-9.5c-3,0-5.3,0.2-5.3,3.7
		C96.5,54.6,98.8,54.8,101.8,54.8z"/>
	<path d="M129.4,42.9v7.8c0,3.8,1.4,4,4.9,4h8.1V42.9h6.1v16.3h-15.3c-4.4,0-6.7-0.7-8.1-2.1c-1.3-1.3-1.7-2.8-1.7-5.8v-8.4H129.4z"
		/>
	<path d="M155.8,45.3c1.8-1.8,4.4-2.4,8.3-2.4h16.6v16.3h-16.6c-3.9,0-6.6-0.6-8.3-2.4c-1.4-1.4-2.2-3.3-2.2-5.8
		C153.6,48.6,154.4,46.7,155.8,45.3z M165.1,54.8h9.5v-7.5h-9.5c-3,0-5.3,0.2-5.3,3.7C159.8,54.6,162.2,54.8,165.1,54.8z"/>
	<path d="M196.7,42.9h8.5v4.5h-7.7c-3.6,0-4.9,0.3-4.9,4.1v7.7h-6.1v-8.1C186.6,44.2,190.4,42.9,196.7,42.9z"/>
	<path d="M223,33.1h23.8c4.5,0,9.4,1.1,9.4,6.6c0,2.6-0.9,4.2-3.2,5.7c3.2,1.1,4.6,3.3,4.6,6.3c0,6.7-5.9,7.6-11.3,7.6H223V33.1z
		 M245.5,43.5c1.8,0,3-0.1,3.6-0.6c0.5-0.4,0.7-1.2,0.7-2c0-0.8-0.2-1.6-0.7-2c-0.6-0.5-1.8-0.6-3.6-0.6h-15.9v5.2H245.5z M229.6,54
		h16.7c2,0,3.2-0.1,3.9-0.7c0.5-0.5,0.8-1.2,0.8-2.2s-0.3-1.7-0.8-2.2c-0.7-0.6-1.8-0.7-3.9-0.7h-16.7V54z"/>
	<path d="M279.9,32.6h5.2c10.2,0,18,1.9,18,13.5c0,11.6-7.9,13.5-18.1,13.5h-5.1c-10.2,0-18-1.9-18-13.5S269.8,32.6,279.9,32.6z
		 M280.6,53.9h4c6.4,0,11.7,0,11.7-7.8c0-2.9-0.7-4.8-2.2-6.1c-1.8-1.3-4.6-1.7-9.5-1.7h-3.9c-4.9,0-7.7,0.4-9.5,1.7
		c-1.5,1.3-2.2,3.2-2.2,6.1C268.9,53.9,274.2,53.9,280.6,53.9z"/>
	<path d="M339.3,59.2h-29.7V33.1h6.6V54h23.1V59.2z"/>
	<path d="M345,33.1h19.2c7.1,0,11.5,1,14.3,3.7c2.2,2.2,3.4,5.3,3.4,9.4s-1.3,7.2-3.4,9.4c-2.7,2.7-7.2,3.7-14.3,3.7H345V33.1z
		 M351.6,38.3v15.6h11.7c6.4,0,11.7,0,11.7-7.8c0-7.8-5.3-7.8-11.7-7.8H351.6z"/>
</g>
<g>
	<g>
		<path d="M23,113.7l15.3-22.5h4.6l15.4,22.5h-6.4l-2.8-4.1H32l-2.7,4.1H23z M46.1,105.1l-5.6-8.3l-5.5,8.3H46.1z"/>
		<path d="M62.5,101.7c1.5-1.5,3.8-2,7.2-2H84v14H69.7c-3.3,0-5.6-0.6-7.2-2.1c-1.2-1.2-1.9-2.9-1.9-5
			C60.6,104.6,61.3,102.9,62.5,101.7z M70.5,109.9h8.2v-6.4h-8.2c-2.6,0-4.6,0.2-4.6,3.2C66,109.8,68,109.9,70.5,109.9z"/>
		<path d="M101,91.2h20.5c3.9,0,8.1,1,8.1,5.6c0,2.2-0.8,3.6-2.8,4.9c2.7,1,4,2.9,4,5.5c0,5.7-5.1,6.5-9.7,6.5H101V91.2z
			 M120.4,100.2c1.6,0,2.6-0.1,3.1-0.6c0.5-0.3,0.6-1,0.6-1.7c0-0.7-0.2-1.4-0.6-1.7c-0.5-0.5-1.6-0.5-3.1-0.5h-13.7v4.5H120.4z
			 M106.7,109.2h14.4c1.7,0,2.7-0.1,3.3-0.6c0.5-0.4,0.7-1,0.7-1.9s-0.2-1.5-0.7-1.9c-0.6-0.5-1.6-0.6-3.3-0.6h-14.4V109.2z"/>
		<path d="M135.8,91.2h5.2v8.5h9c3.3,0,5.6,0.5,7.2,2c1.2,1.2,1.9,2.9,1.9,4.9c0,2.1-0.7,3.8-1.9,5c-1.5,1.5-3.8,2.1-7.2,2.1h-14.3
			V91.2z M141,109.9h8.2c2.6,0,4.6-0.1,4.6-3.2c0-3-2-3.2-4.6-3.2H141V109.9z"/>
		<path d="M176.8,94.4c2.4-2.4,6.2-3.2,12.3-3.2h13.7v4.6h-12.9c-5.5,0-10.1,0-10.1,6.7c0,6.7,4.6,6.7,10.1,6.7h12.9v4.6H189
			c-6.1,0-9.9-0.9-12.3-3.2c-1.9-1.9-2.9-4.6-2.9-8S174.9,96.3,176.8,94.4z"/>
		<path d="M205.8,106.6c0-2.1,0.7-3.7,1.9-4.9c1.5-1.5,3.8-2,7.2-2h12.5v3.8h-11.7c-2.6,0-4.6,0.2-4.6,3.2c0,3.1,2,3.2,4.6,3.2h11.7
			v3.8h-12.6c-3.3,0-5.6-0.6-7.2-2.1C206.5,110.4,205.8,108.7,205.8,106.6z"/>
		<path d="M243.5,91.2H260c6.1,0,9.9,0.8,12.3,3.2c1.9,1.9,2.9,4.6,2.9,8.1s-1.1,6.2-2.9,8.1c-2.4,2.4-6.2,3.2-12.3,3.2h-16.5V91.2z
			 M249.2,95.7v13.4h10c5.5,0,10.1,0,10.1-6.7c0-6.7-4.6-6.7-10.1-6.7H249.2z"/>
		<path d="M279.1,106.6c0-2.1,0.7-3.7,1.9-4.9c1.5-1.5,3.8-2,7.2-2h9v-8.5h5.2v22.5h-14.3c-3.3,0-5.6-0.6-7.2-2.1
			C279.8,110.4,279.1,108.7,279.1,106.6z M289,109.9h8.2v-6.4H289c-2.6,0-4.6,0.2-4.6,3.2C284.4,109.8,286.5,109.9,289,109.9z"/>
		<path d="M319.5,91.2h26.4v4.5h-20.7v4.4h14v4.3h-14v4.9H346v4.5h-26.5V91.2z"/>
		<path d="M359.1,99.7h4.2c5.1,0,9.7,1.2,9.7,7.2c0,0.5,0,1-0.1,1.4H355c0,0.5,0.2,0.9,0.6,1.2c0.6,0.5,1.5,0.6,3.4,0.6h12.8v3.7
			h-13.7c-5,0-8.6-1.6-8.6-7.1C349.6,101,354.3,99.7,359.1,99.7z M367.8,105.1c0-0.7-0.3-1.1-0.8-1.4c-0.6-0.3-1.6-0.4-3-0.4h-5.1
			c-1.5,0-2.4,0.1-3,0.4c-0.5,0.3-0.8,0.8-0.8,1.4H367.8z"/>
		<path d="M389.3,91.2h26.1v4.5h-20.4v4.4h13.6v4.3h-13.6v9.4h-5.7V91.2z"/>
		<path d="M418.6,113.7V98.3c0-6,3.3-7.1,8.7-7.1h7.4V95h-6.6c-3.1,0-4.2,0.2-4.2,3.5v1.1h8.8v3.7h-8.8v10.4H418.6z"/>
		<path d="M450.1,94.4c2.4-2.4,6.2-3.2,12.3-3.2h15.2v4.6h-14.4c-5.5,0-10.1,0-10.1,6.7c0,6.7,4.6,6.7,10.1,6.7h9.4V102h5.6v11.7
			h-15.9c-6.1,0-9.9-0.9-12.3-3.2c-1.9-1.9-2.9-4.6-2.9-8S448.2,96.3,450.1,94.4z"/>
		<path d="M483.3,106.6c0-2.1,0.7-3.7,1.9-4.9c1.5-1.5,3.8-2,7.2-2h14.3v14.3c0,6-3.4,7.3-8.9,7.3H488v-3.8h9c2.8,0,4.3-0.3,4.3-3.4
			v-0.4h-9.1c-3.3,0-5.6-0.6-7.2-2.1C484,110.4,483.3,108.7,483.3,106.6z M493.2,109.9h8.2v-6.4h-8.2c-2.6,0-4.6,0.2-4.6,3.2
			C488.6,109.8,490.7,109.9,493.2,109.9z"/>
		<path d="M523.7,91.2h5.7v8.6H549v-8.6h5.7v22.5H549v-9.3h-19.6v9.3h-5.7V91.2z"/>
		<path d="M560.8,91.2h5.2v8.5h8.3c3.8,0,5.8,0.6,7,1.8c1.1,1.1,1.4,2.5,1.4,5v7.2h-5.2V107c0-3.3-1.2-3.5-4.2-3.5h-7.3v10.2h-5.2
			V91.2z"/>
		<path d="M605.3,113.7h-5.7V91.2h5.7V113.7z"/>
		<path d="M611.3,94.6c0-2.1,1-2.5,3-2.5c2,0,3,0.4,3,2.5s-1,2.5-3,2.5C612.3,97.1,611.3,96.7,611.3,94.6z M616.9,99.7v14h-5.2v-14
			H616.9z"/>
		<path d="M632.4,109.2h11.2c4.7,0,7-0.5,7-5.6V91.2h5.7v12.9c0,3.4-0.6,5.4-2.2,7c-2,2-5,2.7-9.8,2.7h-11.9V109.2z"/>
		<path d="M658.1,117.6h1.7c2,0,2.5-0.5,2.5-2.4V99.7h5.2v15.4c0,5-1.9,6.2-6.8,6.2h-2.6V117.6z M661.8,94.6c0-2.1,1-2.5,3-2.5
			c2,0,3,0.4,3,2.5s-1,2.5-3,2.5C662.8,97.1,661.8,96.7,661.8,94.6z"/>
		<path d="M684.6,91.2h5.7v10.3l15.9-10.3h8.1l-14.8,9.3l15.6,13.2h-7.9L695,103.3l-4.7,3v7.4h-5.7V91.2z"/>
		<path d="M724.8,91.2v14.1l8.7-5.7h6.7l-8.4,5.3l9.4,8.7h-6.8l-6.5-6.3l-3.2,2v4.2h-5.2V91.2H724.8z"/>
		<path d="M781.9,113.7h-25.5V91.2h5.7v18h19.9V113.7z"/>
		<path d="M786.1,91.2h5.2v22.5h-5.2V91.2z"/>
		<path d="M808.4,91.2h5.2l13.7,16.2l13.5-16.2h5.1v22.5h-5.5v-14l-10.8,13.4h-4.5l-11.2-13.3v13.9h-5.5V91.2z"/>
		<path d="M852.1,99.7H880c3.8,0,5.8,0.6,7,1.8c1.1,1.1,1.4,2.5,1.4,5v7.2h-5.2V107c0-3.3-1.2-3.5-4.2-3.5h-6.2v10.2h-5.2v-10.2
			h-10.2v10.2h-5.2V99.7z"/>
		<path d="M905.2,91.2h5.3l21.1,15.9V91.2h5.5v22.5H932l-21.3-16v16h-5.5V91.2z"/>
		<path d="M943.2,113.7v-14h13.5c3.8,0,5.8,0.6,7,1.8c1.1,1.1,1.4,2.5,1.4,5v7.2H960V107c0-3.3-1.2-3.5-4.2-3.5h-7.3v10.2H943.2z"/>
		<path d="M40,128h4.5c8.7,0,15.5,1.6,15.5,11.6c0,10-6.8,11.6-15.6,11.6H40c-8.7,0-15.5-1.6-15.5-11.6C24.5,129.7,31.2,128,40,128z
			 M40.5,146.3H44c5.5,0,10.1,0,10.1-6.7c0-2.5-0.6-4.2-1.9-5.2c-1.5-1.1-3.9-1.5-8.2-1.5h-3.4c-4.2,0-6.7,0.3-8.2,1.5
			c-1.3,1.1-1.9,2.8-1.9,5.2C30.4,146.3,35,146.3,40.5,146.3z"/>
		<path d="M63.8,143.8c0-2.1,0.7-3.7,1.9-4.9c1.5-1.5,3.8-2,7.2-2h6.5c3.3,0,5.6,0.5,7.2,2c1.2,1.2,1.9,2.9,1.9,4.9
			c0,2.1-0.7,3.8-1.9,5c-1.5,1.5-3.8,2.1-7.2,2.1h-6.5c-3.3,0-5.6-0.6-7.2-2.1C64.5,147.6,63.8,145.9,63.8,143.8z M73.7,147.1h4.8
			c2.5,0,4.6-0.1,4.6-3.2c0-3-2-3.2-4.6-3.2h-4.8c-2.5,0-4.6,0.2-4.6,3.2C69.2,146.9,71.2,147.1,73.7,147.1z"/>
		<path d="M104.6,128.4h19.9c5.7,0,9.9,1.7,9.9,8.1c0,6.3-4.2,8.1-9.9,8.1h-14.2v6.4h-5.7V128.4z M110.3,132.9v7.2h13.6
			c2.9,0,4.7-0.4,4.7-3.6s-1.8-3.6-4.7-3.6H110.3z"/>
		<path d="M139,136.9h14.3c3.3,0,5.6,0.6,7.2,2.1c1.2,1.2,1.9,2.9,1.9,5c0,2.1-0.7,3.7-1.9,4.9c-1.5,1.5-3.8,2-7.2,2h-9v7.6H139
			V136.9z M144.2,147.1h8.2c2.6,0,4.6-0.2,4.6-3.2c0-3.1-2-3.2-4.6-3.2h-8.2V147.1z"/>
		<path d="M192.5,128h4.5c8.7,0,15.5,1.6,15.5,11.6c0,7.5-3.7,10.6-10.9,11.4c0.7,0.5,1.3,1.1,2.5,2.6l1.8,2.1l-4.6,2.4l-3.6-4.3
			c-1.8-2.1-2.4-2.6-4.2-2.6h-1.1c-8.7,0-15.5-1.6-15.5-11.6C177,129.7,183.8,128,192.5,128z M193.1,146.3h3.4
			c5.5,0,10.1,0,10.1-6.7c0-2.5-0.6-4.2-1.9-5.2c-1.5-1.1-3.9-1.5-8.2-1.5h-3.4c-4.2,0-6.7,0.3-8.2,1.5c-1.3,1.1-1.9,2.8-1.9,5.2
			C183,146.3,187.6,146.3,193.1,146.3z"/>
		<path d="M216.4,143.9c0-2.1,0.7-3.8,1.9-5c1.5-1.5,3.8-2.1,7.2-2.1h14.3v21.6h-5.2v-7.6h-9c-3.3,0-5.6-0.6-7.2-2
			C217.1,147.6,216.4,146,216.4,143.9z M226.3,147.1h8.2v-6.4h-8.2c-2.6,0-4.6,0.1-4.6,3.2C221.7,146.9,223.7,147.1,226.3,147.1z"/>
		<path d="M256.8,128.4h20c5.7,0,9.9,1.7,9.9,8.1c0,4.7-2.2,7.2-6.7,7.8c1.4,0.5,2.3,1.2,3.8,2.6l4.4,4H281l-4.3-3.9
			c-2.3-2.1-3.3-2.5-6.1-2.5h-8.2v6.4h-5.7V128.4z M262.4,132.9v7.2h13.8c2.9,0,4.7-0.4,4.7-3.6s-1.8-3.6-4.7-3.6H262.4z"/>
		<path d="M301.2,136.9h7.3v3.8h-6.6c-3.1,0-4.2,0.2-4.2,3.5v6.7h-5.2V144C292.4,138,295.7,136.9,301.2,136.9z"/>
		<path d="M321.9,134.8c0-1.9,0.7-3.3,1.8-4.3c1.6-1.5,4.2-2,7.8-2H350v4.4h-18.9c-1.6,0-2.7,0.1-3.3,0.7c-0.3,0.3-0.5,0.7-0.5,1.2
			c0,1.3,1,1.8,3,1.9l12.4,1c4.6,0.4,9.3,1,9.3,6.6c0,5.8-5,6.7-9.8,6.7h-18.9v-4.4H343c2.5,0,3.6-0.7,3.6-2.1c0-1.3-0.7-1.7-3-2
			l-11.5-0.9C327.6,141.3,321.9,140.4,321.9,134.8z"/>
		<path d="M361.8,136.9h14.9v3.6h-14.8c-0.7,0-1.1,0.3-1.1,0.8s0.4,0.8,1.1,0.8H372c3.2,0,5.8,0.8,5.8,4.4c0,3.6-2.7,4.4-5.8,4.4
			h-15.3v-3.6h15.1c0.7,0,1.1-0.3,1.1-0.8c0-0.6-0.4-0.8-1.1-0.8h-10.1c-3.1,0-5.8-0.9-5.8-4.4C356,137.7,358.7,136.9,361.8,136.9z"
			/>
		<path d="M422,128.4v4.5h-12v18h-5.7v-18h-12v-4.5H422z"/>
		<path d="M431.4,129.8v7h9v3.7h-9v3.1c0,3.3,1.2,3.5,4.2,3.5h6.4v3.8h-7.3c-3.8,0-5.8-0.6-7-1.8c-1.1-1.1-1.5-2.4-1.5-5v-14.2
			H431.4z"/>
		<path d="M462.9,128.4v12.9c0,1.6,0.3,2.7,1.1,3.5c1.3,1.2,3.7,1.6,8.1,1.6h1.1c4.4,0,6.8-0.4,8.1-1.6c0.9-0.8,1.1-1.9,1.1-3.5
			v-12.9h5.6V142c0,3.2-0.7,5-2.4,6.4c-2.1,1.9-5.9,2.8-12.2,2.8h-1.6c-6.3,0-10-1-12.2-2.8c-1.7-1.5-2.4-3.2-2.4-6.4v-13.6H462.9z"
			/>
		<path d="M498.8,136.9v6.7c0,3.3,1.2,3.5,4.2,3.5h6.9v-10.2h5.2v14H502c-3.8,0-5.8-0.6-7-1.8c-1.1-1.1-1.4-2.4-1.4-5v-7.2H498.8z"
			/>
		<path d="M529,128.4h6.5l11.2,17l10.9-17h6.5l-15.1,22.5h-4.9L529,128.4z"/>
		<path d="M562.8,136.9h6.2l6.7,9.7l6.7-9.7h6l-10.1,14h-5.5L562.8,136.9z"/>
		<path d="M600.1,128.4h6.2l8.4,16.5l7.8-16.5h4.4l8,16.5l8.4-16.5h5.9l-11.9,22.5H632l-7.3-15.5l-7.4,15.5h-5.4L600.1,128.4z"/>
		<path d="M654.6,136.9l5.5,9.4l5.2-9.4h3.8l5.6,9.5l5-9.5h5.4l-7.8,14h-5.4l-4.8-8.1l-4.4,8.1h-5.4l-8.4-14H654.6z"/>
		<path d="M697.3,150.9l13.7-11.8l-12.3-10.7h7.5l8.9,7.7l8.8-7.7h7.1l-12.4,10.8l13.5,11.7h-7.5l-10.1-8.8l-10.1,8.8H697.3z"/>
		<path d="M733.7,150.9l9.3-7.3l-8.7-6.7h7l5.5,4.3l5.1-4.3h6.4l-8.6,6.7l9.5,7.4h-7l-6.4-5l-6,5H733.7z"/>
		<path d="M778.5,128.4l10.5,10.5l10.6-10.5h6.9l-14.7,14.4v8.2h-5.6v-8.1l-14.7-14.4H778.5z"/>
		<path d="M804.3,136.9h5.2v6.7c0,3.3,1.2,3.5,4.2,3.5h6.9v-10.2h5.2v14.3c0,6-3.4,7.3-8.9,7.3h-9.7v-3.8h9c2.8,0,4.3-0.3,4.3-3.4
			v-0.4h-8c-3.8,0-5.8-0.6-7-1.8c-1.1-1.1-1.4-2.4-1.4-5V136.9z"/>
		<path d="M871.1,132.4l-20,14h20.3v4.5H842v-4l20-14h-20v-4.5h29V132.4z"/>
		<path d="M897.1,147.3v3.6H876V148l12.4-7.5h-12.3v-3.6H897v2.9l-12.4,7.5H897.1z"/>
		<path d="M24.7,176.8c0-9.9,7-11.6,15.6-11.6h1c8.6,0,15.6,1.7,15.6,11.6c0,10-7.1,11.6-15.7,11.6h-1
			C31.8,188.5,24.7,186.8,24.7,176.8z M40.8,183.6H41c5.5,0,10.1,0,10.1-6.7c0-2.5-0.6-4.2-1.9-5.3c-1.5-1.1-3.9-1.5-8.2-1.5h-0.2
			c-4.2,0-6.7,0.3-8.2,1.5c-1.3,1.1-1.9,2.8-1.9,5.3C30.7,183.6,35.2,183.6,40.8,183.6z"/>
		<path d="M61,165.6h11.7v22.5H67V170h-6V165.6z"/>
		<path d="M96.4,175.3c2.7-1.4,3.8-2.2,3.8-3.6c0-1.3-0.8-1.6-2.7-1.6h-17v-4.5h16.1c4.3,0,9.4,0.5,9.4,5.9c0,3.7-2.2,5.4-7.3,7.8
			l-8.8,4.2h16.2v4.6H80.2v-4.2L96.4,175.3z"/>
		<path d="M131.2,183.5c3.4,0,4.8-0.6,4.8-2.6c0-1.9-1.4-2.3-4.7-2.3h-7.8v-3.1l8.4-5.4h-17.9v-4.5h26.1v4.1l-7.6,5
			c4.5,0,9.4,0.8,9.4,6.3c0,4.8-3.5,7.2-9.5,7.2h-18.8v-4.6H131.2z"/>
		<path d="M161.3,165.6h7.4l-13.4,12.8h12.8v-5.1h5.6v5.1h5.6v4.4h-5.6v5.3h-5.6v-5.3h-20.4v-4.2L161.3,165.6z"/>
		<path d="M187.3,183.5h17.5c1.9,0,2.9-0.2,3.6-0.6c0.5-0.4,0.7-1,0.7-1.9c0-0.9-0.1-1.5-0.6-1.9c-0.6-0.5-1.6-0.7-3.6-0.7h-17.4
			v-12.9h25.9v4.5h-20.4v4.1h11.5c5.3,0,10.4,0.3,10.4,6.8c0,6.4-4.8,7.2-10.2,7.2h-17.4V183.5z"/>
		<path d="M221.8,176.5c0-7.7,4.8-10.9,12.1-10.9H250v4.5h-15.5c-2.9,0-6.1,0.3-6.4,3.8h14.6c4.8,0,9.8,0.5,9.8,6.4
			c0,7.8-8,8.2-14,8.2H236C227.3,188.5,221.8,185.9,221.8,176.5z M227.8,178.1c0.1,5.2,4.8,5.6,9,5.6h1.8c4,0,6-0.2,7.1-1.1
			c0.6-0.5,0.9-1.2,0.9-2.1c0-0.8-0.1-1.3-0.6-1.7c-0.6-0.5-1.6-0.7-3.5-0.7H227.8z"/>
		<path d="M255.4,165.6h26.2v3.4L268,188.1h-6.6l13-18h-19V165.6z"/>
		<path d="M292,176.2c-2.9-0.8-4.9-2.4-4.9-5.5c0-5.2,6.7-5.5,10.5-5.5h8.6c3.7,0,10.3,0,10.3,5.1c0,2.9-2.1,4.4-5.6,5.4
			c4,0.9,6.5,2.6,6.5,6.2c0,6.2-7.4,6.5-12,6.5h-7.2c-4.5,0-12.2-0.6-12.2-6.7C285.9,178.5,288.5,176.9,292,176.2z M291.7,181.2
			c0,1.9,1.6,3,7.3,3h5.8c4.4,0,6.5-0.5,6.5-2.3c0-1.2-1-1.8-4.8-2.4l-9.6-1.5C293.2,178.6,291.7,179.7,291.7,181.2z M297.5,173.1
			l7.9,1.2c3.6-1,5.3-1.8,5.3-3.1c0-1.1-1.5-1.7-4.8-1.7h-8.1c-2.7,0-4.8,0.3-4.8,1.5C292.9,172,294,172.5,297.5,173.1z"/>
		<path d="M323.5,173.1c0-7.4,8.1-7.9,13.7-7.9h2.1c8.8,0,14.8,2.2,14.8,11.9c0,3.3-1.1,6-2.9,7.9c-2,2-5.2,3.1-9.6,3.1H326v-4.5
			h15.5c2.9,0,6.1-0.4,6.4-3.8h-14.6C328.4,179.8,323.5,179,323.5,173.1z M329.3,173.1c0,1.9,1.4,2.5,4,2.5h14.8
			c-0.1-1.8-0.5-3-1.5-4c-1.3-1.1-3.6-1.6-7.5-1.6h-1.8c-4,0-6,0.2-7.1,1.1C329.5,171.5,329.3,172.3,329.3,173.1z"/>
	</g>
</g>
<text transform="matrix(1 0 0 1 22.8693 493.4928)" style="font-family:'JaguarWeb-Bold'; font-size:36px;">Jaguar BOLD</text>
<g>
	<rect x="22.9" y="521.3" style="fill:none;" width="997" height="138"/>
	<text transform="matrix(1 0 0 1 22.8691 548.0076)"><tspan x="0" y="0" style="font-family:'JaguarWeb-Bold'; font-size:31px;">Aa Bb Cc Dd Ee Ff Gg Hh Ii Jj Kk Ll Mm Nn </tspan><tspan x="0" y="37.2" style="font-family:'JaguarWeb-Bold'; font-size:31px;">Oo Pp Qq Rr Ss Tt Uu Vv Ww Xx Yy Zz </tspan><tspan x="0" y="74.4" style="font-family:'JaguarWeb-Bold'; font-size:31px;">0123456789</tspan></text>
</g>
</svg>
