<?xml version="1.0" encoding="utf-8"?>
<!-- Generator: Adobe Illustrator 26.0.3, SVG Export Plug-In . SVG Version: 6.00 Build 0)  -->
<svg version="1.1" xmlns="http://www.w3.org/2000/svg" xmlns:xlink="http://www.w3.org/1999/xlink" x="0px" y="0px"
	 viewBox="0 0 1190.6 841.9" style="enable-background:new 0 0 1190.6 841.9;" xml:space="preserve">
<style type="text/css">
	.st0{fill:#FFFFFF;}
	.st1{enable-background:new    ;}
</style>
<g id="Calque_2">
	<rect y="-1.5" width="1190.6" height="841.9"/>
</g>
<g id="Calque_1">
	<g>
		<path class="st0" d="M997,369l-3.6,10c-7.7-2.3-19.6-4.5-32-1.3c-8.5,2.2-13.2,5.9-17.2,9.2c-4,3.1-7.3,5.9-14.1,7.7
			c-5.5,1.2-9.7,1-14.1,0.8c-6.1-0.3-12.8-0.7-23.3,2.7c-11.4,3.7-15.7,10.4-19.2,15.7c-3.6,5.5-5.7,8.9-14.7,8.9
			c-10.7,0-16.2-4.3-16.2-12.7c0-10.7,6.9-17.5,21.1-20.6c6.8-1.5,15.8-0.9,25.5-0.2c11.2,0.8,22.8,1.5,32.7-0.9
			c9.2-2.2,14.9-11.2,12.8-20.3c-1.6-7.2-7.1-12.1-14.8-13.4l-3.4,7.8c3.5,0.1,9,1.3,10.3,7.3c1,4.8-2,9.4-6.9,10.6
			c-8.7,2.1-19.7,1.4-30.3,0.7c-10.3-0.7-19.8-1.4-27.7,0.5c-22.7,5-27.5,18.3-27.5,28.5c0,13,9.1,20.9,24.3,20.9
			c13.4,0,17.7-6.6,21.6-12.5c3.1-4.9,6.2-9.6,14.9-12.3c9.1-2.9,14.6-2.7,20.4-2.3c4.8,0.2,9.7,0.5,16.3-0.9h0.1
			c8.5-2.2,13.2-5.9,17.2-9.2c4-3.1,7.3-5.9,14.1-7.7c12.7-3.3,24.9,0.1,31.1,2.3l3.8,1.4l2.9-8.2l21.7,13.6l-3,8.7
			c-1.2-0.3-2.2-0.6-3.4-0.8l0,0c-2.7-0.8-6.3-1.5-10.8-1.5c-20.7,0-47.6,8.7-66.6,29.7h19.6h9.8h6.5c7.9-12.1,18.2-19.1,29.1-20.6
			l0,0c6.2-0.7,11.4,0,16.9,2.1l4,1.5l7.9-22.6L997,369z"/>
		<path class="st0" d="M570.8,367.2l-11.1-0.5c-15,5.1-33.4,11-25.3,18.9c9.8,9.4,20.3,6.2,26.7,14.2c4.9,6.1-28.3,24.9-44.7,30.4
			H601c0,0,10-18.3-0.7-30.8c-13.5-15.7-42.9-15.6-48.9-18.9C543.1,376.2,570.8,367.2,570.8,367.2"/>
		<path class="st0" d="M393.9,375.6l12.9,3.7c1.3,0.3,2.4,1,3.4,2.1l8.9,9.6c1.7,1.9,2.3,4.4,1.6,7c-0.7,2.4-2.6,4.3-5,5l-37.2,10.6
			c-1.3,0.3-1.7,1.3-2,1.7c-0.2,0.5-0.5,1.5,0.2,2.7c0.5,0.8,1.4,1.4,2.3,1.5l22.1,2.3c0.7,0.1,1.4-0.1,2-0.5l30.2-19.1l0.6-0.1
			c2.3-0.7,4.4-1.7,6.4-3.1L399,361.5L393.9,375.6z M401.6,430.1c-0.3,0-0.8,0-1.2-0.1l-22.1-2.3c-3.6-0.3-6.9-2.4-8.7-5.7
			c-1.7-3-2-6.8-0.7-10c1.3-3.3,4.1-5.7,7.5-6.8l35.4-10.1l-7.5-8l-13.7-4c-2-0.6-3.6-1.9-4.5-3.7s-1-4-0.3-5.8l6.2-16.7
			c0.8-2.3,2.8-4,5.1-4.5c2.3-0.6,4.9,0,6.6,1.6l43.5,39.4c1.6,1.4,2.4,3.5,2.4,5.6s-1,4.1-2.7,5.5c-2.9,2.3-6.2,4.2-9.8,5.2
			L407.7,428C405.8,429.6,403.7,430.1,401.6,430.1"/>
		<path class="st0" d="M411.7,373.1l-1-0.9l5.6-6.2l1,0.9L411.7,373.1z M413.8,374.9l-1-0.9l5.6-6.2l1,0.9L413.8,374.9z
			 M415.9,376.8l-1-0.9l5.6-6.2l1,0.9L415.9,376.8z"/>
		<path class="st0" d="M715.4,431.8c-4.2,0-8.4-0.8-12.6-2.6c-9.8-4.1-18.6-12.7-20.5-20c-1-4.2-0.2-8.9,2.2-12.7
			c2.8-4.5,7.1-7.3,11.9-7.8c4.9-0.5,9.8,1.6,13.5,5.7l5.4,5.8c2.2,2.4,9,6.9,14.6,6.9c2.1,0,3.6-0.6,4.9-1.9
			c0.9-0.9,1.3-2.2,1.2-3.8c-0.2-2.9-2.2-6.2-4.8-8c-5.1-3.7-9.8-4.2-14.7-4.8c-6.2-0.6-13.2-1.4-19-9.6l-2.6-3.6l7.3-5.2l2.6,3.6
			c3.5,4.9,6.9,5.2,12.6,5.8c5.2,0.6,11.9,1.3,19,6.4c4.7,3.4,7.9,9,8.4,14.4c0.3,4.2-0.9,8-3.6,10.8c-2.9,3.1-7,4.7-11.5,4.7
			c-8.4-0.1-17.4-5.8-21.1-9.8l-5.4-5.8c-1.9-2-4.1-3-6.1-2.8c-2,0.2-3.7,1.4-5.1,3.6c-1.2,1.9-1.6,4-1.2,5.7
			c0.9,3.5,6.9,10.5,15.3,14c4.8,2,11.9,3.5,19-0.7l3.8-2.3l4.5,7.7l-3.8,2.3C725.4,430.5,720.4,431.8,715.4,431.8z"/>
		<path class="st0" d="M687.2,372.1l12.7-9.9l4.3,5.5c2.7,3.5,2.1,8.5-1.4,11.3c-3.5,2.7-8.5,2.1-11.3-1.4L687.2,372.1z"/>
		
			<rect x="694.4" y="359.5" transform="matrix(0.7899 -0.6132 0.6132 0.7899 -77.4487 503.1562)" class="st0" width="2.3" height="10.1"/>
		
			<rect x="689.2" y="363.6" transform="matrix(0.7899 -0.6132 0.6132 0.7899 -81.0464 500.7936)" class="st0" width="2.3" height="10.1"/>
		<g>
			<path class="st0" d="M333.8,396.1v-2.2h4.8v-4.7h2.2v4.7h4.8v2.2h-4.8v4.7h-2.2v-4.7H333.8z"/>
		</g>
		<g>
			<path class="st0" d="M479.1,396.1v-2.2h4.8v-4.7h2.2v4.7h4.8v2.2h-4.8v4.7h-2.2v-4.7H479.1z"/>
		</g>
		<g>
			<path class="st0" d="M631.5,396.1v-2.2h4.8v-4.7h2.2v4.7h4.8v2.2h-4.8v4.7h-2.2v-4.7H631.5z"/>
		</g>
		<g>
			<path class="st0" d="M783.9,393.9v-2.2h11.6v2.2H783.9z M783.9,398.2V396h11.6v2.2H783.9z"/>
		</g>
		<path class="st0" d="M210,411.9c-0.1,0.7-0.2,1.5-0.3,2.3c-2.3,0.5-4.8,0.8-6.8,1.2C205.5,414.1,207.9,412.9,210,411.9
			 M312.8,375.4c-0.6-0.7-3.5-3.1-3.7-3.6c-0.3-0.5,0.1-1.4-0.7-2.1c-1.5-1.5-9-3.8-20-2.7c-4.1,0.5-5.9,1.5-10.5,2.4
			c-4.5,0.9-6.2,1.9-9.2,2.7c-2.9,0.8-5.4,2.6-7,3c-0.6,0.2-8,3-16.1,7c-4.9,2.4-9.4,5.4-14.6,8c-1.9,0.9-3.5,1.7-5,2.4
			c-1.4,0.5-3.3,1.3-5.8,2.6c-0.7,0.3-1.4,0.8-2.1,1.2c-0.8,0.5-1.6,1-2.4,1.7c-1.2,0.8-2.2,1.6-3,2.1c-2.2,1.4-9.6,6.8-11.2,8.2
			s-6.1,3.7-8.9,5.6c-2.8,1.9-7.2,5.1-9.4,6.5c-2.2,1.4-5.2,3.4-8.7,3.8c-3.5,0.3-5.1-1.9-7.5-1.6c-1.7,0.2-2.4,1-2.3,2.3
			c0.2,1.7,3.6,5.4,9.3,4.8c7.1-0.8,9.6-4.9,15.1-7.9c0.8-0.5,1.7-0.9,2.7-1.4c0.7,0.6,1.6,0.9,2.9,1.3c2.1,0.7,13.7,0.7,19.6,0.2
			c0.1,0,0.1,0,0.2,0c0.1,0,0.1,0,0.2,0c0.2,0,0.5,0,0.6-0.1c1-0.1,2.2-0.5,3.3-0.9c5.4-2.1,7.8-6.9,10-11.5
			c0.6-1.2,1.3-2.2,1.9-3.3c2-1.3,4.1-2.3,6.4-2.6c5.9-0.6,5.9,0.9,14.3,0c3.6-0.3,7.7-1.4,11.5-2.9c0.8,0.5,1.7,0.6,2.8,0.6
			c0.1,0,0.1,0,0.2,0c0.3,0,0.8,0,1.2-0.1c3.3-0.3,15.5-6.5,19.1-7.1c1.6-0.2,2.6-0.1,3.3,0c0.2,0.1,0.5,0.2,0.6,0.7
			c0.2,0.6,1.5,2,2.9,2.9c0.7,0.8,1.6,1.2,2.7,1c0.6,0,1.2-0.2,1.6-0.7c0.8-0.7,1.3-1.6,1.2-2.8c0-0.5-0.2-1-0.5-1.4l0,0
			c-0.9-2.4-6.6-6.2-7.9-6.3l0,0c-1.5-0.5-3.6-0.7-6.5-0.3c-0.6,0.1-1.2,0.1-1.6,0.3c2.9-2.9,5.6-5.2,9.9-5.6
			c6.9-0.7,9.3,2.4,9.7,2.9c0.5,0.5,1.4,1.9,2.6,1.7c1.2-0.1,2.9-1.5,2.9-2c0-0.3-0.2-0.7-0.6-0.9l0.2-1.2l-0.9,0.7
			c-1.2-0.9-2.6-1.6-2.7-3.3c-0.2-2,0.6-3.3,1.5-3.4c1-0.1,2.9,0.9,3.1,3c0.2,2-0.5,2.3-0.5,2.3l1.3-0.7c0,0,1.7,0.1,2.7-0.9
			c0.9-1,2-2.7,2.3-3.3C313.8,376.8,313.3,376.1,312.8,375.4"/>
		<g id="Calque_2_00000016788311388974167490000008527851611795581086_">
			<g>
				<g class="st1">
					<path class="st0" d="M384.7,456.6h-1.6c-0.1-0.5-0.3-0.9-0.5-1.2c-0.2-0.3-0.5-0.6-0.8-0.9s-0.7-0.4-1.1-0.5
						c-0.4-0.1-0.8-0.2-1.3-0.2c-0.8,0-1.5,0.2-2.2,0.6c-0.6,0.4-1.2,1-1.5,1.8c-0.4,0.8-0.6,1.7-0.6,2.9c0,1.1,0.2,2.1,0.6,2.9
						c0.4,0.8,0.9,1.4,1.5,1.8c0.6,0.4,1.4,0.6,2.2,0.6c0.4,0,0.9-0.1,1.3-0.2c0.4-0.1,0.8-0.3,1.1-0.5c0.3-0.2,0.6-0.5,0.8-0.9
						c0.2-0.3,0.4-0.8,0.5-1.2h1.6c-0.1,0.7-0.3,1.3-0.7,1.8c-0.3,0.5-0.7,1-1.2,1.4s-1,0.7-1.6,0.8s-1.2,0.3-1.9,0.3
						c-1.1,0-2.1-0.3-3-0.8c-0.9-0.5-1.6-1.3-2.1-2.3s-0.8-2.2-0.8-3.6c0-1.4,0.3-2.6,0.8-3.6s1.2-1.8,2.1-2.3
						c0.9-0.5,1.9-0.8,3-0.8c0.7,0,1.3,0.1,1.9,0.3s1.1,0.5,1.6,0.8s0.9,0.8,1.2,1.3C384.4,455.3,384.6,455.9,384.7,456.6z"/>
					<path class="st0" d="M388.9,452.4v13.1h-1.6v-13.1H388.9z"/>
					<path class="st0" d="M392,465.6v-13.1h4.4c1,0,1.9,0.2,2.5,0.5c0.7,0.3,1.1,0.8,1.5,1.4c0.3,0.6,0.5,1.3,0.5,2.1
						s-0.2,1.5-0.5,2.1c-0.3,0.6-0.8,1.1-1.5,1.4c-0.7,0.3-1.5,0.5-2.5,0.5h-3.6V459h3.5c0.7,0,1.3-0.1,1.7-0.3s0.7-0.5,0.9-0.9
						s0.3-0.8,0.3-1.4s-0.1-1-0.3-1.4s-0.5-0.7-0.9-0.9c-0.4-0.2-1-0.3-1.7-0.3h-2.8v11.7H392z M398.2,459.7l3.2,5.9h-1.8l-3.2-5.9
						H398.2z"/>
					<path class="st0" d="M414.2,456.6h-1.6c-0.1-0.5-0.3-0.9-0.5-1.2c-0.2-0.3-0.5-0.6-0.8-0.9s-0.7-0.4-1.1-0.5
						c-0.4-0.1-0.8-0.2-1.3-0.2c-0.8,0-1.5,0.2-2.2,0.6c-0.6,0.4-1.2,1-1.5,1.8c-0.4,0.8-0.6,1.7-0.6,2.9c0,1.1,0.2,2.1,0.6,2.9
						c0.4,0.8,0.9,1.4,1.5,1.8c0.6,0.4,1.4,0.6,2.2,0.6c0.4,0,0.9-0.1,1.3-0.2c0.4-0.1,0.8-0.3,1.1-0.5c0.3-0.2,0.6-0.5,0.8-0.9
						c0.2-0.3,0.4-0.8,0.5-1.2h1.6c-0.1,0.7-0.3,1.3-0.7,1.8c-0.3,0.5-0.7,1-1.2,1.4s-1,0.7-1.6,0.8s-1.2,0.3-1.9,0.3
						c-1.1,0-2.1-0.3-3-0.8c-0.9-0.5-1.6-1.3-2.1-2.3s-0.8-2.2-0.8-3.6c0-1.4,0.3-2.6,0.8-3.6s1.2-1.8,2.1-2.3
						c0.9-0.5,1.9-0.8,3-0.8c0.7,0,1.3,0.1,1.9,0.3s1.1,0.5,1.6,0.8s0.9,0.8,1.2,1.3C413.8,455.3,414,455.9,414.2,456.6z"/>
					<path class="st0" d="M425.4,452.4h1.6v8.7c0,0.9-0.2,1.7-0.6,2.4c-0.4,0.7-1,1.3-1.8,1.7c-0.8,0.4-1.7,0.6-2.7,0.6
						s-1.9-0.2-2.7-0.6c-0.8-0.4-1.4-1-1.8-1.7c-0.4-0.7-0.6-1.5-0.6-2.4v-8.7h1.6v8.6c0,0.6,0.1,1.2,0.4,1.7
						c0.3,0.5,0.7,0.9,1.2,1.2c0.5,0.3,1.2,0.4,1.9,0.4s1.4-0.1,1.9-0.4s0.9-0.7,1.2-1.2c0.3-0.5,0.4-1.1,0.4-1.7V452.4z"/>
					<path class="st0" d="M431.7,452.4v13.1h-1.6v-13.1H431.7z"/>
					<path class="st0" d="M434.2,453.9v-1.4h9.9v1.4h-4.1v11.7h-1.6v-11.7H434.2z"/>
					<path class="st0" d="M351.7,487.3H350l4.8-13.1h1.6l4.8,13.1h-1.7l-3.9-11.1h-0.1L351.7,487.3z M352.3,482.1h6.7v1.4h-6.7
						V482.1z"/>
					<path class="st0" d="M372,474.1h1.6v8.7c0,0.9-0.2,1.7-0.6,2.4c-0.4,0.7-1,1.3-1.8,1.7c-0.8,0.4-1.7,0.6-2.7,0.6
						s-1.9-0.2-2.7-0.6c-0.8-0.4-1.4-1-1.8-1.7c-0.4-0.7-0.6-1.5-0.6-2.4v-8.7h1.6v8.6c0,0.6,0.1,1.2,0.4,1.7
						c0.3,0.5,0.7,0.9,1.2,1.2c0.5,0.3,1.2,0.4,1.9,0.4s1.4-0.1,1.9-0.4s0.9-0.7,1.2-1.2c0.3-0.5,0.4-1.1,0.4-1.7V474.1z"/>
					<path class="st0" d="M376.1,475.5v-1.4h9.9v1.4h-4.1v11.7h-1.6v-11.7H376.1z"/>
					<path class="st0" d="M399.5,480.7c0,1.4-0.3,2.6-0.8,3.6s-1.2,1.8-2.1,2.3c-0.9,0.5-1.9,0.8-3,0.8s-2.1-0.3-3-0.8
						c-0.9-0.5-1.6-1.3-2.1-2.3s-0.8-2.2-0.8-3.6c0-1.4,0.3-2.6,0.8-3.6s1.2-1.8,2.1-2.3c0.9-0.5,1.9-0.8,3-0.8s2.1,0.3,3,0.8
						c0.9,0.5,1.6,1.3,2.1,2.3S399.5,479.3,399.5,480.7z M397.9,480.7c0-1.1-0.2-2.1-0.6-2.9c-0.4-0.8-0.9-1.4-1.5-1.8
						c-0.6-0.4-1.4-0.6-2.2-0.6s-1.5,0.2-2.2,0.6c-0.6,0.4-1.2,1-1.5,1.8c-0.4,0.8-0.6,1.7-0.6,2.9c0,1.1,0.2,2.1,0.6,2.9
						c0.4,0.8,0.9,1.4,1.5,1.8c0.6,0.4,1.4,0.6,2.2,0.6s1.5-0.2,2.2-0.6c0.6-0.4,1.2-1,1.5-1.8C397.7,482.8,397.9,481.8,397.9,480.7
						z"/>
					<path class="st0" d="M402.1,474.1h1.9l4.5,10.9h0.2l4.5-10.9h1.9v13.1h-1.5v-10h-0.1l-4.1,10h-1.4l-4.1-10h-0.1v10h-1.5V474.1z
						"/>
					<path class="st0" d="M429.3,480.7c0,1.4-0.3,2.6-0.8,3.6s-1.2,1.8-2.1,2.3c-0.9,0.5-1.9,0.8-3,0.8s-2.1-0.3-3-0.8
						c-0.9-0.5-1.6-1.3-2.1-2.3s-0.8-2.2-0.8-3.6c0-1.4,0.3-2.6,0.8-3.6s1.2-1.8,2.1-2.3c0.9-0.5,1.9-0.8,3-0.8s2.1,0.3,3,0.8
						c0.9,0.5,1.6,1.3,2.1,2.3S429.3,479.3,429.3,480.7z M427.8,480.7c0-1.1-0.2-2.1-0.6-2.9c-0.4-0.8-0.9-1.4-1.5-1.8
						c-0.6-0.4-1.4-0.6-2.2-0.6s-1.5,0.2-2.2,0.6c-0.6,0.4-1.2,1-1.5,1.8c-0.4,0.8-0.6,1.7-0.6,2.9c0,1.1,0.2,2.1,0.6,2.9
						c0.4,0.8,0.9,1.4,1.5,1.8c0.6,0.4,1.4,0.6,2.2,0.6s1.5-0.2,2.2-0.6c0.6-0.4,1.2-1,1.5-1.8C427.6,482.8,427.8,481.8,427.8,480.7
						z"/>
					<path class="st0" d="M432,487.3v-13.1h4.6c0.9,0,1.7,0.2,2.3,0.5s1,0.7,1.3,1.3s0.4,1.1,0.4,1.8c0,0.6-0.1,1-0.3,1.4
						c-0.2,0.4-0.5,0.7-0.8,0.9c-0.3,0.2-0.7,0.4-1,0.5v0.1c0.4,0,0.8,0.2,1.2,0.4s0.7,0.6,1,1.1c0.3,0.5,0.4,1.1,0.4,1.8
						c0,0.7-0.1,1.3-0.4,1.8s-0.8,0.9-1.4,1.3c-0.6,0.3-1.5,0.5-2.5,0.5H432z M433.6,479.9h3c0.5,0,0.9-0.1,1.3-0.3
						c0.4-0.2,0.7-0.5,0.9-0.8c0.2-0.3,0.3-0.7,0.3-1.2c0-0.6-0.2-1.1-0.6-1.5c-0.4-0.4-1-0.6-1.9-0.6h-3V479.9z M433.6,485.9h3.2
						c1,0,1.8-0.2,2.2-0.6s0.7-0.9,0.7-1.5c0-0.4-0.1-0.9-0.3-1.2c-0.2-0.4-0.5-0.7-1-0.9c-0.4-0.2-0.9-0.3-1.5-0.3h-3.2V485.9z"/>
					<path class="st0" d="M445.3,474.1v13.1h-1.6v-13.1H445.3z"/>
					<path class="st0" d="M448.5,487.3v-13.1h1.6v11.7h6.1v1.4H448.5z"/>
					<path class="st0" d="M458.7,487.3v-13.1h7.9v1.4h-6.3v4.4h5.9v1.4h-5.9v4.5h6.4v1.4H458.7z"/>
				</g>
			</g>
			<g>
				<g class="st1">
					<path class="st0" d="M531.9,465.6v-13.1h4.4c1,0,1.9,0.2,2.5,0.5c0.7,0.3,1.1,0.8,1.5,1.4c0.3,0.6,0.5,1.3,0.5,2.1
						s-0.2,1.5-0.5,2.1c-0.3,0.6-0.8,1.1-1.5,1.4c-0.7,0.3-1.5,0.5-2.5,0.5h-3.6V459h3.5c0.7,0,1.3-0.1,1.7-0.3s0.7-0.5,0.9-0.9
						s0.3-0.8,0.3-1.4s-0.1-1-0.3-1.4s-0.5-0.7-0.9-0.9c-0.4-0.2-1-0.3-1.7-0.3h-2.8v11.7H531.9z M538.1,459.7l3.2,5.9h-1.8
						l-3.2-5.9H538.1z"/>
					<path class="st0" d="M554.5,459c0,1.4-0.3,2.6-0.8,3.6s-1.2,1.8-2.1,2.3c-0.9,0.5-1.9,0.8-3,0.8s-2.1-0.3-3-0.8
						c-0.9-0.5-1.6-1.3-2.1-2.3s-0.8-2.2-0.8-3.6c0-1.4,0.3-2.6,0.8-3.6s1.2-1.8,2.1-2.3c0.9-0.5,1.9-0.8,3-0.8s2.1,0.3,3,0.8
						c0.9,0.5,1.6,1.3,2.1,2.3S554.5,457.6,554.5,459z M553,459c0-1.1-0.2-2.1-0.6-2.9c-0.4-0.8-0.9-1.4-1.5-1.8
						c-0.6-0.4-1.4-0.6-2.2-0.6s-1.5,0.2-2.2,0.6c-0.6,0.4-1.2,1-1.5,1.8c-0.4,0.8-0.6,1.7-0.6,2.9c0,1.1,0.2,2.1,0.6,2.9
						c0.4,0.8,0.9,1.4,1.5,1.8c0.6,0.4,1.4,0.6,2.2,0.6s1.5-0.2,2.2-0.6c0.6-0.4,1.2-1,1.5-1.8C552.8,461.1,553,460.2,553,459z"/>
					<path class="st0" d="M565.8,452.4h1.6v8.7c0,0.9-0.2,1.7-0.6,2.4c-0.4,0.7-1,1.3-1.8,1.7c-0.8,0.4-1.7,0.6-2.7,0.6
						s-1.9-0.2-2.7-0.6c-0.8-0.4-1.4-1-1.8-1.7c-0.4-0.7-0.6-1.5-0.6-2.4v-8.7h1.6v8.6c0,0.6,0.1,1.2,0.4,1.7
						c0.3,0.5,0.7,0.9,1.2,1.2c0.5,0.3,1.2,0.4,1.9,0.4s1.4-0.1,1.9-0.4s0.9-0.7,1.2-1.2c0.3-0.5,0.4-1.1,0.4-1.7V452.4z"/>
					<path class="st0" d="M569.9,453.9v-1.4h9.9v1.4h-4.1v11.7H574v-11.7H569.9z"/>
					<path class="st0" d="M582.2,465.6v-13.1h7.9v1.4h-6.3v4.4h5.9v1.4h-5.9v4.5h6.4v1.4H582.2z"/>
					<path class="st0" d="M524.7,477.4c-0.1-0.7-0.4-1.2-0.9-1.5c-0.5-0.4-1.2-0.5-2-0.5c-0.6,0-1.1,0.1-1.5,0.3
						c-0.4,0.2-0.8,0.4-1,0.8s-0.4,0.7-0.4,1.1c0,0.4,0.1,0.7,0.3,0.9c0.2,0.3,0.4,0.5,0.7,0.6c0.3,0.2,0.5,0.3,0.8,0.4
						s0.6,0.2,0.8,0.3l1.3,0.4c0.3,0.1,0.7,0.2,1.1,0.4s0.8,0.4,1.2,0.6c0.4,0.3,0.7,0.6,1,1s0.4,0.9,0.4,1.6c0,0.7-0.2,1.4-0.6,1.9
						s-0.9,1-1.6,1.4s-1.6,0.5-2.6,0.5c-0.9,0-1.8-0.2-2.4-0.5c-0.7-0.3-1.2-0.7-1.6-1.3c-0.4-0.5-0.6-1.2-0.7-1.9h1.6
						c0,0.5,0.2,0.9,0.5,1.2c0.3,0.3,0.7,0.6,1.1,0.7c0.5,0.2,0.9,0.2,1.5,0.2c0.6,0,1.2-0.1,1.6-0.3s0.9-0.5,1.1-0.8
						c0.3-0.4,0.4-0.8,0.4-1.3c0-0.4-0.1-0.8-0.4-1.1c-0.2-0.3-0.6-0.5-1-0.7c-0.4-0.2-0.8-0.3-1.3-0.4l-1.6-0.5
						c-1-0.3-1.8-0.7-2.4-1.3c-0.6-0.5-0.9-1.3-0.9-2.2c0-0.7,0.2-1.4,0.6-1.9s0.9-1,1.6-1.3s1.4-0.5,2.3-0.5c0.8,0,1.6,0.2,2.3,0.5
						s1.2,0.7,1.6,1.2c0.4,0.5,0.6,1.1,0.6,1.8H524.7z"/>
					<path class="st0" d="M530.6,474.1v13.1H529v-13.1H530.6z"/>
					<path class="st0" d="M544.2,474.1v13.1h-1.5l-7.2-10.3h-0.1v10.3h-1.6v-13.1h1.5l7.2,10.3h0.1v-10.3H544.2z"/>
					<path class="st0" d="M556,474.1h1.6v8.7c0,0.9-0.2,1.7-0.6,2.4c-0.4,0.7-1,1.3-1.8,1.7c-0.8,0.4-1.7,0.6-2.7,0.6
						s-1.9-0.2-2.7-0.6c-0.8-0.4-1.4-1-1.8-1.7c-0.4-0.7-0.6-1.5-0.6-2.4v-8.7h1.6v8.6c0,0.6,0.1,1.2,0.4,1.7
						c0.3,0.5,0.7,0.9,1.2,1.2c0.5,0.3,1.2,0.4,1.9,0.4s1.4-0.1,1.9-0.4s0.9-0.7,1.2-1.2c0.3-0.5,0.4-1.1,0.4-1.7V474.1z"/>
					<path class="st0" d="M560.8,487.3v-13.1h7.9v1.4h-6.3v4.4h5.9v1.4h-5.9v4.5h6.4v1.4H560.8z"/>
					<path class="st0" d="M580.2,474.1h1.6v8.7c0,0.9-0.2,1.7-0.6,2.4c-0.4,0.7-1,1.3-1.8,1.7c-0.8,0.4-1.7,0.6-2.7,0.6
						s-1.9-0.2-2.7-0.6c-0.8-0.4-1.4-1-1.8-1.7c-0.4-0.7-0.6-1.5-0.6-2.4v-8.7h1.6v8.6c0,0.6,0.1,1.2,0.4,1.7
						c0.3,0.5,0.7,0.9,1.2,1.2c0.5,0.3,1.2,0.4,1.9,0.4s1.4-0.1,1.9-0.4s0.9-0.7,1.2-1.2c0.3-0.5,0.4-1.1,0.4-1.7V474.1z"/>
					<path class="st0" d="M592.2,477.4c-0.1-0.7-0.4-1.2-0.9-1.5c-0.5-0.4-1.2-0.5-2-0.5c-0.6,0-1.1,0.1-1.5,0.3
						c-0.4,0.2-0.8,0.4-1,0.8s-0.4,0.7-0.4,1.1c0,0.4,0.1,0.7,0.3,0.9c0.2,0.3,0.4,0.5,0.7,0.6c0.3,0.2,0.5,0.3,0.8,0.4
						s0.6,0.2,0.8,0.3l1.3,0.4c0.3,0.1,0.7,0.2,1.1,0.4s0.8,0.4,1.2,0.6c0.4,0.3,0.7,0.6,1,1s0.4,0.9,0.4,1.6c0,0.7-0.2,1.4-0.6,1.9
						s-0.9,1-1.6,1.4s-1.6,0.5-2.6,0.5c-0.9,0-1.8-0.2-2.4-0.5c-0.7-0.3-1.2-0.7-1.6-1.3c-0.4-0.5-0.6-1.2-0.7-1.9h1.6
						c0,0.5,0.2,0.9,0.5,1.2c0.3,0.3,0.7,0.6,1.1,0.7c0.5,0.2,0.9,0.2,1.5,0.2c0.6,0,1.2-0.1,1.6-0.3s0.9-0.5,1.1-0.8
						c0.3-0.4,0.4-0.8,0.4-1.3c0-0.4-0.1-0.8-0.4-1.1c-0.2-0.3-0.6-0.5-1-0.7c-0.4-0.2-0.8-0.3-1.3-0.4l-1.6-0.5
						c-1-0.3-1.8-0.7-2.4-1.3c-0.6-0.5-0.9-1.3-0.9-2.2c0-0.7,0.2-1.4,0.6-1.9s0.9-1,1.6-1.3s1.4-0.5,2.3-0.5c0.8,0,1.6,0.2,2.3,0.5
						s1.2,0.7,1.6,1.2c0.4,0.5,0.6,1.1,0.6,1.8H592.2z"/>
					<path class="st0" d="M596.5,487.3v-13.1h7.9v1.4h-6.3v4.4h5.9v1.4h-5.9v4.5h6.4v1.4H596.5z"/>
				</g>
			</g>
			<g>
				<g class="st1">
					<path class="st0" d="M209.4,452.4h1.6v9.4c0,0.8-0.2,1.6-0.5,2.1c-0.3,0.6-0.7,1-1.3,1.3s-1.2,0.5-2,0.5
						c-0.7,0-1.4-0.1-1.9-0.4c-0.6-0.3-1-0.6-1.3-1.1c-0.3-0.5-0.5-1.1-0.5-1.7h1.6c0,0.4,0.1,0.7,0.3,1c0.2,0.3,0.4,0.5,0.8,0.6
						c0.3,0.2,0.7,0.2,1.1,0.2c0.5,0,0.8-0.1,1.2-0.3c0.3-0.2,0.6-0.5,0.7-0.8c0.2-0.4,0.3-0.8,0.3-1.4V452.4z"/>
					<path class="st0" d="M214.7,465.6H213l4.8-13.1h1.6l4.8,13.1h-1.7l-3.9-11.1h-0.1L214.7,465.6z M215.3,460.5h6.7v1.4h-6.7
						V460.5z"/>
					<path class="st0" d="M235.3,456.6c-0.1-0.4-0.3-0.8-0.6-1.2c-0.2-0.3-0.5-0.6-0.8-0.9c-0.3-0.2-0.7-0.4-1.1-0.6
						c-0.4-0.1-0.8-0.2-1.3-0.2c-0.8,0-1.5,0.2-2.1,0.6c-0.6,0.4-1.1,1-1.5,1.8c-0.4,0.8-0.6,1.7-0.6,2.9c0,1.1,0.2,2.1,0.6,2.9
						s0.9,1.4,1.5,1.8c0.7,0.4,1.4,0.6,2.2,0.6c0.8,0,1.4-0.2,2-0.5c0.6-0.3,1-0.8,1.3-1.4c0.3-0.6,0.5-1.3,0.5-2.1l0.5,0.1h-4V459
						h5v1.4c0,1.1-0.2,2-0.7,2.8s-1.1,1.4-1.9,1.9c-0.8,0.4-1.7,0.7-2.8,0.7c-1.2,0-2.2-0.3-3.1-0.8s-1.6-1.3-2.1-2.3
						s-0.7-2.2-0.7-3.6c0-1,0.1-2,0.4-2.8s0.7-1.5,1.2-2.1c0.5-0.6,1.1-1,1.8-1.3s1.5-0.5,2.3-0.5c0.7,0,1.3,0.1,1.9,0.3
						c0.6,0.2,1.1,0.5,1.6,0.9c0.5,0.4,0.9,0.8,1.2,1.4c0.3,0.5,0.5,1.1,0.7,1.7H235.3z"/>
					<path class="st0" d="M248.4,452.4h1.6v8.7c0,0.9-0.2,1.7-0.6,2.4c-0.4,0.7-1,1.3-1.8,1.7c-0.8,0.4-1.7,0.6-2.7,0.6
						s-1.9-0.2-2.7-0.6c-0.8-0.4-1.4-1-1.8-1.7c-0.4-0.7-0.6-1.5-0.6-2.4v-8.7h1.6v8.6c0,0.6,0.1,1.2,0.4,1.7
						c0.3,0.5,0.7,0.9,1.2,1.2c0.5,0.3,1.2,0.4,1.9,0.4s1.4-0.1,1.9-0.4s0.9-0.7,1.2-1.2c0.3-0.5,0.4-1.1,0.4-1.7V452.4z"/>
					<path class="st0" d="M253.7,465.6H252l4.8-13.1h1.6l4.8,13.1h-1.7l-3.9-11.1h-0.1L253.7,465.6z M254.3,460.5h6.7v1.4h-6.7
						V460.5z"/>
					<path class="st0" d="M265.4,465.6v-13.1h4.4c1,0,1.9,0.2,2.5,0.5c0.7,0.3,1.1,0.8,1.5,1.4c0.3,0.6,0.5,1.3,0.5,2.1
						s-0.2,1.5-0.5,2.1c-0.3,0.6-0.8,1.1-1.5,1.4c-0.7,0.3-1.5,0.5-2.5,0.5h-3.6V459h3.5c0.7,0,1.3-0.1,1.7-0.3s0.7-0.5,0.9-0.9
						s0.3-0.8,0.3-1.4s-0.1-1-0.3-1.4s-0.5-0.7-0.9-0.9c-0.4-0.2-1-0.3-1.7-0.3H267v11.7H265.4z M271.6,459.7l3.2,5.9H273l-3.2-5.9
						H271.6z"/>
					<path class="st0" d="M181.9,487.3v-13.1h4.6c0.9,0,1.7,0.2,2.3,0.5s1,0.7,1.3,1.3s0.4,1.1,0.4,1.8c0,0.6-0.1,1-0.3,1.4
						c-0.2,0.4-0.5,0.7-0.8,0.9c-0.3,0.2-0.7,0.4-1,0.5v0.1c0.4,0,0.8,0.2,1.2,0.4s0.7,0.6,1,1.1c0.3,0.5,0.4,1.1,0.4,1.8
						c0,0.7-0.1,1.3-0.4,1.8s-0.8,0.9-1.4,1.3c-0.6,0.3-1.5,0.5-2.5,0.5H181.9z M183.5,479.9h3c0.5,0,0.9-0.1,1.3-0.3
						c0.4-0.2,0.7-0.5,0.9-0.8c0.2-0.3,0.3-0.7,0.3-1.2c0-0.6-0.2-1.1-0.6-1.5c-0.4-0.4-1-0.6-1.9-0.6h-3V479.9z M183.5,485.9h3.2
						c1,0,1.8-0.2,2.2-0.6s0.7-0.9,0.7-1.5c0-0.4-0.1-0.9-0.3-1.2c-0.2-0.4-0.5-0.7-1-0.9c-0.4-0.2-0.9-0.3-1.5-0.3h-3.2V485.9z"/>
					<path class="st0" d="M204.8,480.7c0,1.4-0.3,2.6-0.8,3.6s-1.2,1.8-2.1,2.3c-0.9,0.5-1.9,0.8-3,0.8s-2.1-0.3-3-0.8
						c-0.9-0.5-1.6-1.3-2.1-2.3s-0.8-2.2-0.8-3.6c0-1.4,0.3-2.6,0.8-3.6s1.2-1.8,2.1-2.3c0.9-0.5,1.9-0.8,3-0.8s2.1,0.3,3,0.8
						c0.9,0.5,1.6,1.3,2.1,2.3S204.8,479.3,204.8,480.7z M203.3,480.7c0-1.1-0.2-2.1-0.6-2.9c-0.4-0.8-0.9-1.4-1.5-1.8
						c-0.6-0.4-1.4-0.6-2.2-0.6s-1.5,0.2-2.2,0.6c-0.6,0.4-1.2,1-1.5,1.8c-0.4,0.8-0.6,1.7-0.6,2.9c0,1.1,0.2,2.1,0.6,2.9
						c0.4,0.8,0.9,1.4,1.5,1.8c0.6,0.4,1.4,0.6,2.2,0.6s1.5-0.2,2.2-0.6c0.6-0.4,1.2-1,1.5-1.8C203.1,482.8,203.3,481.8,203.3,480.7
						z"/>
					<path class="st0" d="M217.9,474.1v13.1h-1.5l-7.2-10.3h-0.1v10.3h-1.6v-13.1h1.5l7.2,10.3h0.1v-10.3H217.9z"/>
					<path class="st0" d="M225.1,487.3h-4.1v-13.1h4.2c1.3,0,2.4,0.3,3.3,0.8c0.9,0.5,1.6,1.3,2.1,2.3s0.7,2.1,0.7,3.5
						c0,1.4-0.2,2.5-0.7,3.5s-1.2,1.7-2.1,2.3C227.6,487,226.5,487.3,225.1,487.3z M222.7,485.9h2.4c1.1,0,2-0.2,2.7-0.6
						c0.7-0.4,1.2-1,1.6-1.8c0.4-0.8,0.5-1.7,0.5-2.8c0-1.1-0.2-2-0.5-2.7c-0.3-0.8-0.9-1.4-1.6-1.8c-0.7-0.4-1.5-0.6-2.6-0.6h-2.5
						V485.9z"/>
					<path class="st0" d="M235.7,474.1v13.1h-1.6v-13.1H235.7z"/>
					<path class="st0" d="M246,477.4c-0.1-0.7-0.4-1.2-0.9-1.5c-0.5-0.4-1.2-0.5-2-0.5c-0.6,0-1.1,0.1-1.5,0.3
						c-0.4,0.2-0.8,0.4-1,0.8s-0.4,0.7-0.4,1.1c0,0.4,0.1,0.7,0.3,0.9c0.2,0.3,0.4,0.5,0.7,0.6c0.3,0.2,0.5,0.3,0.8,0.4
						s0.6,0.2,0.8,0.3l1.3,0.4c0.3,0.1,0.7,0.2,1.1,0.4s0.8,0.4,1.2,0.6c0.4,0.3,0.7,0.6,1,1s0.4,0.9,0.4,1.6c0,0.7-0.2,1.4-0.6,1.9
						s-0.9,1-1.6,1.4s-1.6,0.5-2.6,0.5c-0.9,0-1.8-0.2-2.4-0.5c-0.7-0.3-1.2-0.7-1.6-1.3c-0.4-0.5-0.6-1.2-0.7-1.9h1.6
						c0,0.5,0.2,0.9,0.5,1.2c0.3,0.3,0.7,0.6,1.1,0.7c0.5,0.2,0.9,0.2,1.5,0.2c0.6,0,1.2-0.1,1.6-0.3s0.9-0.5,1.1-0.8
						c0.3-0.4,0.4-0.8,0.4-1.3c0-0.4-0.1-0.8-0.4-1.1c-0.2-0.3-0.6-0.5-1-0.7c-0.4-0.2-0.8-0.3-1.3-0.4L242,481
						c-1-0.3-1.8-0.7-2.4-1.3c-0.6-0.5-0.9-1.3-0.9-2.2c0-0.7,0.2-1.4,0.6-1.9s0.9-1,1.6-1.3s1.4-0.5,2.3-0.5c0.8,0,1.6,0.2,2.3,0.5
						s1.2,0.7,1.6,1.2c0.4,0.5,0.6,1.1,0.6,1.8H246z"/>
					<path class="st0" d="M257.5,477.4c-0.1-0.7-0.4-1.2-0.9-1.5c-0.5-0.4-1.2-0.5-2-0.5c-0.6,0-1.1,0.1-1.5,0.3
						c-0.4,0.2-0.8,0.4-1,0.8s-0.4,0.7-0.4,1.1c0,0.4,0.1,0.7,0.3,0.9c0.2,0.3,0.4,0.5,0.7,0.6c0.3,0.2,0.5,0.3,0.8,0.4
						s0.6,0.2,0.8,0.3l1.3,0.4c0.3,0.1,0.7,0.2,1.1,0.4s0.8,0.4,1.2,0.6c0.4,0.3,0.7,0.6,1,1s0.4,0.9,0.4,1.6c0,0.7-0.2,1.4-0.6,1.9
						s-0.9,1-1.6,1.4s-1.6,0.5-2.6,0.5c-0.9,0-1.8-0.2-2.4-0.5c-0.7-0.3-1.2-0.7-1.6-1.3c-0.4-0.5-0.6-1.2-0.7-1.9h1.6
						c0,0.5,0.2,0.9,0.5,1.2c0.3,0.3,0.7,0.6,1.1,0.7c0.5,0.2,0.9,0.2,1.5,0.2c0.6,0,1.2-0.1,1.6-0.3s0.9-0.5,1.1-0.8
						c0.3-0.4,0.4-0.8,0.4-1.3c0-0.4-0.1-0.8-0.4-1.1c-0.2-0.3-0.6-0.5-1-0.7c-0.4-0.2-0.8-0.3-1.3-0.4l-1.6-0.5
						c-1-0.3-1.8-0.7-2.4-1.3c-0.6-0.5-0.9-1.3-0.9-2.2c0-0.7,0.2-1.4,0.6-1.9s0.9-1,1.6-1.3s1.4-0.5,2.3-0.5c0.8,0,1.6,0.2,2.3,0.5
						s1.2,0.7,1.6,1.2c0.4,0.5,0.6,1.1,0.6,1.8H257.5z"/>
					<path class="st0" d="M262.4,487.3h-1.7l4.8-13.1h1.6l4.8,13.1h-1.7l-3.9-11.1h-0.1L262.4,487.3z M263,482.1h6.7v1.4H263V482.1z
						"/>
					<path class="st0" d="M284.5,474.1v13.1H283l-7.2-10.3h-0.1v10.3h-1.6v-13.1h1.5l7.2,10.3h0.1v-10.3H284.5z"/>
					<path class="st0" d="M287,475.5v-1.4h9.9v1.4h-4.1v11.7h-1.6v-11.7H287z"/>
				</g>
			</g>
			<g>
				<g class="st1">
					<path class="st0" d="M696.5,457.3h-1.6c-0.1-0.5-0.3-0.9-0.5-1.2c-0.2-0.3-0.5-0.6-0.8-0.9c-0.3-0.2-0.7-0.4-1.1-0.5
						c-0.4-0.1-0.8-0.2-1.3-0.2c-0.8,0-1.5,0.2-2.2,0.6c-0.6,0.4-1.2,1-1.5,1.8c-0.4,0.8-0.6,1.7-0.6,2.9c0,1.1,0.2,2.1,0.6,2.9
						s0.9,1.4,1.5,1.8c0.6,0.4,1.4,0.6,2.2,0.6c0.4,0,0.9-0.1,1.3-0.2c0.4-0.1,0.8-0.3,1.1-0.5c0.3-0.2,0.6-0.5,0.8-0.9
						c0.2-0.3,0.4-0.8,0.5-1.2h1.6c-0.1,0.7-0.3,1.3-0.7,1.8s-0.7,1-1.2,1.4s-1,0.7-1.6,0.8s-1.2,0.3-1.9,0.3c-1.1,0-2.1-0.3-3-0.8
						c-0.9-0.5-1.6-1.3-2.1-2.3s-0.8-2.2-0.8-3.6c0-1.4,0.2-2.6,0.8-3.6s1.2-1.8,2.1-2.3c0.9-0.5,1.9-0.8,3-0.8
						c0.7,0,1.3,0.1,1.9,0.3s1.1,0.5,1.6,0.8s0.9,0.8,1.2,1.3S696.3,456.6,696.5,457.3z"/>
					<path class="st0" d="M699.6,466.3h-1.7l4.8-13.1h1.6l4.8,13.1h-1.7l-3.9-11.1h-0.1L699.6,466.3z M700.2,461.2h6.7v1.4h-6.7
						V461.2z M702.2,452h-1.4v-0.1l2.1-2.7h1.4l2.1,2.7v0.1h-1.4l-1.3-1.8L702.2,452z"/>
					<path class="st0" d="M711.3,466.3v-13.1h4.6c0.9,0,1.7,0.2,2.3,0.5s1,0.7,1.3,1.3s0.4,1.1,0.4,1.8c0,0.6-0.1,1-0.3,1.4
						c-0.2,0.4-0.5,0.7-0.8,0.9c-0.3,0.2-0.7,0.4-1,0.5v0.1c0.4,0,0.8,0.2,1.2,0.4c0.4,0.3,0.7,0.6,1,1.1c0.3,0.5,0.4,1.1,0.4,1.8
						c0,0.7-0.1,1.3-0.4,1.8s-0.8,0.9-1.4,1.3c-0.6,0.3-1.5,0.5-2.5,0.5H711.3z M712.8,459h3c0.5,0,0.9-0.1,1.3-0.3
						c0.4-0.2,0.7-0.5,0.9-0.8c0.2-0.3,0.3-0.7,0.3-1.2c0-0.6-0.2-1.1-0.6-1.5c-0.4-0.4-1-0.6-1.9-0.6h-3V459z M712.8,464.9h3.2
						c1,0,1.8-0.2,2.2-0.6c0.4-0.4,0.7-0.9,0.7-1.5c0-0.4-0.1-0.9-0.3-1.2s-0.5-0.7-1-0.9c-0.4-0.2-0.9-0.3-1.5-0.3h-3.2V464.9z"/>
					<path class="st0" d="M723,466.3v-13.1h1.6v11.7h6.1v1.4H723z"/>
					<path class="st0" d="M733.2,466.3v-13.1h7.9v1.4h-6.3v4.4h5.9v1.4h-5.9v4.5h6.4v1.4H733.2z"/>
					<path class="st0" d="M659.5,488v-13.1h7.9v1.4h-6.3v4.4h5.9v1.4h-5.9v4.5h6.4v1.4H659.5z M662.8,473.5l1.6-3h1.8l-2,3H662.8z"
						/>
					<path class="st0" d="M670.3,488v-13.1h1.6v11.7h6.1v1.4H670.3z"/>
					<path class="st0" d="M680.5,488v-13.1h7.9v1.4h-6.3v4.4h5.9v1.4h-5.9v4.5h6.4v1.4H680.5z"/>
					<path class="st0" d="M701.9,479h-1.6c-0.1-0.5-0.3-0.9-0.5-1.2c-0.2-0.3-0.5-0.6-0.8-0.9c-0.3-0.2-0.7-0.4-1.1-0.5
						c-0.4-0.1-0.8-0.2-1.3-0.2c-0.8,0-1.5,0.2-2.2,0.6c-0.6,0.4-1.2,1-1.5,1.8c-0.4,0.8-0.6,1.7-0.6,2.9c0,1.1,0.2,2.1,0.6,2.9
						s0.9,1.4,1.5,1.8c0.6,0.4,1.4,0.6,2.2,0.6c0.4,0,0.9-0.1,1.3-0.2c0.4-0.1,0.8-0.3,1.1-0.5c0.3-0.2,0.6-0.5,0.8-0.9
						c0.2-0.3,0.4-0.8,0.5-1.2h1.6c-0.1,0.7-0.3,1.3-0.7,1.8s-0.7,1-1.2,1.4s-1,0.7-1.6,0.8s-1.2,0.3-1.9,0.3c-1.1,0-2.1-0.3-3-0.8
						c-0.9-0.5-1.6-1.3-2.1-2.3s-0.8-2.2-0.8-3.6c0-1.4,0.2-2.6,0.8-3.6s1.2-1.8,2.1-2.3c0.9-0.5,1.9-0.8,3-0.8
						c0.7,0,1.3,0.1,1.9,0.3s1.1,0.5,1.6,0.8s0.9,0.8,1.2,1.3S701.8,478.3,701.9,479z"/>
					<path class="st0" d="M703.7,476.3v-1.4h9.9v1.4h-4.1V488h-1.6v-11.7H703.7z"/>
					<path class="st0" d="M716.1,488v-13.1h4.4c1,0,1.9,0.2,2.5,0.5c0.7,0.3,1.1,0.8,1.5,1.4c0.3,0.6,0.5,1.3,0.5,2.1
						s-0.2,1.5-0.5,2.1c-0.3,0.6-0.8,1.1-1.5,1.4c-0.7,0.3-1.5,0.5-2.5,0.5h-3.6v-1.4h3.5c0.7,0,1.3-0.1,1.7-0.3
						c0.4-0.2,0.7-0.5,0.9-0.9s0.3-0.8,0.3-1.4s-0.1-1-0.3-1.4c-0.2-0.4-0.5-0.7-0.9-0.9c-0.4-0.2-1-0.3-1.7-0.3h-2.8V488H716.1z
						 M722.2,482.1l3.2,5.9h-1.8l-3.2-5.9H722.2z"/>
					<path class="st0" d="M729.2,474.9V488h-1.6v-13.1H729.2z"/>
					<path class="st0" d="M743.5,481.4c0,1.4-0.2,2.6-0.8,3.6s-1.2,1.8-2.1,2.3c-0.9,0.5-1.9,0.8-3,0.8s-2.1-0.3-3-0.8
						c-0.9-0.5-1.6-1.3-2.1-2.3s-0.8-2.2-0.8-3.6c0-1.4,0.2-2.6,0.8-3.6s1.2-1.8,2.1-2.3c0.9-0.5,1.9-0.8,3-0.8s2.1,0.3,3,0.8
						c0.9,0.5,1.6,1.3,2.1,2.3S743.5,480.1,743.5,481.4z M741.9,481.4c0-1.1-0.2-2.1-0.6-2.9c-0.4-0.8-0.9-1.4-1.5-1.8
						c-0.6-0.4-1.4-0.6-2.2-0.6s-1.5,0.2-2.2,0.6c-0.6,0.4-1.2,1-1.5,1.8c-0.4,0.8-0.6,1.7-0.6,2.9c0,1.1,0.2,2.1,0.6,2.9
						s0.9,1.4,1.5,1.8c0.6,0.4,1.4,0.6,2.2,0.6s1.5-0.2,2.2-0.6c0.6-0.4,1.2-1,1.5-1.8S741.9,482.6,741.9,481.4z M737.2,483.9h1.7
						l1.5,1.9l0.4,0.5l2.2,2.9h-1.7l-1.4-1.9l-0.4-0.5L737.2,483.9z"/>
					<path class="st0" d="M754.8,474.9h1.6v8.7c0,0.9-0.2,1.7-0.6,2.4c-0.4,0.7-1,1.3-1.8,1.7s-1.7,0.6-2.7,0.6s-1.9-0.2-2.7-0.6
						s-1.4-1-1.8-1.7c-0.4-0.7-0.6-1.5-0.6-2.4v-8.7h1.6v8.6c0,0.6,0.1,1.2,0.4,1.7c0.3,0.5,0.7,0.9,1.2,1.2s1.2,0.4,1.9,0.4
						s1.4-0.1,1.9-0.4s0.9-0.7,1.2-1.2c0.3-0.5,0.4-1.1,0.4-1.7V474.9z"/>
					<path class="st0" d="M759.5,488v-13.1h7.9v1.4h-6.3v4.4h5.9v1.4h-5.9v4.5h6.4v1.4H759.5z"/>
				</g>
			</g>
		</g>
	</g>
</g>
<g id="Calque_3">
</g>
</svg>
