<svg xmlns="http://www.w3.org/2000/svg" width="394.3" height="182.5" viewBox="0 0 394.3 182.5">
  <g>
    <path  d="M160.3,142.5H147.6A22.534,22.534,0,0,1,125.1,120V96.6A62.544,62.544,0,0,0,62.5,34.1a61.017,61.017,0,0,0-22.4,4.2V0H0V146.1H40V96.5a22.5,22.5,0,1,1,45,.1V120a62.523,62.523,0,0,0,62.5,62.5h52.7V46.6h-40v95.9Z"/>
    <polygon points="231.9 65.2 272.2 65.2 272.2 76.6 280.1 76.6 280.1 47.2 272.2 47.2 272.2 58.6 231.9 58.6 231.9 47.2 224.1 47.2 224.1 76.6 231.9 76.6 231.9 65.2"/>
    <path d="M302.3,77.6c8.8,0,15.5-5.9,15.5-15.6V47.2H310V62c0,5.7-3,9.1-7.7,9.1-4.8,0-7.5-3.4-7.5-9.1V47.2h-7.6V62C287.2,71.7,293.3,77.6,302.3,77.6Z"/>
    <path d="M339,65.2h9.9v2.9a12.7,12.7,0,0,1-8,2.5c-5.7,0-9.8-4-9.8-8.7,0-4.9,4-8.5,9.7-8.5,3.7,0,6.3,1,7.9,2.9l6.8-3.1a18.844,18.844,0,0,0-14.6-6.5c-10.2,0-17.7,7.1-17.7,15.2,0,7.9,6.9,15.2,17.7,15.2a19.609,19.609,0,0,0,14.9-6.5V59.7H339Z"/>
    <path d="M377.5,46.6c-9.3,0-16.8,6.9-16.8,15.2,0,8.4,7.5,15.2,16.8,15.2,9.2,0,16.8-6.8,16.8-15.2C394.3,53.5,386.7,46.6,377.5,46.6Zm0,23.9c-5.3,0-9.6-3.9-9.6-8.7s4.3-8.6,9.6-8.6c5.2,0,9.5,3.9,9.5,8.6,0,4.9-4.3,8.7-9.5,8.7Z"/>
    <polygon points="251.7 83.4 241.8 103.3 231.8 83.4 223.3 83.4 237.5 111.3 246 111.3 260.3 83.4 251.7 83.4"/>
    <path d="M275.6,82.9c-9.2,0-16.6,6.5-16.6,14.5s7.4,14.5,16.6,14.5c9.1,0,16.6-6.5,16.6-14.5S284.7,82.9,275.6,82.9Zm0,22.7c-5.2,0-9.5-3.7-9.5-8.2s4.3-8.2,9.5-8.2,9.4,3.7,9.4,8.2S280.7,105.6,275.6,105.6Z"/>
    <rect x="297.3" y="83.4" width="7.8" height="28"/>
    <path d="M325.8,94.3c-4.5-1-6.7-1.6-6.7-2.9,0-1.6,2.8-2.5,5.2-2.5,3.3,0,5.2,1.9,5.2,3.3h7.7c0-4.4-4.4-9.3-12.8-9.3-7.3,0-13.1,3.8-13.1,8.9,0,6.2,8.5,7.8,13.3,8.8,3,.6,5.7,1.2,5.7,3,0,1.2-1.3,2.5-4.7,2.5-6.4,0-7-4.4-7-4.4h-7.7c0,4.4,4.2,10.3,14.3,10.3,7.5,0,12.9-3.3,12.9-8.7C337.9,97,330.8,95.5,325.8,94.3Z"/>
    <rect x="343.6" y="83.4" width="7.8" height="28"/>
    <polygon points="382.2 100.4 365.9 83.4 358.1 83.4 358.1 111.3 365.9 111.3 365.9 94.2 382.2 111.3 390 111.3 390 83.4 382.2 83.4 382.2 100.4"/>
  </g>
</svg>
